<svg xmlns="http://www.w3.org/2000/svg" xmlns:xlink="http://www.w3.org/1999/xlink" viewBox="0 0 227 315">
    <symbol id="diamonds" viewBox="-8.447 -11.626 16.895 23.251">
        <path fill="#D40000" d="M0 11.625S4.224 4.051 8.447 0C4.224-4.454 0-11.626 0-11.626S-4.224-4.454-8.447 0C-4.224 4.051 0 11.625 0 11.625z"/>
    </symbol>
    <symbol id="diamonds-medium" viewBox="-16.914 -23.279 33.828 46.555">
        <use xlink:href="#diamonds" width="16.895" height="23.251" x="-8.447" y="-11.626" transform="scale(2.0023)" overflow="visible"/>
    </symbol>
    <use xlink:href="#diamonds" width="16.895" height="23.251" x="-8.447" y="-11.626" transform="matrix(1 0 0 -1 18 62)" overflow="visible"/>
    <use xlink:href="#diamonds" width="16.895" height="23.251" x="-8.447" y="-11.626" transform="matrix(1 0 0 -1 206 253)" overflow="visible"/>
    <use xlink:href="#diamonds-medium" width="33.828" height="46.555" x="-16.914" y="-23.279" transform="matrix(1 0 0 -1 112 158)" overflow="visible"/>
    <path fill="none" d="M1 15.228h33.411v39.516H1z"/>
    <text transform="translate(5.673 46.731)" fill="#D40000" font-family="'ArialNarrow'" font-size="44">
        A
    </text>
    <path fill="none" d="M189.002 264.747h33.411v39.516h-33.411z"/>
    <text transform="rotate(180 108.868 136.38)" fill="#D40000" font-family="'ArialNarrow'" font-size="44">
        A
    </text>
</svg>
