<svg xmlns="http://www.w3.org/2000/svg" xmlns:xlink="http://www.w3.org/1999/xlink" viewBox="0 0 227 315">
    <symbol id="clubs_4_" viewBox="-11.089 -11.846 22.179 23.691">
        <path d="M.076-11.846h-2.951S-.856-7.584-.856-3.989c0 .711-.403.53-.46.004-.217-1.981-1.856-4.288-4.857-4.168-3.653.145-4.915 2.93-4.915 5.221 0 1.702.89 5.168 4.671 5.309 1.202.045 2.285-.327 2.925-.875.473-.405.691-.164.19.405-.35.398-1.975 1.813-1.903 4.629C-5.07 11.844 0 11.846 0 11.846s5.071-.001 5.207-5.309c.072-2.816-1.553-4.231-1.903-4.629-.5-.569-.283-.81.19-.405.64.548 1.723.919 2.925.875 3.78-.141 4.67-3.607 4.67-5.309 0-2.291-1.262-5.076-4.915-5.221-3-.119-4.641 2.188-4.857 4.168-.057.526-.461.707-.461-.005 0-3.595 2.019-7.857 2.019-7.857h-2.95"/>
    </symbol>
    <symbol id="clubs-medium" viewBox="-22.204 -23.719 44.409 47.437">
        <use xlink:href="#clubs_4_" width="22.179" height="23.691" x="-11.089" y="-11.846" transform="scale(2.0023)" overflow="visible"/>
    </symbol>
    <symbol id="face-frame" viewBox="-80.771 -129.759 161.544 259.519">
        <path fill="none" stroke="#131F67" stroke-width="3" stroke-miterlimit="10" d="M79.272-128.259H-79.271V128.26H79.272z"/>
    </symbol>
    <symbol id="gold-star" viewBox="-3.202 -3.202 6.403 6.403">
        <path fill="#E2CF00" d="M-2.805 1.974l1.577-.11.776 1.338.973-1.209 1.352.563L1.82.898 3.201.424 2.254-.712l.48-1.213-1.447.107-.881-1.384-.96 1.158-1.282-.494-.222 1.495-1.144.692.978.886z"/>
    </symbol>
    <symbol id="jack-spades" viewBox="-74.459 -104.208 148.917 208.418">
        <path d="M72.958-103.708L60.451-91.702l-.25 168.228 12.746-.614z"/>
        <path fill="none" stroke="#E2CF00" stroke-width="3" stroke-linecap="square" stroke-miterlimit="10" d="M62.493 27.752l8.191 7.083m-8.191-11.667l8.191 7.459m-8.072-29.5l8.072 7.417M62.612-3.415l8.072 7.333m-7.913-28.167l7.913 7.542m-7.913-12.084l7.913 7.5m-7.576-29.166l7.537 6.791m-7.537-11.459l7.537 6.958M63.108-77.5l7.915 7.083m-7.915-11.541l7.915 7.25m-8.53 124.5l8.098 7.291m-8.098-2.208l8.098 7.167"/>
        <path d="M34.985 7.521c3.091 1.688 14.091 7.801 17.903 10.039-3.75 4.024-4.625 10.192-1.688 15.445-4.014 1.749-11.189 5.306-15.602 7.492-1.834-12.745-1.647-17.329-.613-32.976z"/>
        <path fill="#D40000" d="M45.573 13.402s5.464-18.817 13.019-28.453c.036-9.321-.002-28.737-.078-39.947C46.442-36.955 36.896-13.62 34.918 8.544c2.598 1.098 10.655 4.858 10.655 4.858z"/>
        <path stroke="#000" stroke-linecap="round" stroke-miterlimit="10" d="M-30.632 49.374V3.017S-8.504-5.529.451-22.791c7.783-15.003 34.062-17.75 34.062-17.75S14.451-3.415 20.903 38.214c-8.242-5.517-14.951-9.921-14.951-9.921l-15.604 11.92-20.98 9.161z"/>
        <path fill="none" stroke="#E2CF00" stroke-width="2" stroke-linecap="square" stroke-miterlimit="10" d="M15.756-35.914l12.361 8.202M6.31-29.789l18.637 12.001"/>
        <path fill="none" stroke="#E2CF00" stroke-width="2" stroke-linecap="round" stroke-miterlimit="10" d="M-25.549 43.709s3.24.65 4 0c.815-.698-.124-3.515.665-4.243 1.06-.977 4.659.517 5.75-.425.938-.81.146-4.023 1.083-4.833 1.13-.979 4.818.506 5.959-.458 1.007-.851.256-4.258 1.25-5.125 1.216-1.061 5.266.463 6.418-.666.907-.889-.562-4.59.625-5.042 2.66-1.012 9.501-.875 12.125-.292 1.272.283-.038 4.285.958 5.125 1.035.874 4.324-.717 5.417.083.797.584 1.25 3.75 1.25 3.75"/>
        <path fill="none" stroke="#E2CF00" stroke-width="3" stroke-linecap="square" stroke-miterlimit="10" d="M20.903 36.786L5.865 26.667-9.973 39.466"/>
        <path fill="none" stroke="#E2CF00" stroke-width="3" stroke-linecap="square" stroke-miterlimit="10" d="M19.451 22.833l-13.25-9.125-31.676 24.506"/>
        <path fill="none" stroke="#E2CF00" stroke-width="3" stroke-linecap="round" stroke-miterlimit="10" d="M34.889 12.75l3.479 5.21-4.088 3 3.921 4.667-4.094 5.17 4.261 2.705-2.278 4.083"/>
        <path fill="#FFF" stroke="#131F67" stroke-linecap="round" stroke-miterlimit="10" d="M58.514-52.998c-26.107 35.21-26.107 71.037-22.811 94.235l-9.037 3.438-5.763-6.462c-3.49-30.801 4.979-80.941 38.048-112.922"/>
        <path fill="none" stroke="#131F67" stroke-linecap="round" stroke-miterlimit="10" d="M21.535 38.709l5.131-7.415-6.043-5.333-.393-3.336 5.888-5.75-5.589-6.454.2-2.489 6.388-4.014-4.861-6.285.16-2.099L29.7-9.831l-4.392-7.23.655-2.731 7.487-3.5-3.332-7.213 1.27-2.898 7.728-3.223-2.383-8.243 1.585-2.829 7.799-2.178-1.666-7.75 1.666-2.333 8.686-.75-1.185-8.917 1.762-2 3.904.417"/>
        <path fill="none" stroke="#131F67" stroke-linecap="round" stroke-miterlimit="10" d="M35.438 40.213l-.41-4.631-5.134-4.269 4.057-6.146v-2.958l-4.392-5.333 4.548-5.106.496-2.629-3.987-5.223L35.353.252l.885-2.979-3.34-5.814 5.47-3.417 1.165-3.858-2.916-6.392 5.666-2.833 1.752-4.748-1.917-5.166 6.118-2.481 2.238-4.117-1.606-6.614 6.512-1.359 2.606-4.001-1.074-5.764h2.539l-.333-2.084-1.917-.417-.333-6.5 2.5-1.25"/>
        <path fill="#E2CF00" stroke="#000" stroke-miterlimit="10" d="M-22.391 82.125l-4.324-21.907s-2.5.602-4.491.089c-2.206-.567-4.013-3.467-4.017-5.345-.005-2.211 1.486-3.941 1.486-3.941s14.302-7.312 18.438-9.784c1.523-.91 5.441-1.438 7.062-.716 3.004 1.338 6.112 7.963 7.016 11.125 3.714 12.992 2.362 20.108 4.65 32.825-7.311.156-25.82-2.346-25.82-2.346z"/>
        <path fill="#D40000" stroke="#000" stroke-width="2" stroke-miterlimit="10" d="M-35.109 103.209l12.393-21.478s15.729 3.255 27.836 3.391c9.999.112 26.332-3.665 26.332-3.665l10.872 21.751h-77.433z"/>
        <path fill="none" stroke="#000" stroke-width="2" stroke-miterlimit="10" d="M-29.884 102.877l8.918-14.919 11.417 1.417-4.333 13.502m6.148-.167l3.6-13.501h18.585l1.915 13.376m6.165.375l-2.334-13.251 10.167-1.5 6.333 14.751"/>
        <path fill="#E2CF00" stroke="#000" stroke-miterlimit="10" d="M41.028 99.378c4.587-2.753 7.266-15.723 10.005-20.802 1.209-2.242-12.666.3-15.934 9.42 1.598 3.046 4.85 9.379 5.929 11.382z"/>
        <path d="M36.697 91.459c.575-.809 1.918-1.751 1.71-3.537 1.208 3.077 2.042-.715 2.042-1.936 1.874 2.876 2-2.113 2.014-3.239 1.944 1.71 2.319-1.207 2.586-2.32.4 1.614 1.733.739 2.914.125-2.431 1.938-1.181 2.114-.551 2.396-3.797 1.26-2.047 1.844-1.311 2.185-4.361 1.617-1.628 2.581-1.332 2.618-4.862 1.458-2.439 2.396-1.534 2.715-6.162 1.325-1.972 2.244-1.127 2.557-4.822.934-1.96 1.604-1.13 2.053-.436.364-1.625.938-2.152.728"/>
        <path fill="#131F67" d="M2.064 74.68s.844.485 2.174 1.056c.661.299 1.458.583 2.323.866.868.274 1.807.559 2.784.716.976.167 1.979.263 2.947.232.965-.026 1.919-.193 2.68-.585.764-.38 1.283-.943 1.521-1.381.142-.204.188-.403.24-.521l.063-.189a.505.505 0 0 0-.766-.575l-.095.067-.129.091c-.087.054-.181.158-.334.246a4.586 4.586 0 0 1-.521.312 5.928 5.928 0 0 1-.709.305c-.268.1-.577.179-.914.263a7.725 7.725 0 0 1-1.12.149c-.803.048-1.695-.01-2.588-.139-.891-.142-1.795-.296-2.635-.501-.842-.197-1.618-.433-2.291-.618-1.339-.396-2.215-.703-2.215-.703a.502.502 0 0 0-.641.307.508.508 0 0 0 .226.602z"/>
        <path fill="none" stroke="#131F67" stroke-miterlimit="10" d="M34.985 87.942l-3.034-5.4v-7.333s-.881-21.335-3.992-27.565c-1.98-3.966-4.966-10.059-14.341-10.434-4.62-.185-16.833 7.667-16.833 7.667"/>
        <path fill="#131F67" d="M13.156 45.733l.032-.081c.011-.009.022-.099.038-.058.018.02.012.056.012.068.026.008.049.011.119-.005.063-.015.171-.03.303-.047.533-.066 1.438-.025 2.335 0 .449.049.918-.074 1.369-.185a3.043 3.043 0 0 1 1.214-.069c.348.05.629.14.821.225.192.082.292.161.292.161a.564.564 0 1 0 .211-.988l-.021.005s-.133.035-.347.046a4.105 4.105 0 0 1-.867-.047 3.86 3.86 0 0 1-1.184-.385c-.429-.21-.899-.42-1.393-.426-.981-.078-1.989-.035-2.825.288a2.226 2.226 0 0 0-.586.323c-.181.128-.33.319-.421.497a1.265 1.265 0 0 0-.102.319c-.022.113.001.096-.001.14l.01.087a.513.513 0 0 0 .991.132zm2.295-2.524l.625.073c.375.039.875.071 1.375.09.5.003 1 .038 1.375.013.188-.017.344-.066.453-.1.109-.04.172-.076.172-.076a.577.577 0 0 0 0-1s-.062-.036-.172-.076c-.109-.034-.266-.083-.453-.1-.375-.025-.875.01-1.375.013-.5.019-1 .051-1.375.09l-.625.073a.504.504 0 1 0 0 1zm4.177 13.576l-.004-.193c-.016-.123-.009-.28-.137-.511-.213-.469-.647-.97-1.354-1.26a3.063 3.063 0 0 0-1.181-.214c-.425-.011-.865.051-1.291.056-.841-.004-1.761-.056-2.618.356-.423.183-.833.531-.996 1.006-.163.473-.082.959.055 1.365.143.412.359.761.565 1.084.21.321.433.607.646.86.42.515.802.914 1.068 1.191l.415.445a.504.504 0 1 0 .652-.761l-.018-.012-.481-.324a9.836 9.836 0 0 1-1.176-.964 6.767 6.767 0 0 1-.676-.743 3.691 3.691 0 0 1-.562-.937c-.135-.341-.205-.726-.079-1.058.115-.332.406-.597.768-.751.362-.152.771-.215 1.17-.23.399-.005.805-.013 1.174.122.37.123.693.356.967.581.278.221.511.435.739.581.442.297.845.496 1.145.572.146.029.32.116.431.15l.187.05a.469.469 0 0 0 .591-.461z"/>
        <path fill="#131F67" d="M19.121 52.943c.15.172.289.347.449.517.174.165.352.34.527.496l1.053.881c.346.286.669.583.973.886l.407.477.319.506h.001l-.064-.226c.163.522.152 1.126.028 1.698-.11.575-.283 1.143-.449 1.712-.339 1.137-.717 2.269-1.075 3.411-.36 1.142-.701 2.296-.951 3.488-.122.596-.236 1.2-.282 1.827-.037.31-.008.638-.012.957.047.315.092.691.171.964.147.574.299 1.171.499 1.768.188.6.482 1.186.826 1.746.379.538.81 1.069 1.349 1.466.521.422 1.099.756 1.68 1.073.292.173.593.296.895.437.304.142.61.282.921.383.309.11.627.229.943.32.314.083.634.142.955.212.645.133 1.275.128 1.918.131.627-.032 1.259-.258 1.793-1.158a.86.86 0 0 0-.062-.967l-.023-.029c-.657-.835-1.217-.979-1.781-.961-.551-.027-1.115.036-1.66.058-.551.042-1.104.097-1.652.107a4.596 4.596 0 0 1-.823-.014 3.506 3.506 0 0 1-.807-.112 3.836 3.836 0 0 1-1.462-.611c-.456-.271-.819-.654-1.168-1.057-.316-.431-.613-.892-.83-1.417-.234-.515-.415-1.066-.594-1.64-.102-.296-.125-.519-.189-.788-.008-.276-.055-.545-.036-.831.014-.566.071-1.146.178-1.72.209-1.151.515-2.298.843-3.441.326-1.144.675-2.287.988-3.446.159-.579.3-1.165.426-1.758l.444-1.85.006-.025-.07-.201-.001-.001-.457-.611-.52-.521a14.9 14.9 0 0 0-1.113-.865l-1.104-.785c-.174-.131-.33-.265-.5-.397-.163-.147-.321-.318-.482-.476l-.008-.007a.283.283 0 0 0-.402.005.285.285 0 0 0-.015.389z"/>
        <path fill="none" stroke="#131F67" stroke-linecap="round" stroke-miterlimit="10" d="M31.284 72.376s-5.098 2.244-10.195-1.122m9.778-1.253s-3.683 1.326-4.958 1.25c-1.365-.081-5.11-.587-5.11-1.955"/>
        <path fill="#131F67" d="M21.58 67.928l-.015-.122-.013-.146c.006-.007.005-.019.002-.043-.001-.053.076-.198.208-.302.122-.117.308-.232.522-.323.428-.199.99-.303 1.589-.375.602-.074 1.25-.112 1.899-.114.316.004.668-.015.95.025.329.034.614.12.889.193.569.175 1.112.35 1.56.542.902.364 1.48.658 1.48.658a.504.504 0 1 0 .351-.936l-1.609-.412c-.486-.11-1.039-.267-1.66-.386-.324-.056-.657-.115-.973-.118-.36-.007-.664.014-1.001.031-1.319.067-2.623.236-3.612.502-.246.072-.482.128-.688.237a1.084 1.084 0 0 0-.294.163c-.091.07-.178.104-.256.218a2.409 2.409 0 0 0-.191.286l-.064.132-.057.109a.523.523 0 1 0 .983.181z"/>
        <path fill="#131F67" d="M21.947 67.127l.025-.286c.018-.058.043-.089.054-.157.052-.081.092-.184.171-.289.305-.432.93-.953 1.615-1.394.682-.45 1.41-.851 1.957-1.155l.913-.518a.183.183 0 0 0 .069-.251.183.183 0 0 0-.234-.077l-.009.004-.946.424c-.573.251-1.345.584-2.099.984-.754.396-1.493.874-1.973 1.424-.122.134-.214.29-.303.419-.08.169-.147.341-.181.457l-.053.282a.5.5 0 0 0 .985.182c.005-.013.007-.033.009-.049zM5.783 63.975s.727.084 1.788.331c1.062.24 2.46.651 3.798 1.187.666.274 1.321.57 1.898.902.294.157.56.333.809.5.256.162.459.353.666.506.376.344.629.66.772.891l.187.368.045.088a.5.5 0 0 0 .892-.452l-.021-.036-.309-.502a5.428 5.428 0 0 0-1.041-1.016c-.244-.153-.495-.347-.783-.498a9.742 9.742 0 0 0-.908-.459 16.95 16.95 0 0 0-2.04-.763 26.523 26.523 0 0 0-3.937-.869 17.596 17.596 0 0 0-1.816-.178z"/>
        <path fill="none" stroke="#131F67" stroke-linecap="round" stroke-miterlimit="10" d="M1.55 69.68s5.547 2.18 7.485 2.071c1.843-.103 6.85-.904 6.85-2.75"/>
        <path fill="#131F67" d="M2.547 69.425l1.907-.69a70.656 70.656 0 0 1 1.971-.653c.725-.218 1.505-.447 2.275-.593a9.119 9.119 0 0 1 1.168-.126l1.162-.057c.75-.025 1.448-.01 2.015.063.281.037.539.083.729.152.2.058.332.145.385.198.053.06.062.068.052.093-.002.017.011.024.01.025l.456.314a.347.347 0 0 0 .544-.315s-.008-.091-.046-.262c-.02-.164-.172-.415-.378-.585a1.863 1.863 0 0 0-.756-.362 4.481 4.481 0 0 0-.907-.142c-.646-.046-1.376-.019-2.147.049l-1.181.124a9.86 9.86 0 0 0-1.233.204c-.818.202-1.587.478-2.31.739-.717.272-1.382.532-1.947.767l-1.875.799a.14.14 0 0 0-.073.184c.028.067.109.099.179.074zm.76 3.922s3.872.978 7.835.464c.982-.13 1.96-.352 2.838-.696.879-.336 1.656-.783 2.245-1.27.15-.133.269-.225.427-.378a.476.476 0 0 0 .117-.451c-.069-.199-.179-.248-.24-.291-.13-.071-.22-.09-.308-.113-.338-.074-.596-.083-.817-.096-.437-.02-.684-.012-.684-.012h-.012a.33.33 0 1 0 .012.662s.235-.001.642.028c.199.016.456.038.691.097a.528.528 0 0 1 .118.042c.003-.003-.037 0-.083-.122-.037-.135.036-.226.045-.23l-.358.3c-.536.425-1.249.816-2.065 1.108-.814.3-1.735.489-2.668.593-1.869.206-3.774.053-5.178-.153a21.35 21.35 0 0 1-2.311-.45.5.5 0 1 0-.263.965l.008.002.009.001z"/>
        <path fill="none" stroke="#E2CF00" stroke-width="2" stroke-linecap="square" stroke-miterlimit="10" d="M-11.798 19.959l-.152-28.291m2.445 24.458l4.083-4.458-4.541-4.255m.188-5.952l3.979-4.042-3.979-4.334"/>
        <path fill="none" stroke="#E2CF00" stroke-width="2" stroke-linecap="round" stroke-miterlimit="10" d="M-3.421 9.96l-5.083-5.5 5.083-5.25 5.208 5.375z"/>
        <path fill="none" stroke="#E2CF00" stroke-width="2" stroke-linecap="square" stroke-miterlimit="10" d="M3.495 1.837l-4.707-4.564 4.707-4.938m0-5.083l-4.333-4.125 4.35-4.501"/>
        <path fill="none" stroke="#E2CF00" stroke-width="2" stroke-linecap="round" stroke-miterlimit="10" d="M-8.171-9.582l5.25-5.291 4.917 4.666-5.354 5.417z"/>
        <path fill="none" stroke="#E2CF00" stroke-width="2" stroke-linecap="square" stroke-miterlimit="10" d="M5.378 6.668l.014-34.38"/>
        <path fill="none" stroke="#E2CF00" stroke-width="3" stroke-linecap="square" stroke-miterlimit="10" d="M41.034 37.585l2.708-5.25-3.291-2.792 3.291-4.25-3.772-4.084 3.981-2.541-3.981-6.253m9.468 20.59s-3.902-7.838.339-15.392"/>
        <path fill="#E2CF00" stroke="#000" stroke-miterlimit="10" d="M70.947-103.708c-.268 0-.85.107-1.046.318l-10.95 11.417v.393l.062 166.417c0 .552.761.872 1.312.872h.002c.552 0 .999-.317 1-.869l.25-166.089 10.101-10.81a.974.974 0 1 0-.731-1.649z"/>
        <path fill="#E2CF00" stroke="#000" stroke-miterlimit="10" d="M71.947 74.709h-.003l-18.4.256 18.724 17.988c.399.382 1.032.418 1.413.02a.969.969 0 0 0-.032-1.388L58.521 77.147l13.43-.028c.552-.001.998-.655.997-1.208-.002-.551-.45-1.202-1.001-1.202z"/>
        <path fill="#D40000" stroke="#000" stroke-linecap="round" stroke-miterlimit="10" d="M58.32 77.064l13.631 12.882V77.274z"/>
        <path fill="#FFF" stroke="#131F67" stroke-linecap="round" stroke-miterlimit="10" d="M58.446 17.614c-3.063-.318-6.583.884-6.583.884s-4.412 6.086-.375 14.125c1.478 1.462 3.958 2.882 5.882 3.265 1.734.345 7.519-.205 7.784-1.89.303-1.919-6.833-2.704-6.833-2.704s-1.1-2.492-.917-3.338c.117-.542 1.416-1.708 1.416-1.708s-.024-6.786-.374-8.634z"/>
        <path fill="none" stroke="#131F67" stroke-linecap="round" stroke-miterlimit="10" d="M63.487 33.005c-1.416.624-1.416 2.159-1.416 2.159"/>
        <path fill="#131F67" d="M45.573 13.402c3.728-.652 6.28-1.516 6.28-1.516l-2.802-2.547 3.696.065-2.519-2.73 3.45.267-2.072-2.284 3.135-.09-2.457-2.495 3.16.064-2.321-2.581 3.381-.137-2.074-2.166 3.118.11-2.391-2.706 3.184.186-2.034-2.557 2.04.357-1.117-2.375 1.565-.52s-.392-2.369-.204-4.798c-7.202 9.885-11.66 21.04-13.018 28.453z"/>
        <path d="M37.746 7.264c2.012 1.28 6.405 3.157 6.405 3.157s4.638-14.459 11.185-23.536c.063-6.84.044-30.609.044-30.609S38.857-17.788 37.746 7.264z"/>
        <path fill="#D40000" stroke="#000" stroke-miterlimit="10" d="M10.658 8.912s5.168 3.837 8.977 6.41c.596-16.988 4.533-30.601 4.533-30.601l-13.5-8.977-.01 33.168zm-35.869 21.567l11.3-8.462-.025-28.401L-25.107.828z"/>
        <path fill="#E2CF00" stroke="#000" stroke-linecap="round" stroke-miterlimit="10" d="M31.945 72.544s1.263-10.002 3.77-11.835c.754-.551 3.022.602 3.736 0 .849-.715 1.391-3.469.75-4.375-.893-1.263-4.821-1.93-6.094-1.051-1.975 1.364-3.763 8.834-3.763 8.834l1.601 8.427z"/>
        <path fill="#E2CF00" stroke="#000" stroke-linecap="round" stroke-miterlimit="10" d="M30.625 60.959s2.046-11.234 4.951-13.25c.796-.552 3.113.598 3.875 0 1.099-.862 2.076-4.247 1.33-5.427-.692-1.095-3.976-1.726-5.078-1.045-2.855 1.764-6.145 11.938-6.145 11.938l1.067 7.784z"/>
        <path fill="#E2CF00" stroke="#000" stroke-linecap="round" stroke-miterlimit="10" d="M29.139 44.146c1.365-1.484 5.312-2.625 5.312-2.625s-3.584 6.309-4.809 10.585c-.529-1.149-2.917-5.335-.503-7.96z"/>
        <path fill="#E2CF00" stroke="#000" stroke-linecap="round" stroke-miterlimit="10" d="M27.521 47.325l-.855-2.649 2.473-.53z"/>
        <path fill="#131F67" d="M-57.113 4.56l-17.346 22.523 21.664 13.969-.129-36.343z"/>
        <path d="M-44.65 45.283l-8.145-4.606-.129-36.468h8.375z"/>
        <path fill="#131F67" d="M17.413-36.989l17.101-3.552-4.894 11.173z"/>
        <path fill="none" stroke="#000" stroke-linecap="round" stroke-miterlimit="10" d="M-52.795 40.677l18.814 9.657M.451 83.472s-1.95-30.721-7.438-37.736m4.376 37.973s-1.521-23.688-5.303-32.998m2.324 32.998s-2.145-23.688-4.648-32.062m2.002 32.062s-2.281-23.688-4.562-29.87m1.812 29.633s-2.369-21.43-4.312-28.189m1.499 27.801s-2.188-19.917-4.688-26.562m1.6 26.493s-1.889-19.301-4.1-25.056m1.212 24.614s-2.571-17.459-4.336-23.772"/>
        <path fill="none" stroke="#000" stroke-linecap="round" stroke-miterlimit="10" d="M-26.549 60.021s14.816-6.524 18.635-9.31c1.532-1.563 1.049-4.379.483-5.69-.506-1.173-2.532-3.007-4.556-2.312-.959.256-1.925 1.813-1.67 3.602.138.964.854 2.496 2.67 2.496 1.438 0 2.419-2.207 1.014-3.348"/>
        <path fill="none" stroke="#000" stroke-linecap="round" stroke-miterlimit="10" d="M-15.896 41.555s-1.406 3.607 0 6.488c1.661 3.403 5.658 3.604 5.658 3.604m-8.248-8.438s-1.289 4.471.271 6.649c2.009 2.805 4.726 3.639 4.726 3.639m-8-8.975s-1.394 3.604.503 6.576c1.68 2.633 5.688 4.185 5.688 4.185m-8.813-9.199s-.919 3.774.396 6.268c1.685 3.195 4.94 3.665 4.94 3.665m-8.202-8.337s-1.072 3.662.428 6.194c2.049 3.459 5.06 3.62 5.06 3.62m-8.074-8.687s-1.485 3.544.329 6.37c1.466 2.283 4.836 3.771 4.836 3.771m-7.526-8.614s-1.375 3.543-.015 6.188c1.261 2.45 4.577 3.75 4.577 3.75"/>
        <path fill="none" stroke="#131F67" stroke-linecap="round" stroke-miterlimit="10" d="M-42.132 46.521l2.5-2.812-4.917-4.917-.076-3.417 4.993-5.25-4.993-5.004.033-3.382 4.96-4.864-4.993-5.543.067-3.109 2.429-2.954 6.906-1.327 4.591 4.683-.5 3.833-5.237 4.725 5.32 4.525-.111 3.523-5.367 4.894 5.561 5.167-.416 4.174-4.584 4.68 5.334 5.228-3.104 1.647-3.893-5.286-1.869 1.945z"/>
        <path fill="#131F67" d="M-37.91 42.847l-5.483-5.835 5.712-5.762 5.54 5.57zm.033-13.465l5.803-5.964-5.683-5.686-5.608 5.762zm.129-13.719l5.636-5.743-5.952-5.335-5.325 5.296z"/>
        <path fill="none" stroke="#000" stroke-linecap="round" stroke-miterlimit="10" d="M51.488 32.623l-17.381 8.614m-41.799-1.103L6.033 29.375l14.87 9.583"/>
        <path fill="#131F67" d="M23.674 39.354l5.312 4.571 5.034-6.544-5.801-4.684zm-1.439-15.151l5.667 5.172 4.985-5.813-5.088-5.523zm.691-14.662l5.283 6.227 5.158-4.977L29.04 5.26zm1.867-13.062l4.287 6.538 5.488-4.221-3.74-6.532zm3.197-14.112l3.41 7.645 6.55-4.34-3.148-7.334zm4.416-13.868l3.086 7.621 6.764-3.539-2.129-7.573zm6.94-14.149l2.097 8.376 7.073-2.862-1.596-8.044zm8.817-4.412l-.948-7.703 7.984-1.489.59 7.142z"/>
        <path fill="#E2CF00" d="M67.586 63.985c0-.779-.646-1.411-1.442-1.411s-1.442.631-1.442 1.411.646 1.411 1.442 1.411 1.442-.631 1.442-1.411zm2 3.438c0-.779-.646-1.411-1.442-1.411s-1.442.631-1.442 1.411.646 1.411 1.442 1.411 1.442-.632 1.442-1.411zm-3.948 0c0-.779-.646-1.411-1.442-1.411s-1.442.631-1.442 1.411.646 1.411 1.442 1.411 1.442-.632 1.442-1.411zm1.948 3.347c0-.779-.646-1.411-1.442-1.411s-1.442.631-1.442 1.411.646 1.411 1.442 1.411 1.442-.632 1.442-1.411zm.373-32.925c0-.779-.646-1.411-1.442-1.411s-1.442.631-1.442 1.411.646 1.411 1.442 1.411 1.442-.632 1.442-1.411zm2 3.437c0-.779-.646-1.411-1.442-1.411s-1.442.631-1.442 1.411.646 1.411 1.442 1.411 1.442-.631 1.442-1.411zm-3.948 0c0-.779-.646-1.411-1.442-1.411s-1.442.631-1.442 1.411.646 1.411 1.442 1.411 1.442-.631 1.442-1.411zm1.948 3.347c0-.779-.646-1.411-1.442-1.411s-1.442.631-1.442 1.411.646 1.411 1.442 1.411 1.442-.631 1.442-1.411zm-.025-32.775c0-.779-.646-1.411-1.442-1.411s-1.442.631-1.442 1.411.646 1.411 1.442 1.411 1.442-.631 1.442-1.411zm2 3.438c0-.779-.646-1.411-1.442-1.411s-1.442.631-1.442 1.411.646 1.411 1.442 1.411 1.442-.632 1.442-1.411zm-3.949 0c0-.779-.646-1.411-1.442-1.411s-1.442.631-1.442 1.411.646 1.411 1.442 1.411 1.442-.632 1.442-1.411zm1.949 3.347c0-.779-.646-1.411-1.442-1.411s-1.442.631-1.442 1.411.646 1.411 1.442 1.411 1.442-.632 1.442-1.411zm.13-32.672c0-.779-.646-1.411-1.442-1.411s-1.442.631-1.442 1.411.646 1.411 1.442 1.411 1.442-.632 1.442-1.411zm2 3.437c0-.779-.646-1.411-1.442-1.411s-1.442.631-1.442 1.411.646 1.411 1.442 1.411 1.442-.631 1.442-1.411zm-3.948 0c0-.779-.646-1.411-1.442-1.411s-1.442.631-1.442 1.411.646 1.411 1.442 1.411 1.442-.631 1.442-1.411zm1.948 3.347c0-.779-.646-1.411-1.442-1.411s-1.442.632-1.442 1.411.646 1.411 1.442 1.411 1.442-.631 1.442-1.411zm.081-32.953c0-.779-.646-1.411-1.442-1.411s-1.442.631-1.442 1.411.646 1.411 1.442 1.411 1.442-.632 1.442-1.411zm2 3.437c0-.779-.646-1.411-1.442-1.411s-1.442.631-1.442 1.411.646 1.411 1.442 1.411 1.442-.631 1.442-1.411zm-3.949 0c0-.779-.646-1.411-1.442-1.411s-1.442.631-1.442 1.411.646 1.411 1.442 1.411 1.442-.631 1.442-1.411zm1.949 3.348c0-.779-.646-1.411-1.442-1.411s-1.442.631-1.442 1.411.646 1.411 1.442 1.411 1.442-.632 1.442-1.411zm.148-33.035c0-.779-.646-1.411-1.442-1.411s-1.442.631-1.442 1.411.646 1.411 1.442 1.411 1.442-.632 1.442-1.411zm2 3.437c0-.779-.646-1.411-1.442-1.411s-1.442.631-1.442 1.411.646 1.411 1.442 1.411 1.442-.631 1.442-1.411zm-3.948 0c0-.779-.646-1.411-1.442-1.411s-1.442.631-1.442 1.411.646 1.411 1.442 1.411 1.442-.631 1.442-1.411zm1.948 3.348c0-.779-.646-1.411-1.442-1.411s-1.442.631-1.442 1.411.646 1.411 1.442 1.411 1.442-.632 1.442-1.411zm.444-32.035c0-.779-.646-1.411-1.442-1.411s-1.442.631-1.442 1.411.646 1.411 1.442 1.411 1.442-.632 1.442-1.411zm2 3.437c0-.779-.646-1.411-1.442-1.411s-1.442.631-1.442 1.411.646 1.411 1.442 1.411 1.442-.631 1.442-1.411zm-3.948 0c0-.779-.646-1.411-1.442-1.411s-1.442.631-1.442 1.411.646 1.411 1.442 1.411 1.442-.631 1.442-1.411zm1.948 3.348c0-.779-.646-1.411-1.442-1.411s-1.442.631-1.442 1.411.646 1.411 1.442 1.411 1.442-.632 1.442-1.411z"/>
        <path fill="#FFF" d="M30.289 38.213c0-.779-.646-1.411-1.442-1.411s-1.442.631-1.442 1.411.646 1.411 1.442 1.411 1.442-.631 1.442-1.411zm-.944-14.506c0-.779-.646-1.411-1.442-1.411s-1.442.631-1.442 1.411.646 1.411 1.442 1.411 1.442-.632 1.442-1.411zm.244-13.747c0-.779-.646-1.411-1.442-1.411s-1.442.631-1.442 1.411.646 1.411 1.442 1.411 1.442-.631 1.442-1.411zm1.534-12.32c0-.779-.646-1.411-1.442-1.411s-1.442.631-1.442 1.411.646 1.411 1.442 1.411 1.442-.632 1.442-1.411zm3.289-13.716c0-.779-.646-1.411-1.442-1.411s-1.442.631-1.442 1.411.646 1.411 1.442 1.411 1.442-.631 1.442-1.411zm4.361-13.714c0-.779-.646-1.411-1.442-1.411s-1.442.631-1.442 1.411.646 1.411 1.442 1.411 1.442-.631 1.442-1.411zm6.368-13.508c0-.779-.646-1.411-1.442-1.411s-1.442.631-1.442 1.411.646 1.411 1.442 1.411 1.442-.632 1.442-1.411zm7.803-11.827c0-.779-.646-1.411-1.442-1.411s-1.442.631-1.442 1.411.646 1.411 1.442 1.411 1.442-.632 1.442-1.411zM-36.324 9.577c0-.779-.646-1.411-1.442-1.411s-1.442.631-1.442 1.411.646 1.411 1.442 1.411 1.442-.632 1.442-1.411zm0 13.687c0-.779-.646-1.411-1.442-1.411s-1.442.631-1.442 1.411.646 1.411 1.442 1.411 1.442-.632 1.442-1.411zm.047 13.375c0-.779-.646-1.411-1.442-1.411s-1.442.631-1.442 1.411.646 1.411 1.442 1.411 1.442-.632 1.442-1.411z"/>
        <path fill="#131F67" d="M10.971 50.984c.507.171 1.161-1.236 1.69-1.308.679-.093 1.855 1.002 2.54 1.036.651.032 1.848-.763 2.5-.745.554.015 1.531.738 2.085.745.551.007 1.546-.748 2.093-.683.439.052 1.085 1.054 1.51.929.959-.282 1.099-3.406.285-3.987-.612-.438-2.021 1.121-2.771 1.177-.923.068-2.658-.867-3.581-.931-1.17-.082-3.496.678-4.661.541-.748-.088-2.278-1.542-2.834-1.033-.813.744.099 3.907 1.144 4.259z"/>
        <path fill="none" stroke="#131F67" stroke-miterlimit="10" d="M6.839 71.211c.297-3.556 4.109-4.438 5.351-.377m11.344-.222c.297-3.556 4.109-4.397 5.351-.337"/>
        <path fill="#131F67" d="M11.24 70.801c0-1.04-.773-1.882-1.727-1.882s-1.727.843-1.727 1.882.773.792 1.727.792 1.727.248 1.727-.792zm16.522-.502c0-1.04-.695-1.882-1.553-1.882s-1.553.843-1.553 1.882.695.791 1.553.791 1.553.249 1.553-.791z"/>
        <path fill="#E2CF00" d="M-4.608 4.625l1.37-1.279 1.13 1.04-1.25 1.397zm.271-14.396l1.37-1.279 1.13 1.04-1.25 1.397z"/>
    </symbol>
    <use xlink:href="#jack-spades" width="148.917" height="208.418" x="-74.459" y="-104.208" transform="matrix(-1 0 0 1 107.059 181.855)" overflow="visible"/>
    <use xlink:href="#jack-spades" width="148.917" height="208.418" x="-74.459" y="-104.208" transform="matrix(1 0 0 -1 120.55 131.209)" overflow="visible"/>
    <path fill="#E2CF00" stroke="#000" stroke-width="2" stroke-miterlimit="10" d="M64.334 126.624c64.667-2.083 43.167 43.376 91.134 45.126 2.413 4.168 6.366 11.917 7.88 14.584-65.846 1.411-42.68-43.119-91.534-45.294-1.479-3.994-5.312-10.958-7.48-14.416z"/>
    <use xlink:href="#clubs_4_" width="22.179" height="23.691" x="-11.089" y="-11.846" transform="matrix(1 0 0 -1 20 61)" overflow="visible"/>
    <use xlink:href="#clubs_4_" width="22.179" height="23.691" x="-11.089" y="-11.846" transform="translate(208 252)" overflow="visible"/>
    <use xlink:href="#face-frame" width="161.544" height="259.519" x="-80.771" y="-129.759" transform="matrix(1 0 0 -1 113.234 157)" overflow="visible"/>
    <path stroke="#000" stroke-linejoin="round" stroke-miterlimit="10" d="M72.551 131.422v5.827l7.031.167.69-5.515zm10.259.617l-.92 5.815 7.192 1.457 1.682-5.794zm10.27 2.109l-1.801 5.751 5.998 3.631 2.955-5.1zm9.4 5.716l-3.282 4.839 5.191 5.095 4.091-4.243zm8.122 7.804l-4.485 4.03 4.783 6.231 4.186-3.618zm6.39 8.68l-4.403 3.816 4.858 6.332 4.003-4.384zm6.305 7.293l-3.949 4.86 6.619 5.147 3.043-5.075zm7.874 6.075l-2.892 5.335 7.67 4.233 1.897-5.841zm9.165 4.655l-1.368 5.674 8.593 1.354v-6.08zm9.716 1.134l.231 6.235h7.843l-.788-6.154z"/>
    <use xlink:href="#gold-star" width="6.403" height="6.403" x="-3.202" y="-3.202" transform="matrix(1 0 0 -1 110.775 152.798)" overflow="visible"/>
    <use xlink:href="#gold-star" width="6.403" height="6.403" x="-3.202" y="-3.202" transform="matrix(1 0 0 -1 103.84 144.831)" overflow="visible"/>
    <use xlink:href="#gold-star" width="6.403" height="6.403" x="-3.202" y="-3.202" transform="matrix(1 0 0 -1 95.756 138.945)" overflow="visible"/>
    <use xlink:href="#gold-star" width="6.403" height="6.403" x="-3.202" y="-3.202" transform="matrix(1 0 0 -1 86.327 135.675)" overflow="visible"/>
    <use xlink:href="#gold-star" width="6.403" height="6.403" x="-3.202" y="-3.202" transform="matrix(1 0 0 -1 76.412 134.419)" overflow="visible"/>
    <use xlink:href="#gold-star" width="6.403" height="6.403" x="-3.202" y="-3.202" transform="matrix(1 0 0 -1 117.463 161.422)" overflow="visible"/>
    <use xlink:href="#gold-star" width="6.403" height="6.403" x="-3.202" y="-3.202" transform="matrix(1 0 0 -1 124.179 168.483)" overflow="visible"/>
    <use xlink:href="#gold-star" width="6.403" height="6.403" x="-3.202" y="-3.202" transform="matrix(1 0 0 -1 133.512 174.5)" overflow="visible"/>
    <use xlink:href="#gold-star" width="6.403" height="6.403" x="-3.202" y="-3.202" transform="matrix(1 0 0 -1 143.927 177.702)" overflow="visible"/>
    <use xlink:href="#gold-star" width="6.403" height="6.403" x="-3.202" y="-3.202" transform="matrix(1 0 0 -1 154.089 178.623)" overflow="visible"/>
    <path stroke="#000" stroke-linejoin="round" stroke-miterlimit="10" d="M67.626 131.422h2.125l.334 4.577"/>
    <use xlink:href="#clubs-medium" width="44.409" height="47.437" x="-22.204" y="-23.719" transform="matrix(1 0 0 -1 62.648 60.1)" overflow="visible"/>
    <use xlink:href="#clubs-medium" width="44.409" height="47.437" x="-22.204" y="-23.719" transform="translate(164.501 253.974)" overflow="visible"/>
    <path fill="none" d="M2.937 12.58h33.412v39.516H2.937z"/>
    <text transform="translate(10.62 44.083)" font-family="'ArialNarrow'" font-size="44">
        J
    </text>
    <path fill="none" d="M194.579 262.099h33.412v39.516h-33.412z"/>
    <text transform="rotate(180 110.155 135.055)" font-family="'ArialNarrow'" font-size="44">
        J
    </text>
</svg>
