<?xml version="1.0" encoding="utf-8"?>
<!-- Generator: Adobe Illustrator 16.0.0, SVG Export Plug-In . SVG Version: 6.00 Build 0)  -->
<!DOCTYPE svg PUBLIC "-//W3C//DTD SVG 1.1//EN" "http://www.w3.org/Graphics/SVG/1.1/DTD/svg11.dtd">
<svg version="1.1" xmlns="http://www.w3.org/2000/svg" xmlns:xlink="http://www.w3.org/1999/xlink" x="0px" y="0px" width="227px"
	 height="315px" viewBox="0 0 227 315" enable-background="new 0 0 227 315" xml:space="preserve">
<symbol  id="clubs" viewBox="-11.089 -11.846 22.179 23.691">
	<path d="M0.076-11.846h-2.951c0,0,2.019,4.262,2.019,7.857c0,0.711-0.403,0.53-0.46,0.004c-0.217-1.981-1.856-4.288-4.857-4.168
		c-3.653,0.145-4.915,2.93-4.915,5.221c0,1.702,0.89,5.168,4.671,5.309c1.202,0.045,2.285-0.327,2.925-0.875
		c0.473-0.405,0.691-0.164,0.19,0.405c-0.35,0.398-1.975,1.813-1.903,4.629C-5.07,11.844,0,11.846,0,11.846s5.071-0.001,5.207-5.309
		c0.072-2.816-1.553-4.231-1.903-4.629c-0.5-0.569-0.283-0.81,0.19-0.405c0.64,0.548,1.723,0.919,2.925,0.875
		c3.78-0.141,4.67-3.607,4.67-5.309c0-2.291-1.262-5.076-4.915-5.221c-3-0.119-4.641,2.188-4.857,4.168
		C1.26-3.458,0.856-3.277,0.856-3.989c0-3.595,2.019-7.857,2.019-7.857h-2.95"/>
</symbol>
<symbol  id="diamonds" viewBox="-8.447 -11.626 16.895 23.251">
	<path fill="#ED1C24" d="M0,11.625C0,11.625,4.224,4.05,8.447,0C4.224-4.454,0-11.626,0-11.626S-4.224-4.454-8.447,0
		C-4.224,4.05,0,11.625,0,11.625z"/>
</symbol>
<symbol  id="face-frame" viewBox="-80.771 -129.759 161.544 259.519">
	<polygon fill="none" stroke="#131F67" stroke-width="3" stroke-miterlimit="10" points="79.272,-128.259 -79.271,-128.259 
		-79.271,128.26 79.272,128.26 	"/>
</symbol>
<symbol  id="hearts" viewBox="-10.934 -11.657 21.869 23.314">
	<path fill="#ED1C24" d="M0-11.657c0,0,4.999,6.392,6.686,8.508c2.949,3.699,4.249,6.112,4.249,9.548
		c0,3.217-2.825,5.255-5.339,5.258C0.788,11.664,0,7.146,0,7.146s-0.787,4.518-5.595,4.511c-2.514-0.003-5.339-2.042-5.339-5.258
		c0-3.436,1.299-5.849,4.249-9.548C-4.999-5.265,0-11.657,0-11.657z"/>
</symbol>
<symbol  id="hearts-medium" viewBox="-21.894 -23.341 43.787 46.682">
	
		<use xlink:href="#hearts"  width="21.869" height="23.314" x="-10.934" y="-11.657" transform="matrix(2.0023 0 0 2.0023 -4.882812e-04 0)" overflow="visible"/>
</symbol>
<symbol  id="jack-hearts" viewBox="-79.538 -95.527 159.077 191.054">
	<polygon fill="#E2CF00" points="-7.398,38.802 37.251,38.802 31.748,75.956 9.887,79.591 	"/>
	<path d="M-78.561-80.813l22.171-14.714l44.501,59.133l24.402-0.011l0.04,9.082L57.011,31.17l-11.525,8.521
		c0,0-45.42-0.56-56.261-0.56c-19.58-6.094-50.823-26.942-67.545-44.59C-78.361-11.16-78.561-80.813-78.561-80.813z"/>
	<path fill="#E2CF00" stroke="#000000" stroke-miterlimit="10" d="M34.922,73.822c2.814-7.565,2.164-25.879,9.033-29.261
		c1.678,2.341,4.682,3.109,6.624,2.289c6.518-2.754,4.373-9.999,2.095-12.051c-3.142-2.831-7.474-2.037-10.157-1.243
		c-2.438,0.72-6.346,4.699-7.715,6.842c-4.968,7.78-5.606,21.915-8.774,35.939"/>
	<path fill="#FFFFFF" stroke="#131F67" stroke-miterlimit="10" d="M-25.356,32.994c-1.35,2.329,1.491,10.957,9.371,6.66
		c0.601-0.326,1.995-1.581,1.995-1.581s-1.457-0.811-1.995-0.795c-0.809,0.026-2.933,1.38-2.933,1.38s0.24-1.327-0.01-1.658
		c-0.369-0.491-2.375,0.64-2.375,0.64s0.584-1.664,0.232-2.037c-0.34-0.36-1.977,0.115-1.977,0.115s0.579-1.048,0.579-1.187
		C-22.468,34.392-22.468,34.531-25.356,32.994z"/>
	<g>
		<path fill="#FFFFFF" d="M-33.108,95.234l13.129-18.278c0,0,0.227-3.215,1.47-5.065c-0.33-3.453-5.104-11.179-5.825-14.209
			c-0.277-1.303,4.383-3.39,5.757-4.368c0.811-1.452-0.25-3.125-0.49-4.389c0.089-0.613,1.492-1.724,1.492-1.724
			s-0.532-1.218-0.505-1.602c1.248-0.634,2.282-3.049,2.599-4.268c0.221-0.845,0.532-2.945,1.246-3.356
			c9.328-0.835,19.833,7.757,21.826,9.945c2.709,2.975,5.159,8.623,5.41,11.957c0.865,6.988-3.312,19.701-3.312,19.701"/>
		<path fill="#131F67" d="M-32.702,95.526l13.129-18.278l0.08-0.111l0.013-0.146c0.073-0.836,0.223-1.705,0.436-2.527
			c0.219-0.823,0.514-1.627,0.95-2.294l0.108-0.165l-0.025-0.162v-0.001l-0.135-0.76l-0.199-0.719
			c-0.154-0.467-0.309-0.932-0.494-1.377c-0.354-0.902-0.76-1.771-1.17-2.635c-0.827-1.724-1.713-3.409-2.551-5.109
			c-0.421-0.849-0.825-1.705-1.172-2.573c-0.081-0.218-0.177-0.435-0.236-0.654c-0.062-0.209-0.172-0.482-0.113-0.556
			c0.094-0.336,0.455-0.686,0.797-0.975c0.713-0.588,1.526-1.084,2.338-1.571c0.812-0.493,1.648-0.937,2.445-1.492l0.027-0.02
			l0.012-0.023v-0.001c0.223-0.335,0.359-0.735,0.404-1.142c0.048-0.408,0.014-0.817-0.052-1.21
			c-0.128-0.78-0.396-1.532-0.467-2.193l0.004,0.164l0,0c-0.002-0.011,0.067-0.164,0.165-0.284c0.098-0.128,0.213-0.26,0.336-0.388
			c0.248-0.254,0.529-0.508,0.807-0.73l0.299-0.242l-0.151-0.351c-0.104-0.243-0.207-0.502-0.294-0.75
			c-0.047-0.127-0.08-0.247-0.119-0.368l-0.037-0.164c-0.011-0.052-0.002-0.054-0.014-0.084l-0.272,0.41
			c0.82-0.453,1.253-1.131,1.666-1.779c0.392-0.664,0.706-1.353,0.96-2.07c0.271-0.729,0.387-1.492,0.559-2.162
			c0.085-0.342,0.18-0.678,0.299-0.982c0.105-0.301,0.297-0.597,0.385-0.642l-0.205,0.064c2.327-0.205,4.696,0.192,6.953,0.9
			c2.263,0.712,4.434,1.733,6.502,2.924c2.066,1.197,4.046,2.561,5.891,4.074c0.923,0.771,1.812,1.524,2.549,2.448
			c0.718,0.889,1.373,1.904,1.947,2.934c1.143,2.074,2.076,4.302,2.602,6.589c0.135,0.576,0.212,1.135,0.261,1.724
			c0.04,0.6,0.115,1.215,0.093,1.787c0.026,1.153-0.082,2.364-0.208,3.544c-0.27,2.374-0.724,4.737-1.272,7.076
			c-0.552,2.337-1.186,4.669-1.912,6.949l0.951,0.312c0.74-2.327,1.375-4.665,1.935-7.034c0.556-2.366,1.017-4.761,1.293-7.191
			c0.062-0.609,0.137-1.216,0.16-1.831c0.047-0.609,0.066-1.229,0.054-1.86c0.019-0.638-0.056-1.226-0.096-1.832
			c-0.051-0.615-0.141-1.257-0.281-1.858c-0.56-2.428-1.519-4.704-2.705-6.86c-0.604-1.079-1.26-2.106-2.062-3.099
			C7.687,47.199,6.72,46.375,5.79,45.6c-1.894-1.553-3.91-2.94-6.026-4.168c-2.119-1.22-4.35-2.271-6.702-3.012
			c-2.347-0.734-4.839-1.161-7.343-0.942l-0.117,0.011l-0.088,0.054c-0.279,0.174-0.418,0.383-0.544,0.574
			c-0.11,0.192-0.202,0.383-0.272,0.569c-0.145,0.374-0.246,0.741-0.338,1.106c-0.188,0.742-0.289,1.431-0.53,2.07
			c-0.232,0.656-0.526,1.3-0.876,1.891c-0.35,0.574-0.782,1.151-1.261,1.4l-0.279,0.146l0.007,0.265
			c0.003,0.109,0.01,0.249,0.028,0.335l0.057,0.248c0.045,0.146,0.089,0.297,0.14,0.434c0.099,0.282,0.203,0.547,0.321,0.82
			l0.147-0.592c-0.322,0.261-0.613,0.522-0.904,0.819c-0.144,0.149-0.284,0.307-0.42,0.485c-0.129,0.188-0.277,0.367-0.352,0.737
			v0.001l-0.017,0.099l0.02,0.067c0.238,0.825,0.607,1.464,0.836,2.158c0.116,0.343,0.202,0.689,0.219,1.04
			c0.018,0.35-0.04,0.703-0.188,1.031l-0.001,0.001l0.039-0.043c-0.781,0.509-1.642,0.933-2.471,1.399
			c-0.832,0.465-1.667,0.935-2.442,1.531c-0.372,0.316-0.786,0.614-0.992,1.196c-0.098,0.399,0.054,0.585,0.096,0.83
			c0.059,0.241,0.148,0.464,0.226,0.694c0.329,0.908,0.711,1.786,1.106,2.654c0.788,1.738,1.618,3.448,2.382,5.181
			c0.376,0.866,0.749,1.734,1.061,2.614c0.167,0.438,0.297,0.881,0.428,1.321l0.16,0.661l0.094,0.648v0.001l0.083-0.326
			c-0.536,0.822-0.849,1.709-1.087,2.597c-0.23,0.896-0.385,1.781-0.467,2.712l0.093-0.257l-13.129,18.278L-32.702,95.526z"/>
	</g>
	<path stroke="#000000" stroke-miterlimit="10" d="M-32.829,94.992c0,0,10.319-15.004,12.817-17.893
		c26.032,5.47,54.979-3.131,54.979-3.131L49.59,94.968L-32.829,94.992z"/>
	<path fill="#D40000" d="M-31.739,94.868c0,0,7.773-10.854,9.906-13.862c31.024,6.129,57.601-3.395,57.601-3.395l12.374,17.257
		H-31.739z"/>
	<polyline fill="#FFFFFF" points="-27.048,94.868 -20.47,84.215 -7.398,85.93 -10.738,94.825 	"/>
	<path fill="#FFFFFF" d="M-5.36,94.825c0,0,2.041-6.685,2.673-8.747c5.494,0.162,16.561-0.81,16.561-0.81l2.642,9.557"/>
	<path fill="#E2CF00" stroke="#131F67" stroke-miterlimit="10" d="M-64.061,28.624c0,0,0.815,2.873,3.048,5.012
		c1.274,1.22,4.81,2.583,6.539,2.939c1.755,0.36,5.378,0.009,7.165,0.141c4.708,0.35,7.439,2.311,7.37,2.028
		c-0.067-0.282-0.642-2.85-1.296-4.11c-0.603-1.159-2.55-2.526-3.746-3.053c-1.549-0.683-4.543-1.243-6.233-1.155
		c-2.296,0.119-5.573,0.026-7.915-1.07c-1.121-0.523-2.178-2.593-3.206-2.571C-62.965,26.796-64.061,28.624-64.061,28.624z"/>
	<path fill="#FFFFFF" d="M22.559,94.868l-2.866-10.377c0,0,12.131-2.573,13.964-3.078c0.994,1.544,8.98,13.455,8.98,13.455"/>
	<path fill="#131F67" d="M-14.736,65.426c0.175,0.37,0.115,1.239,0.023,1.638c-0.234,1.007-2.602,2.945-1.879,3.688
		c0.232,0.238,0.881-0.649,1.205-0.573c0.804,0.194,1.77,1.151,3.691,1.146c1.108-0.004,3.329-0.419,4.366-0.813
		c1.364-0.52,3.846-2.121,4.995-3.018c0.355-0.278,1.55-0.908,1.278-1.268c-0.51-0.679-2.224,1.242-2.968,1.653
		c-0.924,0.511-2.696,1.712-3.704,2.026c-0.876,0.272-2.731,0.462-3.644,0.379c-0.474-0.043-2.305-0.521-1.828-0.541
		c1.067-0.043,2.611,0.068,3.453-0.129c0.93-0.219,2.655-1.096,3.481-1.574c0.468-0.271,1.312-0.95,1.751-1.268
		c0.859-0.617,2.871-1.705,3.18-2.475c0.395-0.993-2.845,0.951-3.906,0.849c-0.691-0.065-1.913-0.817-2.564-1.056
		c-1.479-0.541-3.05-0.118-3.311-0.845c-0.221-0.614,1.376-1.416,1.952-1.721c0.663-0.352,3.14-1.236,2.556-1.206
		c-0.812,0.042-2.387,0.543-3.139,0.854c-1.183,0.492-3.232,2.135-4.441,2.563c-0.509,0.181-2.268,0.102-2.413,0.621
		C-16.741,64.859-14.958,64.955-14.736,65.426z"/>
	<path fill="#131F67" d="M-20.851,56.285c-0.253,0.316,0.072,1.329,0.397,1.57c0.513,0.381,1.569,0.241,2.552-0.116
		c0.712-0.26,1.896-1.309,2.654-1.454c0.513-0.1,1.566-0.037,1.784,0.438c0.173,0.374,0.22,1.1-0.375,1.91
		c-0.311,0.421-2.48,1.472-1.682,1.525c0.467,0.032,1.499-0.344,1.892-0.601c0.521-0.34,1.163-1.694,1.193-2.316
		c0.026-0.528-0.22-1.355-0.556-1.763c-0.319-0.384-1.297-0.822-1.793-0.872c-0.723-0.075-2.817,0.712-2.817,0.712
		s-0.954,0.432-1.752,0.665C-19.719,56.091-20.613,55.985-20.851,56.285z"/>
	<path fill="#131F67" d="M-15.985,51.184c-0.176,0.443,0.774,1.26,1.192,1.488c0.633,0.351,1.514,0.633,2.873,0.324
		c0.976-0.223,2.722-1.35,3.672-1.666c0.892-0.296,2.057-0.336,2.668-0.146c1.262,0.392,1.178,1.27,1.199,1.812
		c0.016,0.459-0.436,0.973-0.969,1.242c-0.506,0.254-2.096,0.681-1.658,0.758c0.697,0.125,2.221-0.043,2.768-0.526
		c0.45-0.399,0.951-0.991,0.951-2.207c0-0.984-0.919-1.876-1.477-2.175c-1.334-0.715-2.367-0.636-3.15-0.486
		c-0.775,0.147-2.278,0.582-3.062,0.765c-0.711,0.166-2.149,0.409-2.871,0.524C-14.381,50.976-15.783,50.684-15.985,51.184z"/>
	<path fill="#131F67" d="M-14.799,38.963c0,0-0.176,3.527-1.895,6.917c0.294,0.66,0.444,1.101,2.47,1.051
		c1.043-0.024,3.237-1.103,3.891-1.243c0.519-0.112-0.655,1.604-0.821,2.107c-0.101,0.307-0.331,1.309-0.331,1.169
		s-1.056-0.479-1.536-0.461c-0.703,0.028-1.604,0.731-2.66,0.845c-0.667,0.074-3.236,0.153-3.236,0.153"/>
	<path fill="none" stroke="#000000" stroke-miterlimit="10" d="M-11.864,66.82"/>
	<path fill="#FFFFFF" d="M-11.656,64.765c-0.262,0.469,0.113,1.68,0.448,2.099c0.2,0.256,0.62,0.45,0.896,0.275
		c0.219-0.139,0.378-0.515,0.279-0.754C-10.254,65.855-11.208,63.972-11.656,64.765z"/>
	<path fill="#FFFFFF" stroke="#131F67" stroke-miterlimit="10" d="M67.04,70.215c-7.278,5.326-9.224,9.949-9.933,15.311
		c-8.957-9.69-9.362-27.088-0.337-38.197c0.729,3.414,1.917,11.039,10.411,15.769"/>
	<path fill="#FFFFFF" d="M-9.993,64.573c-0.632,0.142,0.45,2.116,1.074,2.293c0.563,0.16,2.106-0.541,2.056-1.124
		C-6.939,64.863-8.975,64.345-9.993,64.573z"/>
	<path fill="#E2CF00" stroke="#000000" stroke-miterlimit="10" d="M57.051,47.328c-2.682,5.077-1.091,15.01-1.091,15.01l-5.28,4.368
		l4.984,3.939c0,0-1.254,9.592,1.387,14.483c0,0,0.742-9.484,10.41-15.245c0-1.148,0-4.875,0-6.69
		C59.283,60.596,57.051,47.328,57.051,47.328z"/>
	<path fill="#131F67" d="M-17.355,74.895c-0.679-0.133,0.992-2.063,1.67-2.205c2.158-0.454,5.947-0.079,7.82-0.66
		c2.018-0.629,4.776-2.305,7.059-4.257c0.475-0.407,0.651,0.996-0.42,1.927c-1.204,1.05-4.707,3.577-6.201,4.141
		C-9.898,74.771-15.573,75.243-17.355,74.895z"/>
	<path fill="#131F67" d="M11.024,53.724c0,0-2.251-0.497-2.962-0.281c-1.23,0.374-1.655,1.621-1.824,2.344
		c-0.151,0.655,0.169,2.079,0.547,2.636c0.229,0.337,1.502,1.273,1.358,0.895c-0.358-0.942-0.761-2.332-0.587-3.104
		c0.1-0.445,0.619-1.447,1.074-1.478c2.022-0.134,3.011,1.496,3.011,1.496L11.024,53.724z"/>
	<path d="M-63.865,28.221c0,0,2.297,3.646,3.408,4.522c0.381,0.302,1.299,0.726,1.782,0.779c0.155,0.016,0.457-0.147,0.61-0.121
		c0.487,0.09,1.188,1.069,1.683,1.04c0.302-0.018,0.646-0.73,0.949-0.753c0.433-0.033,1.077,0.892,1.512,0.868
		c0.354-0.021,0.79-0.804,1.143-0.837c0.328-0.03,0.857,0.567,1.188,0.57c0.315,0.001,0.824-0.539,1.139-0.533
		c0.245,0.006,0.625,0.43,0.869,0.456c0.335,0.04,0.977-0.417,1.304-0.342c0.263,0.061,0.547,0.705,0.817,0.7
		c0.255-0.003,0.501-0.683,0.758-0.69c0.321-0.009,0.66,0.807,0.979,0.83c0.217,0.014,0.729-0.465,0.729-0.465
		s1.901,1.241,1.724,0.799c-0.973-2.404-4.131-2.867-5.229-3.124c-2.19-0.514-6.516-0.116-8.983-0.548
		c-1.251-0.219-3.159-0.46-4.567-2.224c-0.56-0.698-0.635-1.141-0.635-1.563"/>
	<polygon fill="#E2CF00" points="-38.476,-14.766 -39.516,-12.233 -41.306,-14.687 	"/>
	<path fill="#E91A00" d="M-77.268-5.691c5.896,5.851,12.586,12.16,17.809,15.748c0.671-1.144-0.37-5.343-2.073-7.629
		C-65.51-2.906-75.199-6.074-77.268-5.691z"/>
	<path fill="#E91A00" d="M-77.027-7.332c3.953,1.312,9.654,2.889,14.95,6.967c-0.376-1.603-0.486-3.312-2.45-5.669
		C-66.485-8.386-75.166-9.116-77.027-7.332z"/>
	<path fill="#E91A00" d="M-77.331-10.648c-0.431-0.241-0.094-1.791,0.099-2.246c0.645-1.526,3.22-4.015,4.871-3.886
		c1.102,1.043,1.535,1.487,2.305,2.548C-73.288-13.221-74.687-13.035-77.331-10.648z"/>
	<path fill="#E91A00" d="M-77.398-14.579c-1.028-0.75,0.831-4.349,2.067-4.662c0.518-0.13,1.669,0.777,1.688,1.312
		C-74.92-17.067-76.324-15.513-77.398-14.579z"/>
	<path fill="#E91A00" d="M-77.513-18.918c-0.46-0.183-0.145-1.458-0.036-1.981c0.315-0.178,1.18,0.413,1.223,0.771
		C-76.76-19.568-77.118-18.761-77.513-18.918z"/>
	<polygon fill="#D40000" points="-22.217,94.899 -18.33,87.762 -11.965,88.77 -14.448,94.825 	"/>
	<polygon fill="#D40000" points="-1.584,94.893 -0.362,89.241 11.345,88.863 12.777,94.912 	"/>
	<polygon fill="#E2CF00" stroke="#000000" stroke-miterlimit="10" points="67.234,78.315 79.033,85.874 78.619,17.084 
		66.623,24.289 	"/>
	<polygon fill="#D40000" stroke="#000000" stroke-miterlimit="10" points="78.979,81.625 70.077,76.566 70.162,22.442 
		79.033,17.084 	"/>
	<polygon fill="#D40000" points="25.945,94.868 23.625,87.002 32.472,84.934 38.343,94.912 	"/>
	<line fill="#D40000" stroke="#000000" stroke-miterlimit="10" x1="70.084" y1="73.271" x2="78.984" y2="77.497"/>
	<line fill="#D40000" stroke="#000000" stroke-miterlimit="10" x1="70.084" y1="69.046" x2="78.984" y2="73.271"/>
	<line fill="#D40000" stroke="#000000" stroke-miterlimit="10" x1="70.106" y1="64.82" x2="79.006" y2="69.046"/>
	<line fill="#D40000" stroke="#000000" stroke-miterlimit="10" x1="70.106" y1="60.596" x2="79.006" y2="64.82"/>
	<line fill="#D40000" stroke="#000000" stroke-miterlimit="10" x1="70.106" y1="56.37" x2="79.006" y2="60.596"/>
	<line fill="#D40000" stroke="#000000" stroke-miterlimit="10" x1="70.106" y1="52.367" x2="79.006" y2="56.592"/>
	<line fill="#D40000" stroke="#000000" stroke-miterlimit="10" x1="70.084" y1="48.142" x2="78.984" y2="52.367"/>
	<line fill="#D40000" stroke="#000000" stroke-miterlimit="10" x1="70.106" y1="43.916" x2="79.006" y2="48.142"/>
	<line fill="#D40000" stroke="#000000" stroke-miterlimit="10" x1="70.106" y1="39.691" x2="79.006" y2="43.916"/>
	<line fill="#D40000" stroke="#000000" stroke-miterlimit="10" x1="70.106" y1="35.465" x2="79.006" y2="39.691"/>
	<line fill="#D40000" stroke="#000000" stroke-miterlimit="10" x1="70.084" y1="30.881" x2="78.984" y2="35.106"/>
	<line fill="#D40000" stroke="#000000" stroke-miterlimit="10" x1="70.084" y1="26.655" x2="78.984" y2="30.881"/>
	<line fill="#D40000" stroke="#000000" stroke-miterlimit="10" x1="70.084" y1="22.43" x2="78.984" y2="26.655"/>
	<line fill="#D40000" stroke="#000000" stroke-miterlimit="10" x1="73.739" y1="19.882" x2="79.006" y2="22.43"/>
	<path fill="#D40000" d="M-46.979-83.135c-18.512,18.118-20.99,41.106-20.99,41.106s23.055,15.011,28.393,46.499
		c1.501-2.669,3.135-5.888,5.195-10.499c-25.046-21.92-17.521-56.298-6.525-68.884C-42.541-77.127-44.834-80.23-46.979-83.135z"/>
	<path fill="none" stroke="#E2CF00" stroke-miterlimit="10" d="M-31.508-16.184c-13.127-12.417-13.687-38.597-3.656-50.741"/>
	<path fill="none" stroke="#E2CF00" stroke-miterlimit="10" d="M-33.336-64.566c-13.442,21.897-2.82,48.383,17.703,55.804"/>
	<path fill="none" stroke="#E2CF00" stroke-miterlimit="10" d="M-29.597-15.632C-34.381,1.131-39.633,8.628-47.442,18.49"/>
	<path fill="none" stroke="#E2CF00" stroke-miterlimit="10" d="M-16.934-7.105c-4.41,16.658-12.164,26.018-17.845,33.316"/>
	<path fill="none" stroke="#E2CF00" stroke-width="3" stroke-miterlimit="10" d="M-29.098,29.997c0,0,0.318-5.327,1.232-6.555
		c1.564-2.098,7.591-2.905,9.225-4.952c2.013-2.525,0.464-9.827,1.707-12.808c1.001-2.4,6.699-4.662,7.609-7.1
		c0.86-2.31-2.16-7.703-1.771-10.136c0.33-2.068,1.678-4.564,1.678-4.564"/>
	<path fill="none" stroke="#E2CF00" stroke-miterlimit="10" d="M-22.951,32.48c8.717-11.147,19.96-31.644,20.975-47.705"/>
	<path fill="#E91A00" d="M-77.657-8.637c4.881-1.304,8.105-0.32,11.601,0c-0.479-1.41-1.805-3.123-2.862-4.292
		C-69.552-13.607-77.027-10.913-77.657-8.637z"/>
	<polygon fill="#E2CF00" points="37.636,35.539 -17.862,35.539 -13.948,37.217 37.636,37.217 	"/>
	<line fill="none" stroke="#E2CF00" stroke-miterlimit="10" x1="-18.113" y1="26.211" x2="32.973" y2="26.211"/>
	<path fill="none" stroke="#E2CF00" stroke-width="3" stroke-miterlimit="10" d="M48.568,31.287c0,0,0.274-6.001-1.063-7.53
		c-1.749-1.998-8.144-1.146-10.062-2.981c-2.331-2.231,0.019-9.605-1.763-12.298c-1.588-2.396-7.919-1.676-10.44-4.472
		c-1.892-2.096,0.147-8.959-1.491-11.272c-1.516-2.141-7.738-2.087-9.566-3.872c-2.102-2.051-2.824-6.376-2.824-6.376"/>
	<path fill="none" stroke="#E2CF00" stroke-miterlimit="10" d="M-13.26-25.787c-9.691-5.702-10.779-14.699-9.23-23.943"/>
	<path fill="#E2CF00" d="M-48.688-85.276c-11.002,9.412-20.396,29.614-21.694,41.64l1.386,1.02
		c1.267-11.714,10.687-32.221,21.397-41.385L-48.688-85.276z"/>
	<line fill="none" stroke="#E2CF00" stroke-miterlimit="10" x1="-55.52" y1="-95.009" x2="-78.043" y2="-79.659"/>
	<path fill="#E2CF00" d="M-78.631-26.229l-0.907,1.412c11.896,7.643,20.235,21.484,21.247,36.125l1.674,1.282
		C-58.336-5.492-66.305-18.309-78.631-26.229z"/>
	<path fill="#E2CF00" d="M-77.633-46.511l-0.676,1.535c10.173,4.471,19.127,12.323,25.899,22.704
		c5.956,9.131,10.349,20.342,11.083,29.782l1.112-1.807C-40.968-4.01-44.9-13.828-51.005-23.188
		C-57.956-33.842-67.162-41.907-77.633-46.511z"/>
	<path fill="none" stroke="#E2CF00" stroke-miterlimit="10" d="M-36.809,24.105c-11.022-4.806-5.562-16.264,6.447-7.755"/>
	<path fill="none" stroke="#E2CF00" stroke-miterlimit="10" d="M-28.438,13.574C-40.49,9.553-35.844-1.4-24.784,6.658"/>
	<path fill="#FFFFFF" d="M-77.627-48.075c0,0,4.332,2.261,6.321,3.35c3.42-25.841,22.612-41.559,22.612-41.559l-4.936-7.133
		l-23.999,16.808L-77.627-48.075z"/>
	<line fill="none" stroke="#131F67" stroke-miterlimit="10" x1="-72.872" y1="-45.57" x2="-71.044" y2="-46.48"/>
	<line fill="none" stroke="#131F67" stroke-miterlimit="10" x1="-76.041" y1="-46.48" x2="-70.402" y2="-49.837"/>
	<line fill="none" stroke="#131F67" stroke-miterlimit="10" x1="-77.628" y1="-49.022" x2="-69.295" y2="-54.121"/>
	<line fill="none" stroke="#131F67" stroke-miterlimit="10" x1="-77.627" y1="-52.237" x2="-67.693" y2="-58.828"/>
	<line fill="none" stroke="#131F67" stroke-miterlimit="10" x1="-77.628" y1="-55.533" x2="-65.87" y2="-63.13"/>
	<line fill="none" stroke="#131F67" stroke-miterlimit="10" x1="-77.628" y1="-58.828" x2="-63.16" y2="-68.404"/>
	<line fill="none" stroke="#131F67" stroke-miterlimit="10" x1="-77.628" y1="-62.579" x2="-59.059" y2="-74.72"/>
	<line fill="none" stroke="#131F67" stroke-miterlimit="10" x1="-77.627" y1="-66.213" x2="-52.209" y2="-83.262"/>
	<line fill="none" stroke="#131F67" stroke-miterlimit="10" x1="-77.628" y1="-69.706" x2="-50.532" y2="-88.433"/>
	<line fill="none" stroke="#131F67" stroke-miterlimit="10" x1="-77.628" y1="-73.48" x2="-51.93" y2="-90.864"/>
	<g>
		<path fill="#131F67" d="M-69.491-69.359c0,0,0.263-0.078,0.644-0.282c0.19-0.085,0.395-0.278,0.607-0.53
			c0.246-0.245,0.408-0.555,0.571-0.896c0.191-0.338,0.292-0.723,0.453-1.127c0.107-0.403,0.258-0.839,0.329-1.279
			c0.195-0.892,0.279-1.823,0.353-2.735c0.05-0.888,0.099-1.775,0.146-2.607c0.043-0.396,0.061-0.794,0.109-1.148
			c0.029-0.365,0.059-0.707,0.097-1.021c0.005-0.328,0.064-0.609,0.085-0.878c0.023-0.27,0.044-0.511,0.082-0.704
			c0.055-0.398,0.062-0.665,0.062-0.665l0.001-0.012c0.001-0.065-0.051-0.119-0.115-0.121c-0.024-0.001-0.047,0.006-0.065,0.018
			c0,0-0.214,0.131-0.547,0.429c-0.173,0.146-0.355,0.343-0.527,0.593c-0.195,0.242-0.373,0.54-0.536,0.875
			c-0.173,0.337-0.313,0.714-0.424,1.119c-0.131,0.408-0.183,0.835-0.268,1.281c-0.134,0.881-0.205,1.821-0.242,2.724
			c-0.037,0.903-0.038,1.793-0.096,2.589c-0.014,0.409-0.073,0.774-0.109,1.14c-0.08,0.339-0.109,0.69-0.218,0.969
			c-0.085,0.286-0.163,0.549-0.232,0.781c-0.067,0.226-0.091,0.461-0.177,0.667c-0.123,0.413-0.147,0.688-0.147,0.688
			c-0.007,0.071,0.046,0.134,0.117,0.14C-69.523-69.353-69.506-69.354-69.491-69.359z"/>
	</g>
	<g>
		<path fill="#131F67" d="M-75.581-65.138c0,0,0.263-0.079,0.644-0.282c0.189-0.085,0.395-0.278,0.607-0.53
			c0.246-0.245,0.408-0.555,0.571-0.896c0.19-0.338,0.292-0.723,0.453-1.127c0.106-0.403,0.257-0.839,0.329-1.279
			c0.195-0.893,0.278-1.823,0.352-2.736c0.05-0.887,0.099-1.774,0.145-2.606c0.044-0.396,0.061-0.794,0.11-1.148
			c0.028-0.365,0.058-0.707,0.097-1.021c0.004-0.328,0.063-0.609,0.085-0.878c0.022-0.27,0.043-0.511,0.081-0.704
			c0.055-0.398,0.062-0.665,0.062-0.665l0.001-0.012c0.001-0.065-0.051-0.119-0.115-0.121c-0.024-0.001-0.047,0.006-0.065,0.018
			c0,0-0.214,0.131-0.547,0.429c-0.173,0.146-0.355,0.343-0.527,0.593c-0.195,0.242-0.373,0.541-0.535,0.876
			c-0.173,0.336-0.313,0.713-0.425,1.118c-0.13,0.408-0.182,0.835-0.267,1.281c-0.134,0.881-0.205,1.821-0.242,2.724
			c-0.036,0.903-0.037,1.793-0.095,2.589c-0.014,0.409-0.074,0.774-0.109,1.14c-0.08,0.339-0.109,0.69-0.219,0.969
			c-0.085,0.286-0.162,0.548-0.231,0.781c-0.067,0.226-0.091,0.461-0.178,0.667c-0.122,0.413-0.146,0.688-0.146,0.688
			c-0.007,0.071,0.046,0.134,0.117,0.14C-75.613-65.131-75.596-65.133-75.581-65.138z"/>
	</g>
	<g>
		<path fill="#131F67" d="M-63.077-74.033c0,0,0.263-0.079,0.644-0.282c0.19-0.085,0.395-0.278,0.607-0.531
			c0.246-0.244,0.408-0.555,0.57-0.895c0.191-0.339,0.293-0.724,0.453-1.128c0.107-0.402,0.258-0.838,0.33-1.279
			c0.194-0.892,0.278-1.823,0.352-2.735c0.05-0.888,0.1-1.775,0.146-2.607c0.044-0.396,0.061-0.794,0.11-1.148
			c0.028-0.365,0.058-0.707,0.096-1.021c0.005-0.328,0.064-0.609,0.086-0.878c0.023-0.27,0.043-0.511,0.081-0.704
			c0.054-0.398,0.062-0.665,0.062-0.665v-0.012c0.002-0.065-0.049-0.119-0.114-0.121c-0.024-0.001-0.047,0.006-0.065,0.018
			c0,0-0.214,0.131-0.547,0.429c-0.174,0.146-0.355,0.343-0.527,0.594c-0.195,0.241-0.373,0.54-0.535,0.875
			c-0.174,0.336-0.314,0.713-0.425,1.118c-0.13,0.408-0.183,0.835-0.268,1.281c-0.134,0.881-0.205,1.821-0.242,2.724
			c-0.037,0.903-0.038,1.793-0.096,2.59c-0.014,0.408-0.073,0.774-0.109,1.14c-0.079,0.338-0.108,0.69-0.218,0.969
			c-0.085,0.286-0.163,0.548-0.232,0.78c-0.066,0.227-0.09,0.461-0.177,0.668c-0.122,0.413-0.146,0.688-0.146,0.688
			c-0.007,0.071,0.046,0.134,0.117,0.14C-63.109-74.026-63.092-74.028-63.077-74.033z"/>
	</g>
	<g>
		<path fill="#131F67" d="M-57.283-78.007c0,0,0.264-0.078,0.644-0.282c0.19-0.084,0.395-0.278,0.608-0.53
			c0.245-0.244,0.407-0.555,0.57-0.895c0.191-0.339,0.293-0.724,0.453-1.128c0.107-0.402,0.258-0.839,0.33-1.279
			c0.194-0.892,0.278-1.823,0.352-2.735c0.049-0.888,0.099-1.775,0.145-2.607c0.044-0.396,0.061-0.794,0.11-1.148
			c0.028-0.365,0.058-0.707,0.096-1.021c0.005-0.328,0.064-0.609,0.085-0.878c0.023-0.27,0.044-0.511,0.082-0.704
			c0.055-0.398,0.062-0.665,0.062-0.665l0.001-0.012c0.001-0.065-0.051-0.119-0.115-0.121c-0.024-0.001-0.047,0.006-0.065,0.018
			c0,0-0.214,0.131-0.547,0.429c-0.173,0.146-0.355,0.343-0.527,0.594c-0.195,0.241-0.373,0.54-0.535,0.875
			c-0.173,0.336-0.314,0.713-0.425,1.118c-0.13,0.408-0.183,0.835-0.268,1.281c-0.134,0.882-0.204,1.821-0.242,2.724
			c-0.036,0.903-0.037,1.793-0.094,2.589c-0.015,0.409-0.074,0.775-0.109,1.14c-0.08,0.339-0.109,0.69-0.219,0.969
			c-0.085,0.286-0.163,0.549-0.232,0.781c-0.067,0.226-0.091,0.461-0.177,0.667c-0.123,0.413-0.147,0.688-0.147,0.688
			c-0.006,0.071,0.046,0.134,0.117,0.14C-57.315-78-57.299-78.002-57.283-78.007z"/>
	</g>
	<path fill="none" stroke="#E2CF00" stroke-miterlimit="10" d="M-23.234,3.403c-11.264-3.45-8.273-13.438,3.934-8.033"/>
	<polygon fill="#E2CF00" points="-19.868,34.591 -13.261,34.591 -13.261,27.984 -19.868,27.984 	"/>
	<polygon fill="#E2CF00" points="-4.766,34.591 1.844,34.591 1.844,27.984 -4.766,27.984 	"/>
	<polygon fill="#E2CF00" points="9.819,34.591 16.428,34.591 16.428,27.984 9.819,27.984 	"/>
	<polygon fill="#E2CF00" points="25.141,34.591 31.748,34.591 31.748,27.984 25.141,27.984 	"/>
	<path fill="#E2CF00" d="M-7.288,31.287c0-1.005-0.814-1.817-1.816-1.817c-1.003,0-1.817,0.812-1.817,1.817
		c0,1.004,0.814,1.817,1.817,1.817C-8.103,33.104-7.288,32.291-7.288,31.287z"/>
	<path fill="#E2CF00" d="M7.897,31.287c0-1.005-0.812-1.817-1.816-1.817c-1.003,0-1.817,0.812-1.817,1.817
		c0,1.004,0.814,1.817,1.817,1.817C7.085,33.104,7.897,32.291,7.897,31.287z"/>
	<path fill="#E2CF00" d="M22.711,31.287c0-1.005-0.813-1.817-1.816-1.817c-1.004,0-1.818,0.812-1.818,1.817
		c0,1.004,0.814,1.817,1.818,1.817C21.897,33.104,22.711,32.291,22.711,31.287z"/>
	<path fill="#E2CF00" d="M37.71,31.287c0-1.005-0.812-1.817-1.816-1.817c-1.003,0-1.815,0.812-1.815,1.817
		c0,1.004,0.812,1.817,1.815,1.817C36.897,33.104,37.71,32.291,37.71,31.287z"/>
	<path fill="none" stroke="#000000" stroke-miterlimit="10" d="M30.261,31.287c0-1.005-0.812-1.817-1.816-1.817
		c-1.003,0-1.815,0.812-1.815,1.817c0,1.004,0.812,1.817,1.815,1.817C29.448,33.104,30.261,32.291,30.261,31.287z"/>
	<path fill="none" stroke="#000000" stroke-miterlimit="10" d="M14.939,31.287c0-1.005-0.813-1.817-1.816-1.817
		s-1.816,0.812-1.816,1.817c0,1.004,0.813,1.817,1.816,1.817S14.939,32.291,14.939,31.287z"/>
	<path fill="none" stroke="#000000" stroke-miterlimit="10" d="M0.355,31.287c0-1.005-0.813-1.817-1.816-1.817
		s-1.816,0.812-1.816,1.817c0,1.004,0.813,1.817,1.816,1.817S0.355,32.291,0.355,31.287z"/>
	<path fill="none" stroke="#000000" stroke-miterlimit="10" d="M-14.748,31.287c0-1.005-0.813-1.817-1.817-1.817
		c-1.002,0-1.815,0.812-1.815,1.817c0,1.004,0.813,1.817,1.815,1.817C-15.562,33.104-14.748,32.291-14.748,31.287z"/>
	<path fill="#E2CF00" d="M-22.222,25.921c0-1.003-0.813-1.815-1.817-1.815c-1.003,0-1.815,0.812-1.815,1.815
		c0,1.004,0.812,1.817,1.815,1.817C-23.035,27.738-22.222,26.925-22.222,25.921z"/>
	<path fill="#E2CF00" d="M-20.147,15.775c0-1.003-0.813-1.817-1.815-1.817c-1.004,0-1.817,0.814-1.817,1.817
		c0,1.004,0.813,1.816,1.817,1.816C-20.961,17.592-20.147,16.779-20.147,15.775z"/>
	<path fill="#E2CF00" d="M-11.445,7.511c0-1.003-0.812-1.817-1.815-1.817s-1.817,0.814-1.817,1.817c0,1.004,0.814,1.817,1.817,1.817
		S-11.445,8.515-11.445,7.511z"/>
	<path fill="#E2CF00" d="M-11.445-2.656c0-1.004-0.812-1.818-1.815-1.818s-1.817,0.814-1.817,1.818c0,1.003,0.814,1.815,1.817,1.815
		S-11.445-1.653-11.445-2.656z"/>
	<path fill="#E2CF00" d="M-4.866-10.58c0-1.003-0.813-1.815-1.817-1.815c-1.002,0-1.814,0.812-1.814,1.815
		c0,1.004,0.812,1.817,1.814,1.817C-5.68-8.763-4.866-9.576-4.866-10.58z"/>
	<path fill="#E2CF00" d="M21.686-4.475c0-1.004-0.813-1.816-1.816-1.816s-1.817,0.812-1.817,1.816s0.814,1.818,1.817,1.818
		S21.686-3.471,21.686-4.475z"/>
	<path fill="#E2CF00" d="M30.82,0.976c0-1.004-0.812-1.816-1.818-1.816c-1.002,0-1.815,0.812-1.815,1.816S28,2.794,29.002,2.794
		C30.008,2.794,30.82,1.979,30.82,0.976z"/>
	<path fill="#E2CF00" d="M33.564,11.71c0-1.005-0.814-1.818-1.816-1.818c-1.004,0-1.817,0.813-1.817,1.818
		c0,1.003,0.813,1.816,1.817,1.816C32.75,13.526,33.564,12.713,33.564,11.71z"/>
	<path fill="#E2CF00" d="M42.461,17.499c0-1.004-0.813-1.817-1.816-1.817s-1.815,0.813-1.815,1.817c0,1.003,0.812,1.815,1.815,1.815
		S42.461,18.502,42.461,17.499z"/>
	<path fill="#E2CF00" d="M45.723,26.655c0-1.003-0.813-1.815-1.816-1.815c-1.004,0-1.816,0.812-1.816,1.815
		c0,1.004,0.812,1.817,1.816,1.817C44.909,28.473,45.723,27.659,45.723,26.655z"/>
	<line fill="none" stroke="#D40000" stroke-miterlimit="10" x1="3.98" y1="-16.118" x2="40.889" y2="34.226"/>
	<path fill="#131F67" d="M-14.38,24.28l44.641-0.279c0,0-20.011-27.22-29.393-40.648C-3.186,8.554-14.38,24.28-14.38,24.28z"/>
	<g>
		<path fill="#131F67" d="M-52.854,16.631c-0.299,0.942-0.51,1.791-0.82,2.69c-0.314,0.877-0.72,1.723-1.208,2.526
			c-0.489,0.802-1.079,1.549-1.758,2.208c-0.69,0.643-1.45,1.232-2.308,1.626c-0.426,0.198-0.869,0.358-1.319,0.441
			c-0.453,0.084-0.899,0.085-1.262-0.145c-0.839-0.45-1.649-0.968-2.437-1.51c-0.783-0.549-1.567-1.098-2.281-1.714
			c-0.357-0.307-0.709-0.615-1.011-0.949c-0.074-0.083-0.154-0.165-0.213-0.251c-0.065-0.089-0.146-0.188-0.121-0.167
			c-0.01,0.067,0.042-0.16,0.169-0.298c0.243-0.317,0.604-0.615,0.974-0.861c0.352-0.236,0.826-0.477,1.089-0.489
			c0.74,0.055,1.643,0.551,2.352,1.081c0.365,0.272,0.705,0.583,0.972,0.926c0.132,0.171,0.249,0.349,0.323,0.521
			c0.039,0.091,0.054,0.141,0.128,0.337c0.009,0.017-0.001,0.008,0.044,0.081c0.018,0.027,0.037,0.053,0.059,0.076
			c0.109,0.346,1.211-0.381,0.775-0.221c0.024-0.2,0.003-0.148,0.006-0.199l-0.016-0.111l-0.03-0.188
			c-0.08-0.478-0.169-0.945-0.21-1.393c-0.01-0.109-0.016-0.219-0.016-0.313c0.001-0.045,0.004-0.09,0.008-0.114
			c-0.007-0.024,0.038-0.039-0.061,0.093c-0.016,0.02-0.035,0.037-0.057,0.051c-0.006,0.004-0.101,0.062-0.054,0.034l0.01-0.005
			c0.017-0.01,0.032-0.016,0.001,0.003c-0.062,0.023-0.049,0.016-0.039,0.016c0.022-0.002,0.064-0.003,0.109-0.001
			c0.093,0.003,0.202,0.015,0.312,0.03c0.446,0.056,0.916,0.146,1.398,0.231l0.384,0.059c0.082,0.006,0.117,0.023,0.309,0.008
			c0.026-0.002,0.119-0.025,0.17-0.053c0.001,0,0.107-0.045,0.194-0.171c0.081-0.115,0.092-0.268,0.082-0.312
			c-0.1-0.382-0.155-0.291-0.197-0.368l-0.075-0.061c-0.167-0.135-0.336-0.291-0.492-0.451c-0.628-0.645-1.135-1.415-1.4-2.258
			c-0.275-0.841-0.283-1.751-0.056-2.615c0.213-0.873,0.658-1.695,1.203-2.449l0.175-0.241l-0.184-0.205
			c-0.509-0.568-1.045-1.081-1.59-1.573c-0.551-0.483-1.101-0.97-1.665-1.434c-1.122-0.939-2.261-1.85-3.417-2.746l-0.214-0.166
			L-66.336,5.8l-0.002,0.001c-0.71,0.528-1.383,1.079-2.022,1.7c-0.317,0.313-0.627,0.637-0.901,1.023
			c-0.137,0.195-0.268,0.402-0.36,0.669c-0.04,0.139-0.081,0.285-0.066,0.472c0.007,0.046-0.009-0.009,0.017,0.12l0.011,0.039
			l0.021,0.078c0.021,0.07,0.105,0.228,0.173,0.296c0.286,0.284,0.561,0.323,0.783,0.388l0.636,0.138
			c0.398,0.088,0.749,0.223,1.042,0.431c0.294,0.195,0.368,0.348,0.301,0.721c-0.052,0.377-0.26,0.728-0.285,1.338
			c-0.003,0.374,0.274,0.724,0.58,0.852c0.297,0.119,0.46,0.134,0.611,0.208c0.281,0.118,0.596,0.445,0.757,0.707
			c0.125,0.228,0.107,0.614,0,0.988c-0.05,0.189-0.119,0.382-0.194,0.581l-0.115,0.312l-0.057,0.186
			c-0.004,0.088-0.068,0.126,0.013,0.394c0.021,0.062,0.094,0.15,0.183,0.199c0.063,0.035,0.159,0.053,0.202,0.051
			c0.096-0.001,0.151-0.019,0.194-0.032l0.139-0.037c0.092-0.009,0.127-0.023,0.227-0.017c0.172-0.006,0.35,0.036,0.519,0.095
			c0.344,0.115,0.635,0.367,0.927,0.613c0.302,0.27,0.558,0.572,0.609,0.957c0.033,0.362-0.161,0.832-0.665,0.858l0.49,0.523
			c0.117-0.554,0.454-0.863,0.475-1.384c0.04-0.491-0.179-0.979-0.439-1.351c-0.29-0.388-0.687-0.694-1.159-0.872
			c-0.236-0.086-0.486-0.147-0.747-0.146c-0.116-0.013-0.296,0.015-0.417,0.035l-0.175,0.044c-0.008,0.003-0.005-0.001,0.036-0.002
			c0.018-0.001,0.086,0.007,0.125,0.034c0.068,0.031,0.117,0.105,0.132,0.139c0.046,0.164,0.012,0.092,0.029,0.076l0.041-0.123
			l0.113-0.293c0.079-0.204,0.16-0.418,0.225-0.645c0.12-0.443,0.228-0.981-0.044-1.541c-0.288-0.467-0.594-0.795-1.094-1.053
			c-0.238-0.115-0.509-0.169-0.609-0.219c-0.082-0.05-0.119-0.093-0.115-0.158c0.005-0.258,0.194-0.707,0.28-1.183
			c0.04-0.245,0.063-0.541-0.056-0.853c-0.035-0.084-0.087-0.174-0.139-0.254l-0.107-0.127c-0.15-0.145-0.205-0.185-0.319-0.272
			c-0.411-0.294-0.888-0.464-1.33-0.562c-0.418-0.091-0.938-0.187-1.007-0.281c-0.064,0.024,0.02-0.38,0.26-0.688
			c0.219-0.323,0.502-0.634,0.793-0.932c0.589-0.593,1.244-1.151,1.909-1.666l0.001-0.001l-0.432-0.004
			c1.146,0.888,2.283,1.798,3.395,2.729c0.561,0.46,1.102,0.939,1.646,1.416c0.536,0.485,1.052,0.98,1.517,1.497l-0.009-0.446
			c-0.616,0.784-1.15,1.666-1.439,2.665c-0.287,0.993-0.299,2.094,0.009,3.097c0.299,1.008,0.869,1.903,1.57,2.652
			c0.179,0.188,0.361,0.365,0.566,0.538l0.064,0.054c-0.021-0.056-0.051,0.053-0.143-0.297c-0.004-0.038-0.002-0.185,0.075-0.293
			c0.083-0.12,0.185-0.159,0.178-0.157c0.036-0.024,0.115-0.041,0.126-0.041c0.071-0.006-0.014-0.004-0.052-0.013l-0.33-0.058
			c-0.467-0.089-0.942-0.199-1.455-0.263c-0.13-0.015-0.262-0.026-0.41-0.028c-0.075,0-0.154,0.001-0.252,0.014
			c-0.05,0.009-0.098,0.01-0.216,0.053c-0.062,0.024-0.072,0.032-0.082,0.037l-0.011,0.006c0.041-0.024-0.062,0.036-0.072,0.046
			c-0.031,0.025-0.062,0.054-0.089,0.084c-0.172,0.227-0.152,0.336-0.175,0.43c-0.012,0.096-0.013,0.172-0.012,0.247
			c0.003,0.146,0.015,0.278,0.029,0.409c0.062,0.513,0.163,0.993,0.263,1.464l0.033,0.169l0.013,0.067
			c0.005-0.021-0.01,0.062,0.011-0.108c-0.433,0.168,0.658-0.554,0.763-0.212c0.018,0.017,0.033,0.035,0.047,0.056
			c0.036,0.062,0.021,0.038,0.023,0.041c-0.013-0.029-0.08-0.206-0.143-0.334c-0.128-0.267-0.29-0.487-0.462-0.692
			c-0.348-0.402-0.731-0.74-1.136-1.051c-0.406-0.306-0.837-0.576-1.3-0.802c-0.232-0.111-0.47-0.215-0.727-0.294
			c-0.121-0.043-0.264-0.079-0.415-0.108c-0.177-0.034-0.203-0.033-0.425-0.047c-0.707,0.069-1.093,0.359-1.547,0.633
			c-0.428,0.294-0.828,0.612-1.174,1.062c-0.145,0.241-0.392,0.469-0.297,1.026c0.085,0.259,0.194,0.33,0.264,0.439
			c0.079,0.112,0.168,0.203,0.256,0.3c0.352,0.377,0.72,0.716,1.113,1.015c0.78,0.608,1.592,1.153,2.431,1.651
			c0.839,0.497,1.69,0.968,2.576,1.386c0.488,0.268,1.078,0.224,1.558,0.13c0.499-0.1,0.968-0.278,1.414-0.494
			c1.77-0.886,3.276-2.221,4.474-3.803c0.601-0.792,1.1-1.665,1.478-2.592c0.388-0.9,0.677-1.929,0.676-2.894L-52.854,16.631z"/>
	</g>
	<g>
		<path fill="#131F67" d="M-64.402,28.36c-0.804,0.527-1.929,0.858-2.514,0.347c-0.077-0.072-0.412-0.395-0.436-0.519
			c-0.102-0.143-0.192-0.389-0.257-0.619c-0.073-0.238-0.11-0.494-0.185-0.794c-0.081-0.296-0.125-0.613-0.519-1.025l-0.167-0.125
			c-0.066-0.045-0.186-0.098-0.279-0.141c-0.23-0.103-0.321-0.105-0.482-0.158c-0.271-0.072-0.515-0.139-0.717-0.23
			c-0.2-0.095-0.366-0.203-0.488-0.358l-0.09-0.117c-0.008-0.005-0.05-0.072-0.03-0.024l-0.045-0.094
			c-0.06-0.124-0.131-0.26-0.147-0.351c-0.066-0.186-0.119-0.444-0.148-0.684c-0.031-0.246-0.029-0.493-0.021-0.741
			c0.038-0.495,0.163-0.977,0.362-1.422l0.111-0.248l-0.104-0.169c-0.084-0.139-0.19-0.316-0.288-0.405
			c-0.097-0.088-0.2-0.193-0.294-0.262c-0.193-0.148-0.377-0.277-0.557-0.397c-0.172-0.12-0.347-0.238-0.483-0.354
			c-0.083-0.059-0.123-0.114-0.175-0.166c-0.074-0.061-0.044-0.081-0.075-0.101c-0.01,0.026-0.04-0.183-0.052-0.248
			c0.004-0.075-0.01-0.137-0.003-0.222c0.007-0.17,0.034-0.34,0.087-0.495c0.051-0.156,0.127-0.296,0.221-0.419
			c0.093-0.124,0.217-0.213,0.342-0.306l0.457-0.334l-0.393-0.483l0,0c-0.12-0.146-0.26-0.251-0.382-0.421
			c-0.114-0.181-0.245-0.354-0.352-0.54l-0.272-0.578c-0.016-0.174-0.129-0.337-0.1-0.521c0-0.26,0.053-0.428,0.091-0.602
			c0.072-0.187,0.139-0.383,0.253-0.561c0.21-0.363,0.494-0.701,0.834-0.986c0.666-0.583,1.481-1.028,2.328-1.33
			c0.213-0.071,0.428-0.134,0.643-0.18l0.31-0.049c0.028-0.003,0.012,0.002-0.014-0.004c0.009,0.002-0.046-0.007-0.074-0.026
			c-0.044-0.033-0.037-0.012-0.104-0.106c-0.062-0.083-0.008-0.244-0.011-0.223c0.007-0.019,0.017-0.036,0.029-0.051
			c0.037-0.043,0.007-0.008-0.01,0.001l-0.139,0.099c-0.386,0.279-0.842,0.646-0.951,1.249c-0.053,0.294,0.022,0.597,0.149,0.833
			c0.159,0.261,0.253,0.402,0.479,0.613c0.394,0.364,0.914,0.583,1.458,0.55c0.273-0.003,0.527-0.105,0.767-0.214l0.327-0.216
			c0.027-0.021,0.052-0.032,0.082-0.06l0.034-0.029l0.031-0.032c0.002-0.031,0.024,0.051,0.073-0.18
			c-0.01-0.091-0.021-0.135-0.128-0.197c-0.121-0.053-0.219,0.007-0.193-0.005l-0.041,0.021l-0.053,0.031l-0.084,0.057
			c-0.403,0.303-0.744,0.653-1.026,1.068c-0.275,0.41-0.488,0.91-0.46,1.448c0.012,0.54,0.35,1.021,0.646,1.368
			c0.126,0.185,0.362,0.417,0.614,0.509c0.253,0.123,0.479,0.147,0.722,0.233c0.24,0.087,0.576,0.094,0.834,0.062l0.375-0.047
			c0.045-0.003,0.11-0.011,0.095,0.007c0.006,0.002-0.014,0.009-0.047,0.009c-0.009,0.002-0.078-0.001-0.158-0.043
			c-0.058-0.031-0.154-0.112-0.183-0.203c-0.023-0.043-0.036-0.089-0.037-0.136h1c-0.006-0.076-0.022-0.151-0.051-0.223
			c-0.049-0.11-0.153-0.229-0.241-0.266c-0.106-0.057-0.203-0.069-0.242-0.066c-0.062-0.002-0.112,0.005-0.135,0.012
			c-0.133,0.03-0.18,0.059-0.248,0.087l-0.303,0.149c-0.196,0.082-0.343,0.129-0.561,0.097c-0.461-0.056-0.873-0.065-1.114-0.45
			c-0.324-0.346-0.531-0.701-0.549-1.12c-0.019-0.41,0.152-0.824,0.401-1.185s0.577-0.689,0.929-0.946l0.062-0.042l0.022-0.014
			h-0.001c0.031-0.016-0.059,0.045-0.172-0.009c-0.097-0.066-0.108-0.105-0.124-0.188c0.045-0.216,0.056-0.124,0.047-0.146h0.001
			l-0.033,0.028c-0.013,0.013-0.042,0.027-0.062,0.041l-0.263,0.17c-0.188,0.078-0.378,0.158-0.58,0.155
			c-0.396,0.023-0.806-0.155-1.095-0.429c-0.295-0.275-0.558-0.691-0.479-1.021c0.059-0.352,0.398-0.647,0.768-0.889l0.151-0.101
			c0.032-0.026,0.05-0.024,0.127-0.111c0.016-0.021,0.03-0.045,0.041-0.069c0.003,0.017,0.052-0.153-0.01-0.243
			c-0.065-0.104-0.07-0.082-0.119-0.119c-0.036-0.021-0.097-0.035-0.095-0.033c-0.056-0.008-0.102-0.005-0.103-0.005
			c-0.145,0.013-0.26,0.026-0.389,0.046c-0.246,0.044-0.485,0.105-0.721,0.175c-0.932,0.299-1.814,0.739-2.587,1.367
			c-0.388,0.311-0.74,0.682-1.026,1.115c-0.151,0.212-0.257,0.456-0.362,0.703c-0.088,0.279-0.158,0.565-0.168,0.78
			c-0.052,0.286,0.062,0.575,0.103,0.863l0.288,0.715c0.115,0.228,0.246,0.446,0.371,0.67c0.136,0.222,0.347,0.44,0.527,0.654v0.001
			l0.064-0.817c-0.232,0.154-0.452,0.326-0.623,0.551c-0.17,0.22-0.3,0.466-0.383,0.721c-0.085,0.254-0.127,0.517-0.138,0.778
			c-0.009,0.13,0.009,0.285,0.019,0.426c0.029,0.145,0.012,0.158,0.085,0.383c0.072,0.168,0.17,0.362,0.267,0.443
			c0.097,0.105,0.198,0.215,0.292,0.282c0.194,0.163,0.38,0.286,0.562,0.413c0.18,0.121,0.35,0.241,0.501,0.356
			c0.081,0.059,0.124,0.113,0.19,0.168c0.062,0.058,0.05,0.082,0.096,0.115l0.008-0.417c-0.26,0.569-0.413,1.176-0.459,1.79
			c-0.014,0.308-0.014,0.615,0.025,0.923c0.04,0.311,0.09,0.602,0.213,0.939c0.054,0.179,0.116,0.288,0.176,0.415l0.045,0.095
			c0.062,0.102,0.062,0.09,0.097,0.141l0.163,0.214c0.225,0.277,0.537,0.483,0.838,0.619c0.305,0.137,0.602,0.213,0.866,0.284
			c0.104,0.032,0.289,0.078,0.311,0.096c0.031,0.015,0.05-0.001,0.1,0.029l0.167,0.125l0.021,0.016l0.005,0.004
			c-0.124-0.114-0.033-0.031-0.062-0.057l0.001,0.002l0.003,0.006l0.012,0.023l0.026,0.044c0.019,0.027,0.043,0.051,0.057,0.108
			c0.033,0.095,0.071,0.189,0.097,0.324c0.062,0.239,0.105,0.535,0.194,0.83c0.09,0.298,0.179,0.591,0.391,0.907
			c0.098,0.161,0.2,0.312,0.292,0.395l0.142,0.152l0.071,0.076l0.019,0.02c0.081,0.079,0.037,0.033,0.062,0.057l0.055,0.04
			c0.572,0.473,1.366,0.552,1.984,0.419c0.641-0.125,1.182-0.379,1.715-0.721L-64.402,28.36z"/>
	</g>
	<g>
		<path fill="#131F67" d="M-65.147,16.763c0,0-0.352,0.294-0.893,0.712c-0.55,0.406-1.272,0.964-2.032,1.467
			c-0.765,0.489-1.516,0.999-2.136,1.293c-0.614,0.304-1.069,0.428-1.069,0.428l0.525,0.852c0,0,0.321-0.353,0.872-0.765
			c0.543-0.423,1.349-0.859,2.13-1.335c0.763-0.498,1.562-0.941,2.154-1.286c0.601-0.332,1.011-0.539,1.011-0.539L-65.147,16.763z"
			/>
	</g>
	<g>
		<path fill="#131F67" d="M-66.803,12.976c0,0-0.314,0.283-0.804,0.681c-0.508,0.363-1.14,0.95-1.819,1.438
			c-0.668,0.48-1.349,0.987-1.915,1.208c-0.562,0.233-0.942,0.32-0.942,0.32l0.393,0.92c0,0,0.339-0.33,0.858-0.722
			c0.272-0.185,0.548-0.425,0.862-0.661c0.312-0.236,0.659-0.471,1.004-0.706c0.686-0.464,1.367-0.906,1.93-1.188
			c0.565-0.271,0.953-0.435,0.953-0.435L-66.803,12.976z"/>
	</g>
	<g>
		<path fill="#131F67" d="M-65.803,23.36c0,0-0.149,0.21-0.409,0.477c-0.136,0.126-0.278,0.292-0.458,0.435
			c-0.181,0.141-0.373,0.29-0.565,0.44c-0.205,0.128-0.41,0.266-0.604,0.403c-0.191,0.142-0.402,0.217-0.555,0.352
			c-0.324,0.23-0.576,0.371-0.576,0.371l0.758,0.654c0,0,0.099-0.2,0.302-0.482c0.216-0.28,0.582-0.583,0.978-0.883
			c0.207-0.134,0.414-0.269,0.607-0.395c0.188-0.132,0.389-0.222,0.548-0.315c0.33-0.173,0.573-0.256,0.573-0.256L-65.803,23.36z"/>
	</g>
	<g>
		<path fill="#131F67" d="M-67.311,21.114c0,0,0.102-0.021,0.279-0.059c0.124-0.014,0.35-0.05,0.628-0.013
			c0.275,0.031,0.603,0.108,0.936,0.246c0.321,0.146,0.69,0.324,0.912,0.606c0.057,0.069,0.093,0.144,0.135,0.206
			c0.011,0.021,0.038,0.082,0.04,0.069l0.057,0.14c0.034,0.093,0.066,0.288,0.043,0.445c-0.041,0.345-0.314,0.606-0.57,0.71
			c-0.547,0.212-0.914-0.07-0.9-0.055v1c0,0,0.132-0.053,0.34-0.143s0.491-0.23,0.775-0.445c0.283-0.221,0.562-0.511,0.788-0.919
			c0.104-0.216,0.185-0.441,0.141-0.758l-0.026-0.162c-0.035-0.108-0.059-0.141-0.092-0.215c-0.066-0.117-0.15-0.218-0.236-0.305
			c-0.657-0.713-1.494-1.113-2.194-1.267c-0.347-0.077-0.652-0.096-0.896-0.092c-0.188,0.011-0.296,0.018-0.296,0.018
			L-67.311,21.114z"/>
	</g>
	<path fill="none" stroke="#E2CF00" stroke-miterlimit="10" d="M-78.053-35.354c0,0,6.043-3.099,7.708-1.719
		c2.642,2.189-0.988,12.799-0.988,12.799s9.444-4.999,11.71-2.574c2.266,2.421-3.14,11.724-3.14,11.724s10.524-2.004,12.097,0.822
		c1.656,2.983-6.133,11.178-6.133,11.178s11.005,0.478,11.737,3.446c0.778,3.151-9.316,9.037-9.316,9.037s5.9,0.73,8.665,3.634"/>
	<path fill="none" stroke="#E2CF00" stroke-miterlimit="10" d="M-55.354,12.571c0,0,6.132,0.896,6.752,2.75
		c0.189,0.566-0.727,2.021-0.727,2.021"/>
	<path fill="none" stroke="#E2CF00" stroke-miterlimit="10" d="M-57.268,0.718c0,0,6.307-0.807,6.804,0.907
		c0.519,1.79-5.454,4.762-5.454,4.762"/>
	<path fill="none" stroke="#E2CF00" stroke-miterlimit="10" d="M-59.662-5.895c0,0,5.523-4.247,4.632-5.896
		c-0.875-1.617-7.329,0.637-7.329,0.637"/>
	<path fill="none" stroke="#E2CF00" stroke-miterlimit="10" d="M-66.31-16.368c0,0,4.376-5.22,3.174-6.603
		c-1.177-1.354-6.84,2.184-6.84,2.184"/>
	<path fill="none" stroke="#E2CF00" stroke-miterlimit="10" d="M-75.522-25.482c0,0,2.952-5.637,1.675-6.85
		c-0.796-0.757-4.205,1.256-4.205,1.256"/>
	<polyline fill="none" stroke="#E2CF00" stroke-miterlimit="10" points="-43.788,11.209 -47.577,8.519 -43.181,3.551 	"/>
	<polyline fill="none" stroke="#E2CF00" stroke-miterlimit="10" points="-44.801,-2.948 -51.023,-5.362 -48.045,-11.791 	"/>
	<polyline fill="none" stroke="#E2CF00" stroke-miterlimit="10" points="-51.319,-17.938 -57.545,-18.405 -56.321,-24.638 	"/>
	<polyline fill="none" stroke="#E2CF00" stroke-miterlimit="10" points="-60.299,-29.965 -67.233,-29.307 -67.233,-35.834 	"/>
	<line fill="none" stroke="#E2CF00" stroke-miterlimit="10" x1="-72.164" y1="-40.486" x2="-78.035" y2="-38.34"/>
	<polygon fill="#E2CF00" points="-34.141,-6.603 -33.521,-8.757 -35.631,-8.231 	"/>
	<polygon fill="#E2CF00" points="-36.344,-8.867 -36.344,-11.432 -38.641,-11.366 	"/>
	<polygon fill="#E2CF00" points="-41.818,-15.463 -40.621,-18.188 -43.711,-18.175 	"/>
	<polygon fill="#E2CF00" points="-44.099,-19.03 -42.695,-21.527 -45.537,-21.556 	"/>
	<polygon fill="#E2CF00" points="-46.015,-22.723 -44.491,-25.021 -47.24,-25.324 	"/>
	<polygon fill="#E2CF00" points="-47.807,-26.757 -45.841,-28.819 -48.58,-29.449 	"/>
	<polygon fill="#E2CF00" points="-48.952,-30.588 -46.938,-32.62 -49.516,-33.283 	"/>
	<polygon fill="#E2CF00" points="-49.935,-34.642 -47.54,-36.069 -50.195,-37.145 	"/>
	<polygon fill="#E2CF00" points="-50.389,-38.266 -47.854,-40.061 -50.49,-41.228 	"/>
	<polygon fill="#E2CF00" points="-50.585,-42.632 -48.182,-43.948 -50.651,-45.392 	"/>
	<polygon fill="#E2CF00" points="-50.552,-46.768 -47.835,-48.097 -50.301,-49.839 	"/>
	<polygon fill="#E2CF00" points="-50.109,-50.992 -47.1,-51.826 -49.191,-54.006 	"/>
	<polygon fill="#E2CF00" points="-49.035,-55.326 -46.301,-56.231 -48.297,-58.199 	"/>
	<polygon fill="#E2CF00" points="-47.93,-59.442 -44.848,-59.862 -46.79,-62.358 	"/>
	<polygon fill="#E2CF00" points="-46.554,-63.319 -43.209,-63.535 -45.125,-66.102 	"/>
	<polygon fill="#E2CF00" points="-44.529,-67.278 -41.485,-67.284 -42.786,-70.035 	"/>
	<polygon fill="#E2CF00" points="-39.054,-71.146 -40.665,-73.428 -42.014,-71.146 	"/>
	<path fill="#E2CF00" stroke="#E2CF00" stroke-miterlimit="10" d="M-13.641-23.232c-3.475,0.368-4.337,1.486-5.689,2.791
		c0.392-5.787-4.564-8.292-6.892-7.732c3.729-3.914-0.741-9.253-3.728-9.875c4.523-2.102,1.518-8.237-0.746-9.598
		c2.195-0.656,4.846-2.514,6.266-4.066C-29.551-36.518-21.1-25.379-13.641-23.232z"/>
	<path fill="#E2CF00" stroke="#E2CF00" stroke-miterlimit="10" d="M-18.932-21.325c0,0,0.285,2.214,0.388,2.951
		c0.179,1.29,0.146,2.045-0.335,2.857c-0.451,0.761-1.405,0.846-2.002,0.494c-1.139-0.673-0.689-1.853-0.689-1.853
		s-0.82,0.959-1.957,0.281c-0.595-0.354-0.977-1.232-0.524-1.992c0.48-0.812,1.127-1.203,2.343-1.664
		C-21.012-20.513-18.932-21.325-18.932-21.325z"/>
	<path fill="#E2CF00" stroke="#E2CF00" stroke-miterlimit="10" d="M-25.743-28.551c0,0-0.79,2.088-1.046,2.787
		c-0.449,1.222-0.832,1.871-1.639,2.362c-0.758,0.459-1.642,0.085-2.001-0.506c-0.687-1.13,0.263-1.96,0.263-1.96
		s-1.175,0.46-1.859-0.672c-0.357-0.591-0.281-1.547,0.476-2.005c0.808-0.491,1.562-0.53,2.852-0.365
		C-27.96-28.813-25.743-28.551-25.743-28.551z"/>
	<path fill="#E2CF00" stroke="#E2CF00" stroke-miterlimit="10" d="M-29.574-38.178c0,0-1.587,1.573-2.109,2.104
		c-0.916,0.924-1.534,1.357-2.472,1.467c-0.88,0.104-1.528-0.603-1.61-1.288c-0.155-1.315,1.053-1.677,1.053-1.677
		s-1.26-0.067-1.413-1.383c-0.079-0.686,0.385-1.522,1.266-1.626c0.938-0.112,1.64,0.165,2.746,0.852
		C-31.484-39.336-29.574-38.178-29.574-38.178z"/>
	<path fill="#E2CF00" stroke="#E2CF00" stroke-miterlimit="10" d="M-30.136-47.59c0,0-2.089,0.792-2.782,1.063
		c-1.213,0.474-1.953,0.617-2.855,0.337c-0.846-0.264-1.149-1.173-0.945-1.831c0.391-1.266,1.642-1.104,1.642-1.104
		s-1.123-0.577-0.728-1.839c0.205-0.659,0.971-1.235,1.817-0.973c0.902,0.28,1.429,0.818,2.162,1.896
		C-31.41-49.424-30.136-47.59-30.136-47.59z"/>
	<line fill="#D40000" stroke="#000000" stroke-miterlimit="10" x1="55.697" y1="80.14" x2="58.143" y2="80.14"/>
	<line fill="#D40000" stroke="#000000" stroke-miterlimit="10" x1="55.229" y1="77.028" x2="59.911" y2="77.028"/>
	<line fill="#D40000" stroke="#000000" stroke-miterlimit="10" x1="55.803" y1="73.884" x2="62.439" y2="73.884"/>
	<line fill="#D40000" stroke="#000000" stroke-miterlimit="10" x1="55.836" y1="70.739" x2="66.107" y2="70.739"/>
	<line fill="#D40000" stroke="#000000" stroke-miterlimit="10" x1="52.448" y1="68.013" x2="66.632" y2="68.013"/>
	<line fill="#D40000" stroke="#000000" stroke-miterlimit="10" x1="55.697" y1="53.162" x2="58.422" y2="53.162"/>
	<line fill="#D40000" stroke="#000000" stroke-miterlimit="10" x1="55.229" y1="56.275" x2="59.911" y2="56.275"/>
	<line fill="#D40000" stroke="#000000" stroke-miterlimit="10" x1="55.803" y1="59.419" x2="62.439" y2="59.419"/>
	<line fill="#D40000" stroke="#000000" stroke-miterlimit="10" x1="55.836" y1="62.285" x2="65.549" y2="62.285"/>
	<line fill="#D40000" stroke="#000000" stroke-miterlimit="10" x1="52.448" y1="65.289" x2="66.632" y2="65.289"/>
	<polygon fill="#FFFFFF" points="-13.611,-15.113 20.471,-15.742 19.451,-17.543 16.797,-17.558 11.53,-26.894 -12.965,-26.889 	"/>
	<polygon fill="#131F67" points="-13.509,-16.916 -6.119,-16.916 -9.14,-23.106 -6.74,-23.106 -3.446,-16.916 4.496,-16.916 
		1.261,-23.106 3.142,-23.106 6.348,-17.256 14.428,-17.256 11.596,-23.106 13.643,-23.106 12.207,-25.65 7.519,-25.65 
		10.562,-19.199 8.154,-19.199 4.786,-25.515 -2.736,-25.515 0.224,-19.272 -1.65,-19.278 -4.949,-25.245 -12.93,-25.245 
		-9.781,-18.931 -11.75,-18.931 -13.273,-21.284 	"/>
	<g>
		<path fill="#E2CF00" stroke="#131F67" stroke-miterlimit="10" d="M-71.489,6.058"/>
		<path fill="#E2CF00" stroke="#131F67" stroke-miterlimit="10" d="M-69.874,10.717"/>
		<path fill="#E2CF00" stroke="#131F67" stroke-miterlimit="10" d="M-69.382,10.342c0,0,0-0.369-0.067-0.871
			c-0.059-0.507-0.184-1.148-0.352-1.758c-0.083-0.306-0.178-0.603-0.27-0.878c-0.088-0.278-0.209-0.508-0.34-0.683
			c-0.13-0.179-0.277-0.294-0.389-0.371c-0.115-0.073-0.2-0.101-0.2-0.101l-0.981,0.753c0,0-0.035,0.118-0.062,0.3
			c-0.022,0.179-0.045,0.427-0.021,0.686c0.019,0.262,0.074,0.541,0.177,0.809c0.097,0.272,0.205,0.558,0.324,0.834
			c0.237,0.556,0.516,1.08,0.759,1.446c0.236,0.372,0.438,0.585,0.438,0.585L-69.382,10.342z"/>
	</g>
	<path fill="none" stroke="#000000" stroke-miterlimit="10" d="M28.547,75.272c2.14-9.05,2.826-27.104,8.115-34.114
		c1.752-2.323,5.896-6.34,10.38-6.34c4.601,0,6.001,5.169,5.172,7.078c-1.2,2.77-3.087,2.839-4.721,1.632
		c-0.402-0.3-0.667-1.371-0.314-1.729c0.495-0.505,1.671,0.293,2.272-0.839c0.574-1.076-0.113-2.658-0.8-3.036
		c-2.67-1.469-6.238,0.588-8.349,2.623c-7.807,7.473-6.416,22.991-9.487,34.365"/>
	<path fill="none" stroke="#000000" stroke-miterlimit="10" d="M33.01,73.99c2.561-8.921,2.352-22.316,6.532-28.666
		c0.564-0.857,2.623-3.364,3.471-3.941c0.912-0.624,2.485-1.684,3.205-1.689c0.882-0.008,1.79,0.838,1.521,1.826"/>
	<path fill="none" stroke="#000000" stroke-miterlimit="10" d="M43.955,44.282c-0.314-0.754-0.455-2.656,0.838-4.019"/>
	<path fill="none" stroke="#000000" stroke-miterlimit="10" d="M24.042,76.388c1.838-7.589,2.444-25.089,8.245-36.124"/>
	<path fill="none" stroke="#000000" stroke-miterlimit="10" d="M21.246,76.947c3.635-10.127,2.517-24.61,8.526-36.684"/>
	<path fill="none" stroke="#000000" stroke-miterlimit="10" d="M18.661,77.716c4.228-12.227,2.585-25.224,8.734-37.452"/>
	<path fill="none" stroke="#000000" stroke-miterlimit="10" d="M16.395,78.136c4.154-11.315,3.093-26.04,8.766-37.872"/>
	<path fill="none" stroke="#000000" stroke-miterlimit="10" d="M13.786,78.479c5.11-12.077,3.276-25.957,9.068-38.215"/>
	<path fill="none" stroke="#000000" stroke-miterlimit="10" d="M11.324,78.696c5.647-11.876,1.406-21.835,9.225-38.433"/>
	<path fill="none" stroke="#000000" stroke-miterlimit="10" d="M12.719,59.371c1.33-8.098,3.217-14.076,5.033-19.107"/>
	<path fill="none" stroke="#000000" stroke-miterlimit="10" d="M11.324,54.295c0.697-4.8,2.887-10.821,4.263-14.031"/>
	<path fill="none" stroke="#000000" stroke-miterlimit="10" d="M9.674,50.908c0.462-3.146,2.419-7.435,3.538-10.645"/>
	<path fill="none" stroke="#000000" stroke-miterlimit="10" d="M7.984,48.627c0.686-2.493,2.337-6.079,2.921-8.363"/>
	<path fill="none" stroke="#000000" stroke-miterlimit="10" d="M6.161,46.684c0.558-1.851,1.823-4.814,2.509-6.42"/>
	<path fill="none" stroke="#000000" stroke-miterlimit="10" d="M4.596,44.833c0.302-1.359,0.955-2.964,1.278-4.569"/>
	<path fill="none" stroke="#000000" stroke-miterlimit="10" d="M2.696,43.474c0-0.836,0.429-1.954,0.663-3.21"/>
	<path fill="none" stroke="#000000" stroke-miterlimit="10" d="M0.685,42.272c0-0.574,0.229-1.712,0.229-2.288"/>
</symbol>
<symbol  id="spades" viewBox="-9.479 -11.83 18.957 23.661">
	<path d="M0.007,11.831c0,0,9.446-11.175,9.471-15.683c0.013-2.172-1.3-4.664-4.338-4.595c-3.228,0.073-3.662,2.252-3.661,3.5
		c0,0.948-0.547,0.546-0.56,0.383C0.756-6.593,2.982-11.83,2.982-11.83H0h-2.982c0,0,2.226,5.237,2.064,7.266
		C-0.932-4.401-1.48-3.999-1.479-4.947c0-1.248-0.434-3.427-3.661-3.5c-3.039-0.069-4.351,2.423-4.339,4.595
		c0.025,4.507,9.471,15.683,9.471,15.683"/>
</symbol>
<g id="Layer_2">
</g>
<g id="Layer_1">
	
		<use xlink:href="#jack-hearts"  width="159.077" height="191.054" x="-79.538" y="-95.527" transform="matrix(-1 0 0 1 114.5664 189.8574)" overflow="visible"/>
	
		<use xlink:href="#hearts"  width="21.869" height="23.314" x="-10.934" y="-11.657" transform="matrix(1 0 0 -1 21 61)" overflow="visible"/>
	
		<use xlink:href="#hearts"  width="21.869" height="23.314" x="-10.934" y="-11.657" transform="matrix(1 0 0 1 209 252)" overflow="visible"/>
	
		<use xlink:href="#hearts-medium"  width="43.787" height="46.682" x="-21.894" y="-23.341" transform="matrix(1 0 0 -1 62.2812 59.4238)" overflow="visible"/>
	
		<use xlink:href="#face-frame"  width="161.544" height="259.519" x="-80.771" y="-129.759" transform="matrix(1 0 0 -1 115.0449 157.7402)" overflow="visible"/>
	
		<use xlink:href="#jack-hearts"  width="159.077" height="191.054" x="-79.538" y="-95.527" transform="matrix(1 0 0 -1 114.2109 125.6523)" overflow="visible"/>
	<rect x="102.037" y="153.318" fill="#D40000" width="7.784" height="8.32"/>
	<rect x="110.219" y="153.362" fill="#E2CF00" width="7.783" height="8.319"/>
	<rect x="118.647" y="153.318" fill="#D40000" width="7.784" height="8.32"/>
	
		<use xlink:href="#hearts-medium"  width="43.787" height="46.682" x="-21.894" y="-23.341" transform="matrix(1 0 0 1 166.6504 256.6777)" overflow="visible"/>
</g>
</svg>
