<svg xmlns="http://www.w3.org/2000/svg" xmlns:xlink="http://www.w3.org/1999/xlink" viewBox="0 0 227 315">
    <symbol id="face-frame" viewBox="-80.771 -129.759 161.544 259.519">
        <path fill="none" stroke="#131F67" stroke-width="3" stroke-miterlimit="10" d="M79.272-128.259H-79.271V128.26H79.272z"/>
    </symbol>
    <symbol id="jack-spades2" viewBox="-69.759 -95.603 139.517 192.333">
        <path fill="none" stroke="#131F67" stroke-miterlimit="10" d="M11.481-11.184s-4.425.687-6.59.532"/>
        <path d="M-35.724 32.181l52.948-.137L9.61 20.208l-45.334-.241z"/>
        <path d="M42.557-83.611S27.91-73.058 18.361-57.708C11.76-47.097 9.762-37.927 9.762-37.927l-36.259.269s-1.051 21.875-18.217 41.253c2.627 1.747 6.664 2.896 6.664 2.896l-.001 28.173 5.817 5.715-.376-35.993s5.644 4.673 12.838-.951C-9.287 6.691-5.331-2.092-5.331-2.092l21.865 35.157 3.257 1.126L69.173 1.544l.451-12.916-46.38 29.319L5.989-9.219l2.102-15.575s14.69-1.515 27.082-18.624c14.707-20.306 7.384-40.193 7.384-40.193z"/>
        <path fill="#131F67" d="M7.902-24.529L6.644-14.07s22.197-1.843 37.877-25.113 7.127-49.087 7.127-49.087l-8.688 4.896s6.776 21.011-7.05 39.792C23.026-26.038 7.902-24.529 7.902-24.529z"/>
        <path d="M12.111-25.205c-1.937 1.321-4.129 4.39-3.825 6.925.229 1.911 1.72 1.228 2.936.566.624-.339 1.387-.889 1.945-.776.65.131.981 1.026 2.353 1.207 1.793.236 2.943-.77 3.136-2.595.088-.837-.15-1.175.441-1.41.844-.334 1.971-.336 2.764-.646.745-.291 1.122-1.203.812-2.062-.276-.769-1.499-1.368-2.217-1.613-1.27-.434-3.572-1.08-4.904-1.056-.9.017-2.725.895-3.441 1.46zm40.576-55.682c-.414 1.319-1.354 1.49-1.597 2.107-.206.53.202 1.376.429 2.049.438 1.314.852 2.901-1.068 2.793-2.551-.14-5.191-2.833-6.155-4.97-.433-.804-.98-2.753-.841-3.641.061-.38.195-.833.364-1.31l5.462-3.078c.002.616-.029 1.265.086 1.83.127.624.502.448 1.31.681 1.764.507 2.554 1.815 2.01 3.539z"/>
        <path d="M24.336-31.474c-1.524 1.781-2.841 5.315-1.886 7.683.719 1.785 1.98.736 2.981-.219.514-.49 1.106-1.22 1.675-1.257.662-.043 1.216.734 2.586.551 1.793-.239 2.641-1.511 2.351-3.323-.134-.832-.452-1.096.059-1.476.728-.542 1.814-.839 2.499-1.344.644-.475.77-1.454.247-2.202-.468-.67-1.804-.93-2.562-.979-1.338-.087-3.73-.11-5.01.26-.863.25-2.396 1.574-2.94 2.306z"/>
        <path d="M33.765-40.523c-.943 2.146-1.178 5.911.423 7.9 1.205 1.5 2.108.13 2.79-1.075.35-.618.705-1.488 1.238-1.688.621-.233 1.376.35 2.635-.223 1.646-.749 2.089-2.211 1.285-3.862-.369-.757-.75-.917-.371-1.43.539-.73 1.493-1.329 2.001-2.011.479-.641.315-1.614-.401-2.179-.642-.505-1.996-.367-2.736-.194-1.306.304-3.602.976-4.719 1.702-.754.49-1.838 2.202-2.145 3.06z"/>
        <path d="M40.876-52.193c-.314 2.324.5 6.006 2.589 7.476 1.572 1.108 2.062-.458 2.385-1.804.165-.691.267-1.625.724-1.964.532-.396 1.419-.043 2.471-.942 1.375-1.174 1.396-2.703.168-4.066-.562-.625-.975-.675-.752-1.272.317-.85 1.068-1.69 1.369-2.486.281-.748-.145-1.638-.988-1.983-.757-.309-2.02.199-2.684.57-1.17.653-3.191 1.933-4.066 2.938-.589.678-1.157 2.622-1.216 3.533z"/>
        <path d="M44.433-65.383c.379 2.314 2.234 5.598 4.661 6.392 1.827.6 1.838-1.04 1.754-2.422-.045-.709-.221-1.632.116-2.09.395-.534 1.346-.457 2.088-1.624.972-1.524.546-2.993-1.028-3.938-.72-.434-1.128-.361-1.09-.997.055-.906.527-1.928.582-2.777.05-.798-.616-1.525-1.524-1.608-.815-.074-1.874.781-2.4 1.329-.928.967-2.486 2.782-3.029 3.999-.366.824-.34 2.848-.13 3.736z"/>
        <path fill="#D40000" d="M-32.057-15.366l3.612-9.164 6.524.005s.097 15.905 0 19.779-3.434 3.786-4.724 3.893-5.01-.742-5.105-4.005l-.307-10.508zm10.925-9.159l10.021-.004s.071 15.86 0 17.905-2.617 4.141-5.011 4.239-4.826-1.69-4.848-4.026-.162-18.114-.162-18.114zm21.07-.004s.104 10.179 0 12.408-2.1 3.846-5.131 3.881-4.862-1.853-4.876-3.867l-.084-12.422H-.062zm-32.687 10.587s.106 6.945.065 9.278-3.182 4.433-5.299 4.175-2.356-.516-2.356-.516l7.59-12.937z"/>
        <path fill="#E2CF00" stroke="#000" stroke-miterlimit="10" d="M63.394 60.248c-1.741 1.982-3.771 5.473-5.033 6.933 1.865 2.719 3.66 4.915 4.438 7.339 1.565 4.883-.844 9.764-6.281 9.764-2.989 0-11.239-3.322-1.188-17.103-1.713-2.492-3.104-4.494-5.071-7.357 2.011-2.665 3.701-4.349 5.424-6.694-1.801-2.818-4.993-8.091-4.993-10.252 0-3.758 2.391-7.1 6.137-7.257 5.744-.241 6.91 5.134 6.442 7.882-.46 2.7-2.702 6.441-4.79 9.291 1.571 2.431 3.345 4.662 4.915 7.454z"/>
        <path fill="#131F67" d="M6.985 32.37l-39.383-.189-.146 3.011s22.375.335 31.278 0c3.459-1.725 8.251-2.822 8.251-2.822z"/>
        <path fill="#E2CF00" d="M-28.775 74.048c8.575 2.755 22.495 4.581 27.694 3.498-.809-6.792-7.844-16.007-8.206-21.465 3.075-.532 6.047-.66 5.194-6.745-.463-3.305-3.95-4.025-7.013-5.117-2.188-4.84-.597-11.849-10.699-9.499-1.794-.963-2.033-1.516-5-1.205-5.818.61-5.54 6.217-5.54 6.217s-3.482-6.319-9.481-6.099c-1.753.064-5.619 1.872-4.557 7.184s6.243 4.75 6.243 4.75 2.089 1.395 2.903 4.288c-4.026 5.898 3.222 9.086 8.462 24.193z"/>
        <path fill="#D40000" stroke="#000" stroke-miterlimit="10" d="M-39.168 96.177h73.75L22.521 77.429s-11.604 2.528-23.535 2.45c-12.227-.08-27.035-3.165-27.035-3.165l-11.119 19.463z"/>
        <path fill="none" stroke="#131F67" stroke-miterlimit="10" d="M58.384 33.987h-3.116v1.478h3.116z"/>
        <path fill="#131F67" d="M69.624-95.121l-.56 82.997-42.987 28.172L8.648-11.359s14.826-.281 34.849-21.82 10.916-56.264 10.916-56.264l15.211-5.678zM67.975-39.07l.095-3.952-1.574-2.31-2.148 1.264 3.415 5.211.212-.213zm-3.587 2.698l-3.731-5.306-2.313 1.813 4.064 5.177 1.98-1.684zM24.892 12.129c.367.891 1.876 1.313 3.096 1.344.642.016 1.774-.041 1.781-.934.009-1.399-5.452-1.804-4.877-.41zm-5.744-8.683c.367.891 1.876 1.313 3.096 1.344.642.016 1.774-.041 1.781-.934.01-1.399-5.451-1.803-4.877-.41zm-5.299-8.572c.367.891 1.876 1.313 3.096 1.344.642.016 1.774-.041 1.781-.934.009-1.4-5.452-1.804-4.877-.41zm-.522-6.567c-1.068.551-1.027 2.895-1.025 3.889.001.583.329 1.386.958 1.073.438-.218.747-1.013.87-1.436.213-.725.316-1.578.352-2.333.034-.748-.266-1.651-1.155-1.193zm5.747 1.924c-.195-.249-.926-.227-1.21-.191-1.191.146-2.287.99-3.141 1.802-.646.615-.775 1.526.203 1.499 1.111-.031 2.675-1.024 3.533-1.703.341-.268.874-1.077.615-1.407zm-.447 6.649C17.559-2.569 17.6-.225 17.602.769c.001.583.329 1.386.958 1.073.438-.218.747-1.013.87-1.436.213-.725.316-1.578.352-2.333.033-.748-.266-1.651-1.155-1.193zm5.747 1.924c-.195-.249-.926-.227-1.21-.191-1.191.146-2.287.99-3.141 1.802-.646.615-.775 1.526.203 1.499C21.337 1.883 22.901.89 23.759.211c.341-.269.874-1.077.615-1.407zm-.004 6.758c-1.068.551-1.027 2.895-1.025 3.889.001.583.329 1.386.958 1.073.438-.218.747-1.013.87-1.436.213-.725.316-1.578.352-2.333.034-.748-.266-1.651-1.155-1.193zm5.747 1.925c-.195-.249-.926-.227-1.21-.191-1.191.146-2.287.99-3.141 1.802-.646.615-.775 1.526.203 1.499 1.111-.031 2.675-1.024 3.533-1.703.341-.269.874-1.078.615-1.407zm5.446 1.662l3.258-2.206-3.258-.128v2.334zm.294-6.597l6.426.454.171-2.262L36.18.195l-.323 2.357zm1.03-7.085l6.17 1.288.44-2.177-6.022-1.481-.588 2.37zm2.583-9.101l-1.032 2.358 6.161 2.191.797-2.206-5.926-2.343zm2.724-6.459l-1.139 2.286 5.558 2.963 1.285-2.168-5.704-3.081zm2.077-3.947l5.459 3.635 1.292-2.049-5.403-3.749-1.348 2.163zm4.022-5.674l5.126 4.174 1.574-1.955-5.073-4.255-1.627 2.036zm6.663-7.359l-1.826 1.851 4.624 4.799 1.826-1.85-4.624-4.8zM17.981 69.049c-.602.118-1.896-.779-2.567-.912-.886-.176-1.745-.006-2.663-.118-1.396-.17-3.619-.534-4.682-1.433-.697-.637-1.549-1.653-2.538-1.797-.032.698 1.095 1.396 1.548 1.789 1.079.934 2.226 1.788 3.479 2.477 1.282.704 2.344.809 3.678.356 1.014-.344 2.124-.845.695.564-.79.779-3.223.313-4.812-.554-1.204-.658-8.211-5.093-6.676-6.512.565-.523 1.248-.27 1.841-.032.837.334 1.247.309 2.087-.031 1.08-.436 1.925-.88 3.113-.882 2.248-.004 4.852.409 3.314-1.18-2.236-2.311-3.717-2.706-3.908-3.114-.632-1.347 3.44 1.444 4.629 2.617.646.639 1.887 1.514 2.141 2.384.289.988-.184.272-.717.583-.577.337-.09 2.837.291 3.417.233.353 2.454 2.239 1.747 2.378zM7.694 63.795c.507.537 2.082 1.494 2.867 1.375.695-.105 1.041-1.288 1.254-1.919-1.056-.435-3.072.21-4.121.544zm5.584-.534c-.744-1.078-1.706 1.823-1.463 2.044 1.045.949 1.717-1.676 1.463-2.044zm2.915-11.257c-.39.58-.304 1.175-.03 1.792.196.444.89 1.015.906 1.5.025.756-.512.531-.969.24-.788-.501-1.065-1.277-1.166-2.167-.134-1.18.578-2.396 1.631-2.991 1.302-.736 3.009.14 4.261.53.675.21 1.872.218 2.285.861.583.908-.072 1.708-1.034 1.692-1.387-.019-4.462-3.573-5.884-1.457zM6.152 45.42c-.949.781-1.282 3.128.136 3.492 1.094.28 3.239-1.616 2.417.06-.493 1.006-2.526 1.131-3.303.481-.909-.762-1.337-2.211-1.031-3.329.472-1.721 2.414-2.479 4.033-2.498 2.428-.029 4.651 1.51 6.539 2.625.999.589 1.768.724 2.884.574.981-.131 2.499-.09 1.773 1.168-1.448 2.51-5.861.176-7.89-1.318-.969-.713-3.81-2.694-5.558-1.255z"/>
        <path fill="#131F67" d="M12.297 72.058c1.55.191 3.077.234 4.905-.442.486-.18.875-.666 1.496-.487 1.312.378-.809 1.869-1.269 2.249-1.81 1.498-3.55 1.274-5.683.697-1.824-.494-3.513-1.24-5.236-1.979-1.406-.603-2.61-1.25-3.778-2.246-.262-.223-1.636-2.18-.805-1.897.868.295 2.291 1.534 3.12 1.925 2.453 1.157 4.619 1.856 7.25 2.18zm.793-27.804c-.075-.291-.835-1.461-.669-1.796.162-.325.968.127 1.234.198a7.082 7.082 0 0 0 1.681.244c.763.02 1.591.246 2.348.142.817-.113 1.653-.205 2.452-.386.298-.068.73-.199.959.042.136.143-.005.348.13.611.152.297.447.374.617.655.11.181.185.749.2.964.029.397-.041.5-.04.904 0 .182.059.647-.075.787-.281.294-.457-.52-1.648-.634-.911-.087-1.674-.804-2.518-1.167-.97-.417-1.896-.634-2.964-.583-.326.014-1.574.532-1.707.019z"/>
        <path fill="#131F67" d="M23.36 76.96s.007-1.259-.101-3.506c-.069-1.121-.197-2.497-.569-4.037-.157-.762-.476-1.595-.697-2.385a7.353 7.353 0 0 1-.246-2.537c.118-1.794.913-3.655 2.052-5.445.567-.907 1.211-1.773 1.868-2.758.313-.504.681-1.046.812-1.802.15-.768-.162-1.55-.534-2.086-.39-.555-.855-.977-1.282-1.396-.452-.427-.88-.828-1.254-1.281-.717-.884-1.203-2.042-1.099-3.164.037-.581.179-1.24.085-1.945a3.95 3.95 0 0 0-.106-.517c-.065-.161-.058-.323-.295-.579-.403-.345-.423-.274-.441-.501.003-.014.028-.183.069-.329.034-.161.1-.358.044-.648l-.106-.462c-.045-.161-.117-.347-.18-.515-.29-.626-.719-1.143-.783-1.636-.258-1.109.151-2.412-.24-3.804-.217-.699-.699-1.262-1.24-1.684-.535-.417-1.123-.721-1.719-.972a13.607 13.607 0 0 0-3.693-.933c-.638-.076-1.274-.051-1.862-.052-.6-.011-1.208.022-1.812.062a30.907 30.907 0 0 0-6.827 1.178c-1.064.303-2.064.701-3.03 1.092-.94.453-1.85.89-2.676 1.358-1.681.919-3.187 1.875-4.383 2.925-1.218 1.048-2.05 2.156-2.728 3.053-.666.913-1.133 1.681-1.412 2.244-.283.56-.383.916-.383.916l.957.287s.066-.26.312-.766c.241-.504.671-1.237 1.301-2.123.642-.875 1.433-1.951 2.548-2.934 1.113-1.006 2.552-1.952 4.19-2.877.819-.485 1.699-.896 2.602-1.337.934-.379 1.9-.767 2.933-1.062a30.049 30.049 0 0 1 6.637-1.158 20.65 20.65 0 0 1 1.775-.064c.617 0 1.199-.025 1.777.044a12.85 12.85 0 0 1 3.472.87c1.093.466 2.179 1.115 2.521 2.164.336 1.067-.051 2.359.231 3.742.158.78.608 1.259.835 1.783.043.129.094.236.135.379l.107.462a.951.951 0 0 1-.043.288c-.031.16-.094.298-.085.602l.015.123c.014.106.039.137.062.208a.9.9 0 0 0 .211.314c.162.161.328.253.365.295.008-.042.072.128.109.259.036.134.066.268.084.405.08.547-.039 1.136-.086 1.796-.121 1.395.48 2.661 1.244 3.687.381.507.789.99 1.158 1.445.382.475.753.921.991 1.379.245.459.369.865.288 1.262-.055.406-.327.872-.615 1.328-.613.916-1.282 1.864-1.83 2.829-1.123 1.911-1.953 3.972-2.021 5.998-.045 1.001.102 1.975.34 2.858.248.876.523 1.583.681 2.335.353 1.464.474 2.782.539 3.871.056 1.094.04 1.955.04 2.549l-.009.911.997-.006z"/>
        <path d="M-28.639-7.538c2.332-1.75.781-3.448.647-5.261-.178-2.405 1.852-7.093 2.318-6.778.178.12-1.413 3.165-.572 5.676.655 1.957 2.448 5.24 2.616 7.327.148 1.846-1.449 3.85-3.913 3.342-1.615-.332-2.583-3.189-1.096-4.306zm12.402-13.735c-.194-.061-1.61 3.59-1.201 6.691.114.866 1.296 2.98 1.1 3.895-.188.873-1.519.873-1.863 1.778-1.054 2.772 1.678 4.6 4.047 3.249 2.285-1.304 1.259-4.119.419-5.808-.819-1.648-2.172-3.424-2.41-5.254-.152-1.155.124-4.483-.092-4.551zM-5.54-18.62c1.44 4.52-.538 2.437-1.589 4.532-1.306 2.603 2.336 4.502 4.156 2.739 1.679-1.626.199-4.871-.81-6.278-1.608-2.244-1.356-4.968-1.688-4.975-.191-.003-.291 3.287-.069 3.982zm-29.746 9.478c-1.044 1.388-2.812 4.376-3.93 6.315 3.451.623 4.473-1.586 3.93-6.315z"/>
        <path fill="#D40000" d="M-32.558 20.131l-.052-15.745s2.568 1.862 6.113 1.709 6.725-2.66 6.725-2.66 4.688 1.869 8.535 0 5.906-5.527 5.906-5.527l13.979 22.3-41.206-.077zm19.875-8.687c-3.316 1.403-.03-1.546-.475-3.395-.268-1.112-1.029-1.642-2.347-1.576-1.824.091-2.104 1.842-.969 3.738.851 1.42-.22 1.561-1.25 1.231-1.435-.458-4.107-.502-3.567 2.238.51 2.588 4.15.104 4.918.667.441.324-.989 2.332-.22 3.355.663.882 2.291 1.149 3.112.334 1.152-1.144-.531-3.702.039-4.236.346-.324 4.613 2.717 4.697-.999.057-2.426-2.613-1.917-3.938-1.357z"/>
        <path fill="#131F67" d="M-41.417 33.783c-3.431-.027-4.426 3.354-4.426 3.354l-5.88-2.507V11.436l7.171-7.278 3.135 1.406c0-.001.084 21.606 0 28.219zm-4.307-4.876c.234.613.311 1.298.419 1.944.09.529-.061 3.781.415 3.947.83.29 1.566-1.563 1.719-2.082.435-1.482-.012-3.03-.551-4.44-.202-.528-.631-2.11-1.326-2.223-.474-.077-1.238.929-1.299 1.285-.099.583.419 1.034.623 1.569zm-4.748 5.388s1.396.63 2.045.911c.08-1.056.048-2.03.122-2.86.124-1.376.237-2.772.792-4.043.994-2.276 3.229-3.916 3.865-6.309.438-1.645.82-3.653.478-5.35-.182-.896-.588-3.919-1.679-4.27-1.056-.339-1.539 1.003-1.113 2.001.418.979.684 1.932.742 3.002.155 2.818-.155 3.9-1.486 6.267-.759 1.349-1.687 2.443-2.523 3.75-.763 1.191-1.293 2.998-1.326 4.091-.026.837.083 2.81.083 2.81zm1.831-25.292c-.704 1.51.966.228 1.218-.198.663-1.126-.674-.969-1.218.198zm5.707-3.291c-.298-.874-1.132-.868-1.735-.257-.477.482-.864 1.293-1.19 1.881-.452.816-.935 1.622-1.408 2.423-.419.708-.864 1.406-1.25 2.131-.428.802-1.059 2.264-1.331 3.155-.367 1.202-.828 2.96-.711 4.146.098.993.949 5.603 2.473 5.233 1.7-.413.011-3.163-.224-3.984-.413-1.448-.091-2.858.224-4.301.574-2.646 2.182-5.095 3.694-7.332.571-.845 1.831-2.003 1.458-3.095z"/>
        <path fill="none" stroke="#000" stroke-miterlimit="10" d="M60.005 79.241c-1.061 2.637-5.436 2.554-6.603-.446-1.214-3.12 1.837-6.905 3.581-9.302 1.836 2.843 4.632 5.744 3.022 9.748zm-2.924-28.894c-3.972-5.219-6.125-11.677.115-11.677 6.198 0 3.358 7.125-.115 11.677z"/>
        <path fill="#131F67" d="M64.063 24.88c-.172.627-.871 1.571-1.353 2.011.107.532.286 2.076.091 2.624-.348.973-.921 1.208-2.594 1.858.052.157.574.896.465 1.396-.239 1.093-1.309 1.478-2.996 1.839-1.517.325-3.797-.082-5.293-.51-2.268-.649-4.171-1.583-6.117-2.981-1.616-1.161-2.862-2.796-3.838-4.517-.613-1.083-2.959-5.659-2.959-5.659L55.588 10.43s1.556 1.654 2.763 2.315c1.057.579 2.936.479 3.815 1.752 1.085 1.569.008 2.486.178 3.062.128.434.675.561 1.016 1.325.665 1.488.013 2.691-.055 3.131-.092.601 1.071 1.723.758 2.865zm-1.869 4.082c.72-1.513-1.95-3.084-3.119-3.647-2.636-1.269-1.168.501-2.964 1.897-.738.574 2.068 1.403 2.748 1.833 1.018.645 2.466 1.744 3.335-.083zm-6.583-6.25c2.207-1.208-.521-2.765-1.425-1.312-.641 1.031-.179 1.823 1.425 1.312zm-2.682 2.72c-.688.878.899 1.559 1.683 1.447 4.217-1.031.108-3.734-1.683-1.447zm2.765-6.47c1.963-1.101-.207-2.277-.938-1.26-.655.917.333 1.58.938 1.26zm-.667 14.167c.954.754 5.633.645 4.505-1.185-1.113-1.805-6.394-.308-4.505 1.185zm1.489-20.737c-1.177-.844-1.261-.732-1.261-.732l-14.621 9.434c1.57 3.184 3.403 7.708 6.819 9.706 1.093.639 4.865 3.027 6.242 2.252.751-.422.618-1.763 1.329-2.276.673-.487 2.383-.417 3.082-.644.51-.166-.684-1.41-3.371-1.832-2.363-.371-4.271.304-3.969-2.768.344-3.498-1.091-8.44-.705-8.688.194-.125.99 2.769 1.509 4.288.366 1.071-.128 3.132.78 3.731.679.448.67-1.379.532-3.239-.049-.662.841-.879.983-1.604.122-.621-.342-1.11-.256-1.726.082-.579.637-1.063.754-1.667.105-.546.058-1.079-.002-1.663-.204-2.007 3.047-1.932 2.155-2.572zm-1.04 1.663c-.847.512-.129 1.907.719 1.49 1.425-.7.126-2.002-.719-1.49zm4.524.176c-1.496-.536-3.102.177-2.544 1.803.805.135 2.746.53 3.515.682 1.624.319.796-1.853-.971-2.485zm-2.261 3.145c-.43-.063-1.326 2.127-.643 2.317 1.463.406 5.842 2.737 5.596.621-.305-2.628-2.688-2.606-4.953-2.938zm-.375 3.682c.176.903-.679 1.864-.803 2.441 2.143.442 5.914 3.01 6.484 1.632 1.101-2.658-4.309-4.159-5.681-4.073z"/>
        <path fill="#E2CF00" stroke="#000" stroke-miterlimit="10" d="M53.36-1.746c-2.339-1.499-2.764-4.661-.125-6.469 1.893-1.297 5.284.953 7.378 2.052-.552.269-2.606 1.561-2.606 1.561s-.433-.613-1.367-.966c-2.623-.99-2.398 1.29-1.062 2.414-.905.665-.962.726-2.218 1.408z"/>
        <path fill="#E2CF00" stroke="#000" stroke-miterlimit="10" d="M66.028-9.825a116.989 116.989 0 0 0-5.749-3.858c-1.593-1.004-3.084-2.155-4.896-1.161-1.872 1.028-2.146 3.306-.742 4.848 1.589 1.746 4.047 2.693 5.972 3.833.75-.61 1.472-1.134 2.087-1.475-1.814-.881-6.394-3.117-5.441-4.179.786-.877 7.117 3.096 7.117 3.096s.948-.489 1.652-1.104z"/>
        <path fill="#E2CF00" stroke="#000" stroke-miterlimit="10" d="M69.173-14.583c-1.207-.906-2.354-1.97-3.566-2.994-1.039-.876-2.021-2.115-3.215-2.778-2.363-1.312-4.977.435-4.814 3.223.127 2.188 4.049 4.136 6.193 5.65.595.42 2.258 1.657 2.258 1.657s1.225-.869 1.794-1.213c-2.681-1.989-8.045-4.859-6.688-6.209.788-.783 3.343 1.728 4.058 2.209 1.478.995 2.451 1.935 3.872 2.913.071-.748.108-1.496.108-2.458z"/>
        <path fill="#E2CF00" stroke="#000" stroke-miterlimit="10" d="M69.173-23.668c-1.572-1.225-2.391-2.047-3.987-2.359-.866-.169-2.063.186-2.731.843-.579.57-1.125 1.797-.656 2.922.85 2.039 2.208 3.23 3.391 4.312 1.204 1.102 2.464 2.137 3.984 3.367.058-.851.032-2.085 0-2.897-1.49-1.126-3.435-2.519-4.11-4.105-.406-.953.465-1.568 1.423-.864.912.669 1.649 1.312 2.688 1.969v-3.188z"/>
        <path fill="#D40000" d="M16.423-18.12c-2.246.686-3.875-4.077-.659-4.073 2.372.004 2.666 3.461.659 4.073zm-7.021.207c-1.875-1 2.496-7.949 4.337-6.53.822.634-.384 3.465-.852 4.223-.52.843-2.721 2.714-3.485 2.307zm5.459-7c-.86 2.221 7.622 3.584 7.253 1.449-.166-.96-2.267-1.79-3.034-2.025-1.185-.364-3.722-.708-4.219.576z"/>
        <path fill="none" stroke="#000" stroke-linecap="round" stroke-miterlimit="10" d="M-28.306 75.295c-.865-2.176-1.375-4.139-2.169-5.83-1.115-2.372-2.362-4.638-3.662-6.91-1.577-2.756-3.694-5.521-3.903-8.747-.141-2.174 1.098-5.717 2.978-6.658 5.47-2.737 10.858 2.415 7.259 7.792-1.46 2.18-5.529 1.731-6.668-.814-1.163-2.6 1.142-6.252 3.77-4.274 1.177.885 1.145 3.537-1.119 3.274"/>
        <path fill="none" stroke="#000" stroke-linecap="round" stroke-miterlimit="10" d="M-18.223 77.045c-1.728-5.967-3.533-9.123-5.579-13.512-1.254-2.689-3.02-4.28-3.003-10.794.024-9.502 13.376-8.569 11.71.65-1.161 6.427-11.362 3.05-8.799-2.514.957-2.077 4.879-2.747 5.816.19.319 1-.159 2.55-1.272 3.032-.896.388-2.286-.409-1.957-1.595"/>
        <path fill="none" stroke="#000" stroke-linecap="round" stroke-miterlimit="10" d="M-7.889 78.212c-.674-4.162-3.048-9.635-4.987-13.559-1.282-2.594-3.693-5.843-3.38-8.904.991-.87 1.367-2.632 1.305-3.87-.068-1.361-.49-1.563-.313-2.834.313-2.25 2.274-3.807 4.54-4.119 2.313-.319 4.475.493 5.755 2.454 1.702 2.609.999 7.849-2.764 8.332-2.349.302-5.146-1.286-5.41-3.773-.274-2.596 2.103-5.057 4.706-3.903 4.104 1.818.329 7.062-1.535 3.759m-15.084 24.083a69.506 69.506 0 0 0-4.697-11.345c-1.498-2.858-3.694-5.949-3.886-9.238m11.75 21.333c-.752-3.083-3.28-8.806-4.652-11.72-1.284-2.729-2.732-5.37-3.182-8.363m14.834 21c-1.002-4.167-2.96-9.25-5.164-13.331-1.078-1.997-3.296-6.203-2.836-8.502m11.5 22.083c-.626-2.196-1.195-4.005-2.211-6.575-.922-2.333-1.841-4.959-3.153-7.518-.958-1.868-2.419-5.11-2.388-6.574"/>
        <path fill="none" stroke="#000" stroke-linecap="round" stroke-miterlimit="10" d="M-4.556 78.628c-.414-2.5-1.264-5.226-2.274-7.408-1.13-2.439-1.69-4.096-2.897-6.496-1.026-2.041-1.292-2.709-2.102-4.839-.569-1.499-1.957-4.174-1.285-7.74M-.806 79.128c-.357-2.847-1.684-6.593-2.678-8.468-1.321-2.491-2.396-4.394-3.506-6.983-.947-2.21-2.869-5.329-2.414-7.965"/>
        <path fill="none" stroke="#000" stroke-miterlimit="10" d="M-36.994 49.336c-.731-1.098-1.524-2.619-3.358-4.264m2.584-1.412c1.129.81 2.495 2.305 3.296 3.301"/>
        <path fill="none" stroke="#000" stroke-linecap="round" stroke-miterlimit="10" d="M-32.018 46.393c-.773-1.535-1.64-3.095-3.153-5.014-1.334-1.691-3.01-5.345-5.094-5.344-2.46.002-4.417 3.668-2.445 5.34 1.447 1.228 3.311-.336 2.905-1.997"/>
        <path fill="none" stroke="#000" stroke-miterlimit="10" d="M-28.972 47.128c-.775-1.75-1.13-3.325-1.855-4.78-.672-1.347-1.604-2.876-2.562-4.031-1.6-1.931-3.182-3.734-5.641-4.337-2.091-.512-4.487-.218-5.962 1.67-1.934 2.477-2.12 7.094 1.181 8.693 1.981.959 4.007 1.233 5.59-.397 1.489-1.534 1.583-2.066 1.784-4.285"/>
        <path fill="none" stroke="#000" stroke-linecap="round" stroke-miterlimit="10" d="M-15.472 49.045c-.439-2.788-1.847-6.037-3.104-8.58-.734-1.483-1.583-3.302-2.587-4.617-2.27-2.974-5.572-3.075-8.55-1.111-3.721 2.454-2.16 8.151 1.884 8.986 3.072.635 6.488-2.136 4.964-5.5-1.713-3.781-5.988-1.804-5.807 1.239.151 2.533 5.024 2.042 3.199-1.333"/>
        <path fill="none" stroke="#000" stroke-miterlimit="10" d="M-13.446 46.031c-3.225-8.84-3.318-12.275-8.511-11.07m-3.099 12.895c-.167-.31-1.76-3.325-1.896-4.045m4.431 2.582c-.498-1.199-1.306-2.375-1.784-3.348m4.59 3.067c-.769-3.067-1.727-4.896-2.958-7.44"/>
        <path fill="none" stroke="#000" stroke-miterlimit="10" d="M-10.932 44.958c-.537-2.355-1.268-4.952-2.232-7.153-1.267-2.889-.757-3.489-6.097-2.975"/>
        <path fill="none" stroke="#000" stroke-width="2" stroke-miterlimit="10" d="M53.902 59.947l2.923 3.681 3.035-3.681-2.978-3.652zm-86.945 36.23l7.279-14.549 9.508 2-2.664 12.549m6.141 0l1.889-11.894 14.116.345 2.219 11.549m6.012 0L9.361 84.283l10.917-1.488 6.429 13.382"/>
        <path fill="#E2CF00" stroke="#000" stroke-miterlimit="10" d="M4.09-6.062l22.296 34.974 2.593-1.788L5.989-9.219zM-.52-2.141L21.565 32.37l3.694-2.385L2.86-5.082z"/>
        <path fill="#E2CF00" d="M-32.567 31.11v-2.002l46.925-.263 1.177 2.23zm.113-7.629v-2.129l42.032-.06 1.305 2.191zm40.42.878h3.424l.612 1.055v2.518H7.966zm-8.314.076h3.947v3.572H-.348zm-8.308.023h3.998l-.001 3.573-3.997-.001zm-8.247.013l3.955.001v3.572h-3.955zm-8.405 3.611v-3.573h3.847v3.573zm-7.255 0v-3.573h3.167v3.573z"/>
        <path fill="#E2CF00" stroke="#000" stroke-miterlimit="10" d="M47.046 2.066s.154-8.592 6.61-19.098 15.489-16.425 15.489-16.425l.06-5.247S55.803-30.142 49.916-19.09 42.845 4.939 42.845 4.939l4.201-2.873z"/>
        <path fill="#E2CF00" stroke="#000" stroke-miterlimit="10" d="M18.035-13.161l15.819 24.425s-.012-17.048 8.468-33.659 26.29-25.314 26.29-25.314v-4.516s-20.755 9.712-29.503 28.116-7.63 26.02-7.63 26.02l-9.831-16.644-3.613 1.572z"/>
        <path fill="#D40000" d="M29.72 26.769L68.612 1.998l.22-3.927-40.721 26.25zm-5.913-9.044l1.503 2.242L68.386-8.312l.204-2.575z"/>
        <path d="M-59.894 30.267V17.948l5.268-3.784-.199 18.422z"/>
        <path fill="#D40000" d="M-69.065 24.445l9.033 5.75.138-12.247z"/>
        <path fill="none" stroke="#131F67" stroke-miterlimit="10" d="M19.516 34.665l20.512-13.373"/>
        <path fill="none" stroke="#131F67" stroke-width="2" stroke-miterlimit="10" d="M-40.353 96.177l12.029-21.465m64.281 21.465L22.472 75.895"/>
        <path fill="none" stroke="#131F67" stroke-miterlimit="10" d="M-69.474 24.445s12.917 8.968 23.631 12.692"/>
        <path fill="none" stroke="#131F67" stroke-width="2" stroke-miterlimit="10" d="M-29.298 74.96c27.346 7.021 52.652 1.333 52.652 1.333"/>
        <path fill="none" stroke="#131F67" stroke-miterlimit="10" d="M3.599-5.408l22.574 35.386"/>
        <path fill="#D40000" d="M30.347-25.759c-1.99 1.248-4.805-2.925-1.699-3.76 2.29-.616 3.476 2.645 1.699 3.76zm-6.724 2.031c-2.071-.476.336-8.325 2.483-7.436.959.397.533 3.446.279 4.299-.281.95-1.918 3.331-2.762 3.137zm3.444-8.182c-.252 2.369 8.293 1.471 7.379-.493-.41-.884-2.654-1.136-3.457-1.163-1.239-.042-3.777.288-3.922 1.656zm14.106-4.887c-1.542 1.771-5.445-1.406-2.716-3.105 2.014-1.254 4.095 1.523 2.716 3.105zm-5.845 3.894c-2.12.146-2.093-8.065.22-7.836 1.034.103 1.511 3.144 1.515 4.033.004.991-.871 3.743-1.735 3.803zm.924-8.829c.445 2.339 8.363-.997 6.919-2.612-.649-.727-2.87-.318-3.646-.11-1.199.319-3.532 1.37-3.273 2.722zm12.773-8.927c-.993 2.129-5.622.153-3.468-2.234 1.589-1.761 4.356.333 3.468 2.234zm-4.542 5.357c-1.997.726-4.238-7.173-1.953-7.592 1.021-.188 2.319 2.604 2.57 3.458.278.951.198 3.837-.617 4.134zm-1.55-8.74c1.074 2.126 7.762-3.268 5.928-4.422-.824-.519-2.846.488-3.534.902-1.064.637-3.016 2.291-2.394 3.52zm9.742-12.256c-.327 2.326-5.331 1.79-3.969-1.123 1.002-2.148 4.263-.955 3.969 1.123zm-2.778 6.45c-1.698 1.278-6.15-5.62-4.088-6.689.922-.478 2.979 1.812 3.47 2.556.543.828 1.31 3.612.618 4.133zm-4.038-7.905c1.649 1.719 6.467-5.394 4.375-5.961-.94-.255-2.577 1.299-3.115 1.896-.831.92-2.214 3.072-1.26 4.065zm6.162-14.17c.285 2.332-4.688 3.107-4.124-.058.412-2.334 3.871-2.024 4.124.058zm-1.016 6.95c-1.311 1.673-7.395-3.839-5.678-5.405.766-.7 3.346.98 4.012 1.572.738.659 2.199 3.15 1.666 3.833z"/>
        <path fill="#E2CF00" stroke="#000" stroke-miterlimit="10" d="M9.913-36.938s9.785-2.551 17.351-13.819 5.57-24.453 5.57-24.453l-1.896 1.789s1.006 11.36-5.598 21.584-14.948 12.424-14.948 12.424l-.479 2.475z"/>
        <path fill="#E2CF00" d="M10.767-40.42l.953-2.958s7.216-2.896 12.266-11.65 4.196-15.698 4.196-15.698l2.153-2.144s1.051 9.231-4.333 18.784S10.767-40.42 10.767-40.42z"/>
        <path fill="#E2CF00" stroke="#000" stroke-miterlimit="10" d="M8.091-24.794l.148-3.024s15.715-3.205 26.275-19.344 5.658-34.276 5.658-34.276l2.184-1.531s6.276 18.88-5.48 37.075-28.785 21.1-28.785 21.1z"/>
        <path fill="none" stroke="#E2CF00" stroke-miterlimit="10" d="M18.004-35.085a2.573 2.573 0 1 0-5.146 0 2.573 2.573 0 0 0 5.146 0z"/>
        <path fill="#E2CF00" d="M16.548-35.085a1.117 1.117 0 1 0-2.234 0 1.117 1.117 0 0 0 2.234 0z"/>
        <path fill="none" stroke="#E2CF00" stroke-miterlimit="10" d="M24.254-39.044a2.573 2.573 0 1 0-5.146 0 2.573 2.573 0 0 0 5.146 0z"/>
        <path fill="#E2CF00" d="M22.798-39.044a1.117 1.117 0 1 0-2.234 0 1.117 1.117 0 0 0 2.234 0z"/>
        <path fill="none" stroke="#E2CF00" stroke-miterlimit="10" d="M29.548-43.94a2.573 2.573 0 1 0-5.146 0 2.573 2.573 0 0 0 5.146 0z"/>
        <path fill="#E2CF00" d="M28.092-43.94a1.117 1.117 0 1 0-2.234 0 1.117 1.117 0 0 0 2.234 0z"/>
        <path fill="none" stroke="#E2CF00" stroke-miterlimit="10" d="M33.886-49.751a2.573 2.573 0 1 0-5.146 0 2.573 2.573 0 0 0 5.146 0z"/>
        <path fill="#E2CF00" d="M32.43-49.751a1.117 1.117 0 1 0-2.234 0 1.117 1.117 0 0 0 2.234 0z"/>
        <path fill="none" stroke="#E2CF00" stroke-miterlimit="10" d="M36.837-56.129a2.573 2.573 0 1 0-5.146 0 2.573 2.573 0 0 0 5.146 0z"/>
        <path fill="#E2CF00" d="M35.381-56.129a1.117 1.117 0 1 0-2.234 0 1.117 1.117 0 0 0 2.234 0z"/>
        <path fill="none" stroke="#E2CF00" stroke-miterlimit="10" d="M39.004-63.146a2.573 2.573 0 1 0-5.146 0 2.573 2.573 0 0 0 5.146 0z"/>
        <path fill="#E2CF00" d="M37.548-63.146a1.117 1.117 0 1 0-2.234 0 1.117 1.117 0 0 0 2.234 0z"/>
        <path fill="none" stroke="#E2CF00" stroke-miterlimit="10" d="M39.754-70.298a2.573 2.573 0 1 0-5.146 0 2.573 2.573 0 0 0 5.146 0z"/>
        <path fill="#E2CF00" d="M38.298-70.298a1.117 1.117 0 1 0-2.234 0 1.117 1.117 0 0 0 2.234 0zm-.417-6.935a1.117 1.117 0 1 0-2.234 0 1.117 1.117 0 0 0 2.234 0zM13.153-44.788c-.419-.061-.283-.693.259-.627.919.111.231.698-.259.627zm.833-3.833c.141-.414.369-1.172.81-1.34.552-.21 1.25.33 1.54.752.901 1.314-.156 2.802-1.566 3.057-1.997.361-1.008-1.811-.784-2.469zm2.834-5.334c-.64.798-1.536 1.773-.958 2.972.394.818 1.426 1.518 2.333 1.529.981.013 1.63-.849 1.751-1.753.125-.932-.406-1.377-.951-2.049-.425-.526-1.502-1.562-2.175-.699zm2.117-3.82c-.12.167-.584.849-.76 1.188-.303.587-.283.813.056 1.327.473.717 1.646 1.383 2.429 1.629.999.313 1.854-.196 2.254-1.104.731-1.661-1.117-3.16-2.553-3.646-.627-.212-.999.009-1.426.606zm2.341-3.846c-.27.307-.611.917-.542 1.5.042.349.403.834.654 1.092.622.641 1.948 1.173 2.847.791 2.113-.899.754-2.94-.584-3.8-.933-.6-1.666-.39-2.375.417zm2.873-3.944c-.8.998-1.818 1.635-.428 2.444 1.067.621 1.662.803 2.683-.084 1.675-1.456-1.109-3.79-2.255-2.36zm2.112-2.718c-.82.693-1.28 2.015.416 1.173.78-.388.753-1.754-.416-1.173z"/>
        <path fill="none" stroke="#131F67" stroke-miterlimit="10" d="M69.235 2.582l-13.211 8.29"/>
        <path fill="none" stroke="#E2CF00" stroke-miterlimit="10" d="M9.488-34.622a2.564 2.564 0 0 1 1.732 2.42 2.573 2.573 0 0 1-2.573 2.573c-.025 0-.049-.007-.074-.007"/>
        <path fill="#E2CF00" d="M9.226-33.097c.299.188.517.496.535.875.024.522-.322.959-.801 1.103l.266-1.978z"/>
        <path fill="none" stroke="#E2CF00" stroke-miterlimit="10" d="M37.915-79.522a2.565 2.565 0 0 1 1.422 2.289 2.573 2.573 0 0 1-2.573 2.573 2.565 2.565 0 0 1-2.444-1.81"/>
        <path fill="#D40000" d="M48.474-86.481c-.311 2.318-2.036 5.75-3.414 4.916-.773-.468-.698-1.678-.398-2.768l3.812-2.148z"/>
        <path fill="none" stroke="#131F67" stroke-miterlimit="10" d="M9.762-37.927s3.098-15.764 17.931-32.688 41.932-24.507 41.932-24.507"/>
    </symbol>
    <symbol id="spades_2_" viewBox="-9.479 -11.83 18.957 23.661">
        <path d="M.007 11.831S9.453.656 9.478-3.852c.013-2.172-1.3-4.664-4.338-4.595-3.228.073-3.662 2.252-3.661 3.5 0 .948-.547.546-.56.383-.163-2.029 2.063-7.266 2.063-7.266h-5.964S-.756-6.593-.918-4.564c-.014.163-.562.565-.561-.383 0-1.248-.434-3.427-3.661-3.5-3.039-.069-4.351 2.423-4.339 4.595C-9.454.655-.008 11.831-.008 11.831"/>
    </symbol>
    <symbol id="spades-medium_1_" viewBox="-18.979 -23.688 37.957 47.376">
        <use xlink:href="#spades_2_" width="18.957" height="23.661" x="-9.479" y="-11.83" transform="scale(2.0023)" overflow="visible"/>
    </symbol>
    <use xlink:href="#jack-spades2" width="139.517" height="192.333" x="-69.759" y="-95.603" transform="matrix(1 0 0 -1 123.293 125.927)" overflow="visible"/>
    <use xlink:href="#jack-spades2" width="139.517" height="192.333" x="-69.759" y="-95.603" transform="matrix(-1 0 0 1 103.707 189.073)" overflow="visible"/>
    <use xlink:href="#spades_2_" width="18.957" height="23.661" x="-9.479" y="-11.83" transform="matrix(1 0 0 -1 20 61)" overflow="visible"/>
    <use xlink:href="#spades_2_" width="18.957" height="23.661" x="-9.479" y="-11.83" transform="translate(208 252)" overflow="visible"/>
    <use xlink:href="#face-frame" width="161.544" height="259.519" x="-80.771" y="-129.759" transform="matrix(1 0 0 -1 113.234 157.5)" overflow="visible"/>
    <path fill="#E2CF00" d="M100.406 160.601l.057-7.719 4.935 2.769v-3.081l16.306-.001v3.507l4.889-2.513.001 7.757-4.89-2.953v3.383l-16.304.001v-3.559z"/>
    <use xlink:href="#spades-medium_1_" width="37.957" height="47.376" x="-18.979" y="-23.688" transform="matrix(1 0 0 -1 62.895 60.563)" overflow="visible"/>
    <use xlink:href="#spades-medium_1_" width="37.957" height="47.376" x="-18.979" y="-23.688" transform="translate(164.748 254.436)" overflow="visible"/>
    <path fill="none" d="M3.577 11.9h33.411v39.516H3.577z"/>
    <text transform="translate(11.259 43.403)" font-family="'ArialNarrow'" font-size="44">
        J
    </text>
    <path fill="none" d="M192.22 261.419h33.411v39.516H192.22z"/>
    <text transform="rotate(180 108.975 134.715)" font-family="'ArialNarrow'" font-size="44">
        J
    </text>
</svg>
