<svg xmlns="http://www.w3.org/2000/svg" xmlns:xlink="http://www.w3.org/1999/xlink" viewBox="0 0 227 315">
    <symbol id="diamonds" viewBox="-8.447 -11.626 16.895 23.251">
        <path fill="#D40000" d="M0 11.625S4.224 4.051 8.447 0C4.224-4.454 0-11.626 0-11.626S-4.224-4.454-8.447 0C-4.224 4.051 0 11.625 0 11.625z"/>
    </symbol>
    <symbol id="diamonds-medium" viewBox="-16.914 -23.279 33.828 46.555">
        <use xlink:href="#diamonds" width="16.895" height="23.251" x="-8.447" y="-11.626" transform="scale(2.0023)" overflow="visible"/>
    </symbol>
    <symbol id="face-frame" viewBox="-80.771 -129.759 161.544 259.519">
        <path fill="none" stroke="#131F67" stroke-width="3" stroke-miterlimit="10" d="M79.272-128.259H-79.271V128.26H79.272z"/>
    </symbol>
    <symbol id="jack-diamonds" viewBox="-59.388 -105.907 118.776 211.814">
        <path fill="#E2CF00" stroke="#000" stroke-miterlimit="10" d="M-4.78 84.399s3.771-13.652 6.271-22.069S8.53 39.582 13.387 38.412s9.556-2.824 13.494-.505 7.682 5.084 8.362 7.12-.638 5.896-3.012 6.45c-3.994.934-5.625-1.666-5.625-1.666s-3.566 6.644-6.08 14.168-5.535 16.684-5.535 16.684L-4.78 84.399z"/>
        <path fill="none" stroke="#131F67" stroke-width="2" stroke-miterlimit="10" d="M-40.154 84.018s24.229 6.979 55.146-3.354"/>
        <path d="M58.315 98.504L47.008 86.388l.12-54.048s3.758 2.239 7.628 2.365c4.493.146 2.695-3.542 2.695-3.542s1.621-2.392-.086-5.675c2.023-3.908.086-5.073-.174-5.453 1.274-2.163.446-2.869-.277-3.237-1.609-.819-5.047-2.749-6.815-2.386-.655.135-1.83 1.088-2.052 1.719-.213.604.116 2.561.116 2.561l-1.623.388.902-113.626 11.946-11.361-1.073 204.411z"/>
        <path fill="#D40000" stroke="#000" stroke-miterlimit="10" d="M17.229-73.223L25.812-61.6s-2.085 3.135-4.575 8.471-4.874 9.856-4.874 9.856l.866-29.95z"/>
        <path fill="none" stroke="#131F67" stroke-miterlimit="10" d="M-47.304 29.724l.879-46.478 2.226-2.392 43.108 43.273s-10.352-4.418-23.876-2.673-22.337 8.27-22.337 8.27zm.379-4.811l3.157 2.636m-3.157-5.386l5.167 4.067m-5.344-6.568l7.844 5.251m-7.778-8.501l10.411 7.785m-10.357-10.451l13.557 9.417m-13.5-12.934l9.433 6.545m-9.362-9.365l8.638 5.754m-8.638-8.299l8.97 5.942m-8.541-8.977l9.58 6.287m-9.58-9.287l9.38 6.082m-9.38-8.998l3.245 1.775m2.977-9.069l1.987-1.758m-.173 4.349l2.911-2.257m-.936 4.346l2.366-2.254m-.393 4.466l2.206-2.212m-.539 4.389l2.641-2.177m-1.051 4.344l2.843-2.437m-1.329 5.218l3.728-3.454m-1.865 6.274l3.61-3.968m-.978 5.508l3.507-3.523m-1.828 6.248l4.041-4.028m-3.202 7.809l5.032-5.386m-4.629 10.061l6.746-7.948m-5.19 10.808l7.439-9.123m-3.72 9.322l6.001-7.033m-3.001 7.049l4.921-5.121m-.778 5.586l2.816-3.54m.124 4.119l1.855-2.133"/>
        <path fill="#E2CF00" stroke="#000" stroke-miterlimit="10" d="M-50.078 45.726s13.301-16.027 30.642-15.513c.074.002 15.948.233 24.733 9.082l4.729-.737S-2.326 26.73-20.601 27.162s-31.254 17.744-31.254 17.744l1.777.82z"/>
        <path fill="#E2CF00" stroke="#000" stroke-miterlimit="10" d="M-55.688 43.136l-2.968-1.607s12.772-18.118 35.159-20.238C3.35 18.748 17.065 36.224 17.065 36.224l-1.539 1.542S-1.395 20.987-24.319 24.337s-31.369 18.799-31.369 18.799z"/>
        <path fill="#E2CF00" stroke="#000" stroke-linecap="round" stroke-miterlimit="10" d="M-21.84 20.642c-1.377-2.377-.561-8.718-1.656-10.921s-4.158-5.987-9.283-4.453-5.819 6.546-5.564 8.875c.46 4.196 5.142 7.2 6.896 10.219s1.954 6.031 4.53 8.812 7.814 3.14 9.113-1.925c1.026-4.001-2.613-8.153-4.036-10.607z"/>
        <path d="M-52.257 34.487l-1.844-3.525.102-41.515 31.575-30.04 18.223 17.781 20.118-20.171S12.758-28.01 13-15.171 16.362.669 16.362.669L3.411 13.354l-40.036-39.072-1.911 1.828 60.149 60.093-3.37 1.04-59.738-58.374-7.506 7.339-.671 45.896-2.585 2.383z"/>
        <path fill="#131F67" d="M-19.514 78.346c1.906.844 5.93 1.74 8.836.975 1.722-.454 5.539-2.568 6.646-4.46-3.577 1.204-6.513 2.577-10.653 2.438-2.223-.074-4.023-1.158-5.993-1.482-3.171-.521-.27 1.894 1.164 2.529zm-6.256-22.605c-.974.653-3.09.74-3.543 1.93-.221.579.021 1.39.137 1.971.674 3.38 1.695 6.793 1.873 10.241.1 1.901.272 3.244-.434 4.978-.284.695-.694 1.334-1.199 1.935-.532.633-1.178.999-1.867 1.394-1.998 1.144-4.166.8-6.259.075-1.487-.515-2.979-1.432-3.241-3.115-.203-1.306-.114-2.906-.134-4.224-.02-1.336.562-3.261 1.706-4.041 1.277-.871 3.033-1.08 4.543-1.079 1.12.001 2.583.776 3.619.533-.131-.652-1.17-1.393-1.618-1.865-.567-.598-1.77-1.449-1.949-2.242l.041-.042c.216.084.43.216.649.337.767.423 1.516.939 2.216 1.487.394.307 1.564 1.581 1.919 1.001.314-.515-.349-2.355-.49-2.906-.678-2.619-1.609-5.486 1.362-6.977.909-.456 2.034-.67 2.875-1.23.718-.479.603-1.376 1.453-1.633.349 1.452-.491 2.689-1.659 3.472zm-13.162 19.44c1.512.868 2.79 1.481 4.543 1.417 1.551-.058 3.529-.527 4.75-1.54.537-.445 1.921-2.08 1.174-2.72-.643-.55-1.674.711-2.83 1.106-2.028.693-3.147.882-4.875.602-.937-.152-1.916-.606-2.865-.648-1.164-.051-.744 1.296.103 1.783zm-.66-4.451c-.382.318-.11 1.502.952 1.992 2.202 1.017 5.467.948 7.72-.135.438-.209 2.151-.984 2.196-1.49.075-.854-2.117.155-2.499.283-1.259.421-2.951.896-4.291.718-.812-.108-1.659-.442-2.418-.74-.505-.198-1.339-.895-1.66-.628zm2.069-2.924c-.304-.603-1.876.816-1.283 1.167.447.265.721.317 1.033-.092.089-.117.313-.947.25-1.075zm2.749-1.208c-1.245.104-2.674 1.704-2.36 2.994.306-.013.506.042.905.085.129-.946.734-2.004 1.966-1.952 1.016.043 1.641 1.855 1.641 1.855l.858-.065c-.145-.997-.419-1.604-.834-2-.548-.524-1.404-.982-2.176-.917zm5.432 1.43c-.212-.224-2.201-1.282-2.463-1.183-.514.195.844 2.976 1.706 2.252.549-.46 1.334-.46.757-1.069z"/>
        <path fill="#131F67" d="M-24.685 59.1c2.15.111 4.114-2.92 6.076-1.946 2.245 1.113-.982 3.119-.902 4.356.77.443 1.921-.524 2.316-1.161.55-.884.647-2.16.258-3.082-.579-1.37-2.05-2.269-3.581-1.927-.639.143-1.166.569-1.752.843-.709.332-1.338.272-2.082.417-.588.113-1.094.297-1.292.919-.234.735-.007 1.531.959 1.581zm-3.999-8.501c1.113.55 2.162.908 3.335.375 1.214-.551 1.436-.122 2.581.363 1.408.597 2.04-.117 3.413-.374.406-.076.733-.061 1.13.124.293.137.59.604.832.678.513.157.477-.105.656-.66.203-.622.289-1.287.459-1.923.082-.303.566-1.479.22-1.74-.38-.286-1.129.529-1.44.701-2.261 1.25-4.033-.024-6.334-.159-1.756-.104-3.441.698-5.226.407-.805-.132-1.454-.614-2.215-.905-1.2-.46-.687.168-.382.986.223.598.251 2.044.837 2.127.34.049.546-.282.884-.333.484-.073.985.21 1.417.375m-.294-3.916c.128.712 2.667-.193 3.252-.281 1.361-.204 2.719-.168 4.041.166.457.116 2.108.893 1.592-.137-.346-.69-2.035-.931-2.711-1.154-1.247-.414-2.044-.355-3.298-.02-.637.17-3.027.581-2.876 1.426zm2.042-4.25c1.184 1.032 3.497 1.268 4.968.824.654-.196 1.547-.445 2.033-.951.366-.382.572-.873-.166-.824-.399.025-1.19.648-1.637.795-.679.224-1.276.281-1.99.281-1.146 0-2.087-.276-3.156-.636-.295-.099-.529-.231-.838-.233.01.419.421.516.744.744"/>
        <path fill="none" stroke="#000" stroke-miterlimit="10" d="M-35.607 19.018c.859.797 1.969 1.462 3.15 1.695.316-1.938.729-3.563 1.209-5.477 1.913 2.269 13.39 13.282 9.219 15.75-4.182 2.475-5.344-9.061-5.555-10.738-.279-2.221-.649-4.367-.586-6.637 1.297 1.281 2.479 2.335 3.51 3.599 3.754-2.87 1.027-9.97-2.77-11.521-5.854-2.394-11.096 1.945-10.771 8.204.113 2.197.944 3.595 2.594 5.125z"/>
        <path fill="none" stroke="#131F67" stroke-miterlimit="10" d="M-39.807 83.556c.719-3.701-.164-8.195-.167-12.097-.003-4.8.479-9.427 1.13-14.17.92-6.691 2.899-14.224 8.727-18.555 4.461-3.315 11.13-3.38 15.88-1.492 3.281 1.306 9.352 4.918 12.708 7.296"/>
        <path fill="#131F67" d="M-10.807 72.629c-2.931.669-5.309-.739-8.088-.635 2.563 2.104 5.318 2.638 8.463 1.729 2.25-.65 5.059-2.674 7.237-2.971-2.304 2.5-6.425 4.224-9.747 4.221-1.771-.002-3.325-.349-4.769-1.281-3.075-1.986-2.491-.986-3.497-1.024.15-1.024 1.178-1.774 1.022-3.347-.112-1.142.798-2.282 1.729-3.165 1.259-1.192 2.91-3.028 4.508-3.188-.604 1.191-2.121 2.029-2.843 3.109 3.011-.02 5.809-.681 8.729.674 1.891.877 1.567.988 2.758.945.985-.035 2.213-.332 1.975 1.381-2.404 1.135-4.866 2.955-7.477 3.552zm-7.812-3.906c.671.489 1.246 1.371 1.8.451.164-.272.903-1.334.874-1.611-.129-1.198-2.334.49-2.674 1.16zM-13.121 67c-1.209-.026-2.721.262-3.018 2.939l.949.069c.29-1.096.734-2.176 2.038-2.068 1.049.086 1.495 1.291 1.762 2.153.438 0 .652-.064.952-.067-.033-1.595-1.108-2.993-2.683-3.026zm2.57.188c.113.33.237.566.412 1.073.325.944.265 1.141.997 1.339.524.143 1.292-.183 1.493-.71.378-.997-2.079-1.572-2.902-1.702z"/>
        <path fill="#E2CF00" stroke="#000" stroke-miterlimit="10" d="M-32.905 5.364c-1.721-4.445-5.69-7.415-8.592-11.149-1.611-2.073-2.789-4.157-3.69-6.638-.419-1.15-1.237-4.331-1.237-4.331l1.753-2.012s2.429 2.283 3.043 2.813c-.633 2.026 1.184 4.757 2.275 6.355 1.396 2.042 3.322 3.759 4.952 5.613 2.192 2.495 5.098 5.25 5.059 8.66l-3.563.689z"/>
        <path fill="#131F67" d="M57.365 25.488c.171 1.329 1.129 1.957.703 3.424-.192.662-.51 1.058-.441 1.748.067.675.539 1.2.506 1.936-.063 1.352-1.306 2.338-2.558 2.614-2.289.505-6.902-1.306-8.447-2.87-.604.921-.085 3.034-.06 4.119.033 1.467-.123 2.883-.125 4.342-.001 1.288.473 2.524-.872 2.987-1.219.421-2.351.086-2.925-1.068-.798-1.606-1.264-3.656-1.938-5.359-.968-2.441-1.595-5.149-1.752-7.771-.07-1.165-.138-2.472-.013-3.636.119-1.108.613-2.115.797-3.244.306-1.878 1.598-7.072 1.598-7.072l4.795-1.933s.322 2.247.332 3.094c.008.68-.47 2.278.416 2.364 1.262.122.822-1.872.986-2.579.682-2.947 4.405-1.928 6.339-.922 1.028.534 2.901 1.501 2.974 2.873.031.605-.535.93-.488 1.5.053.634.866 1.03 1.051 1.649.41 1.384-1.054 2.437-.878 3.804zM45.443 42.959c1.196-.961-.473-5.02-2.188-3.424.044.686.872 4.48 2.188 3.424zm1.077-27.413c-.53-2.232-3.844.635-4.449 1.786-1.418 2.695-.915 6.538-1.611 9.503-.528 2.25-.474 4.011.248 6.2.357 1.084 1.845 4.682 2.174 5.312 2.262-.549 2.763.864 3.412 2.116l.13-3.024c-.106-.728-.559-1.339-.766-1.985-.349-1.09.119-.542.412-1.492.19-.613-.021-1.481-.128-2.098-.539-3.078.269-6.604-1.414-9.491.797-.013 1.436.432 1.902 1.032.338-1.107.108-2.424.076-3.567-.035-1.251.292-3.12.014-4.292zm.656 15.93c.852 1.12 2.733 1.47 3.989 1.946 1.515.576 3.837 1.983 5.078.438 1.293-1.609.635-2.772-.866-3.342-1.098-.417-2.772-1.347-4.238-1.412-.369.486-.207 2.018-.909 2.553-.521.396-1.707.573-1.839-.235 1.957-.487 2.252-2.358-.135-2.95-1.225.81-2.315 1.377-1.08 3.002zm1.013-4.693c2.797.438 3.22-3.899-.158-2.988-1.787.482-1.175 2.779.158 2.988zm-.296-7.259c-1.363.781-.841 2.809.613 2.448 2.594-.642 1.238-3.509-.613-2.448zm1.402-3.615c-.611.669-.141 2.435.836 1.876 2.324-1.33.384-3.21-.836-1.876zm6.123.847c-.499-.228-2.725-.979-3.17-.708-.282.173-.227.974-.305 1.112-.582 1.035-.824 1.131.375 1.643 1.008.429 3.307 1.624 4.311.67 1.078-1.027-.375-2.335-1.211-2.717zm1.541 5.355c-.466-.838-1.653-1.286-2.457-1.641-.663-.292-2.471-1.243-3.186-.874-.639.329-.229.888-.549 1.501-.273.525-1.193.852-1.078 1.203.119.367 1.635.546 1.96.625.839.202 1.631.36 2.435.675.621.243 1.581.927 2.23.686.758-.28 1.012-1.513.645-2.175zm-.033 4.778c-.424-.741-.757-1.307-1.518-1.647-.771-.345-2.418-1.146-3.246-1.194-1.161-.066-.725.524-.903 1.426-.169.856-.423 1.526-1.375 1.775 1.434.692 3.997 1.564 5.558 2.021.755.221 1.346.674 1.817-.172.272-.489-.083-1.775-.333-2.209z"/>
        <path fill="#E2CF00" d="M-10.011-7.929c-.412.511-7.37.326-7.37.326l2.285 2.201s5.666-.476 5.669.17-4.799.735-4.799.735l1.877 1.909s5.309-.398 5.471.114-4.398.803-4.398.803L-9.047.354S-3.5.505-3.359.886s-4.751.552-4.751.552l2.104 2.266s5.613-.153 5.492.226-4.611.417-4.611.417l2.05 2.229s4.941-.009 5.004.258-3.821.601-3.821.601l1.648 1.957 7.066-.414.478-6.094L5.017.614s.014 4.969-.433 4.926S4.13-.475 4.13-.475L2.239-1.92s-.032 4.367-.525 4.382-.445-5.73-.445-5.73L-.882-5.127s.134 4.869-.287 4.861-.533-5.939-.533-5.939L-3.76-8.012s.05 4.517-.525 4.514-.312-5.778-.312-5.778l-2.172-1.88s-.121 4.757-.617 4.727-.229-5.908-.229-5.908l-2.107-2.218c-.002-.002.123 6.116-.289 6.626zM7.525 1.488l7.104-.657-.991-7.588s-.787 3.882-1.102 3.943S12.273-8 12.273-8l-1.828-1.737s-.191 4.421-.635 4.391-.393-5.734-.393-5.734L7.3-12.795s-.1 4.568-.526 4.556-.239-5.727-.239-5.727l-2.042-2.037s-.092 4.439-.588 4.313-.312-5.252-.312-5.252l-2.226-1.937S1.331-14.988.89-15.09s-.374-4.848-.374-4.848l-1.819-1.853s-.119 5.301-.589 5.773-6.87.775-6.87.775l2.045 2.278s5.203-.561 5.352-.041-4.372.852-4.372.852l1.317 1.689s6.12-.184 6.151.199-4.674.808-4.674.808l1.464 1.91s5.909.006 5.992.461-4.567.739-4.567.739L1.6-4.425s5.832-.185 5.936.306-4.602.699-4.602.699l1.698 2.052s5.418-.435 5.504-.066S5.7-.545 5.7-.545l1.825 2.033zm2.868-13.29l2.429-.348L13-8.955zM7.3-14.836l2.044 2.145 3.428-.667s-.24-10.726-.261-10.836-.814-.253-.814-.253-.151 4.07-.459 4.06-.135-5.547-.135-5.547l-1.5-1.073s-.568 3.904-.954 3.851.2-4.99.2-4.99l-2.268-1.82s-.193 5.733-.745 6.183-6.927.407-6.927.407L.57-21.474s5.896-.243 5.93.146-4.594 1.101-4.594 1.101l1.553 1.825s5.142-.77 5.39-.424-4.356 1.242-4.356 1.242l1.667 2.167s5.117-.864 5.309-.328-4.169.909-4.169.909zm-.862-16.527l2.366 2.294 4.526-.403 2.06-9.371-2.121.042s-.041 6.537-.211 6.804-6.62.634-6.62.634zm2.959 2.793l3.866-.263-.503 3.546z"/>
        <path fill="#131F67" d="M15.055-85.428l-.525 5.046 4.651 1.701-.359 5.285 4.656 1.211v6.184l4.826.793.659 5.742 5.133-.036 1.038 5.327 4.898.14 1.097 4.853 5.188.016.122 5.482-8.427-6.545s-9.821 18.048-8.773 36.058 12.6 29.81 12.6 29.81l-.729 5.207S27.438 5.818 25.406-14.171s8.997-37.765 8.997-37.765l-6.038-6.676S15.555-38.69 16.314-14.556s25.669 50.78 25.669 50.78l-2.777 1.854-3.89-4.31-6.417 5.907-2.326-2.683 6.383-5.507-2.087-2.535-6.21 5.61-2.189-2.519 6.263-5.569-1.448-2.149-6.465 6.257-2.809-3.018 7.293-6.19-1.173-2.196-7.886 7.071-2.425-2.337 8.648-7.18-2.331-2.821-8.194 8.021-2.642-2.317 9.854-8.783-1.13-2.979L7.663 17.914l-2.292-2.17L16.449 4.477s-4.33-11.409-3.421-27.143C14.28-44.333 25.812-61.6 25.812-61.6l-7.033-9.03-5.851-12.475 2.127-2.323z"/>
        <path fill="#131F67" d="M16.362-86.893l1.271-1.797L32.48-66.375l14.566 13.867-4.045.802-1.031-4.48-5.007-.172-.965-5.393-4.659-.333-.643-4.955-4.935-.974.284-5.662-5.387-1.62.95-5.049-4.459-1.324.421-5.06z"/>
        <path fill="#E2CF00" stroke="#000" stroke-miterlimit="10" d="M57.771 60.569s-8.267.572-13.789 4.137-11.101 10.785-11.101 10.785 9.74-4.331 13.558-5.167 11.332-1.282 11.332-1.282l.025 2.236s-7.924.566-11.357 1.642-18.346 8.175-18.346 8.175-.08-7.101 11.646-16.603c7.064-5.725 18.058-6.232 18.058-6.232l-.026 2.309z"/>
        <path fill="#E2CF00" d="M47.675 73.646l2.319-.541-.011 11.739 7.959 8.406-.171 3.628-10.187-11.102z"/>
        <path fill="#E2CF00" d="M54.882 72.449l-1.479 6.631c-.608 2.728-.416 7.134-.416 7.134l2.555 2.932s-.867-5.195 0-8.673 1.967-8.086 1.967-8.086l-2.627.062zm.015-14.918l-2.447.192s2.649-6.371 2.371-10.893-2.413-11.75-2.413-11.75l2.986.506s2.395 3.889 2.017 10.816-2.514 11.129-2.514 11.129zm.312-42.036l-3-.776s-.763-4.406.29-9.676 1.638-6.09 1.836-10.214-2.285-5.096-2.522-10.506 2.137-8.071 2.262-12.74-1.653-7.299-1.764-13.213 1.954-8.38 2.067-13.002-2.27-9.077-2.327-14.286 2.854-8.153 2.897-12.16-2.112-6.018-2.263-9.929.538-4.111.538-4.111l3.115-2.666s-1.254 4.307-.627 6.911 1.518 4.371 1.962 7.913-2.734 10.336-2.729 13.751 2.161 10.27 2.375 12.78-2.518 11.514-2.36 14.679 2.317 9.29 2.237 12.998-2.463 7.659-2.168 12.038 1.938 7.551 2.137 11.466-1.715 6.394-1.845 10.55-.111 10.193-.111 10.193zm-7.707 17.702l2.574 1.364-.073 23.908-2.396.599z"/>
        <path fill="#E2CF00" d="M47.433 17.504l2.666-3.092-.063-107.9 7.817-7.349-.052-3.212-10.359 9.503z"/>
        <path fill="none" stroke="#131F67" stroke-miterlimit="10" d="M-36.625-25.287L31.709 41.52l10.273-5.296"/>
        <path fill="#D40000" d="M-44.344 105.907l7.124-11.035 4.476.507-3.461 10.528zm21.489 0l2.631-10.218 14.6-1.051 2.855 11.269zm33.406 0L6.464 92.821l6.272-1.69 9.267 14.776z"/>
        <path fill="#D40000" d="M-58.896 105.907l18.761-21.616s9.177 3.307 26.777 2.259 28.599-5.347 28.599-5.347l17.335 24.704h-5.747L14.395 86.312 1.362 89.738l4.787 16.169H1.25l-3.79-15.509s.168.388-10.272.891l-10.44.503-3.651 14.115h-4.905l4.458-14.323-11.538-1.321-10.53 15.645h-9.478z"/>
        <path fill="#E2CF00" stroke="#000" stroke-miterlimit="10" d="M18.46-89.646l3.599 1.52s5.93 10.63 11.727 17.329 12.657 13.059 12.657 13.059l-.081 3.886S36.381-62.8 31.705-68.669C22.741-79.92 18.46-89.646 18.46-89.646z"/>
        <path fill="#E2CF00" stroke="#000" stroke-miterlimit="10" d="M23.601-87.485l7.425 3.632s2.059 4.402 6.867 9.844 8.613 9.259 8.613 9.259l-.071 5.79s-6.53-6.08-11.778-12.207-11.056-16.318-11.056-16.318zm9.351 4.593l4.937 2.256s-.076.565 3.09 4.285 5.685 6.525 5.685 6.525l.014 3.988s-3.546-3.112-6.862-7.272-6.864-9.782-6.864-9.782z"/>
        <path fill="#D40000" stroke="#000" stroke-miterlimit="10" d="M38.074-49.171s-10.03 16.286-8.836 34.999 12.6 29.81 12.6 29.81l4.702-2.051-.102-57.271-8.364-5.487z"/>
        <path fill="#E2CF00" stroke="#000" stroke-miterlimit="10" d="M11.57 39.443s-3.742 4.434-5.805 10.126S1.908 60.83 1.908 60.83s-7.405-6.109-4.293-14.083c3.71-9.505 13.955-7.304 13.955-7.304z"/>
        <path fill="none" stroke="#000" stroke-miterlimit="10" d="M2.679 56.913S-1.457 53.752.991 47.33s8.15-4.814 8.15-4.814L2.679 56.913z"/>
        <path fill="none" stroke="#000" stroke-miterlimit="10" d="M7.075 45.726l-2.864 7.521s-2.178-1.448-1.053-4.479 3.917-3.042 3.917-3.042zm8.451-7.96s-2.392 1.441-6.385 10.313C3.575 60.448-1.948 83.748-1.948 83.748"/>
        <path fill="none" stroke="#000" stroke-miterlimit="10" d="M20.608 36.837s-4.883 3.711-8.7 11.556C6.564 59.374 1.325 82.913 1.325 82.913"/>
        <path fill="none" stroke="#000" stroke-miterlimit="10" d="M25.158 37.242s-4.424 1.123-8.666 8.483c-5.13 8.899-12.1 36.94-12.1 36.94"/>
        <path fill="none" stroke="#000" stroke-miterlimit="10" d="M7.426 82.093s6.066-26.825 10.983-34.763c4.698-7.585 9.684-8.584 9.684-8.584"/>
        <path fill="none" stroke="#000" stroke-miterlimit="10" d="M10.143 81.579s6.509-29.312 14.267-38.067c2.817-3.181 7.042-1.992 7.042-1.992"/>
        <path fill="none" stroke="#000" stroke-miterlimit="10" d="M13.029 81.033s1.074-6.242 4.712-16.12 7.086-18.423 9.418-19.886 4.75-1.508 5 1.105-3.093 2.06-3.093 2.06m-2.26 1.879l-.713-3.669"/>
        <path fill="#E2CF00" stroke="#000" stroke-miterlimit="10" d="M-40.398 69.254l-3.343-7.142s-1.44 2.852-3.562 1.202-.445-3.225.665-4.038 3.244-.243 4.563 1.03 2.102 3.08 2.102 3.08l-.425 5.868z"/>
        <path fill="#E2CF00" stroke="#000" stroke-linecap="round" stroke-miterlimit="10" d="M-39.482 58.339s.854-7.45 3.667-12.941 10.087-9.404 10.087-9.404-4.334-.414-9.281.746-5.93 1.778-7.965 2.936-6.359 5.634-7.342 7.128-1.767 3.761-.323 5.73 3.796 3.271 5.874 1.651 2.419-2.63 1.673-4.158c-.46-.942-1.499-1.631-2.509-1.701-.628-.044-1.244.151-1.702.674-2.122 2.416 1.002 3.269 1.002 3.269s-4.046-1.63-1.002-3.741 6.021 2.426 6.405 3.741 1.416 6.07 1.416 6.07z"/>
        <path fill="none" stroke="#000" stroke-linecap="round" stroke-miterlimit="10" d="M-38.216 50.908s-3.481-7.529-10.668-5.862m11.54 2.084s-2.166-3.871-8.249-4.793m9.519 2.396s-3.458-4.689-6.988-4.629m9.004 1.562s-2.941-3.02-5.462-3.169m7.285 1.607s-1.96-2.118-3.242-2.861m5.344 1.503s-.927-1.681-2.103-2.007"/>
        <path d="M57.771 69.042v-8.473s-15.022-.018-24.89 14.922c15.36-7.327 24.89-6.449 24.89-6.449z"/>
        <path fill="#D40000" stroke="#000" stroke-miterlimit="10" d="M-46.007-12.693S-34.728 2.442-33.451 4.969s-2.199 1.832-2.199 1.832-9.96-12.219-10.493-14.637.136-4.857.136-4.857z"/>
        <path fill="#E2CF00" d="M56.861 65.173a1.646 1.646 0 1 0-3.292 0 1.646 1.646 0 0 0 3.292 0zm-5.762 1.125a1.647 1.647 0 1 0-3.293.001 1.647 1.647 0 0 0 3.293-.001zm-5.251 1.712a1.438 1.438 0 1 0-2.876 0 1.438 1.438 0 0 0 2.876 0zm-4.107 1.758a1.021 1.021 0 1 0-2.043.001 1.021 1.021 0 0 0 2.043-.001z"/>
    </symbol>
    <use xlink:href="#jack-diamonds" width="118.776" height="211.814" x="-59.388" y="-105.907" transform="matrix(1 0 0 -1 133.968 134.18)" overflow="visible"/>
    <use xlink:href="#jack-diamonds" width="118.776" height="211.814" x="-59.388" y="-105.907" transform="matrix(-1 0 0 1 93.376 181.352)" overflow="visible"/>
    <use xlink:href="#diamonds" width="16.895" height="23.251" x="-8.447" y="-11.626" transform="matrix(1 0 0 -1 21 62)" overflow="visible"/>
    <use xlink:href="#diamonds" width="16.895" height="23.251" x="-8.447" y="-11.626" transform="matrix(1 0 0 -1 209 253)" overflow="visible"/>
    <use xlink:href="#face-frame" width="161.544" height="259.519" x="-80.771" y="-129.759" transform="matrix(1 0 0 -1 114.11 157.5)" overflow="visible"/>
    <path fill="none" d="M1.963 14.099h33.412v39.516H1.963z"/>
    <text transform="translate(9.646 45.602)" fill="#D40000" font-family="'ArialNarrow'" font-size="44">
        J
    </text>
    <path fill="none" d="M193.605 263.617h33.412v39.516h-33.412z"/>
    <text transform="rotate(180 109.669 135.814)" fill="#D40000" font-family="'ArialNarrow'" font-size="44">
        J
    </text>
    <use xlink:href="#diamonds-medium" width="33.828" height="46.555" x="-16.914" y="-23.279" transform="matrix(1 0 0 -1 61.281 61.424)" overflow="visible"/>
    <use xlink:href="#diamonds-medium" width="33.828" height="46.555" x="-16.914" y="-23.279" transform="translate(165.65 252.678)" overflow="visible"/>
</svg>
