<svg xmlns="http://www.w3.org/2000/svg" xmlns:xlink="http://www.w3.org/1999/xlink" viewBox="0 0 227 315">
    <symbol id="face-frame" viewBox="-80.771 -129.759 161.544 259.519">
        <path fill="none" stroke="#131F67" stroke-width="3" stroke-miterlimit="10" d="M79.272-128.259H-79.271V128.26H79.272z"/>
    </symbol>
    <symbol id="hearts" viewBox="-10.934 -11.657 21.868 23.314">
        <path fill="#D40000" d="M0-11.657s4.999 6.392 6.686 8.509C9.635.55 10.935 2.963 10.935 6.399c0 3.217-2.825 5.256-5.339 5.259C.787 11.664 0 7.146 0 7.146s-.787 4.518-5.595 4.511c-2.515-.003-5.339-2.042-5.339-5.259 0-3.436 1.299-5.849 4.248-9.547C-4.998-5.266 0-11.657 0-11.657z"/>
    </symbol>
    <symbol id="hearts-medium" viewBox="-21.892 -23.341 43.787 46.682">
        <use xlink:href="#hearts" width="21.868" height="23.314" x="-10.934" y="-11.657" transform="scale(2.0023)" overflow="visible"/>
    </symbol>
    <symbol id="jack-hearts" viewBox="-79.538 -95.527 159.077 191.054">
        <path fill="#E2CF00" d="M-7.398 38.802h44.649l-5.503 37.154-21.861 3.635z"/>
        <path d="M-78.561-80.813l22.171-14.714 44.501 59.133 24.402-.011.04 9.082L57.011 31.17l-11.525 8.521s-45.42-.56-56.261-.56c-19.58-6.094-50.823-26.942-67.545-44.59-.041-5.701-.241-75.354-.241-75.354z"/>
        <path fill="#E2CF00" stroke="#000" stroke-miterlimit="10" d="M34.922 73.822c2.814-7.565 2.164-25.879 9.033-29.261 1.678 2.341 4.682 3.109 6.624 2.289 6.518-2.754 4.373-9.999 2.095-12.051-3.142-2.831-7.474-2.037-10.157-1.243-2.438.72-6.346 4.699-7.715 6.842-4.968 7.78-5.606 21.915-8.774 35.939"/>
        <path fill="#FFF" stroke="#131F67" stroke-miterlimit="10" d="M-25.356 32.994c-1.35 2.329 1.491 10.957 9.371 6.66.601-.326 1.995-1.581 1.995-1.581s-1.457-.811-1.995-.795c-.809.026-2.933 1.38-2.933 1.38s.24-1.327-.01-1.658c-.369-.491-2.375.64-2.375.64s.584-1.664.232-2.037c-.34-.36-1.977.115-1.977.115s.579-1.048.579-1.187c.001-.139.001 0-2.887-1.537z"/>
        <path fill="#FFF" d="M-33.108 95.234l13.129-18.278s.227-3.215 1.47-5.065c-.33-3.453-5.104-11.179-5.825-14.209-.277-1.303 4.383-3.39 5.757-4.368.811-1.452-.25-3.125-.49-4.389.089-.613 1.492-1.724 1.492-1.724s-.532-1.218-.505-1.602c1.248-.634 2.282-3.049 2.599-4.268.221-.845.532-2.945 1.246-3.356 9.328-.835 19.833 7.757 21.826 9.945 2.709 2.975 5.159 8.623 5.41 11.957.865 6.988-3.312 19.701-3.312 19.701"/>
        <path fill="#131F67" d="M-32.702 95.526l13.129-18.278.08-.111.013-.146c.073-.836.223-1.705.436-2.527.219-.823.514-1.627.95-2.294l.108-.165-.025-.162v-.001l-.135-.76-.199-.719a19.494 19.494 0 0 0-.494-1.377c-.354-.902-.76-1.771-1.17-2.635-.827-1.724-1.713-3.409-2.551-5.109a35.439 35.439 0 0 1-1.172-2.573c-.081-.218-.177-.435-.236-.654-.062-.209-.172-.482-.113-.556.094-.336.455-.686.797-.975.713-.588 1.526-1.084 2.338-1.571.812-.493 1.648-.937 2.445-1.492l.027-.02.012-.023v-.001c.223-.335.359-.735.404-1.142a4.29 4.29 0 0 0-.052-1.21c-.128-.78-.396-1.532-.467-2.193l.004.164a1.018 1.018 0 0 1 .165-.284c.098-.128.213-.26.336-.388.248-.254.529-.508.807-.73l.299-.242-.151-.351a12.257 12.257 0 0 1-.294-.75c-.047-.127-.08-.247-.119-.368l-.037-.164c-.011-.052-.002-.054-.014-.084l-.272.41c.82-.453 1.253-1.131 1.666-1.779.392-.664.706-1.353.96-2.07.271-.729.387-1.492.559-2.162.085-.342.18-.678.299-.982.105-.301.297-.597.385-.642l-.205.064c2.327-.205 4.696.192 6.953.9 2.263.712 4.434 1.733 6.502 2.924a44.42 44.42 0 0 1 5.891 4.074c.923.771 1.812 1.524 2.549 2.448.718.889 1.373 1.904 1.947 2.934 1.143 2.074 2.076 4.302 2.602 6.589.135.576.212 1.135.261 1.724.04.6.115 1.215.093 1.787.026 1.153-.082 2.364-.208 3.544-.27 2.374-.724 4.737-1.272 7.076a94.709 94.709 0 0 1-1.912 6.949l.951.312a96.088 96.088 0 0 0 1.935-7.034c.556-2.366 1.017-4.761 1.293-7.191.062-.609.137-1.216.16-1.831a19.37 19.37 0 0 0 .054-1.86c.019-.638-.056-1.226-.096-1.832a13.082 13.082 0 0 0-.281-1.858c-.56-2.428-1.519-4.704-2.705-6.86-.604-1.079-1.26-2.106-2.062-3.099-.779-.971-1.746-1.795-2.676-2.57a45.541 45.541 0 0 0-6.026-4.168c-2.119-1.22-4.35-2.271-6.702-3.012-2.347-.734-4.839-1.161-7.343-.942l-.117.011-.088.054c-.279.174-.418.383-.544.574-.11.192-.202.383-.272.569a9.284 9.284 0 0 0-.338 1.106c-.188.742-.289 1.431-.53 2.07-.232.656-.526 1.3-.876 1.891-.35.574-.782 1.151-1.261 1.4l-.279.146.007.265c.003.109.01.249.028.335l.057.248c.045.146.089.297.14.434.099.282.203.547.321.82l.147-.592c-.322.261-.613.522-.904.819a5.484 5.484 0 0 0-.42.485c-.129.188-.277.367-.352.737v.001l-.017.099.02.067c.238.825.607 1.464.836 2.158.116.343.202.689.219 1.04.018.35-.04.703-.188 1.031l-.001.001.039-.043c-.781.509-1.642.933-2.471 1.399-.832.465-1.667.935-2.442 1.531-.372.316-.786.614-.992 1.196-.098.399.054.585.096.83.059.241.148.464.226.694.329.908.711 1.786 1.106 2.654.788 1.738 1.618 3.448 2.382 5.181.376.866.749 1.734 1.061 2.614.167.438.297.881.428 1.321l.16.661.094.648v.001l.083-.326c-.536.822-.849 1.709-1.087 2.597-.23.896-.385 1.781-.467 2.712l.093-.257-13.129 18.278.811.588z"/>
        <path stroke="#000" stroke-miterlimit="10" d="M-32.829 94.992s10.319-15.004 12.817-17.893c26.032 5.47 54.979-3.131 54.979-3.131l14.623 21-82.419.024z"/>
        <path fill="#D40000" d="M-31.739 94.868s7.773-10.854 9.906-13.862c31.024 6.129 57.601-3.395 57.601-3.395l12.374 17.257h-79.881z"/>
        <path fill="#FFF" d="M-27.048 94.868l6.578-10.653 13.072 1.715-3.34 8.895m5.378 0s2.041-6.685 2.673-8.747c5.494.162 16.561-.81 16.561-.81l2.642 9.557"/>
        <path fill="#E2CF00" stroke="#131F67" stroke-miterlimit="10" d="M-64.061 28.624s.815 2.873 3.048 5.012c1.274 1.22 4.81 2.583 6.539 2.939 1.755.36 5.378.009 7.165.141 4.708.35 7.439 2.311 7.37 2.028-.067-.282-.642-2.85-1.296-4.11-.603-1.159-2.55-2.526-3.746-3.053-1.549-.683-4.543-1.243-6.233-1.155-2.296.119-5.573.026-7.915-1.07-1.121-.523-2.178-2.593-3.206-2.571-.63.011-1.726 1.839-1.726 1.839z"/>
        <path fill="#FFF" d="M22.559 94.868l-2.866-10.377s12.131-2.573 13.964-3.078c.994 1.544 8.98 13.455 8.98 13.455"/>
        <path fill="#131F67" d="M-14.736 65.426c.175.37.115 1.239.023 1.638-.234 1.007-2.602 2.945-1.879 3.688.232.238.881-.649 1.205-.573.804.194 1.77 1.151 3.691 1.146 1.108-.004 3.329-.419 4.366-.813 1.364-.52 3.846-2.121 4.995-3.018.355-.278 1.55-.908 1.278-1.268-.51-.679-2.224 1.242-2.968 1.653-.924.511-2.696 1.712-3.704 2.026-.876.272-2.731.462-3.644.379-.474-.043-2.305-.521-1.828-.541 1.067-.043 2.611.068 3.453-.129.93-.219 2.655-1.096 3.481-1.574.468-.271 1.312-.95 1.751-1.268.859-.617 2.871-1.705 3.18-2.475.395-.993-2.845.951-3.906.849-.691-.065-1.913-.817-2.564-1.056-1.479-.541-3.05-.118-3.311-.845-.221-.614 1.376-1.416 1.952-1.721.663-.352 3.14-1.236 2.556-1.206-.812.042-2.387.543-3.139.854-1.183.492-3.232 2.135-4.441 2.563-.509.181-2.268.102-2.413.621-.139.503 1.644.599 1.866 1.07zm-6.115-9.141c-.253.316.072 1.329.397 1.57.513.381 1.569.241 2.552-.116.712-.26 1.896-1.309 2.654-1.454.513-.1 1.566-.037 1.784.438.173.374.22 1.1-.375 1.91-.311.421-2.48 1.472-1.682 1.525.467.032 1.499-.344 1.892-.601.521-.34 1.163-1.694 1.193-2.316.026-.528-.22-1.355-.556-1.763-.319-.384-1.297-.822-1.793-.872-.723-.075-2.817.712-2.817.712s-.954.432-1.752.665c-.365.108-1.259.002-1.497.302zm4.866-5.101c-.176.443.774 1.26 1.192 1.488.633.351 1.514.633 2.873.324.976-.223 2.722-1.35 3.672-1.666.892-.296 2.057-.336 2.668-.146 1.262.392 1.178 1.27 1.199 1.812.016.459-.436.973-.969 1.242-.506.254-2.096.681-1.658.758.697.125 2.221-.043 2.768-.526.45-.399.951-.991.951-2.207 0-.984-.919-1.876-1.477-2.175-1.334-.715-2.367-.636-3.15-.486-.775.147-2.278.582-3.062.765-.711.166-2.149.409-2.871.524-.532.085-1.934-.207-2.136.293zm1.186-12.221s-.176 3.527-1.895 6.917c.294.66.444 1.101 2.47 1.051 1.043-.024 3.237-1.103 3.891-1.243.519-.112-.655 1.604-.821 2.107-.101.307-.331 1.309-.331 1.169s-1.056-.479-1.536-.461c-.703.028-1.604.731-2.66.845-.667.074-3.236.153-3.236.153"/>
        <path fill="#FFF" d="M-11.656 64.765c-.262.469.113 1.68.448 2.099.2.256.62.45.896.275.219-.139.378-.515.279-.754-.221-.53-1.175-2.413-1.623-1.62z"/>
        <path fill="#FFF" stroke="#131F67" stroke-miterlimit="10" d="M67.04 70.215c-7.278 5.326-9.224 9.949-9.933 15.311-8.957-9.69-9.362-27.088-.337-38.197.729 3.414 1.917 11.039 10.411 15.769"/>
        <path fill="#FFF" d="M-9.993 64.573c-.632.142.45 2.116 1.074 2.293.563.16 2.106-.541 2.056-1.124-.076-.879-2.112-1.397-3.13-1.169z"/>
        <path fill="#E2CF00" stroke="#000" stroke-miterlimit="10" d="M57.051 47.328c-2.682 5.077-1.091 15.01-1.091 15.01l-5.28 4.368 4.984 3.939s-1.254 9.592 1.387 14.483c0 0 .742-9.484 10.41-15.245v-6.69c-8.178-2.597-10.41-15.865-10.41-15.865z"/>
        <path fill="#131F67" d="M-17.355 74.895c-.679-.133.992-2.063 1.67-2.205 2.158-.454 5.947-.079 7.82-.66 2.018-.629 4.776-2.305 7.059-4.257.475-.407.651.996-.42 1.927-1.204 1.05-4.707 3.577-6.201 4.141-2.471.93-8.146 1.402-9.928 1.054zm28.379-21.171s-2.251-.497-2.962-.281c-1.23.374-1.655 1.621-1.824 2.344-.151.655.169 2.079.547 2.636.229.337 1.502 1.273 1.358.895-.358-.942-.761-2.332-.587-3.104.1-.445.619-1.447 1.074-1.478 2.022-.134 3.011 1.496 3.011 1.496l-.617-2.508z"/>
        <path d="M-63.865 28.221s2.297 3.646 3.408 4.522c.381.302 1.299.726 1.782.779.155.016.457-.147.61-.121.487.09 1.188 1.069 1.683 1.04.302-.018.646-.73.949-.753.433-.033 1.077.892 1.512.868.354-.021.79-.804 1.143-.837.328-.03.857.567 1.188.57.315.001.824-.539 1.139-.533.245.006.625.43.869.456.335.04.977-.417 1.304-.342.263.061.547.705.817.7.255-.003.501-.683.758-.69.321-.009.66.807.979.83.217.014.729-.465.729-.465s1.901 1.241 1.724.799c-.973-2.404-4.131-2.867-5.229-3.124-2.19-.514-6.516-.116-8.983-.548-1.251-.219-3.159-.46-4.567-2.224-.56-.698-.635-1.141-.635-1.563"/>
        <path fill="#E2CF00" d="M-38.476-14.766l-1.04 2.533-1.79-2.454z"/>
        <path fill="#E91A00" d="M-77.268-5.691C-71.372.16-64.682 6.469-59.459 10.057c.671-1.144-.37-5.343-2.073-7.629-3.978-5.334-13.667-8.502-15.736-8.119z"/>
        <path fill="#E91A00" d="M-77.027-7.332c3.953 1.312 9.654 2.889 14.95 6.967-.376-1.603-.486-3.312-2.45-5.669-1.958-2.352-10.639-3.082-12.5-1.298zm-.304-3.316c-.431-.241-.094-1.791.099-2.246.645-1.526 3.22-4.015 4.871-3.886 1.102 1.043 1.535 1.487 2.305 2.548-3.232 1.011-4.631 1.197-7.275 3.584zm-.067-3.931c-1.028-.75.831-4.349 2.067-4.662.518-.13 1.669.777 1.688 1.312-1.277.862-2.681 2.416-3.755 3.35zm-.115-4.339c-.46-.183-.145-1.458-.036-1.981.315-.178 1.18.413 1.223.771-.434.56-.792 1.367-1.187 1.21z"/>
        <path fill="#D40000" d="M-22.217 94.899l3.887-7.137 6.365 1.008-2.483 6.055zm20.633-.006l1.222-5.652 11.707-.378 1.432 6.049z"/>
        <path fill="#E2CF00" stroke="#000" stroke-miterlimit="10" d="M67.234 78.315l11.799 7.559-.414-68.79-11.996 7.205z"/>
        <path fill="#D40000" stroke="#000" stroke-miterlimit="10" d="M78.979 81.625l-8.902-5.059.085-54.124 8.871-5.358z"/>
        <path fill="#D40000" d="M25.945 94.868l-2.32-7.866 8.847-2.068 5.871 9.978z"/>
        <path fill="#D40000" stroke="#000" stroke-miterlimit="10" d="M70.084 73.271l8.9 4.226m-8.9-8.451l8.9 4.225m-8.878-8.451l8.9 4.226m-8.9-8.45l8.9 4.224m-8.9-8.45l8.9 4.226m-8.9-8.229l8.9 4.225m-8.922-8.45l8.9 4.225m-8.878-8.451l8.9 4.226m-8.9-8.451l8.9 4.225m-8.9-8.451l8.9 4.226m-8.922-8.81l8.9 4.225m-8.9-8.451l8.9 4.226m-8.9-8.451l8.9 4.225m-5.245-6.773l5.267 2.548"/>
        <path fill="#D40000" d="M-46.979-83.135c-18.512 18.118-20.99 41.106-20.99 41.106S-44.914-27.018-39.576 4.47c1.501-2.669 3.135-5.888 5.195-10.499-25.046-21.92-17.521-56.298-6.525-68.884l-6.073-8.222z"/>
        <path fill="none" stroke="#E2CF00" stroke-miterlimit="10" d="M-31.508-16.184c-13.127-12.417-13.687-38.597-3.656-50.741m1.828 2.359c-13.442 21.897-2.82 48.383 17.703 55.804m-13.964-6.87C-34.381 1.131-39.633 8.628-47.442 18.49m30.508-25.595c-4.41 16.658-12.164 26.018-17.845 33.316"/>
        <path fill="none" stroke="#E2CF00" stroke-width="3" stroke-miterlimit="10" d="M-29.098 29.997s.318-5.327 1.232-6.555c1.564-2.098 7.591-2.905 9.225-4.952 2.013-2.525.464-9.827 1.707-12.808 1.001-2.4 6.699-4.662 7.609-7.1.86-2.31-2.16-7.703-1.771-10.136.33-2.068 1.678-4.564 1.678-4.564"/>
        <path fill="none" stroke="#E2CF00" stroke-miterlimit="10" d="M-22.951 32.48C-14.234 21.333-2.991.836-1.976-15.225"/>
        <path fill="#E91A00" d="M-77.657-8.637c4.881-1.304 8.105-.32 11.601 0-.479-1.41-1.805-3.123-2.862-4.292-.634-.678-8.109 2.016-8.739 4.292z"/>
        <path fill="#E2CF00" d="M37.636 35.539h-55.498l3.914 1.678h51.584z"/>
        <path fill="none" stroke="#E2CF00" stroke-miterlimit="10" d="M-18.113 26.211h51.086"/>
        <path fill="none" stroke="#E2CF00" stroke-width="3" stroke-miterlimit="10" d="M48.568 31.287s.274-6.001-1.063-7.53c-1.749-1.998-8.144-1.146-10.062-2.981-2.331-2.231.019-9.605-1.763-12.298-1.588-2.396-7.919-1.676-10.44-4.472-1.892-2.096.147-8.959-1.491-11.272-1.516-2.141-7.738-2.087-9.566-3.872-2.102-2.051-2.824-6.376-2.824-6.376"/>
        <path fill="none" stroke="#E2CF00" stroke-miterlimit="10" d="M-13.26-25.787c-9.691-5.702-10.779-14.699-9.23-23.943"/>
        <path fill="#E2CF00" d="M-48.688-85.276c-11.002 9.412-20.396 29.614-21.694 41.64l1.386 1.02c1.267-11.714 10.687-32.221 21.397-41.385l-1.089-1.275z"/>
        <path fill="none" stroke="#E2CF00" stroke-miterlimit="10" d="M-55.52-95.009l-22.523 15.35"/>
        <path fill="#E2CF00" d="M-78.631-26.229l-.907 1.412c11.896 7.643 20.235 21.484 21.247 36.125l1.674 1.282c-1.719-18.082-9.688-30.899-22.014-38.819zm.998-20.282l-.676 1.535c10.173 4.471 19.127 12.323 25.899 22.704C-46.454-13.141-42.061-1.93-41.327 7.51l1.112-1.807c-.753-9.713-4.685-19.531-10.79-28.891-6.951-10.654-16.157-18.719-26.628-23.323z"/>
        <path fill="none" stroke="#E2CF00" stroke-miterlimit="10" d="M-36.809 24.105c-11.022-4.806-5.562-16.264 6.447-7.755m1.924-2.776C-40.49 9.553-35.844-1.4-24.784 6.658"/>
        <path fill="#FFF" d="M-77.627-48.075s4.332 2.261 6.321 3.35c3.42-25.841 22.612-41.559 22.612-41.559l-4.936-7.133-23.999 16.808.002 28.534z"/>
        <path fill="none" stroke="#131F67" stroke-miterlimit="10" d="M-72.872-45.57l1.828-.91m-4.997 0l5.639-3.357m-7.226.815l8.333-5.099m-8.332 1.884l9.934-6.591m-9.935 3.295l11.758-7.597m-11.758 4.302l14.468-9.576m-14.468 5.825l18.569-12.141m-18.568 8.507l25.418-17.049m-25.419 13.556l27.096-18.727M-77.628-73.48l25.698-17.384"/>
        <path fill="#131F67" d="M-69.491-69.359s.263-.078.644-.282c.19-.085.395-.278.607-.53.246-.245.408-.555.571-.896.191-.338.292-.723.453-1.127.107-.403.258-.839.329-1.279.195-.892.279-1.823.353-2.735l.146-2.607c.043-.396.061-.794.109-1.148.029-.365.059-.707.097-1.021.005-.328.064-.609.085-.878.023-.27.044-.511.082-.704.055-.398.062-.665.062-.665l.001-.012a.12.12 0 0 0-.115-.121.11.11 0 0 0-.065.018s-.214.131-.547.429a3.001 3.001 0 0 0-.527.593 4.63 4.63 0 0 0-.536.875 5.827 5.827 0 0 0-.424 1.119c-.131.408-.183.835-.268 1.281a25.31 25.31 0 0 0-.242 2.724c-.037.903-.038 1.793-.096 2.589-.014.409-.073.774-.109 1.14-.08.339-.109.69-.218.969l-.232.781c-.067.226-.091.461-.177.667a3.846 3.846 0 0 0-.147.688.128.128 0 0 0 .117.14c.015-.002.032-.003.047-.008zm-6.09 4.221s.263-.079.644-.282c.189-.085.395-.278.607-.53.246-.245.408-.555.571-.896.19-.338.292-.723.453-1.127.106-.403.257-.839.329-1.279.195-.893.278-1.823.352-2.736l.145-2.606c.044-.396.061-.794.11-1.148a22.2 22.2 0 0 1 .097-1.021c.004-.328.063-.609.085-.878a6.74 6.74 0 0 1 .081-.704c.055-.398.062-.665.062-.665l.001-.012a.12.12 0 0 0-.115-.121.11.11 0 0 0-.065.018s-.214.131-.547.429a3.001 3.001 0 0 0-.527.593 4.588 4.588 0 0 0-.535.876 5.86 5.86 0 0 0-.425 1.118c-.13.408-.182.835-.267 1.281a25.31 25.31 0 0 0-.242 2.724c-.036.903-.037 1.793-.095 2.589-.014.409-.074.774-.109 1.14-.08.339-.109.69-.219.969l-.231.781c-.067.226-.091.461-.178.667-.122.413-.146.688-.146.688a.128.128 0 0 0 .117.14.193.193 0 0 0 .047-.008zm12.504-8.895s.263-.079.644-.282c.19-.085.395-.278.607-.531.246-.244.408-.555.57-.895.191-.339.293-.724.453-1.128.107-.402.258-.838.33-1.279.194-.892.278-1.823.352-2.735l.146-2.607c.044-.396.061-.794.11-1.148.028-.365.058-.707.096-1.021.005-.328.064-.609.086-.878.023-.27.043-.511.081-.704.054-.398.062-.665.062-.665v-.012a.117.117 0 0 0-.179-.103s-.214.131-.547.429a2.95 2.95 0 0 0-.527.594c-.195.241-.373.54-.535.875a5.729 5.729 0 0 0-.425 1.118c-.13.408-.183.835-.268 1.281A25.31 25.31 0 0 0-62.263-81c-.037.903-.038 1.793-.096 2.59-.014.408-.073.774-.109 1.14-.079.338-.108.69-.218.969l-.232.78c-.066.227-.09.461-.177.668-.122.413-.146.688-.146.688a.128.128 0 0 0 .117.14.193.193 0 0 0 .047-.008zm5.794-3.974s.264-.078.644-.282c.19-.084.395-.278.608-.53.245-.244.407-.555.57-.895.191-.339.293-.724.453-1.128.107-.402.258-.839.33-1.279.194-.892.278-1.823.352-2.735l.145-2.607c.044-.396.061-.794.11-1.148.028-.365.058-.707.096-1.021.005-.328.064-.609.085-.878.023-.27.044-.511.082-.704.055-.398.062-.665.062-.665l.001-.012a.12.12 0 0 0-.115-.121.11.11 0 0 0-.065.018s-.214.131-.547.429a2.981 2.981 0 0 0-.527.594c-.195.241-.373.54-.535.875a5.793 5.793 0 0 0-.425 1.118c-.13.408-.183.835-.268 1.281a25.591 25.591 0 0 0-.242 2.724c-.036.903-.037 1.793-.094 2.589-.015.409-.074.775-.109 1.14-.08.339-.109.69-.219.969l-.232.781c-.067.226-.091.461-.177.667a3.846 3.846 0 0 0-.147.688.129.129 0 0 0 .117.14.201.201 0 0 0 .047-.008z"/>
        <path fill="none" stroke="#E2CF00" stroke-miterlimit="10" d="M-23.234 3.403C-34.498-.047-31.507-10.035-19.3-4.63"/>
        <path fill="#E2CF00" d="M-19.868 34.591h6.607v-6.607h-6.607zm15.102 0h6.61v-6.607h-6.61zm14.585 0h6.609v-6.607H9.819zm15.322 0h6.607v-6.607h-6.607zm-32.429-3.304a1.816 1.816 0 1 0-3.632-.002 1.816 1.816 0 0 0 3.632.002zm15.185 0a1.816 1.816 0 1 0-3.633-.001 1.816 1.816 0 0 0 3.633.001zm14.814 0a1.817 1.817 0 1 0-3.635 0 1.817 1.817 0 0 0 3.635 0zm14.999 0a1.815 1.815 0 1 0-3.631 0 1.815 1.815 0 1 0 3.631 0z"/>
        <path fill="none" stroke="#000" stroke-miterlimit="10" d="M30.261 31.287a1.815 1.815 0 1 0-3.631 0 1.815 1.815 0 1 0 3.631 0zm-15.322 0a1.816 1.816 0 1 0-3.632 0 1.816 1.816 0 1 0 3.632 0zm-14.584 0a1.816 1.816 0 1 0-3.632 0 1.816 1.816 0 1 0 3.632 0zm-15.103 0a1.816 1.816 0 1 0-3.632 0 1.816 1.816 0 1 0 3.632 0z"/>
        <path fill="#E2CF00" d="M-22.222 25.921a1.815 1.815 0 1 0-3.63 0 1.815 1.815 0 0 0 3.63 0zm2.075-10.146a1.817 1.817 0 1 0-3.633 0 1.817 1.817 0 0 0 3.633 0zm8.702-8.264a1.816 1.816 0 1 0-1.815 1.817 1.815 1.815 0 0 0 1.815-1.817zm0-10.167a1.816 1.816 0 1 0-3.632-.004 1.816 1.816 0 0 0 3.632.004zm6.579-7.924a1.815 1.815 0 1 0-3.63 0 1.815 1.815 0 0 0 3.63 0zm26.552 6.105a1.816 1.816 0 1 0-3.634 0 1.816 1.816 0 0 0 3.634 0zM30.82.976A1.815 1.815 0 0 0 29.002-.84 1.817 1.817 0 1 0 30.82.976zm2.744 10.734a1.817 1.817 0 1 0-3.634-.002 1.817 1.817 0 0 0 3.634.002zm8.897 5.789a1.816 1.816 0 1 0-3.632-.002 1.816 1.816 0 0 0 3.632.002zm3.262 9.156a1.815 1.815 0 0 0-3.632 0 1.816 1.816 0 1 0 3.632 0z"/>
        <path fill="none" stroke="#D40000" stroke-miterlimit="10" d="M3.98-16.118l36.909 50.344"/>
        <path fill="#131F67" d="M-14.38 24.28l44.641-.279S10.25-3.219.868-16.647C-3.186 8.554-14.38 24.28-14.38 24.28zm-38.474-7.649c-.299.942-.51 1.791-.82 2.69a13.87 13.87 0 0 1-1.208 2.526 11.215 11.215 0 0 1-1.758 2.208c-.69.643-1.45 1.232-2.308 1.626a5.548 5.548 0 0 1-1.319.441c-.453.084-.899.085-1.262-.145a26.095 26.095 0 0 1-2.437-1.51c-.783-.549-1.567-1.098-2.281-1.714-.357-.307-.709-.615-1.011-.949-.074-.083-.154-.165-.213-.251-.065-.089-.146-.188-.121-.167-.01.067.042-.16.169-.298.243-.317.604-.615.974-.861.352-.236.826-.477 1.089-.489.74.055 1.643.551 2.352 1.081.365.272.705.583.972.926.132.171.249.349.323.521.039.091.054.141.128.337.009.017-.001.008.044.081a.55.55 0 0 0 .059.076c.109.346 1.211-.381.775-.221.024-.2.003-.148.006-.199l-.016-.111-.03-.188c-.08-.478-.169-.945-.21-1.393a3.548 3.548 0 0 1-.016-.313.958.958 0 0 1 .008-.114c-.007-.024.038-.039-.061.093a.232.232 0 0 1-.057.051c-.006.004-.101.062-.054.034l.01-.005c.017-.01.032-.016.001.003-.062.023-.049.016-.039.016a.918.918 0 0 1 .109-.001c.093.003.202.015.312.03.446.056.916.146 1.398.231l.384.059c.082.006.117.023.309.008a.6.6 0 0 0 .17-.053.493.493 0 0 0 .194-.171.488.488 0 0 0 .082-.312c-.1-.382-.155-.291-.197-.368l-.075-.061a5.746 5.746 0 0 1-.492-.451c-.628-.645-1.135-1.415-1.4-2.258a4.633 4.633 0 0 1-.056-2.615c.213-.873.658-1.695 1.203-2.449l.175-.241-.184-.205a21.028 21.028 0 0 0-1.59-1.573c-.551-.483-1.101-.97-1.665-1.434a116.864 116.864 0 0 0-3.417-2.746l-.214-.166-.217.163-.002.001a19.925 19.925 0 0 0-2.022 1.7 7.707 7.707 0 0 0-.901 1.023 2.618 2.618 0 0 0-.36.669c-.04.139-.081.285-.066.472.007.046-.009-.009.017.12l.011.039.021.078c.021.07.105.228.173.296.286.284.561.323.783.388l.636.138c.398.088.749.223 1.042.431.294.195.368.348.301.721-.052.377-.26.728-.285 1.338-.003.374.274.724.58.852.297.119.46.134.611.208.281.118.596.445.757.707.125.228.107.614 0 .988-.05.189-.119.382-.194.581l-.115.312-.057.186c-.004.088-.068.126.013.394a.421.421 0 0 0 .385.25c.096-.001.151-.019.194-.032l.139-.037c.092-.009.127-.023.227-.017.172-.006.35.036.519.095.344.115.635.367.927.613.302.27.558.572.609.957.033.362-.161.832-.665.858l.49.523c.117-.554.454-.863.475-1.384.04-.491-.179-.979-.439-1.351a2.581 2.581 0 0 0-1.159-.872 2.158 2.158 0 0 0-.747-.146 1.804 1.804 0 0 0-.417.035l-.175.044c-.008.003-.005-.001.036-.002a.305.305 0 0 1 .257.173c.046.164.012.092.029.076l.041-.123.113-.293c.079-.204.16-.418.225-.645.12-.443.228-.981-.044-1.541-.288-.467-.594-.795-1.094-1.053-.238-.115-.509-.169-.609-.219-.082-.05-.119-.093-.115-.158.005-.258.194-.707.28-1.183.04-.245.063-.541-.056-.853a1.663 1.663 0 0 0-.139-.254l-.107-.127c-.15-.145-.205-.185-.319-.272-.411-.294-.888-.464-1.33-.562-.418-.091-.938-.187-1.007-.281-.064.024.02-.38.26-.688.219-.323.502-.634.793-.932a19.7 19.7 0 0 1 1.909-1.666l.001-.001-.432-.004c1.146.888 2.283 1.798 3.395 2.729.561.46 1.102.939 1.646 1.416.536.485 1.052.98 1.517 1.497l-.009-.446c-.616.784-1.15 1.666-1.439 2.665a5.485 5.485 0 0 0 .009 3.097c.299 1.008.869 1.903 1.57 2.652.179.188.361.365.566.538l.064.054c-.021-.056-.051.053-.143-.297a.488.488 0 0 1 .075-.293c.083-.12.185-.159.178-.157a.379.379 0 0 1 .126-.041c.071-.006-.014-.004-.052-.013l-.33-.058c-.467-.089-.942-.199-1.455-.263a3.964 3.964 0 0 0-.41-.028c-.075 0-.154.001-.252.014-.05.009-.098.01-.216.053-.062.024-.072.032-.082.037l-.011.006c.041-.024-.062.036-.072.046a.783.783 0 0 0-.089.084c-.172.227-.152.336-.175.43a1.699 1.699 0 0 0-.012.247c.003.146.015.278.029.409.062.513.163.993.263 1.464l.033.169.013.067c.005-.021-.01.062.011-.108-.433.168.658-.554.763-.212a.317.317 0 0 1 .047.056c.036.062.021.038.023.041-.013-.029-.08-.206-.143-.334a3.26 3.26 0 0 0-.462-.692 7.586 7.586 0 0 0-1.136-1.051 7.953 7.953 0 0 0-1.3-.802 5.258 5.258 0 0 0-.727-.294 2.903 2.903 0 0 0-.415-.108c-.177-.034-.203-.033-.425-.047-.707.069-1.093.359-1.547.633-.428.294-.828.612-1.174 1.062-.145.241-.392.469-.297 1.026.085.259.194.33.264.439.079.112.168.203.256.3.352.377.72.716 1.113 1.015a23.21 23.21 0 0 0 2.431 1.651c.839.497 1.69.968 2.576 1.386.488.268 1.078.224 1.558.13.499-.1.968-.278 1.414-.494 1.77-.886 3.276-2.221 4.474-3.803.601-.792 1.1-1.665 1.478-2.592.388-.9.677-1.929.676-2.894l-.711-.125z"/>
        <path fill="#131F67" d="M-64.402 28.36c-.804.527-1.929.858-2.514.347-.077-.072-.412-.395-.436-.519-.102-.143-.192-.389-.257-.619-.073-.238-.11-.494-.185-.794-.081-.296-.125-.613-.519-1.025l-.167-.125c-.066-.045-.186-.098-.279-.141-.23-.103-.321-.105-.482-.158a4.815 4.815 0 0 1-.717-.23c-.2-.095-.366-.203-.488-.358l-.09-.117c-.008-.005-.05-.072-.03-.024l-.045-.094c-.06-.124-.131-.26-.147-.351a3.432 3.432 0 0 1-.148-.684 4.7 4.7 0 0 1-.021-.741c.038-.495.163-.977.362-1.422l.111-.248-.104-.169c-.084-.139-.19-.316-.288-.405-.097-.088-.2-.193-.294-.262a10.217 10.217 0 0 0-.557-.397c-.172-.12-.347-.238-.483-.354-.083-.059-.123-.114-.175-.166-.074-.061-.044-.081-.075-.101-.01.026-.04-.183-.052-.248.004-.075-.01-.137-.003-.222.007-.17.034-.34.087-.495a1.41 1.41 0 0 1 .221-.419c.093-.124.217-.213.342-.306l.457-.334-.393-.483c-.12-.146-.26-.251-.382-.421-.114-.181-.245-.354-.352-.54l-.272-.578c-.016-.174-.129-.337-.1-.521 0-.26.053-.428.091-.602.072-.187.139-.383.253-.561.21-.363.494-.701.834-.986.666-.583 1.481-1.028 2.328-1.33.213-.071.428-.134.643-.18l.31-.049c.028-.003.012.002-.014-.004.009.002-.046-.007-.074-.026-.044-.033-.037-.012-.104-.106-.062-.083-.008-.244-.011-.223a.183.183 0 0 1 .029-.051c.037-.043.007-.008-.01.001l-.139.099c-.386.279-.842.646-.951 1.249-.053.294.022.597.149.833.159.261.253.402.479.613.394.364.914.583 1.458.55.273-.003.527-.105.767-.214l.327-.216c.027-.021.052-.032.082-.06l.034-.029.031-.032c.002-.031.024.051.073-.18-.01-.091-.021-.135-.128-.197-.121-.053-.219.007-.193-.005l-.041.021-.053.031-.084.057a4.466 4.466 0 0 0-1.026 1.068c-.275.41-.488.91-.46 1.448.012.54.35 1.021.646 1.368.126.185.362.417.614.509.253.123.479.147.722.233.24.087.576.094.834.062l.375-.047c.045-.003.11-.011.095.007.006.002-.014.009-.047.009a.33.33 0 0 1-.158-.043.413.413 0 0 1-.183-.203.301.301 0 0 1-.037-.136h1a.753.753 0 0 0-.051-.223.564.564 0 0 0-.241-.266.5.5 0 0 0-.242-.066.474.474 0 0 0-.135.012c-.133.03-.18.059-.248.087l-.303.149c-.196.082-.343.129-.561.097-.461-.056-.873-.065-1.114-.45-.324-.346-.531-.701-.549-1.12-.019-.41.152-.824.401-1.185s.577-.689.929-.946l.062-.042.022-.014h-.001c.031-.016-.059.045-.172-.009-.097-.066-.108-.105-.124-.188.045-.216.056-.124.047-.146h.001l-.033.028c-.013.013-.042.027-.062.041l-.263.17c-.188.078-.378.158-.58.155-.396.023-.806-.155-1.095-.429-.295-.275-.558-.691-.479-1.021.059-.352.398-.647.768-.889l.151-.101c.032-.026.05-.024.127-.111a.37.37 0 0 0 .041-.069c.003.017.052-.153-.01-.243-.065-.104-.07-.082-.119-.119a.328.328 0 0 0-.095-.033c-.056-.008-.102-.005-.103-.005-.145.013-.26.026-.389.046a6.647 6.647 0 0 0-.721.175c-.932.299-1.814.739-2.587 1.367-.388.311-.74.682-1.026 1.115-.151.212-.257.456-.362.703-.088.279-.158.565-.168.78-.052.286.062.575.103.863l.288.715c.115.228.246.446.371.67.136.222.347.44.527.654v.001l.064-.817a2.481 2.481 0 0 0-.623.551 2.4 2.4 0 0 0-.383.721 2.823 2.823 0 0 0-.138.778c-.009.13.009.285.019.426.029.145.012.158.085.383.072.168.17.362.267.443.097.105.198.215.292.282.194.163.38.286.562.413.18.121.35.241.501.356.081.059.124.113.19.168.062.058.05.082.096.115l.008-.417a5.251 5.251 0 0 0-.459 1.79c-.014.308-.014.615.025.923.04.311.09.602.213.939.054.179.116.288.176.415l.045.095c.062.102.062.09.097.141l.163.214c.225.277.537.483.838.619.305.137.602.213.866.284.104.032.289.078.311.096.031.015.05-.001.1.029l.167.125.021.016.005.004-.062-.057.001.002.003.006.012.023.026.044c.019.027.043.051.057.108.033.095.071.189.097.324.062.239.105.535.194.83.09.298.179.591.391.907.098.161.2.312.292.395l.142.152.071.076.019.02c.081.079.037.033.062.057l.055.04c.572.473 1.366.552 1.984.419.641-.125 1.182-.379 1.715-.721l-.558-.824z"/>
        <path fill="#131F67" d="M-65.147 16.763s-.352.294-.893.712c-.55.406-1.272.964-2.032 1.467-.765.489-1.516.999-2.136 1.293-.614.304-1.069.428-1.069.428l.525.852s.321-.353.872-.765c.543-.423 1.349-.859 2.13-1.335.763-.498 1.562-.941 2.154-1.286.601-.332 1.011-.539 1.011-.539l-.562-.827zm-1.656-3.787s-.314.283-.804.681c-.508.363-1.14.95-1.819 1.438-.668.48-1.349.987-1.915 1.208-.562.233-.942.32-.942.32l.393.92s.339-.33.858-.722c.272-.185.548-.425.862-.661.312-.236.659-.471 1.004-.706.686-.464 1.367-.906 1.93-1.188.565-.271.953-.435.953-.435l-.52-.855zm1 10.384s-.149.21-.409.477c-.136.126-.278.292-.458.435l-.565.44c-.205.128-.41.266-.604.403-.191.142-.402.217-.555.352a7.09 7.09 0 0 1-.576.371l.758.654s.099-.2.302-.482c.216-.28.582-.583.978-.883l.607-.395c.188-.132.389-.222.548-.315.33-.173.573-.256.573-.256l-.599-.801z"/>
        <path fill="#131F67" d="M-67.311 21.114l.279-.059c.124-.014.35-.05.628-.013.275.031.603.108.936.246.321.146.69.324.912.606.057.069.093.144.135.206.011.021.038.082.04.069l.057.14c.034.093.066.288.043.445-.041.345-.314.606-.57.71-.547.212-.914-.07-.9-.055v1s.132-.053.34-.143.491-.23.775-.445a2.98 2.98 0 0 0 .788-.919c.104-.216.185-.441.141-.758l-.026-.162c-.035-.108-.059-.141-.092-.215a1.456 1.456 0 0 0-.236-.305 4.306 4.306 0 0 0-2.194-1.267 3.84 3.84 0 0 0-.896-.092l-.296.018.136.993z"/>
        <path fill="none" stroke="#E2CF00" stroke-miterlimit="10" d="M-78.053-35.354s6.043-3.099 7.708-1.719c2.642 2.189-.988 12.799-.988 12.799s9.444-4.999 11.71-2.574c2.266 2.421-3.14 11.724-3.14 11.724s10.524-2.004 12.097.822c1.656 2.983-6.133 11.178-6.133 11.178s11.005.478 11.737 3.446c.778 3.151-9.316 9.037-9.316 9.037s5.9.73 8.665 3.634m-9.641-.422s6.132.896 6.752 2.75c.189.566-.727 2.021-.727 2.021"/>
        <path fill="none" stroke="#E2CF00" stroke-miterlimit="10" d="M-57.268.718s6.307-.807 6.804.907c.519 1.79-5.454 4.762-5.454 4.762m-3.744-12.282s5.523-4.247 4.632-5.896c-.875-1.617-7.329.637-7.329.637m-3.951-5.214s4.376-5.22 3.174-6.603c-1.177-1.354-6.84 2.184-6.84 2.184m-5.546-4.695s2.952-5.637 1.675-6.85c-.796-.757-4.205 1.256-4.205 1.256m34.264 42.285l-3.789-2.69 4.396-4.968m-1.62-6.499l-6.222-2.414 2.978-6.429m-3.274-6.147l-6.226-.467 1.224-6.233m-3.978-5.327l-6.934.658v-6.527m-4.931-4.652l-5.871 2.146"/>
        <path fill="#E2CF00" d="M-34.141-6.603l.62-2.154-2.11.526zm-2.203-2.264v-2.565l-2.297.066zm-5.474-6.596l1.197-2.725-3.09.013zm-2.281-3.567l1.404-2.497-2.842-.029zm-1.916-3.693l1.524-2.298-2.749-.303zm-1.792-4.034l1.966-2.062-2.739-.63zm-1.145-3.831l2.014-2.032-2.578-.663zm-.983-4.054l2.395-1.427-2.655-1.076zm-.454-3.624l2.535-1.795-2.636-1.167zm-.196-4.366l2.403-1.316-2.469-1.444zm.033-4.136l2.717-1.329-2.466-1.742zm.443-4.224l3.009-.834-2.091-2.18zm1.074-4.334l2.734-.905-1.996-1.968zm1.105-4.116l3.082-.42-1.942-2.496zm1.376-3.877l3.345-.216-1.916-2.567zm2.025-3.959l3.044-.006-1.301-2.751zm5.475-3.868l-1.611-2.282-1.349 2.282z"/>
        <path fill="#E2CF00" stroke="#E2CF00" stroke-miterlimit="10" d="M-13.641-23.232c-3.475.368-4.337 1.486-5.689 2.791.392-5.787-4.564-8.292-6.892-7.732 3.729-3.914-.741-9.253-3.728-9.875 4.523-2.102 1.518-8.237-.746-9.598 2.195-.656 4.846-2.514 6.266-4.066-5.121 15.194 3.33 26.333 10.789 28.48z"/>
        <path fill="#E2CF00" stroke="#E2CF00" stroke-miterlimit="10" d="M-18.932-21.325s.285 2.214.388 2.951c.179 1.29.146 2.045-.335 2.857-.451.761-1.405.846-2.002.494-1.139-.673-.689-1.853-.689-1.853s-.82.959-1.957.281c-.595-.354-.977-1.232-.524-1.992.48-.812 1.127-1.203 2.343-1.664.696-.262 2.776-1.074 2.776-1.074zm-6.811-7.226s-.79 2.088-1.046 2.787c-.449 1.222-.832 1.871-1.639 2.362-.758.459-1.642.085-2.001-.506-.687-1.13.263-1.96.263-1.96s-1.175.46-1.859-.672c-.357-.591-.281-1.547.476-2.005.808-.491 1.562-.53 2.852-.365.737.097 2.954.359 2.954.359zm-3.831-9.627s-1.587 1.573-2.109 2.104c-.916.924-1.534 1.357-2.472 1.467-.88.104-1.528-.603-1.61-1.288-.155-1.315 1.053-1.677 1.053-1.677s-1.26-.067-1.413-1.383c-.079-.686.385-1.522 1.266-1.626.938-.112 1.64.165 2.746.852.629.393 2.539 1.551 2.539 1.551zm-.562-9.412s-2.089.792-2.782 1.063c-1.213.474-1.953.617-2.855.337-.846-.264-1.149-1.173-.945-1.831.391-1.266 1.642-1.104 1.642-1.104s-1.123-.577-.728-1.839c.205-.659.971-1.235 1.817-.973.902.28 1.429.818 2.162 1.896.415.617 1.689 2.451 1.689 2.451z"/>
        <path fill="#D40000" stroke="#000" stroke-miterlimit="10" d="M55.697 80.14h2.446m-2.914-3.112h4.682m-4.108-3.144h6.636m-6.603-3.145h10.271m-13.659-2.726h14.184M55.697 53.162h2.725m-3.193 3.113h4.682m-4.108 3.144h6.636m-6.603 2.866h9.713m-13.101 3.004h14.184"/>
        <path fill="#FFF" d="M-13.611-15.113l34.082-.629-1.02-1.801-2.654-.015-5.267-9.336-24.495.005z"/>
        <path fill="#131F67" d="M-13.509-16.916h7.39l-3.021-6.19h2.4l3.294 6.19h7.942l-3.235-6.19h1.881l3.206 5.85h8.08l-2.832-5.85h2.047l-1.436-2.544H7.519l3.043 6.451H8.154l-3.368-6.316h-7.522l2.96 6.243-1.874-.006-3.299-5.967h-7.981l3.149 6.314h-1.969l-1.523-2.353z"/>
        <path fill="#E2CF00" stroke="#131F67" stroke-miterlimit="10" d="M-69.382 10.342s0-.369-.067-.871a12.349 12.349 0 0 0-.352-1.758 15.873 15.873 0 0 0-.27-.878 2.303 2.303 0 0 0-.34-.683 1.56 1.56 0 0 0-.389-.371c-.115-.073-.2-.101-.2-.101l-.981.753s-.035.118-.062.3a3.228 3.228 0 0 0-.021.686c.019.262.074.541.177.809.097.272.205.558.324.834.237.556.516 1.08.759 1.446.236.372.438.585.438.585l.984-.751z"/>
        <path fill="none" stroke="#000" stroke-miterlimit="10" d="M28.547 75.272c2.14-9.05 2.826-27.104 8.115-34.114 1.752-2.323 5.896-6.34 10.38-6.34 4.601 0 6.001 5.169 5.172 7.078-1.2 2.77-3.087 2.839-4.721 1.632-.402-.3-.667-1.371-.314-1.729.495-.505 1.671.293 2.272-.839.574-1.076-.113-2.658-.8-3.036-2.67-1.469-6.238.588-8.349 2.623-7.807 7.473-6.416 22.991-9.487 34.365"/>
        <path fill="none" stroke="#000" stroke-miterlimit="10" d="M33.01 73.99c2.561-8.921 2.352-22.316 6.532-28.666.564-.857 2.623-3.364 3.471-3.941.912-.624 2.485-1.684 3.205-1.689.882-.008 1.79.838 1.521 1.826m-3.784 2.762c-.314-.754-.455-2.656.838-4.019M24.042 76.388c1.838-7.589 2.444-25.089 8.245-36.124M21.246 76.947c3.635-10.127 2.517-24.61 8.526-36.684M18.661 77.716c4.228-12.227 2.585-25.224 8.734-37.452m-11 37.872c4.154-11.315 3.093-26.04 8.766-37.872M13.786 78.479c5.11-12.077 3.276-25.957 9.068-38.215m-11.53 38.432c5.647-11.876 1.406-21.835 9.225-38.433m-7.83 19.108c1.33-8.098 3.217-14.076 5.033-19.107m-6.428 14.031c.697-4.8 2.887-10.821 4.263-14.031M9.674 50.908c.462-3.146 2.419-7.435 3.538-10.645m-5.228 8.364c.686-2.493 2.337-6.079 2.921-8.363m-4.744 6.42c.558-1.851 1.823-4.814 2.509-6.42m-4.074 4.569c.302-1.359.955-2.964 1.278-4.569m-3.178 3.21c0-.836.429-1.954.663-3.21M.685 42.272c0-.574.229-1.712.229-2.288"/>
    </symbol>
    <use xlink:href="#jack-hearts" width="159.077" height="191.054" x="-79.538" y="-95.527" transform="matrix(-1 0 0 1 114.566 189.857)" overflow="visible"/>
    <use xlink:href="#hearts" width="21.868" height="23.314" x="-10.934" y="-11.657" transform="matrix(1 0 0 -1 21 61)" overflow="visible"/>
    <use xlink:href="#hearts" width="21.868" height="23.314" x="-10.934" y="-11.657" transform="translate(209 252)" overflow="visible"/>
    <use xlink:href="#hearts-medium" width="43.787" height="46.682" x="-21.892" y="-23.341" transform="matrix(1 0 0 -1 62.281 62.424)" overflow="visible"/>
    <use xlink:href="#face-frame" width="161.544" height="259.519" x="-80.771" y="-129.759" transform="matrix(1 0 0 -1 115.045 157.74)" overflow="visible"/>
    <use xlink:href="#jack-hearts" width="159.077" height="191.054" x="-79.538" y="-95.527" transform="matrix(1 0 0 -1 114.21 125.652)" overflow="visible"/>
    <path fill="#D40000" d="M102.037 153.318h7.784v8.32h-7.784z"/>
    <path fill="#E2CF00" d="M110.219 153.362h7.783v8.319h-7.783z"/>
    <path fill="#D40000" d="M118.647 153.318h7.784v8.32h-7.784z"/>
    <use xlink:href="#hearts-medium" width="43.787" height="46.682" x="-21.892" y="-23.341" transform="translate(166.65 253.678)" overflow="visible"/>
    <path fill="none" d="M4.604 14.418h33.412v39.516H4.604z"/>
    <text transform="translate(12.285 45.922)" fill="#D40000" font-family="'ArialNarrow'" font-size="44">
        J
    </text>
    <path fill="none" d="M192.588 263.938H226v39.516h-33.412z"/>
    <text transform="rotate(180 109.16 135.975)" fill="#D40000" font-family="'ArialNarrow'" font-size="44">
        J
    </text>
</svg>
