<?xml version="1.0" encoding="utf-8"?>
<!-- Generator: Adobe Illustrator 16.0.0, SVG Export Plug-In . SVG Version: 6.00 Build 0)  -->
<!DOCTYPE svg PUBLIC "-//W3C//DTD SVG 1.1//EN" "http://www.w3.org/Graphics/SVG/1.1/DTD/svg11.dtd">
<svg version="1.1" xmlns="http://www.w3.org/2000/svg" xmlns:xlink="http://www.w3.org/1999/xlink" x="0px" y="0px" width="227px"
	 height="315px" viewBox="0 0 227 315" enable-background="new 0 0 227 315" xml:space="preserve">
<symbol  id="clubs" viewBox="-11.089 -11.846 22.179 23.691">
	<path d="M0.076-11.846h-2.951c0,0,2.019,4.262,2.019,7.857c0,0.711-0.403,0.53-0.46,0.004c-0.217-1.981-1.856-4.288-4.857-4.168
		c-3.653,0.145-4.915,2.93-4.915,5.221c0,1.702,0.89,5.168,4.671,5.309c1.202,0.045,2.285-0.327,2.925-0.875
		c0.473-0.405,0.691-0.164,0.19,0.405c-0.35,0.398-1.975,1.813-1.903,4.629C-5.07,11.844,0,11.846,0,11.846s5.071-0.001,5.207-5.309
		c0.072-2.816-1.553-4.231-1.903-4.629c-0.5-0.569-0.283-0.81,0.19-0.405c0.64,0.548,1.723,0.919,2.925,0.875
		c3.78-0.141,4.67-3.607,4.67-5.309c0-2.291-1.262-5.076-4.915-5.221c-3-0.119-4.641,2.188-4.857,4.168
		C1.26-3.458,0.856-3.277,0.856-3.989c0-3.595,2.019-7.857,2.019-7.857h-2.95"/>
</symbol>
<symbol  id="clubs-medium" viewBox="-22.204 -23.719 44.408 47.437">
	
		<use xlink:href="#clubs"  width="22.179" height="23.691" x="-11.089" y="-11.846" transform="matrix(2.0023 0 0 2.0023 0 0)" overflow="visible"/>
</symbol>
<symbol  id="diamonds" viewBox="-8.447 -11.626 16.895 23.251">
	<path fill="#ED1C24" d="M0,11.625C0,11.625,4.224,4.05,8.447,0C4.224-4.454,0-11.626,0-11.626S-4.224-4.454-8.447,0
		C-4.224,4.05,0,11.625,0,11.625z"/>
</symbol>
<symbol  id="face-frame" viewBox="-80.771 -129.759 161.544 259.519">
	<polygon fill="none" stroke="#131F67" stroke-width="3" stroke-miterlimit="10" points="79.272,-128.259 -79.271,-128.259 
		-79.271,128.26 79.272,128.26 	"/>
</symbol>
<symbol  id="gold-star" viewBox="-3.202 -3.202 6.403 6.403">
	<polygon fill="#E2CF00" points="-2.805,1.974 -1.228,1.864 -0.452,3.202 0.521,1.993 1.873,2.556 1.82,0.898 3.201,0.424 
		2.254,-0.712 2.734,-1.925 1.287,-1.818 0.406,-3.202 -0.554,-2.044 -1.836,-2.538 -2.058,-1.043 -3.202,-0.351 -2.224,0.535 	"/>
</symbol>
<symbol  id="hearts" viewBox="-10.934 -11.657 21.869 23.314">
	<path fill="#ED1C24" d="M0-11.657c0,0,4.999,6.392,6.686,8.508c2.949,3.699,4.249,6.112,4.249,9.548
		c0,3.217-2.825,5.255-5.339,5.258C0.788,11.664,0,7.146,0,7.146s-0.787,4.518-5.595,4.511c-2.514-0.003-5.339-2.042-5.339-5.258
		c0-3.436,1.299-5.849,4.249-9.548C-4.999-5.265,0-11.657,0-11.657z"/>
</symbol>
<symbol  id="jack-spades" viewBox="-74.459 -104.208 148.917 208.417">
	<polygon points="72.958,-103.708 60.451,-91.702 60.201,76.526 72.947,75.912 	"/>
	
		<line fill="none" stroke="#E2CF00" stroke-width="3" stroke-linecap="square" stroke-miterlimit="10" x1="62.493" y1="27.752" x2="70.684" y2="34.835"/>
	
		<line fill="none" stroke="#E2CF00" stroke-width="3" stroke-linecap="square" stroke-miterlimit="10" x1="62.493" y1="23.168" x2="70.684" y2="30.627"/>
	
		<line fill="none" stroke="#E2CF00" stroke-width="3" stroke-linecap="square" stroke-miterlimit="10" x1="62.612" y1="1.127" x2="70.684" y2="8.544"/>
	
		<line fill="none" stroke="#E2CF00" stroke-width="3" stroke-linecap="square" stroke-miterlimit="10" x1="62.612" y1="-3.415" x2="70.684" y2="3.918"/>
	
		<line fill="none" stroke="#E2CF00" stroke-width="3" stroke-linecap="square" stroke-miterlimit="10" x1="62.771" y1="-24.249" x2="70.684" y2="-16.707"/>
	
		<line fill="none" stroke="#E2CF00" stroke-width="3" stroke-linecap="square" stroke-miterlimit="10" x1="62.771" y1="-28.791" x2="70.684" y2="-21.291"/>
	
		<line fill="none" stroke="#E2CF00" stroke-width="3" stroke-linecap="square" stroke-miterlimit="10" x1="63.108" y1="-50.457" x2="70.645" y2="-43.666"/>
	
		<line fill="none" stroke="#E2CF00" stroke-width="3" stroke-linecap="square" stroke-miterlimit="10" x1="63.108" y1="-55.125" x2="70.645" y2="-48.167"/>
	
		<line fill="none" stroke="#E2CF00" stroke-width="3" stroke-linecap="square" stroke-miterlimit="10" x1="63.108" y1="-77.5" x2="71.023" y2="-70.417"/>
	
		<line fill="none" stroke="#E2CF00" stroke-width="3" stroke-linecap="square" stroke-miterlimit="10" x1="63.108" y1="-81.958" x2="71.023" y2="-74.708"/>
	
		<line fill="none" stroke="#E2CF00" stroke-width="3" stroke-linecap="square" stroke-miterlimit="10" x1="62.493" y1="49.792" x2="70.591" y2="57.083"/>
	
		<line fill="none" stroke="#E2CF00" stroke-width="3" stroke-linecap="square" stroke-miterlimit="10" x1="62.493" y1="54.875" x2="70.591" y2="62.042"/>
	<path d="M34.985,7.521c3.091,1.688,14.091,7.801,17.903,10.039c-3.75,4.024-4.625,10.192-1.688,15.445
		c-4.014,1.749-11.189,5.306-15.602,7.492C33.764,27.752,33.951,23.168,34.985,7.521z"/>
	<path fill="#D40000" d="M45.573,13.402c0,0,5.464-18.817,13.019-28.453c0.036-9.321-0.002-28.737-0.078-39.947
		C46.442-36.955,36.896-13.62,34.918,8.544C37.516,9.642,45.573,13.402,45.573,13.402z"/>
	<path stroke="#000000" stroke-linecap="round" stroke-miterlimit="10" d="M-30.632,49.374V3.017c0,0,22.128-8.546,31.083-25.808
		c7.783-15.003,34.062-17.75,34.062-17.75S14.451-3.415,20.903,38.214c-8.242-5.517-14.951-9.921-14.951-9.921l-15.604,11.92
		L-30.632,49.374z"/>
	
		<line fill="none" stroke="#E2CF00" stroke-width="2" stroke-linecap="square" stroke-miterlimit="10" x1="15.756" y1="-35.914" x2="28.117" y2="-27.712"/>
	
		<line fill="none" stroke="#E2CF00" stroke-width="2" stroke-linecap="square" stroke-miterlimit="10" x1="6.31" y1="-29.789" x2="24.947" y2="-17.788"/>
	<path fill="none" stroke="#E2CF00" stroke-width="2" stroke-linecap="round" stroke-miterlimit="10" d="M-25.549,43.709
		c0,0,3.24,0.65,4,0c0.815-0.698-0.124-3.515,0.665-4.243c1.06-0.977,4.659,0.517,5.75-0.425c0.938-0.81,0.146-4.023,1.083-4.833
		c1.13-0.979,4.818,0.506,5.959-0.458c1.007-0.851,0.256-4.258,1.25-5.125c1.216-1.061,5.266,0.463,6.418-0.666
		c0.907-0.889-0.562-4.59,0.625-5.042c2.66-1.012,9.501-0.875,12.125-0.292c1.272,0.283-0.038,4.285,0.958,5.125
		c1.035,0.874,4.324-0.717,5.417,0.083c0.797,0.584,1.25,3.75,1.25,3.75"/>
	<polyline fill="none" stroke="#E2CF00" stroke-width="3" stroke-linecap="square" stroke-miterlimit="10" points="20.903,36.786 
		5.865,26.667 -9.973,39.466 	"/>
	<polyline fill="none" stroke="#E2CF00" stroke-width="3" stroke-linecap="square" stroke-miterlimit="10" points="19.451,22.833 
		6.201,13.708 -25.475,38.214 	"/>
	<polyline fill="none" stroke="#E2CF00" stroke-width="3" stroke-linecap="round" stroke-miterlimit="10" points="34.889,12.75 
		38.368,17.96 34.28,20.96 38.201,25.627 34.107,30.797 38.368,33.502 36.09,37.585 	"/>
	<path fill="#FFFFFF" stroke="#131F67" stroke-linecap="round" stroke-miterlimit="10" d="M58.514-52.998
		c-26.107,35.21-26.107,71.037-22.811,94.235l-9.037,3.438l-5.763-6.462c-3.49-30.801,4.979-80.941,38.048-112.922"/>
	<polyline fill="none" stroke="#131F67" stroke-linecap="round" stroke-miterlimit="10" points="21.535,38.709 26.666,31.294 
		20.623,25.961 20.23,22.625 26.118,16.875 20.529,10.421 20.729,7.932 27.117,3.918 22.256,-2.367 22.416,-4.466 29.7,-9.831 
		25.308,-17.061 25.963,-19.792 33.45,-23.292 30.118,-30.505 31.388,-33.403 39.116,-36.626 36.733,-44.869 38.318,-47.698 
		46.117,-49.876 44.451,-57.626 46.117,-59.959 54.803,-60.709 53.618,-69.626 55.38,-71.626 59.284,-71.209 	"/>
	<polyline fill="none" stroke="#131F67" stroke-linecap="round" stroke-miterlimit="10" points="35.438,40.213 35.028,35.582 
		29.894,31.313 33.951,25.167 33.951,22.209 29.559,16.876 34.107,11.77 34.603,9.141 30.616,3.918 35.353,0.252 36.238,-2.727 
		32.898,-8.541 38.368,-11.958 39.533,-15.816 36.617,-22.208 42.283,-25.041 44.035,-29.789 42.118,-34.955 48.236,-37.436 
		50.474,-41.553 48.868,-48.167 55.38,-49.526 57.986,-53.527 56.912,-59.291 59.451,-59.291 59.118,-61.375 57.201,-61.792 
		56.868,-68.292 59.368,-69.542 	"/>
	<path fill="#E2CF00" stroke="#000000" stroke-miterlimit="10" d="M-22.391,82.125l-4.324-21.907c0,0-2.5,0.602-4.491,0.089
		c-2.206-0.567-4.013-3.467-4.017-5.345c-0.005-2.211,1.486-3.941,1.486-3.941s14.302-7.312,18.438-9.784
		c1.523-0.91,5.441-1.438,7.062-0.716c3.004,1.338,6.112,7.963,7.016,11.125c3.714,12.992,2.362,20.108,4.65,32.825
		C-3.882,84.627-22.391,82.125-22.391,82.125z"/>
	<path fill="#D40000" stroke="#000000" stroke-width="2" stroke-miterlimit="10" d="M-35.109,103.209l12.393-21.478
		c0,0,15.729,3.255,27.836,3.391c9.999,0.112,26.332-3.665,26.332-3.665l10.872,21.751H-35.109z"/>
	<polyline fill="none" stroke="#000000" stroke-width="2" stroke-miterlimit="10" points="-29.884,102.877 -20.966,87.958 
		-9.549,89.375 -13.882,102.877 	"/>
	<polyline fill="none" stroke="#000000" stroke-width="2" stroke-miterlimit="10" points="-7.734,102.71 -4.134,89.209 
		14.451,89.209 16.366,102.585 	"/>
	<polyline fill="none" stroke="#000000" stroke-width="2" stroke-miterlimit="10" points="22.531,102.96 20.197,89.709 
		30.364,88.209 36.697,102.96 	"/>
	<path fill="#E2CF00" stroke="#000000" stroke-miterlimit="10" d="M41.028,99.378c4.587-2.753,7.266-15.723,10.005-20.802
		c1.209-2.242-12.666,0.3-15.934,9.42C36.697,91.042,39.949,97.375,41.028,99.378z"/>
	<path d="M36.697,91.459c0.575-0.809,1.918-1.751,1.71-3.537c1.208,3.077,2.042-0.715,2.042-1.936c1.874,2.876,2-2.113,2.014-3.239
		c1.944,1.71,2.319-1.207,2.586-2.32c0.4,1.614,1.733,0.739,2.914,0.125c-2.431,1.938-1.181,2.114-0.551,2.396
		c-3.797,1.26-2.047,1.844-1.311,2.185c-4.361,1.617-1.628,2.581-1.332,2.618c-4.862,1.458-2.439,2.396-1.534,2.715
		c-6.162,1.325-1.972,2.244-1.127,2.557c-4.822,0.934-1.96,1.604-1.13,2.053c-0.436,0.364-1.625,0.938-2.152,0.728"/>
	<g>
		<path fill="#131F67" d="M2.064,74.681c0,0,0.844,0.485,2.174,1.056c0.661,0.299,1.458,0.583,2.323,0.866
			c0.868,0.274,1.807,0.559,2.784,0.716c0.976,0.167,1.979,0.263,2.947,0.232c0.965-0.026,1.919-0.193,2.68-0.585
			c0.764-0.38,1.283-0.943,1.521-1.381c0.142-0.204,0.188-0.403,0.24-0.521c0.041-0.124,0.063-0.189,0.063-0.189
			c0.089-0.264-0.054-0.55-0.318-0.639c-0.156-0.053-0.321-0.024-0.448,0.064l-0.095,0.067c0,0-0.045,0.031-0.129,0.091
			c-0.087,0.054-0.181,0.158-0.334,0.246c-0.145,0.098-0.314,0.208-0.521,0.312c-0.205,0.104-0.438,0.209-0.709,0.305
			c-0.268,0.1-0.577,0.179-0.914,0.263c-0.345,0.069-0.718,0.128-1.12,0.149c-0.803,0.048-1.695-0.01-2.588-0.139
			c-0.891-0.142-1.795-0.296-2.635-0.501c-0.842-0.197-1.618-0.433-2.291-0.618c-1.339-0.396-2.215-0.703-2.215-0.704
			c-0.262-0.092-0.549,0.046-0.641,0.308C1.759,74.31,1.859,74.562,2.064,74.681z"/>
	</g>
	<path fill="none" stroke="#131F67" stroke-miterlimit="10" d="M34.985,87.942l-3.034-5.4v-7.333c0,0-0.881-21.335-3.992-27.565
		c-1.98-3.966-4.966-10.059-14.341-10.434c-4.62-0.185-16.833,7.667-16.833,7.667"/>
	<g>
		<path fill="#131F67" d="M13.156,45.733c0,0,0.012-0.028,0.032-0.081c0.011-0.009,0.022-0.099,0.038-0.058
			c0.018,0.02,0.012,0.056,0.012,0.068c0.026,0.008,0.049,0.011,0.119-0.005c0.063-0.015,0.171-0.03,0.303-0.047
			c0.533-0.066,1.438-0.025,2.335,0c0.449,0.049,0.918-0.073,1.369-0.185c0.452-0.125,0.866-0.113,1.214-0.069
			c0.348,0.05,0.629,0.14,0.821,0.225c0.192,0.082,0.292,0.161,0.292,0.161c0.244,0.193,0.599,0.151,0.792-0.092
			c0.192-0.244,0.151-0.599-0.093-0.792c-0.143-0.113-0.324-0.146-0.488-0.104l-0.021,0.005c0,0-0.133,0.035-0.347,0.046
			c-0.215,0.014-0.515,0.007-0.867-0.047c-0.353-0.061-0.757-0.159-1.184-0.385c-0.429-0.21-0.899-0.42-1.393-0.426
			c-0.981-0.078-1.989-0.035-2.825,0.288c-0.209,0.078-0.406,0.184-0.586,0.323c-0.181,0.128-0.33,0.319-0.421,0.497
			c-0.051,0.101-0.085,0.227-0.102,0.319c-0.022,0.113,0.001,0.096-0.001,0.14c0.006,0.057,0.01,0.087,0.01,0.087
			c0.029,0.283,0.282,0.487,0.564,0.458C12.928,46.038,13.088,45.905,13.156,45.733z"/>
	</g>
	<g>
		<path fill="#131F67" d="M15.451,43.209c0,0,0.25,0.029,0.625,0.073c0.375,0.039,0.875,0.071,1.375,0.09
			c0.5,0.003,1,0.038,1.375,0.013c0.188-0.017,0.344-0.066,0.453-0.1c0.109-0.04,0.172-0.076,0.172-0.076
			c0.276-0.159,0.371-0.511,0.213-0.787c-0.053-0.091-0.128-0.164-0.213-0.213c0,0-0.062-0.036-0.172-0.076
			c-0.109-0.034-0.266-0.083-0.453-0.1c-0.375-0.025-0.875,0.01-1.375,0.013c-0.5,0.019-1,0.051-1.375,0.09
			c-0.375,0.044-0.625,0.073-0.625,0.073c-0.276,0.032-0.475,0.282-0.441,0.558C15.037,43.003,15.225,43.183,15.451,43.209z"/>
	</g>
	<g>
		<path fill="#131F67" d="M19.628,56.785c0,0-0.001-0.067-0.004-0.193c-0.016-0.123-0.009-0.28-0.137-0.511
			c-0.213-0.469-0.647-0.969-1.354-1.26c-0.348-0.142-0.752-0.218-1.181-0.214c-0.425-0.012-0.865,0.051-1.291,0.055
			c-0.841-0.004-1.761-0.055-2.618,0.356c-0.423,0.183-0.833,0.531-0.996,1.006c-0.163,0.473-0.082,0.959,0.055,1.365
			c0.143,0.412,0.359,0.761,0.565,1.084c0.21,0.321,0.433,0.607,0.646,0.86c0.42,0.515,0.802,0.914,1.068,1.191
			c0.264,0.283,0.415,0.445,0.415,0.445c0.19,0.204,0.509,0.215,0.713,0.025c0.203-0.19,0.214-0.509,0.024-0.713
			c-0.026-0.028-0.055-0.052-0.085-0.073l-0.018-0.012c0,0-0.175-0.118-0.481-0.324c-0.302-0.212-0.725-0.53-1.176-0.964
			c-0.23-0.212-0.455-0.467-0.676-0.743c-0.223-0.275-0.424-0.593-0.562-0.937c-0.135-0.341-0.205-0.726-0.079-1.057
			c0.115-0.332,0.406-0.597,0.768-0.751c0.362-0.152,0.771-0.215,1.17-0.23c0.399-0.005,0.805-0.013,1.174,0.122
			c0.37,0.123,0.693,0.356,0.967,0.581c0.278,0.221,0.511,0.435,0.739,0.581c0.442,0.297,0.845,0.496,1.145,0.572
			c0.146,0.029,0.32,0.116,0.431,0.15c0.122,0.033,0.187,0.05,0.187,0.05c0.249,0.068,0.507-0.079,0.575-0.328
			C19.623,56.875,19.629,56.828,19.628,56.785z"/>
	</g>
	<g>
		<path fill="#131F67" d="M19.121,52.943c0.15,0.172,0.289,0.347,0.449,0.517c0.174,0.165,0.351,0.34,0.527,0.497l1.053,0.881
			c0.346,0.286,0.669,0.583,0.973,0.886l0.407,0.477l0.319,0.506l0.001,0l-0.064-0.226c0.163,0.522,0.152,1.126,0.028,1.698
			c-0.11,0.575-0.283,1.143-0.449,1.712c-0.339,1.137-0.717,2.269-1.075,3.411c-0.36,1.142-0.701,2.296-0.95,3.488
			c-0.123,0.596-0.237,1.2-0.283,1.827c-0.037,0.31-0.008,0.638-0.012,0.957c0.047,0.315,0.092,0.691,0.171,0.964
			c0.147,0.574,0.299,1.171,0.499,1.768c0.188,0.6,0.482,1.186,0.826,1.746c0.379,0.538,0.81,1.069,1.349,1.466
			c0.521,0.422,1.099,0.756,1.68,1.073c0.292,0.173,0.593,0.296,0.895,0.438c0.304,0.141,0.61,0.282,0.921,0.383
			c0.309,0.11,0.627,0.229,0.943,0.32c0.314,0.083,0.634,0.141,0.955,0.212c0.645,0.133,1.275,0.128,1.918,0.131
			c0.627-0.032,1.259-0.258,1.793-1.158c0.186-0.313,0.149-0.696-0.062-0.967l-0.023-0.029c-0.657-0.836-1.217-0.979-1.781-0.961
			c-0.551-0.027-1.115,0.036-1.66,0.058c-0.551,0.042-1.104,0.098-1.652,0.107c-0.284,0.025-0.553,0.011-0.823-0.014
			c-0.275-0.013-0.553-0.038-0.807-0.112c-0.532-0.103-1.033-0.312-1.462-0.611c-0.456-0.27-0.819-0.654-1.168-1.057
			c-0.316-0.431-0.613-0.892-0.83-1.417c-0.234-0.515-0.415-1.066-0.594-1.64c-0.102-0.296-0.125-0.519-0.189-0.788
			c-0.008-0.276-0.055-0.545-0.036-0.831c0.014-0.566,0.071-1.146,0.178-1.72c0.209-1.151,0.515-2.298,0.843-3.441
			c0.326-1.144,0.675-2.287,0.988-3.446c0.159-0.579,0.3-1.165,0.426-1.758l0.444-1.85l0.006-0.025l-0.07-0.201l-0.001-0.001
			l-0.457-0.611l-0.52-0.521c-0.365-0.312-0.736-0.6-1.113-0.865l-1.104-0.785c-0.174-0.131-0.33-0.265-0.5-0.397
			c-0.163-0.147-0.321-0.318-0.482-0.476l-0.008-0.007c-0.112-0.11-0.293-0.108-0.402,0.005
			C19.027,52.663,19.025,52.833,19.121,52.943z"/>
	</g>
	<path fill="none" stroke="#131F67" stroke-linecap="round" stroke-miterlimit="10" d="M31.284,72.376c0,0-5.098,2.244-10.195-1.122
		"/>
	<path fill="none" stroke="#131F67" stroke-linecap="round" stroke-miterlimit="10" d="M30.867,70.001c0,0-3.683,1.326-4.958,1.25
		c-1.365-0.081-5.11-0.587-5.11-1.955"/>
	<g>
		<path fill="#131F67" d="M21.58,67.928c0,0-0.005-0.042-0.015-0.122c-0.003-0.04-0.008-0.088-0.013-0.146
			c0.006-0.007,0.005-0.019,0.002-0.043c-0.001-0.053,0.076-0.198,0.208-0.302c0.122-0.117,0.308-0.232,0.522-0.323
			c0.428-0.199,0.99-0.303,1.589-0.375c0.602-0.074,1.25-0.112,1.899-0.114c0.316,0.004,0.668-0.015,0.95,0.025
			c0.329,0.034,0.614,0.12,0.889,0.193c0.569,0.175,1.112,0.35,1.56,0.542c0.902,0.364,1.48,0.658,1.48,0.658
			c0.248,0.125,0.551,0.026,0.676-0.221c0.126-0.248,0.027-0.551-0.221-0.676c-0.032-0.017-0.07-0.03-0.104-0.039
			c0,0-0.644-0.165-1.609-0.412c-0.486-0.11-1.039-0.267-1.66-0.386c-0.324-0.056-0.657-0.115-0.973-0.118
			c-0.36-0.007-0.664,0.014-1.001,0.031c-1.319,0.067-2.623,0.236-3.612,0.502c-0.246,0.072-0.482,0.128-0.688,0.237
			c-0.106,0.042-0.206,0.091-0.294,0.163c-0.091,0.07-0.178,0.104-0.256,0.218c-0.076,0.099-0.142,0.198-0.191,0.286
			c-0.025,0.052-0.047,0.096-0.064,0.132c-0.037,0.071-0.057,0.109-0.057,0.109c-0.136,0.256-0.038,0.573,0.219,0.708
			c0.256,0.135,0.572,0.037,0.707-0.219C21.576,68.138,21.593,68.03,21.58,67.928z"/>
	</g>
	<g>
		<path fill="#131F67" d="M21.947,67.127c0,0,0.009-0.104,0.025-0.286c0.018-0.058,0.043-0.089,0.054-0.157
			c0.052-0.081,0.092-0.184,0.171-0.289c0.305-0.432,0.93-0.953,1.615-1.394c0.682-0.45,1.41-0.851,1.957-1.155
			c0.548-0.311,0.913-0.518,0.913-0.518c0.089-0.05,0.12-0.163,0.069-0.251c-0.047-0.083-0.148-0.115-0.234-0.077l-0.009,0.004
			c0,0-0.379,0.17-0.946,0.424c-0.573,0.251-1.345,0.584-2.099,0.984c-0.754,0.396-1.493,0.874-1.974,1.424
			c-0.121,0.134-0.213,0.29-0.302,0.419c-0.08,0.169-0.147,0.341-0.181,0.457c-0.033,0.18-0.053,0.282-0.053,0.282
			c-0.05,0.272,0.13,0.533,0.401,0.583c0.272,0.05,0.533-0.129,0.584-0.401C21.943,67.163,21.945,67.143,21.947,67.127z"/>
	</g>
	<g>
		<path fill="#131F67" d="M5.783,63.975c0,0,0.727,0.084,1.788,0.331c1.062,0.24,2.46,0.651,3.798,1.187
			c0.666,0.274,1.321,0.57,1.898,0.902c0.294,0.157,0.56,0.333,0.809,0.5c0.256,0.162,0.459,0.353,0.666,0.506
			c0.376,0.344,0.629,0.66,0.772,0.891c0.118,0.234,0.187,0.368,0.187,0.368l0.045,0.088c0.125,0.246,0.426,0.345,0.672,0.22
			s0.345-0.426,0.22-0.672c-0.007-0.012-0.014-0.024-0.021-0.036c0,0-0.112-0.183-0.309-0.502c-0.22-0.294-0.574-0.661-1.041-1.016
			c-0.244-0.153-0.495-0.347-0.783-0.498c-0.285-0.159-0.586-0.321-0.908-0.459c-0.637-0.296-1.337-0.542-2.04-0.763
			c-1.411-0.429-2.85-0.72-3.937-0.869C6.513,63.996,5.783,63.975,5.783,63.975z"/>
	</g>
	<path fill="none" stroke="#131F67" stroke-linecap="round" stroke-miterlimit="10" d="M1.55,69.68c0,0,5.547,2.18,7.485,2.071
		c1.843-0.103,6.85-0.904,6.85-2.75"/>
	<g>
		<path fill="#131F67" d="M2.547,69.425c0,0,0.763-0.276,1.907-0.69c0.574-0.202,1.248-0.423,1.971-0.653
			c0.725-0.218,1.505-0.447,2.275-0.593c0.374-0.061,0.759-0.112,1.168-0.126c0.396-0.02,0.785-0.039,1.162-0.057
			c0.75-0.025,1.448-0.01,2.015,0.063c0.281,0.037,0.539,0.083,0.729,0.152c0.2,0.058,0.332,0.145,0.385,0.198
			c0.053,0.06,0.062,0.068,0.052,0.093c-0.002,0.017,0.011,0.024,0.01,0.025l0.456,0.314c0.158,0.109,0.375,0.069,0.483-0.089
			c0.048-0.068,0.067-0.148,0.061-0.226c0,0-0.008-0.091-0.046-0.262c-0.02-0.164-0.172-0.415-0.378-0.585
			c-0.214-0.18-0.479-0.293-0.756-0.362c-0.282-0.083-0.583-0.116-0.907-0.142c-0.646-0.046-1.376-0.019-2.147,0.049
			c-0.383,0.04-0.778,0.082-1.181,0.124c-0.391,0.035-0.809,0.11-1.233,0.204c-0.818,0.202-1.587,0.478-2.31,0.739
			c-0.717,0.272-1.382,0.532-1.947,0.767c-1.125,0.479-1.875,0.799-1.875,0.799c-0.07,0.03-0.104,0.112-0.073,0.184
			C2.396,69.419,2.477,69.45,2.547,69.425z"/>
	</g>
	<g>
		<path fill="#131F67" d="M3.307,73.347c0,0,3.872,0.978,7.835,0.464c0.982-0.13,1.96-0.352,2.838-0.696
			c0.879-0.336,1.656-0.783,2.245-1.27c0.15-0.133,0.269-0.225,0.427-0.378c0.062-0.065,0.179-0.237,0.117-0.451
			c-0.069-0.199-0.179-0.248-0.24-0.291c-0.13-0.071-0.22-0.09-0.308-0.113c-0.338-0.074-0.596-0.083-0.817-0.096
			c-0.437-0.02-0.684-0.012-0.684-0.012l-0.012,0c-0.183,0.005-0.326,0.158-0.32,0.341c0.005,0.18,0.153,0.321,0.332,0.321
			c0,0,0.235-0.001,0.642,0.028c0.199,0.016,0.456,0.038,0.691,0.097c0.054,0.013,0.111,0.036,0.118,0.042
			c0.003-0.003-0.037,0-0.083-0.122c-0.037-0.135,0.036-0.226,0.045-0.23c-0.113,0.095-0.233,0.195-0.358,0.3
			c-0.536,0.425-1.249,0.816-2.065,1.108c-0.814,0.3-1.735,0.489-2.668,0.593c-1.869,0.206-3.774,0.053-5.178-0.153
			c-1.408-0.204-2.311-0.45-2.311-0.45c-0.266-0.073-0.541,0.084-0.613,0.351c-0.073,0.266,0.084,0.541,0.35,0.614
			c0.003,0.001,0.005,0.001,0.008,0.002L3.307,73.347z"/>
	</g>
	
		<line fill="none" stroke="#E2CF00" stroke-width="2" stroke-linecap="square" stroke-miterlimit="10" x1="-11.798" y1="19.959" x2="-11.95" y2="-8.332"/>
	<polyline fill="none" stroke="#E2CF00" stroke-width="2" stroke-linecap="square" stroke-miterlimit="10" points="-9.505,16.126 
		-5.422,11.668 -9.963,7.413 	"/>
	<polyline fill="none" stroke="#E2CF00" stroke-width="2" stroke-linecap="square" stroke-miterlimit="10" points="-9.775,1.461 
		-5.796,-2.581 -9.775,-6.915 	"/>
	<polygon fill="none" stroke="#E2CF00" stroke-width="2" stroke-linecap="round" stroke-miterlimit="10" points="-3.421,9.96 
		-8.504,4.46 -3.421,-0.79 1.787,4.585 	"/>
	<polyline fill="none" stroke="#E2CF00" stroke-width="2" stroke-linecap="square" stroke-miterlimit="10" points="3.495,1.837 
		-1.212,-2.727 3.495,-7.665 	"/>
	<polyline fill="none" stroke="#E2CF00" stroke-width="2" stroke-linecap="square" stroke-miterlimit="10" points="3.495,-12.748 
		-0.838,-16.873 3.512,-21.374 	"/>
	<polygon fill="none" stroke="#E2CF00" stroke-width="2" stroke-linecap="round" stroke-miterlimit="10" points="-8.171,-9.582 
		-2.921,-14.873 1.996,-10.207 -3.358,-4.79 	"/>
	
		<line fill="none" stroke="#E2CF00" stroke-width="2" stroke-linecap="square" stroke-miterlimit="10" x1="5.378" y1="6.668" x2="5.392" y2="-27.712"/>
	<polyline fill="none" stroke="#E2CF00" stroke-width="3" stroke-linecap="square" stroke-miterlimit="10" points="41.034,37.585 
		43.742,32.335 40.451,29.543 43.742,25.293 39.97,21.209 43.951,18.668 39.97,12.415 	"/>
	<path fill="none" stroke="#E2CF00" stroke-width="3" stroke-linecap="square" stroke-miterlimit="10" d="M49.438,33.005
		c0,0-3.902-7.838,0.339-15.392"/>
	<path fill="#E2CF00" stroke="#000000" stroke-miterlimit="10" d="M70.947-103.708c-0.268,0-0.85,0.107-1.046,0.318l-10.95,11.417
		v0.393l0.062,166.417c0,0.552,0.761,0.872,1.312,0.872c0.001,0,0.002,0,0.002,0c0.552,0,0.999-0.317,1-0.869l0.25-166.089
		l10.101-10.81c0.377-0.404,0.354-1.021-0.05-1.397C71.437-103.636,71.191-103.708,70.947-103.708z"/>
	<path fill="#E2CF00" stroke="#000000" stroke-miterlimit="10" d="M71.947,74.709c-0.001,0-0.002,0-0.003,0l-18.4,0.256
		l18.724,17.988c0.399,0.382,1.032,0.418,1.413,0.02c0.382-0.399,0.367-1.006-0.032-1.388L58.521,77.147l13.43-0.028
		c0.552-0.001,0.998-0.655,0.997-1.208C72.946,75.36,72.498,74.709,71.947,74.709z"/>
	<polygon fill="#D40000" stroke="#000000" stroke-linecap="round" stroke-miterlimit="10" points="58.32,77.064 71.951,89.946 
		71.951,77.274 	"/>
	<path fill="#FFFFFF" stroke="#131F67" stroke-linecap="round" stroke-miterlimit="10" d="M58.446,17.614
		c-3.063-0.318-6.583,0.884-6.583,0.884s-4.412,6.086-0.375,14.125c1.478,1.462,3.958,2.882,5.882,3.265
		c1.734,0.345,7.519-0.205,7.784-1.89c0.303-1.919-6.833-2.704-6.833-2.704s-1.1-2.492-0.917-3.338
		c0.117-0.542,1.416-1.708,1.416-1.708S58.796,19.462,58.446,17.614z"/>
	<path fill="none" stroke="#131F67" stroke-linecap="round" stroke-miterlimit="10" d="M63.487,33.005
		c-1.416,0.624-1.416,2.159-1.416,2.159"/>
	<path fill="#131F67" d="M45.573,13.402c3.728-0.652,6.28-1.516,6.28-1.516l-2.802-2.547l3.696,0.065l-2.519-2.73l3.45,0.267
		l-2.072-2.284l3.135-0.09l-2.457-2.495l3.16,0.064l-2.321-2.581l3.381-0.137l-2.074-2.166l3.118,0.11l-2.391-2.706l3.184,0.186
		l-2.034-2.557l2.04,0.357L57.23-9.733l1.565-0.52c0,0-0.392-2.369-0.204-4.798C51.389-5.166,46.931,5.989,45.573,13.402z"/>
	<path d="M37.746,7.264c2.012,1.28,6.405,3.157,6.405,3.157s4.638-14.459,11.185-23.536c0.063-6.84,0.044-30.609,0.044-30.609
		S38.857-17.788,37.746,7.264z"/>
	<path fill="#D40000" stroke="#000000" stroke-miterlimit="10" d="M10.658,8.912c0,0,5.168,3.837,8.977,6.41
		c0.596-16.988,4.533-30.601,4.533-30.601l-13.5-8.977L10.658,8.912z"/>
	<polygon fill="#D40000" stroke="#000000" stroke-miterlimit="10" points="-25.211,30.479 -13.911,22.017 -13.936,-6.384 
		-25.107,0.828 	"/>
	<path fill="#E2CF00" stroke="#000000" stroke-linecap="round" stroke-miterlimit="10" d="M31.945,72.544
		c0,0,1.263-10.002,3.77-11.835c0.754-0.551,3.022,0.602,3.736,0c0.849-0.715,1.391-3.469,0.75-4.375
		c-0.893-1.263-4.821-1.93-6.094-1.051c-1.975,1.364-3.763,8.834-3.763,8.834L31.945,72.544z"/>
	<path fill="#E2CF00" stroke="#000000" stroke-linecap="round" stroke-miterlimit="10" d="M30.625,60.959
		c0,0,2.046-11.234,4.951-13.25c0.796-0.552,3.113,0.598,3.875,0c1.099-0.862,2.076-4.247,1.33-5.427
		c-0.692-1.095-3.976-1.726-5.078-1.045c-2.855,1.764-6.145,11.938-6.145,11.938L30.625,60.959z"/>
	<path fill="#E2CF00" stroke="#000000" stroke-linecap="round" stroke-miterlimit="10" d="M29.139,44.146
		c1.365-1.484,5.312-2.625,5.312-2.625s-3.584,6.309-4.809,10.585C29.113,50.957,26.725,46.771,29.139,44.146z"/>
	<polygon fill="#E2CF00" stroke="#000000" stroke-linecap="round" stroke-miterlimit="10" points="27.521,47.325 26.666,44.676 
		29.139,44.146 	"/>
	<polygon fill="#131F67" points="-57.113,4.56 -74.459,27.083 -52.795,41.052 -52.924,4.709 	"/>
	<polygon points="-44.65,45.283 -52.795,40.677 -52.924,4.209 -44.549,4.209 	"/>
	<polygon fill="#131F67" points="17.413,-36.989 34.514,-40.541 29.62,-29.368 	"/>
	
		<line fill="none" stroke="#000000" stroke-linecap="round" stroke-miterlimit="10" x1="-52.795" y1="40.677" x2="-33.981" y2="50.334"/>
	<path fill="none" stroke="#000000" stroke-linecap="round" stroke-miterlimit="10" d="M0.451,83.472c0,0-1.95-30.721-7.438-37.736"
		/>
	<path fill="none" stroke="#000000" stroke-linecap="round" stroke-miterlimit="10" d="M-2.611,83.709
		c0,0-1.521-23.688-5.303-32.998"/>
	<path fill="none" stroke="#000000" stroke-linecap="round" stroke-miterlimit="10" d="M-5.59,83.709c0,0-2.145-23.688-4.648-32.062
		"/>
	<path fill="none" stroke="#000000" stroke-linecap="round" stroke-miterlimit="10" d="M-8.236,83.709c0,0-2.281-23.688-4.562-29.87
		"/>
	<path fill="none" stroke="#000000" stroke-linecap="round" stroke-miterlimit="10" d="M-10.986,83.472
		c0,0-2.369-21.43-4.312-28.189"/>
	<path fill="none" stroke="#000000" stroke-linecap="round" stroke-miterlimit="10" d="M-13.799,83.084
		c0,0-2.188-19.917-4.688-26.562"/>
	<path fill="none" stroke="#000000" stroke-linecap="round" stroke-miterlimit="10" d="M-16.887,83.015c0,0-1.889-19.301-4.1-25.056
		"/>
	<path fill="none" stroke="#000000" stroke-linecap="round" stroke-miterlimit="10" d="M-19.775,82.573
		c0,0-2.571-17.459-4.336-23.772"/>
	<path fill="none" stroke="#000000" stroke-linecap="round" stroke-miterlimit="10" d="M-26.549,60.021
		c0,0,14.816-6.524,18.635-9.31c1.532-1.563,1.049-4.379,0.483-5.69c-0.506-1.173-2.532-3.007-4.556-2.312
		c-0.959,0.256-1.925,1.813-1.67,3.602c0.138,0.964,0.854,2.496,2.67,2.496c1.438,0,2.419-2.207,1.014-3.348"/>
	<path fill="none" stroke="#000000" stroke-linecap="round" stroke-miterlimit="10" d="M-15.896,41.555c0,0-1.406,3.607,0,6.488
		c1.661,3.403,5.658,3.604,5.658,3.604"/>
	<path fill="none" stroke="#000000" stroke-linecap="round" stroke-miterlimit="10" d="M-18.486,43.209c0,0-1.289,4.471,0.271,6.649
		c2.009,2.805,4.726,3.639,4.726,3.639"/>
	<path fill="none" stroke="#000000" stroke-linecap="round" stroke-miterlimit="10" d="M-21.489,44.522c0,0-1.394,3.604,0.503,6.576
		c1.68,2.633,5.688,4.185,5.688,4.185"/>
	<path fill="none" stroke="#000000" stroke-linecap="round" stroke-miterlimit="10" d="M-24.111,46.084c0,0-0.919,3.774,0.396,6.268
		c1.685,3.195,4.94,3.665,4.94,3.665"/>
	<path fill="none" stroke="#000000" stroke-linecap="round" stroke-miterlimit="10" d="M-26.977,47.68c0,0-1.072,3.662,0.428,6.194
		c2.049,3.459,5.06,3.62,5.06,3.62"/>
	<path fill="none" stroke="#000000" stroke-linecap="round" stroke-miterlimit="10" d="M-29.563,48.807c0,0-1.485,3.544,0.329,6.37
		c1.466,2.283,4.836,3.771,4.836,3.771"/>
	<path fill="none" stroke="#000000" stroke-linecap="round" stroke-miterlimit="10" d="M-31.924,50.334c0,0-1.375,3.543-0.015,6.188
		c1.261,2.45,4.577,3.75,4.577,3.75"/>
	<polygon fill="none" stroke="#131F67" stroke-linecap="round" stroke-miterlimit="10" points="-42.132,46.521 -39.632,43.709 
		-44.549,38.792 -44.625,35.375 -39.632,30.125 -44.625,25.121 -44.592,21.739 -39.632,16.875 -44.625,11.332 -44.558,8.223 
		-42.129,5.269 -35.223,3.942 -30.632,8.625 -31.132,12.458 -36.369,17.183 -31.049,21.708 -31.16,25.231 -36.527,30.125 
		-30.966,35.292 -31.382,39.466 -35.966,44.146 -30.632,49.374 -33.736,51.021 -37.629,45.735 -39.498,47.68 	"/>
	<polygon fill="#131F67" points="-37.91,42.847 -43.393,37.012 -37.681,31.25 -32.141,36.82 	"/>
	<polygon fill="#131F67" points="-37.877,29.382 -32.074,23.418 -37.757,17.732 -43.365,23.494 	"/>
	<polygon fill="#131F67" points="-37.748,15.663 -32.112,9.92 -38.064,4.585 -43.389,9.881 	"/>
	
		<line fill="none" stroke="#000000" stroke-linecap="round" stroke-miterlimit="10" x1="51.488" y1="32.623" x2="34.107" y2="41.237"/>
	<polyline fill="none" stroke="#000000" stroke-linecap="round" stroke-miterlimit="10" points="-7.692,40.134 6.033,29.375 
		20.903,38.958 	"/>
	<polygon fill="#131F67" points="23.674,39.354 28.986,43.925 34.02,37.381 28.219,32.697 	"/>
	<polygon fill="#131F67" points="22.235,24.203 27.902,29.375 32.887,23.562 27.799,18.039 	"/>
	<polygon fill="#131F67" points="22.926,9.541 28.209,15.768 33.367,10.791 29.04,5.26 	"/>
	<polygon fill="#131F67" points="24.793,-3.521 29.08,3.017 34.568,-1.204 30.828,-7.736 	"/>
	<polygon fill="#131F67" points="27.99,-17.633 31.4,-9.988 37.95,-14.328 34.802,-21.662 	"/>
	<polygon fill="#131F67" points="32.406,-31.501 35.492,-23.88 42.256,-27.419 40.127,-34.992 	"/>
	<polygon fill="#131F67" points="39.346,-45.65 41.443,-37.274 48.516,-40.136 46.92,-48.18 	"/>
	<polygon fill="#131F67" points="48.163,-50.062 47.215,-57.765 55.199,-59.254 55.789,-52.112 	"/>
	<path fill="#E2CF00" d="M67.586,63.985c0-0.779-0.646-1.411-1.442-1.411s-1.442,0.631-1.442,1.411s0.646,1.411,1.442,1.411
		S67.586,64.765,67.586,63.985z"/>
	<path fill="#E2CF00" d="M69.586,67.423c0-0.779-0.646-1.411-1.442-1.411s-1.442,0.631-1.442,1.411s0.646,1.411,1.442,1.411
		S69.586,68.202,69.586,67.423z"/>
	<path fill="#E2CF00" d="M65.638,67.423c0-0.779-0.646-1.411-1.442-1.411s-1.442,0.631-1.442,1.411s0.646,1.411,1.442,1.411
		S65.638,68.202,65.638,67.423z"/>
	<path fill="#E2CF00" d="M67.586,70.77c0-0.779-0.646-1.411-1.442-1.411s-1.442,0.631-1.442,1.411s0.646,1.411,1.442,1.411
		S67.586,71.549,67.586,70.77z"/>
	<path fill="#E2CF00" d="M67.959,37.845c0-0.779-0.646-1.411-1.442-1.411s-1.442,0.631-1.442,1.411s0.646,1.411,1.442,1.411
		S67.959,38.624,67.959,37.845z"/>
	<path fill="#E2CF00" d="M69.959,41.282c0-0.779-0.646-1.411-1.442-1.411s-1.442,0.631-1.442,1.411s0.646,1.411,1.442,1.411
		S69.959,42.062,69.959,41.282z"/>
	<path fill="#E2CF00" d="M66.011,41.282c0-0.779-0.646-1.411-1.442-1.411s-1.442,0.631-1.442,1.411s0.646,1.411,1.442,1.411
		S66.011,42.062,66.011,41.282z"/>
	<path fill="#E2CF00" d="M67.959,44.629c0-0.779-0.646-1.411-1.442-1.411s-1.442,0.631-1.442,1.411s0.646,1.411,1.442,1.411
		S67.959,45.409,67.959,44.629z"/>
	<path fill="#E2CF00" d="M67.934,11.854c0-0.779-0.646-1.411-1.442-1.411s-1.442,0.631-1.442,1.411s0.646,1.411,1.442,1.411
		S67.934,12.634,67.934,11.854z"/>
	<path fill="#E2CF00" d="M69.934,15.292c0-0.779-0.646-1.411-1.442-1.411s-1.442,0.631-1.442,1.411s0.646,1.411,1.442,1.411
		S69.934,16.071,69.934,15.292z"/>
	<path fill="#E2CF00" d="M65.985,15.292c0-0.779-0.646-1.411-1.442-1.411s-1.442,0.631-1.442,1.411s0.646,1.411,1.442,1.411
		S65.985,16.071,65.985,15.292z"/>
	<path fill="#E2CF00" d="M67.934,18.639c0-0.779-0.646-1.411-1.442-1.411s-1.442,0.631-1.442,1.411s0.646,1.411,1.442,1.411
		S67.934,19.418,67.934,18.639z"/>
	<path fill="#E2CF00" d="M68.064-14.033c0-0.779-0.646-1.411-1.442-1.411s-1.442,0.631-1.442,1.411s0.646,1.411,1.442,1.411
		S68.064-13.254,68.064-14.033z"/>
	<path fill="#E2CF00" d="M70.064-10.596c0-0.779-0.646-1.411-1.442-1.411s-1.442,0.631-1.442,1.411s0.646,1.411,1.442,1.411
		S70.064-9.816,70.064-10.596z"/>
	<path fill="#E2CF00" d="M66.116-10.596c0-0.779-0.646-1.411-1.442-1.411s-1.442,0.631-1.442,1.411s0.646,1.411,1.442,1.411
		S66.116-9.816,66.116-10.596z"/>
	<path fill="#E2CF00" d="M68.064-7.249c0-0.779-0.646-1.411-1.442-1.411S65.18-8.028,65.18-7.249s0.646,1.411,1.442,1.411
		S68.064-6.469,68.064-7.249z"/>
	<path fill="#E2CF00" d="M68.145-40.202c0-0.779-0.646-1.411-1.442-1.411s-1.442,0.631-1.442,1.411s0.646,1.411,1.442,1.411
		S68.145-39.423,68.145-40.202z"/>
	<path fill="#E2CF00" d="M70.145-36.765c0-0.779-0.646-1.411-1.442-1.411s-1.442,0.631-1.442,1.411s0.646,1.411,1.442,1.411
		S70.145-35.985,70.145-36.765z"/>
	<path fill="#E2CF00" d="M66.196-36.765c0-0.779-0.646-1.411-1.442-1.411s-1.442,0.631-1.442,1.411s0.646,1.411,1.442,1.411
		S66.196-35.985,66.196-36.765z"/>
	<path fill="#E2CF00" d="M68.145-33.417c0-0.779-0.646-1.411-1.442-1.411s-1.442,0.631-1.442,1.411s0.646,1.411,1.442,1.411
		S68.145-32.638,68.145-33.417z"/>
	<path fill="#E2CF00" d="M68.293-66.452c0-0.779-0.646-1.411-1.442-1.411s-1.442,0.631-1.442,1.411s0.646,1.411,1.442,1.411
		S68.293-65.673,68.293-66.452z"/>
	<path fill="#E2CF00" d="M70.293-63.015c0-0.779-0.646-1.411-1.442-1.411s-1.442,0.631-1.442,1.411s0.646,1.411,1.442,1.411
		S70.293-62.235,70.293-63.015z"/>
	<path fill="#E2CF00" d="M66.345-63.015c0-0.779-0.646-1.411-1.442-1.411s-1.442,0.631-1.442,1.411s0.646,1.411,1.442,1.411
		S66.345-62.235,66.345-63.015z"/>
	<path fill="#E2CF00" d="M68.293-59.667c0-0.779-0.646-1.411-1.442-1.411s-1.442,0.631-1.442,1.411s0.646,1.411,1.442,1.411
		S68.293-58.888,68.293-59.667z"/>
	<path fill="#E2CF00" d="M68.737-91.702c0-0.779-0.646-1.411-1.442-1.411s-1.442,0.631-1.442,1.411s0.646,1.411,1.442,1.411
		S68.737-90.923,68.737-91.702z"/>
	<path fill="#E2CF00" d="M70.737-88.265c0-0.779-0.646-1.411-1.442-1.411s-1.442,0.631-1.442,1.411s0.646,1.411,1.442,1.411
		S70.737-87.485,70.737-88.265z"/>
	<path fill="#E2CF00" d="M66.789-88.265c0-0.779-0.646-1.411-1.442-1.411s-1.442,0.631-1.442,1.411s0.646,1.411,1.442,1.411
		S66.789-87.485,66.789-88.265z"/>
	<path fill="#E2CF00" d="M68.737-84.917c0-0.779-0.646-1.411-1.442-1.411s-1.442,0.631-1.442,1.411s0.646,1.411,1.442,1.411
		S68.737-84.138,68.737-84.917z"/>
	<path fill="#FFFFFF" d="M30.289,38.213c0-0.779-0.646-1.411-1.442-1.411s-1.442,0.631-1.442,1.411s0.646,1.411,1.442,1.411
		S30.289,38.993,30.289,38.213z"/>
	<path fill="#FFFFFF" d="M29.345,23.707c0-0.779-0.646-1.411-1.442-1.411s-1.442,0.631-1.442,1.411s0.646,1.411,1.442,1.411
		S29.345,24.486,29.345,23.707z"/>
	<path fill="#FFFFFF" d="M29.589,9.96c0-0.779-0.646-1.411-1.442-1.411s-1.442,0.631-1.442,1.411s0.646,1.411,1.442,1.411
		S29.589,10.74,29.589,9.96z"/>
	<path fill="#FFFFFF" d="M31.123-2.36c0-0.779-0.646-1.411-1.442-1.411s-1.442,0.631-1.442,1.411s0.646,1.411,1.442,1.411
		S31.123-1.581,31.123-2.36z"/>
	<path fill="#FFFFFF" d="M34.412-16.076c0-0.779-0.646-1.411-1.442-1.411s-1.442,0.631-1.442,1.411s0.646,1.411,1.442,1.411
		S34.412-15.296,34.412-16.076z"/>
	<path fill="#FFFFFF" d="M38.773-29.79c0-0.779-0.646-1.411-1.442-1.411s-1.442,0.631-1.442,1.411s0.646,1.411,1.442,1.411
		S38.773-29.01,38.773-29.79z"/>
	<path fill="#FFFFFF" d="M45.141-43.298c0-0.779-0.646-1.411-1.442-1.411s-1.442,0.631-1.442,1.411s0.646,1.411,1.442,1.411
		S45.141-42.519,45.141-43.298z"/>
	<path fill="#FFFFFF" d="M52.944-55.125c0-0.779-0.646-1.411-1.442-1.411s-1.442,0.631-1.442,1.411s0.646,1.411,1.442,1.411
		S52.944-54.346,52.944-55.125z"/>
	<path fill="#FFFFFF" d="M-36.324,9.577c0-0.779-0.646-1.411-1.442-1.411s-1.442,0.631-1.442,1.411s0.646,1.411,1.442,1.411
		S-36.324,10.356-36.324,9.577z"/>
	<path fill="#FFFFFF" d="M-36.324,23.264c0-0.779-0.646-1.411-1.442-1.411s-1.442,0.631-1.442,1.411s0.646,1.411,1.442,1.411
		S-36.324,24.043-36.324,23.264z"/>
	<path fill="#FFFFFF" d="M-36.277,36.639c0-0.779-0.646-1.411-1.442-1.411s-1.442,0.631-1.442,1.411s0.646,1.411,1.442,1.411
		S-36.277,37.418-36.277,36.639z"/>
	<path fill="#131F67" d="M10.971,50.984c0.507,0.171,1.161-1.236,1.69-1.308c0.679-0.093,1.855,1.002,2.54,1.036
		c0.651,0.032,1.848-0.763,2.5-0.745c0.554,0.015,1.531,0.738,2.085,0.745c0.551,0.007,1.546-0.748,2.093-0.683
		c0.439,0.052,1.085,1.054,1.51,0.929c0.959-0.282,1.099-3.406,0.285-3.987c-0.612-0.438-2.021,1.121-2.771,1.177
		c-0.923,0.068-2.658-0.867-3.581-0.931c-1.17-0.082-3.496,0.678-4.661,0.541c-0.748-0.088-2.278-1.542-2.834-1.033
		C9.014,47.469,9.926,50.632,10.971,50.984z"/>
	<path fill="none" stroke="#131F67" stroke-miterlimit="10" d="M6.839,71.211c0.297-3.556,4.109-4.438,5.351-0.377"/>
	<path fill="none" stroke="#131F67" stroke-miterlimit="10" d="M23.534,70.612c0.297-3.556,4.109-4.397,5.351-0.337"/>
	<path fill="#131F67" d="M11.24,70.801c0-1.04-0.773-1.882-1.727-1.882s-1.727,0.843-1.727,1.882s0.773,0.792,1.727,0.792
		S11.24,71.841,11.24,70.801z"/>
	<path fill="#131F67" d="M27.762,70.299c0-1.04-0.695-1.882-1.553-1.882s-1.553,0.843-1.553,1.882s0.695,0.791,1.553,0.791
		S27.762,71.339,27.762,70.299z"/>
	<polygon fill="#E2CF00" points="-4.608,4.625 -3.238,3.346 -2.108,4.386 -3.358,5.783 	"/>
	<polygon fill="#E2CF00" points="-4.337,-9.771 -2.967,-11.05 -1.837,-10.01 -3.087,-8.613 	"/>
</symbol>
<symbol  id="spades" viewBox="-9.479 -11.83 18.957 23.661">
	<path d="M0.007,11.831c0,0,9.446-11.175,9.471-15.683c0.013-2.172-1.3-4.664-4.338-4.595c-3.228,0.073-3.662,2.252-3.661,3.5
		c0,0.948-0.547,0.546-0.56,0.383C0.756-6.593,2.982-11.83,2.982-11.83H0h-2.982c0,0,2.226,5.237,2.064,7.266
		C-0.932-4.401-1.48-3.999-1.479-4.947c0-1.248-0.434-3.427-3.661-3.5c-3.039-0.069-4.351,2.423-4.339,4.595
		c0.025,4.507,9.471,15.683,9.471,15.683"/>
</symbol>
<g id="Layer_2">
</g>
<g id="Layer_1">
	
		<use xlink:href="#jack-spades"  width="148.917" height="208.417" x="-74.459" y="-104.208" transform="matrix(-1 0 0 1 107.0586 181.8545)" overflow="visible"/>
	
		<use xlink:href="#jack-spades"  width="148.917" height="208.417" id="XMLID_1_" x="-74.459" y="-104.208" transform="matrix(1 0 0 -1 120.5498 131.209)" overflow="visible"/>
	<path fill="#E2CF00" stroke="#000000" stroke-width="2" stroke-miterlimit="10" d="M64.334,126.624
		c64.667-2.083,43.167,43.376,91.134,45.126c2.413,4.168,6.366,11.917,7.88,14.584c-65.846,1.411-42.68-43.119-91.534-45.294
		C70.335,137.046,66.502,130.082,64.334,126.624z"/>
	
		<use xlink:href="#clubs"  width="22.179" height="23.691" x="-11.089" y="-11.846" transform="matrix(1 0 0 -1 20 61)" overflow="visible"/>
	
		<use xlink:href="#clubs"  width="22.179" height="23.691" x="-11.089" y="-11.846" transform="matrix(1 0 0 1 208 252)" overflow="visible"/>
	
		<use xlink:href="#face-frame"  width="161.544" height="259.519" x="-80.771" y="-129.759" transform="matrix(1 0 0 -1 113.2344 157.0005)" overflow="visible"/>
	<polygon stroke="#000000" stroke-linejoin="round" stroke-miterlimit="10" points="72.551,131.422 72.551,137.249 79.582,137.416 
		80.272,131.901 	"/>
	<polygon stroke="#000000" stroke-linejoin="round" stroke-miterlimit="10" points="82.81,132.039 81.89,137.854 89.082,139.311 
		90.764,133.517 	"/>
	<polygon stroke="#000000" stroke-linejoin="round" stroke-miterlimit="10" points="93.08,134.148 91.279,139.899 97.277,143.53 
		100.232,138.43 	"/>
	<polygon stroke="#000000" stroke-linejoin="round" stroke-miterlimit="10" points="102.48,139.864 99.198,144.703 104.389,149.798 
		108.48,145.555 	"/>
	<polygon stroke="#000000" stroke-linejoin="round" stroke-miterlimit="10" points="110.602,147.668 106.117,151.698 110.9,157.929 
		115.086,154.311 	"/>
	<polygon stroke="#000000" stroke-linejoin="round" stroke-miterlimit="10" points="116.992,156.348 112.589,160.164 
		117.447,166.496 121.45,162.112 	"/>
	<polygon stroke="#000000" stroke-linejoin="round" stroke-miterlimit="10" points="123.297,163.641 119.348,168.501 
		125.967,173.648 129.01,168.573 	"/>
	<polygon stroke="#000000" stroke-linejoin="round" stroke-miterlimit="10" points="131.171,169.716 128.279,175.051 
		135.949,179.284 137.846,173.443 	"/>
	<polygon stroke="#000000" stroke-linejoin="round" stroke-miterlimit="10" points="140.336,174.371 138.968,180.045 
		147.561,181.399 147.561,175.319 	"/>
	<polygon stroke="#000000" stroke-linejoin="round" stroke-miterlimit="10" points="150.052,175.505 150.283,181.74 158.126,181.74 
		157.338,175.586 	"/>
	
		<use xlink:href="#gold-star"  width="6.403" height="6.403" x="-3.202" y="-3.202" transform="matrix(1 0 0 -1 110.7754 152.7983)" overflow="visible"/>
	
		<use xlink:href="#gold-star"  width="6.403" height="6.403" x="-3.202" y="-3.202" transform="matrix(1 0 0 -1 103.8398 144.8311)" overflow="visible"/>
	
		<use xlink:href="#gold-star"  width="6.403" height="6.403" x="-3.202" y="-3.202" transform="matrix(1 0 0 -1 95.7559 138.9453)" overflow="visible"/>
	
		<use xlink:href="#gold-star"  width="6.403" height="6.403" x="-3.202" y="-3.202" transform="matrix(1 0 0 -1 86.3271 135.6753)" overflow="visible"/>
	
		<use xlink:href="#gold-star"  width="6.403" height="6.403" x="-3.202" y="-3.202" transform="matrix(1 0 0 -1 76.4121 134.4189)" overflow="visible"/>
	
		<use xlink:href="#gold-star"  width="6.403" height="6.403" x="-3.202" y="-3.202" transform="matrix(1 0 0 -1 117.4629 161.4224)" overflow="visible"/>
	
		<use xlink:href="#gold-star"  width="6.403" height="6.403" x="-3.202" y="-3.202" transform="matrix(1 0 0 -1 124.1787 168.4834)" overflow="visible"/>
	
		<use xlink:href="#gold-star"  width="6.403" height="6.403" x="-3.202" y="-3.202" transform="matrix(1 0 0 -1 133.5117 174.5)" overflow="visible"/>
	
		<use xlink:href="#gold-star"  width="6.403" height="6.403" x="-3.202" y="-3.202" transform="matrix(1 0 0 -1 143.9268 177.7017)" overflow="visible"/>
	
		<use xlink:href="#gold-star"  width="6.403" height="6.403" x="-3.202" y="-3.202" transform="matrix(1 0 0 -1 154.0889 178.6226)" overflow="visible"/>
	<polyline stroke="#000000" stroke-linejoin="round" stroke-miterlimit="10" points="67.626,131.422 69.751,131.422 70.085,135.999 
			"/>
	
		<use xlink:href="#clubs-medium"  width="44.408" height="47.437" x="-22.204" y="-23.719" transform="matrix(1 0 0 -1 62.6475 57.1006)" overflow="visible"/>
	
		<use xlink:href="#clubs-medium"  width="44.408" height="47.437" x="-22.204" y="-23.719" transform="matrix(1 0 0 1 164.501 256.9741)" overflow="visible"/>
</g>
</svg>
