<svg xmlns="http://www.w3.org/2000/svg" xmlns:xlink="http://www.w3.org/1999/xlink" viewBox="0 0 227 315">
    <symbol id="face-frame" viewBox="-80.771 -129.759 161.544 259.519">
        <path fill="none" stroke="#131F67" stroke-width="3" stroke-miterlimit="10" d="M79.272-128.259H-79.271V128.26H79.272z"/>
    </symbol>
    <symbol id="king-spades" viewBox="-58.322 -94.641 116.821 191.34">
        <path fill="none" stroke="#131F67" stroke-miterlimit="10" d="M47.031-17.194c-.022-1.136.72-2.027 1.836-2.213.591-.098 1.714.092 2.579.347"/>
        <path d="M58.304-12.884c-10.028.396-12.068.779-18.174 1.049l.002 31.598c-3.891 4.105-15.948 9.981-19.681 11.407.908-7.302-3.424-7.997-5.049-7.713.959-2.77-5.668-15.062-11.229 1.246-5.724-16.036-18.011-9.028-13.562 1.064-8.305-13.365-15.061 1.085-11.872 4.988-1.048-1.32-7.364-8.287-10.38 1.391-15.752-12.305-25.07-1.64-25.07-1.64 2.405-3.55 9.174-13.804 10.891-17.728 3.36-7.681 5.824-14.052 6.864-22.363.932-7.447 1.557-9.872 2.189-17.524 0 0 5.469-.109 9.455-.245-2.143-4.021.186-9.802.186-9.802l22.272.141c.087-1.922-.285-2.864.339-7.627 1.818-13.875 4.879-22.824 8.187-30.24C8.322-85.31 14.838-94.17 14.838-94.17c5.637 2.507 8.48 3.429 12.595 5.178C14.609-74.75 9.902-57.856 8.608-45.24c-.847 8.27-.937 22.22 2.114 31.821 2.992-1.25 8.418-3.966 12.754-6.086.569-3.857-.834-11.619 8.041-29.947 7.638-15.773 22.512-24.53 22.512-24.53 2.601 1.438 3.242 2.108 4.123 3.171.151 5.625.126 34.814.162 40.215.02 3.09-.01 10.676-.01 17.712zm-58.658-1.85c.521 1.968 5.92 5.785 5.92 5.785l.007-.002s2.862-5.959 2.363-7.933c-.241-.952-1.097-1.893-2.418-1.518-1.403.397-1.348 1.399-1.204 1.946.106.415-.179.3-.202.232-.302-.869.077-3.414.077-3.414l-1.303.339-1.306.338s1.569 2.038 1.728 2.943c.012.073-.183.311-.288-.104-.143-.546-.579-1.449-2-1.116-1.335.316-1.627 1.554-1.374 2.504zm-2.275-13.921c.242 2.022 5.062 6.549 5.062 6.549l.007-.001s3.66-5.505 3.438-7.53c-.106-.976-.825-2.026-2.185-1.837-1.445.199-1.527 1.199-1.463 1.76.051.424-.217.272-.23.201-.179-.902.548-3.37.548-3.37l-1.336.156-1.341.154s1.272 2.235 1.305 3.154c0 .074-.226.282-.271-.142-.066-.561-.375-1.516-1.827-1.382-1.365.127-1.827 1.313-1.707 2.288zm-.033-12.913c-.037 2.036 4.109 7.185 4.109 7.185h.008S5.84-39.33 5.9-41.366c.028-.981-.537-2.12-1.91-2.121-1.459-.002-1.68.977-1.691 1.542-.011.428-.254.24-.258.168-.052-.918 1.009-3.262 1.009-3.262l-1.346-.03-1.349-.032s.951 2.39.856 3.304c-.009.074-.261.249-.249-.178.013-.565-.16-1.552-1.618-1.621-1.369-.065-1.989 1.046-2.006 2.028zm5.67-13.445c-.022.071-.307.192-.207-.225.128-.551.16-1.552-1.254-1.916-1.328-.34-2.162.621-2.378 1.579-.451 1.985 2.56 7.871 2.56 7.871l.008.001s5.302-3.951 5.773-5.932c.229-.955-.094-2.185-1.438-2.465-1.428-.3-1.842.614-1.97 1.165-.097.417-.297.183-.286.112.137-.91 1.651-2.988 1.651-2.988l-1.312-.303-1.313-.307c.001 0 .445 2.533.166 3.408zm18.277-30.25c.523-.831.615-2.1-.567-2.797-1.255-.744-1.942-.012-2.24.469-.226.363-.341.078-.306.014.422-.817 2.524-2.298 2.524-2.298l-1.143-.708-1.146-.713s-.395 2.542-.941 3.28c-.045.059-.351.082-.124-.28.298-.48.651-1.419-.569-2.217-1.148-.751-2.247-.108-2.76.729-1.067 1.734-.11 8.277-.11 8.277l.006.003c0-.001 6.29-2.036 7.376-3.759zm-5.715 9.508c.422-.886.362-2.156-.894-2.711-1.334-.591-1.93.217-2.17.729-.182.387-.328.117-.302.05.322-.861 2.237-2.579 2.237-2.579l-1.219-.57-1.221-.573s-.094 2.57-.55 3.369c-.037.064-.339.123-.155-.264.239-.511.479-1.485-.828-2.135-1.229-.61-2.243.157-2.654 1.048-.854 1.849.865 8.232.865 8.232l.007.003c.002 0 6.008-2.761 6.884-4.599zm-4.44 10.494c.374-.908.248-2.173-1.035-2.66-1.364-.519-1.916.32-2.128.843-.161.397-.322.135-.3.066.276-.878 2.097-2.695 2.097-2.695l-1.247-.503-1.25-.507s.044 2.571-.368 3.393c-.034.066-.332.141-.17-.254.212-.524.399-1.509-.94-2.088-1.259-.543-2.232.276-2.595 1.189-.756 1.891 1.302 8.174 1.302 8.174l.008.002c-.001-.001 5.85-3.077 6.626-4.96zm.397 60.681c-.336-.922-1.282-1.772-2.558-1.265-1.356.537-1.2 1.528-1.003 2.057.15.402-.146.317-.176.251-.388-.834-.269-3.403-.269-3.403l-1.26.469-1.265.467s1.766 1.87 2.016 2.754c.019.071-.15.328-.297-.074-.197-.53-.723-1.384-2.103-.908-1.296.448-1.462 1.71-1.114 2.628.717 1.906 6.474 5.158 6.474 5.158l.007-.003s2.246-6.218 1.548-8.131zm6.154 11.5c-.497-.847-1.582-1.51-2.745-.781-1.237.774-.902 1.72-.613 2.205.22.368-.087.338-.128.279-.532-.75-.881-3.299-.881-3.299l-1.155.69L11 6.703s2.076 1.518 2.481 2.343c.031.067-.088.35-.305-.019-.291-.485-.962-1.229-2.232-.512-1.194.675-1.128 1.946-.62 2.787 1.051 1.744 7.302 3.898 7.302 3.898l.006-.004c-.001.001 1.081-6.521.049-8.276zm6.953 10.437c-.578-.793-1.723-1.348-2.809-.508-1.155.892-.729 1.8-.394 2.254.254.345-.054.345-.101.29-.604-.694-1.2-3.196-1.2-3.196l-1.082.8-1.086.8s2.215 1.307 2.699 2.088c.038.063-.054.356-.306.011-.336-.454-1.077-1.129-2.271-.291-1.122.789-.932 2.047-.344 2.834 1.217 1.633 7.648 3.164 7.648 3.164l.006-.004c.002.001.439-6.596-.76-8.242zm30.602-44.416c-.301-.527-1.656-1.737-1.451-2.267.177-.457 1.086-.645 1.244-1.245.146-.547-.17-.882-.505-1.33-.465-.622-1.665-.666-1.614-1.709.03-.625 1.334-.04 1.193-1.064-.052-.373-.717-1.365-.991-1.595-.836-.7-2.119-.144-3.099-.324-.775-.143-1.394-.645-2.129-.91-.753-.272-1.517-.508-2.307-.59-1.703-.177-4.531.219-5.44 1.787-.778 1.307-1.374 4.019-1.643 5.51-.205 1.142-.519 2.22-.854 3.338-.496 1.657-1.059 3.483-.862 5.232.265 2.353 2.349 4.17 4.579 4.697 2.938.694 5.745.417 8.67-.042.865-.136.975-.294 1.258-1.069.221-.603.184-.678.874-.755 1.34-.15 2.261-.152 2.651-1.762.174-.72.112-1.393-.366-1.913-.269-.292-1.337-.817-.825-1.35.312-.325 1.233.053 1.676-.302.795-.64.341-1.635-.059-2.337z"/>
        <path fill="#E2CF00" d="M26.29-20.972l8.644-4.276s1.053-10.294 7.009-21.022c5.089-9.167 14.734-16.36 14.734-16.36l-.047-9.915S43.248-65.717 34.681-50.02c-7.792 14.276-8.391 29.048-8.391 29.048z"/>
        <path fill="#E2CF00" stroke="#000" stroke-miterlimit="10" d="M-54.963 96.199h88.906L16.796 68.605s-25.374 5.739-55.385-1.584c-1.676 2.007-16.374 29.178-16.374 29.178z"/>
        <path fill="#E2CF00" d="M-41.245 71.617s10.147-4.597 12.493 5.177c11.592-10.359 17.335 1.692 17.335 1.692s9.068-12.092 18.1-.33c4.248-9.72 12.843-4.895 12.843-4.895l-1.076-2.009s-7.121-2.66-12.004 4.032c-9.461-8.067-17.186.66-17.186.66s-6.682-9.165-17.266-2.126c-4.697-7.601-12.15-3.88-12.15-3.88l-1.089 1.679z"/>
        <path fill="#D40000" stroke="#000" stroke-miterlimit="10" d="M-39.392 68.561s7.095-2.248 11.498 4.354c11.2-6.383 17.209 2.122 17.209 2.122s7.356-8.015 17.022-.575c5.678-6.617 11.555-3.814 11.555-3.814s-.723-1.442-1.097-2.041c-27.065 5.52-55.385-1.584-55.385-1.584l-.802 1.538z"/>
        <path d="M22.229 79.501a1.243 1.243 0 0 0 1.701.443c-.232-.387-.514-.883-.861-1.475l4.374 6.843s-.738.865-2.853.104-2.027-3.257-2.027-3.257-3.225 1.13-4.127-1.201c-.767-1.981-.067-3.337 1.09-3.923 1.061-.538 1.958-.501 1.958-.501s-2.166-3.264-6.684.109c-3.316-2.886-6.027.113-6.027.113s1.581.018 2.556.426c.717.3 1.444 1.618 1.47 2.754.041 1.854-2.048 2.944-2.048 2.944s1.172 1.119.683 3.035-3.553 2.8-4.96 1.519-1.218-2.951-1.218-2.951-2.074-.158-2.954-1.913c-.945-1.886.661-3.428 1.164-3.807 1.035-.78 2.308-.325 2.308-.325s-2.436-3.627-7.352.401c-4.401-4.823-7.486-1.123-7.486-1.123s1.249.099 1.649.208c.802.219 2.104 1.367 1.959 3.325-.142 1.907-3.156 2.713-3.156 2.713s.615 1.42-.065 2.889c-1.091 2.352-4.935 1.584-5.446-.281s.003-2.842.003-2.842-2.949-.214-3.154-2.525c-.181-2.036 1.511-3.611 2.845-3.502s1.99.673 1.99.673-2.97-4.793-7.704-.822c-2.953-4.054-7.329-.95-7.329-.95s1.308.169 1.867.393 2.025 1.588 1.686 3.835-3.766 1.936-3.766 1.936.547 1.701-.93 2.902-4.182.989-4.711-1.144c-.503-2.027.514-2.891.514-2.891s-2.111-1.245-2.22-2.836c-.13-1.904.987-3.456 2.894-3.243s2.377 1.058 2.377 1.058-2.166-4.919-7.044-1.447c-3.124-4.293-6.209-.269-6.209-.269s2.457.413 2.9 2.507c.667 3.15-3.735 3.329-3.735 3.329s-.147 2.406-1.575 3.27-2.86.17-2.86.17l6.869-12.479s10.277-4.676 12.666 5.098c11.134-9.523 16.096-.06 17.335 1.692 3.378-4.729 12.216-9.217 18.109 0 3.793-10.238 13.192-4.998 13.192-4.998l2.768 4.329a1.244 1.244 0 0 0-.426 1.687zm-66.637-2.2c-.298.534-.722 1.246-1.229 2.16a1.242 1.242 0 1 0 1.229-2.16zm14.965 1.734a1.242 1.242 0 1 0 0 2.484 1.242 1.242 0 0 0 0-2.484zm18.175 1.662a1.242 1.242 0 1 0 0 2.484 1.242 1.242 0 0 0 0-2.484zm18.958-.234a1.242 1.242 0 1 0 0 2.484 1.242 1.242 0 0 0 0-2.484z"/>
        <path fill="none" stroke="#131F67" stroke-width="3" stroke-miterlimit="10" d="M-38.968 65.051s12.771 3.576 29.376 3.916c14.258.292 20.352-1.09 26.026-2.291"/>
        <path fill="none" stroke="#131F67" stroke-miterlimit="10" d="M15.972 65.858l18.812 30.317m-72.549-32.228l-18.394 32.252"/>
        <path fill="none" stroke="#131F67" stroke-linecap="round" stroke-miterlimit="10" d="M-53.203 35.875c-2.271-1.737.309-3.461 2.211-2.689 1.856.752 3.354 3.405 4.269 5.002 3.224 5.634 5.384 11.288 6.894 17.541.746 3.089 1.313 6.389 1.523 8.929"/>
        <path fill="none" stroke="#131F67" stroke-linecap="round" stroke-miterlimit="10" d="M-35.205 65.562c-1.539-10.054-3.92-19.385-9.099-28.499-1.713-3.015-4.199-7.925-8.367-7.51-3.437.342-6.967 4.656-4.097 7.679 2.526 2.662 6.796 1.213 7.252-2.294"/>
        <path fill="none" stroke="#131F67" stroke-miterlimit="10" d="M-50.582 27.146c7.098-3.084 11.002 6.158 12.668 9.831 1.891 4.168 4.807 11.412 6.523 18.335.667 2.688 1.947 8.063 2.312 11.314"/>
        <path fill="none" stroke="#131F67" stroke-miterlimit="10" d="M-54.963 30.354c4.655-8.292 12.056 2.228 13.477 4.875 3.108 5.787 5.507 13.904 7.188 20.233.713 2.682 1.653 7.513 2.032 10.267"/>
        <path fill="none" stroke="#131F67" stroke-miterlimit="10" d="M-45.282 26.875c4.647-1.468 8.189 5.102 9.568 7.774 3.448 6.684 5.73 12.878 7.323 19.579.774 3.259 1.633 9.042 1.625 12.398"/>
        <path fill="none" stroke="#131F67" stroke-miterlimit="10" d="M-41.972 27.049c6 .097 8.396 6.679 10.075 10.137 2.474 5.097 4.053 9.479 5.507 14.914 1.043 3.898 1.93 10.643 2.667 14.921m-7.668-34.292c8.123 2.757 10.237 19.054 11.783 26.261.521 2.43.922 6.331 1.467 8.738"/>
        <path fill="none" stroke="#131F67" stroke-miterlimit="10" d="M-37.765 28.3c6.871 2.055 9.716 10.302 11.661 15.69 1.88 5.206 3.396 10.65 4.159 16.134.29 2.086.693 5.538.971 7.604"/>
        <path fill="#131F67" d="M-26.137 33.581s.227.588.565 1.471c.162.443.392.952.537 1.516l.521 1.752.553 1.787c.153.577.409 1.085.586 1.534l.625 1.486a.499.499 0 1 0 .922-.386l-.009-.019-.028-.058-.659-1.392c-.189-.423-.458-.893-.635-1.454l-.623-1.725-.618-1.772c-.18-.574-.428-1.063-.611-1.5l-.633-1.444a.267.267 0 0 0-.493.204z"/>
        <path fill="none" stroke="#131F67" stroke-linecap="round" stroke-miterlimit="10" d="M-28.391 33.729c2.907-7.417 6.648 4.863 7.417 6.917m-9.167-7.75c2.839-9.584 9.736 1.318 10.667 5.667"/>
        <path fill="none" stroke="#131F67" stroke-linecap="round" stroke-miterlimit="10" d="M-31.641 32.146c1.514-9.069 9.438-4.264 11.885.798.663 1.373 1.178 2.816 1.948 4.119m1.334-1.834c-.852-2.467-3.206-5.462-3.171-8.108.047-3.456 3.031-5.379 6.039-3.534 1.868 1.147 2.838 3.956 3.548 5.892"/>
        <path fill="none" stroke="#131F67" stroke-linecap="round" stroke-miterlimit="10" d="M-14.808 33.646c-.737-1.475-3.462-5.737-2.13-7.484 2.137-2.802 4.277 2.974 4.714 4.734m7.624-4.542c-.619-1.465-2.115-3.935-1.449-5.573.987-2.427 3.014-.352 3.865 1.051.637 1.051 1.064 2.252 1.5 3.397"/>
        <path fill="none" stroke="#131F67" stroke-linecap="round" stroke-miterlimit="10" d="M-6.475 27.146c-.762-2.957-3.027-5.778-.734-8.719 2.15-2.759 4.613-1.202 6.074 1.186.906 1.481 1.73 3.065 2.326 4.699m-22.542 6.042c-.917-3.725-.694-7.117 2.955-9.311 2.9-1.744 6.225.035 7.987 2.626.986 1.448 1.325 3.222 2.433 4.601"/>
        <path fill="none" stroke="#131F67" stroke-miterlimit="10" d="M6.651 25.438c.319-2.24 1.034-7.251 4.365-6.532 2.791.603 2.515 4.002 2.036 6.059-.305 1.306-1.059 3.419-1.516 4.681"/>
        <path fill="none" stroke="#131F67" stroke-miterlimit="10" d="M8.401 26.438c.18-.968.897-6.477 2.896-4.573 1.303 1.242-1.289 4.899-1.233 6.073"/>
        <path fill="none" stroke="#131F67" stroke-miterlimit="10" d="M4.734 24.979c.545-3.583 2.151-9.588 7.108-8.099 3.458 1.039 3.591 5.169 3.257 8.146-.231 2.065-1.354 4.479-2.251 6.347"/>
        <path fill="none" stroke="#131F67" stroke-linecap="round" stroke-miterlimit="10" d="M-10.639 23.313c-1.238-8.708 8.271-10.993 12.061-3.956.869 1.615 1.693 3.255 2.189 5.123"/>
        <path fill="none" stroke="#131F67" stroke-miterlimit="10" d="M14.777 27.271c2.113 1.416 1.227 5.303-.396 6.699m.688-8.366c5.494.851 2.78 8.731.416 11.333"/>
        <path fill="none" stroke="#131F67" stroke-miterlimit="10" d="M15.402 24.021c2.942-.935 4.778 2.648 5.002 4.983.284 2.954-.754 5.498-2.24 7.995-.706 1.187-1.673 2.209-2.304 3.439"/>
        <path fill="none" stroke="#131F67" stroke-miterlimit="10" d="M3.611 24.479c6.567 2.1 11.154 7.582 12.065 14.494.816 6.195.263 12.622.499 18.85.087 2.274.122 5.782.186 8.059m1.667-28.569c.719 3.13.447 8.314-1.834 10.667"/>
        <path fill="none" stroke="#131F67" stroke-miterlimit="10" d="M19.528 34.646c1.499 4.229 1.083 11.107-1.171 15.11-.521.924-1.127 1.745-1.996 2.39"/>
        <path fill="#131F67" d="M-16.922 60.031c-.817 1.429 4.148 3.278 5.2 3.508 1.678.367 3.547.532 5.255.301 1.66-.225 3.264-1.095 4.938-1.164 1.08-.044 2.101.407 3.163.539-.106-.868-.577-1.44-.529-2.422.041-.821.261-1.467.1-2.324-.469.622-.368 2.011-.996 2.38-.602.353-2.871-.113-3.707.031-3.3.57-6.559 1.07-9.883.359-1.207-.258-2.332-1.012-3.541-1.146"/>
        <path fill="#131F67" d="M-1.814 56.031c-.207.846.064.673.382 1.526.126.336.246.638.17.965-1.267-.512-1.38.471-2.28 1.013-1.375.828-2.506 1.182-4.145 1.036-2.974-.266-6.105-1.991-8.289-3.971-.376-.341-1.211-1.024-1.176-1.606.02-.315.155-.422.436-.55.193-.089.438-.025.623-.115.229-.112.145-.299.498-.392.42-.111.849.122 1.262.164.502.051.869-.087 1.327-.313 1.871-.924 3.619-1.675 5.743-1.694 1.234-.011 2.262.481 3.428.757.36-1.076-1.725-1.925-2.406-2.351-.559-.349-1.197-.598-1.705-1.025-.176-.148-.547-.397-.411-.68.21-.437.882.051 1.138.144 2.178.789 5.611 3.241 5.823 5.728.023.27.384.394.301.75-.081.34-.659.37-.719.614zm-13.827-.593c-.568.9 5.344 3.516 6.153 3.812 1.363.497 2.746.75 4.138.25.636-.228 1.801-.66 2.091-1.311.383-.857-.62-.638-1.126-.461-1.37.477-2.525.577-3.974.312-1.411-.257-2.733-.771-4.028-1.358-.544-.246-2.845-1.683-3.254-1.244zm4.695-1.765c-.49.265-.976.615-1.382.92-.184.553 1.409.895 1.799.665.366-.216.896-1.476.979-1.917-.345-.171-1.056.148-1.396.332zm3.774-.713c-2.375-.196-2.565 2.538-2.565 2.538l.585.06s-.051-1.995 1.838-1.96 1.826 2.325 1.826 2.325l.598.008c-.001 0 .093-2.775-2.282-2.971zm3.859 1.178c-1.685-1.304-1.271 1.314-.698 1.475.862.169 1.515-.842.698-1.475zm-6.286-11.827c1.352 1.11 3.354.92 3.954-.741-.884-.112-1.537.271-2.455-.019-.875-.276-1.562-.848-1.582-1.826-.055-2.795 3.645-1.485 4.877-.613 1.377.975 3.422 2.364 5.239 2.118.994-.135 2.093-1.912.818-2.434-.289-.118-.745.013-1.056-.011-.551-.042-1.102-.235-1.617-.421-1.032-.373-2.007-.894-3.056-1.22-1.726-.537-3.935-.92-5.376.462-1.293 1.242-1.137 3.562.254 4.705zm21.77-3.615c1.044.229 1.793 1.329 1.222 2.326-.278.484-.725.801-1.212 1.049-.151.077-.817.244-.828.451-.021.383.789.178.989.121.721-.204 1.296-.737 1.649-1.387.75-1.38.427-3.201-1.037-3.947-1.163-.593-3.546.173-4.687.595-.902.334-2.845.634-3.463 1.366-.577.684-.173 1.568.605 1.723.73.145 1.629-.304 2.273-.583 1.186-.511 3.127-2.013 4.489-1.714zm-16.187-1.968c-.13-1.034-.366-2.261-.861-3.192.487-.112.824.435 1.226.65.604.324 1.293.463 1.967.511.983.07 1.845-.005 2.794-.177 1.225-.221 2.024-.379 3.247-.134.772.154 1.53.278 2.315.301.758.021 1.398-.398 2.062-.417 1.02-.028.36 1.144.136 1.789-.096.277-.24.551-.399.791-.547-.29-1.581-.063-2.14.139-.491.177-.919.562-1.479.44-.479-.104-.759-.598-1.251-.703-.432-.092-.885.083-1.284.208-1.27.4-2.035-.066-3.276-.416-.592-.167-1.357-.336-1.962-.208-.394.084-.782.407-1.135.417"/>
        <path fill="#131F67" d="M-.682 33.353a.57.57 0 0 0 .012.494c1.182-.434 2.123-1.107 3.437-1.202.837-.061 1.658.118 2.413.468.429.199 1.256 1.029 1.676.825-.357-1.472-2.861-2.278-4.246-2.209-.772.039-3.055.881-3.333 1.583m17.051 26.462c-.09.674.147 1.949-.299 2.464-.502.581-2.377 1.211-3.11 1.312-1.262.175-2.618-.538-3.838-.768-.589-.111-1.283-.232-1.864-.015-.244.091-1.226.845-1.193 1.039-.115-.696.193-1.642.137-2.422a35.362 35.362 0 0 0-.342-2.907c-.182-1.176-.312-2.269-.092-3.445.414-2.216.927-4.412 1.362-6.623.4-2.033.699-3.128-1.112-4.481-1.056-.789-.771-.264-1.092.486-.365.853-1.245.933-2.043.667-1.32-.438-3.5-2.795-4.797-1.177-1.359 1.697.814 2.969 1.52 4.109-1.565.187-2.921-1.708-2.747-3.156.221-1.823 2-2.811 3.705-2.453.674.142 3.361 1.551 3.748.48.087-.238-.835-2.447-.979-2.492.542.172.785.798 1.187 1.172.362.338.756.58 1.174.84 1.117.697 2.338 1.157 2.738 2.551.41 1.425-.424 2.913-.781 4.258-.188.706-.561 1.587.29 1.63.54.027 1.318-.494 1.794-.73.56-.278 1.646-1.157 2.245-1.044-.186.631-1.212.961-1.736 1.288-.209.13-2.48 1.821-2.348 1.958.575.598 2.719-.231 3.526-.252 1.478-.037 4.106.433 4.812 1.915.387.812.311 1.79.717 2.64.276.577 1.189 1.415 1.149 2.025-1.192-.744-1.571-.076-1.731 1.131zm-9.011-5.795c0 .615.938 1.117 1.334 1.094.335-.02.79-.676.803-1.167.025-1.032-1.84-.297-2.137.073zm4.478-1.15c-2.311.25-2.36 2.672-2.36 2.672l.705.165s.147-2.163 1.801-2.133 1.431 2.341 1.431 2.341l.783.001c-.001-.001-.05-3.296-2.36-3.046zm2.814 1.233c-.174.404.111 2.388.845 1.627.41-.426-.281-1.972-.845-1.627zm.708 3.542c-.534-.107-1.283.326-1.819.427-.735.139-1.525.215-2.271.116-.885-.118-1.763-.459-2.532-.905-.475-.275-1.174-.911-1.71-.804-.14 1.046 1.984 2.379 2.898 2.783 1.396.618 2.532.639 3.933.061.493-.204 2.961-1.385 1.501-1.678zm-.082 1.715c-1.601.495-2.689 1.129-4.45.868-.853-.127-1.595-.405-2.298-.906-.553-.394-1.214-1.396-1.873-1.463-.068.784-.357 3.402.953 3.327 1.105-.483 1.969-.26 3.081.053 1.397.394 3.363.513 4.589-.391.674-.496 1.365-1.911-.002-1.488z"/>
        <path fill="#E2CF00" d="M-8.974 13.995c-.259 1.889-1.444 2.981-3.399 2.298-2.193-.768-2.541-2.84-3.185-4.562 1.587 1.167 2.3 1.958 4.334 1.333 1.437-.442 2.602-1.634 2.25.931zm-6.424-9.458c.418-1.111.737-3.086.26-4.223-.424-1.012-2.228-1.242-1.835-2.417.828-1.681 3.816-1.203 4.566.519C-11.315.921-14 3.027-15.398 4.537zm-8.497-3.89c-.173.934 1.504 4.947-.248 3.668-1.748-1.275-3.133-3.936-1.763-6.335.942-1.709 3.434-1.563 4.035-.437.67 1.251-1.598.801-2.024 3.104zm-8.496 20.75c1.439 2.091 3.722 1.413 5.083-.481 1.194-1.662.96-3.882 1.565-5.752.205-.636 2.828-4.556 2.543-3.12-.253 1.276-1.076 4.079.114 5.455.581.672 3.994 1.419 2.111 2.342-1.729.847-1.851-.097-2.672.1-1.347.322-1.501 1.887-2.016 2.932-.721 1.463-1.838 3.192-3.481 3.506-2.805.536-5.604-3.094-3.165-5.148"/>
        <path fill="#E2CF00" d="M-12.492 8.545c-.393 2.755-3.242 2.485-5.057 1.701 1.371 1.928.874 5.43-1.996 5.247-2.425-.154-3.318-3.219-2.296-5.253-2.03 1.892-4.894.292-4.781-2.333-.003-2.048 2.521-2.553 4.636-2.104.186-1.562-.998-4.957 2.752-4.691 3.121.222 2.752 3.341 2.273 4.954 1.83-1.666 4.816.039 4.469 2.479zM37.09-16.271c1.704-2.165-.676-5.354-3.556-4.177-1.698.694-2.505 2.476-1.801 4.133 1.076 2.537 2.98 3.701 5.69 3.585 3.604-.155 14.797-.74 17.979-.771v-3.208l-18.312.438z"/>
        <path fill="#131F67" d="M47.066 64.67l.178-.857c.111-.558.262-1.394.389-2.454.27-2.122.428-5.186.19-8.846a55.22 55.22 0 0 0-.706-5.877c-.334-2.082-.992-4.206-1.275-6.445-.322-2.24-.286-4.582.101-6.925.369-2.349 1.001-4.695 1.526-7.085 1.041-4.762 1.719-9.72 1.027-14.345-.365-2.281-.774-4.427-1.038-6.493-.257-2.061-.418-4.013-.402-5.812.009-.898.058-1.759.117-2.573.11-.806.15-1.596.301-2.291.302-1.411.632-2.684.868-3.725a44.88 44.88 0 0 0 .514-2.471c.103-.578.087-1.006.087-1.006l-.001-.027a.671.671 0 1 0-1.333.119s.026.184-.039.738c-.058.537-.196 1.352-.414 2.388-.209 1.044-.5 2.285-.783 3.784-.14.763-.179 1.555-.279 2.401a40.297 40.297 0 0 0-.088 2.663c.006 1.857.197 3.854.483 5.944.291 2.084.738 4.271 1.12 6.495.715 4.445.114 9.321-.87 14.054-.498 2.372-1.096 4.747-1.441 7.144-.362 2.394-.366 4.823-.004 7.101.325 2.294 1.012 4.401 1.363 6.451.385 2.048.629 4.007.771 5.822.28 3.631.159 6.677-.083 8.784a31.545 31.545 0 0 1-.355 2.436l-.168.859a.125.125 0 0 0 .1.147.125.125 0 0 0 .144-.098z"/>
        <path fill="#E2CF00" d="M47.206-38.949a4.172 4.172 0 1 1-.001-8.345 4.172 4.172 0 0 1 .001 8.345zm.984-6.756c-1.163-.436-2.347-.092-2.95.516-.643.647-1.328 1.939-1.121 1.928 1.006-.054 2.074-1.495 3.496-.768 1.775.907 1.182 3.732 1.68 3.275 1.258-1.152.676-4.283-1.105-4.951z"/>
        <path fill="#131F67" d="M53.139-33.849c-.392.13-.186.462-.128.749a.358.358 0 0 1-.057.034c-.894-.317-2.13-.746-3.089-.59-.921.15-.853 1.574-.381 2.25.453.65 1.518.576 2.215.869.897.377 1.362.731 2.409.761-.077.209-.337.344-.374.559-.041.236.166.414.15.651-.783-.15-1.568-.841-2.363-1.09-.578-.181-1.804-.633-2.318-.312-.329.205.109.688-.065 1.294-.207.718-.437.994-.248 1.327.306.538 1.716.997 2.248 1.282.429.23.833.517 1.27.73.409.199 1.378.271 1.543.708-.304-.045-.445.186-.495.445-.911-.41-3.029-1.929-4.027-1.17-.422.32-.354.924-.791 1.228-.407.284-3.34.363-1.802 1.21.82.452 1.821.641 2.694.976.785.301 1.541.651 2.141 1.251.313.313.994.761 1.115 1.183-.445 0-.991.147-1.396.33-.396-.556-.703-1.294-1.405-1.614-.936-.427-2.291-.36-3.291-.335-.293.007-1.108.255-1.335.151-.235-.108-.384-.686-.567-.907-.787-.945-2.188-1.246-3.283-1.613.885-.393 2.201-1.032 2.195-2.14-.006-1.119-.716-2.956-1.622-3.579.825.281 1.817-1.312 1.964-2.038.265-1.306.02-2.557.039-3.84.616.46 1.073 1.41 1.963 1.529 1.77.238 1.095-3.388 2.688-3.527.252-.022.821.387 1.088.463.351.101.793.053 1.098.188-.398.633-1.035.931-.218 1.72.669.645 1.868.324 2.435.867zm-5.123 9.161c.759-.418.696-1.713-.111-2.018-.683-.258-1.635.17-1.729.928-.114.929 1.167 1.475 1.84 1.09zm-3.039-3.999c.154.743.654 1.106 1.539 1.093 1.531.219 2.632-1.696.759-2.351-.94-.328-2.567-.038-2.298 1.258zm2.311-4.431c-1.315.197-1.204 2.115.134 2.087.387 0 1.034-.349 1.119-1.031.095-.771-.514-1.167-1.253-1.056zm1.693-2.688c-.967.192-.817 1.538-.372 1.306.256-.081.716-.232.938-.398.801-.601.159-1.052-.566-.908z"/>
        <path fill="#E2CF00" d="M-21.891-17.688c.103-1.229-.504-3.035-1.736-3.955-.333-.249-1.178-.775-1.592-.501-.76.501.109.892.33 1.313.783 1.505.327 3.027.248 4.629-.068 1.374.01 2.839.361 4.125.979 3.586 5.237 3.879 6.764.529.801-1.759.635-3.483.436-5.35-.131-1.238-.521-2.96.141-4.106.221-.383 1.264-.543.598-1.168-.369-.346-1.158.124-1.486.31-1.427.813-1.58 2.257-1.549 3.771.021.977-.005 7.34-2.123 4.702-.923-1.151.046-3.225-.516-4.361"/>
        <path fill="none" stroke="#000" stroke-miterlimit="10" d="M32.289-23.021l.195-3.76h-2.062l-.313 2.137h-2l.625-4.731 4.375.548.688-4.309-2-.333-.844 2.094-1.844-.62 1.438-4.562 4 1.119 1.437-4.25-1.812-.575-1.063 2.213-2-.825 1.782-4.594 4.062 1.315 1.969-4.127-1.75-.844-1.219 2.094-1.812-.864 2.468-4.355 3.75 1.969 2.157-3.375-1.907-1.282-1.281 1.688-1.469-1.062 2.813-3.719 3.187 2.531 2.969-3.531-1.469-1.375-1.937 1.718-1.406-1.343 3.375-3.5 3.343 3 3.125-2.844-1.531-1.656-1.406 1.281-1.5-1.688 3.281-2.968 3.092 3.531 3.377-2.25v-2.531l-2.66 1.75-1.403-2.344 4.163-2.906"/>
        <path fill="#131F67" d="M32.305-53.283C25.484-37.853 10.55-31.436 10.55-31.436s-1.566-9.417 3.903-28.066c4.741-16.167 14.572-27.671 14.572-27.671s10.747 16.993 3.28 33.89zm-3.457-13.766c-.735-.171-3.982-.664-4.489.051-.537.757.796.592 1.21.622 1.035.075 2.045.254 2.977.751 1.481.791 2.281 2.418 1.205 3.892-1.014 1.389-2.788 1.164-4.281.905-.544-.094-1.178-.15-1.609-.047-.758.941 3.973 1.635 4.609 1.688 1.711.139 3.572.103 4.689-1.442 2.259-3.128-1.58-5.784-4.311-6.42zm2.889 11.744c.68-.598 1.171-2.65 1.237-3.557a.608.608 0 0 0-.117-.066c-.764.132-1.516.449-2.311.553-.452.152-1.406.344-1.056.61 1.742 1.046 1.753 2.46 2.247 2.46zm-3.313-2.07c-.973-.605-3.293-2.168-4.492-2.126-2.358.083 2.009 2.031 2.443 2.436 1.891 1.76 1.6 3.302.237 4.362-1.136.884-3.249-.178-4.381-.595-.433-.159-1.185-.577-1.435-.389-.5.656 2.556 2.521 3.646 3.003 1.47.65 3.267.973 4.752.245 3.568-1.749 1.932-5.254-.77-6.936zm.492 8.138c-.629-.273-2.829-.277-3.307.112.359.996.922 2.256 1.059 3.428.937-.293 2.115-2.595 2.248-3.54zm-3.757.863c-.593-1.072-1.583-2.114-2.563-2.875-.441-.341-2.988-1.94-2.914-.755.024.391 1.44 1.373 1.738 1.704.593.655 1.464 1.485 1.674 2.362.408 1.708-.73 2.64-2.297 2.688-1.232.038-1.843-.295-2.812-.955-.575-.391-2-1.952-2.438-1.42-.494.531 4.668 6.015 7.627 5.391 3.14-.663 3.307-3.747 1.985-6.14zm-5.828 7.941c.057.749.062 1.359.226 1.683.305.604.279.372.761.063.678-.435 1.604-1.251 2.229-1.759.851-.692-.407-1-1.214-1.243-.332-.1-1.757-.698-2.045-.366-.228.264-.064.822.043 1.622zm-7.388 6.9c.643-.207 1.864-.687 2.387-1.114.84-.687-.46-.989-1.201-1.293-.412-.168-1.401-.875-1.818-.518-.232.199-.242 1.321-.283 1.603-.025.642-.099 1.648.915 1.322zm-.474-5.581c-.656.758.438 1.742.953 2.114 1.344 1.028 3.477 1.28 4.935.363 2.063-1.298 1.64-4.181.741-5.982-.364-.731-2.61-4.732-3.473-3.809-.849.909 1.871 1.983 2.048 4.443.124 1.722-1.314 2.998-2.748 2.991-.565-.003-2.045-.595-2.456-.12zm9.206-33.643s1.497 6.726-.752 13.255c-2.455 7.128-7.446 10.867-7.446 10.867l-.446 2.797s7.19-5.6 9.938-13.091c2.99-8.154-.065-16.338-.065-16.338l-1.229 2.51zm7.319-11.744c-2.666 1.001-.104 3.314-.51 4.505-.683 2.001-2.579 2.44-3.938 3.184-.48.101-.97.651-.438 1.05.407.306 1.398-.22 1.76-.345 1.395-.482 2.887-1.041 4.112-1.875.999-.681 2.195-2.096 2.19-3.405-.002-1.212-1.842-3.615-3.176-3.114zm4.626 6.493c-.182-.614-.287-2.038-1.07-1.854-.415.097-1.272 1.646-1.378 1.862-.439 1.081 1.017 1.036 1.769 1.358 1.699.728 1.122.136.679-1.366zm.979 4.805c-.511-2.492-2.745-3.169-4.991-3.048-1.335.072-5.327.845-5.318 1.686.133.597 2.717-.12 3.703-.059 1.04.064 2.163.285 2.818 1.138.736.956.748 2.095-.137 2.913-.529.488-1.184 1.2-2.877 1.387-.463.036-3.195.205-2.359 1.171.428.495 2.82.008 3.426-.046 2.816-.254 6.456-1.615 5.735-5.142zm-1.151 4.449c-.746.578-1.503 1.113-1.516 1.305.776.331 2.614 1.68 3.084 1.598.583-.101.22-3.124.083-3.767-.408-.194-.965.373-1.651.864z"/>
        <path fill="#D40000" d="M4.325 23.457l3.004-6.497S2.456 10.564-1.973-.993C-4.267-6.979-6.379-16.47-6.379-16.47l-3.578-.014S-7.916-5.869-6.068-.193c4.41 13.548 10.393 23.65 10.393 23.65z"/>
        <path fill="#E2CF00" d="M34.238 23.236l1.903-1.164s-6.585-5.679-12.512-14.021c-3.145-4.427-9.171-16.556-9.171-16.556l-2.234 1.069s5.702 11.812 9.361 16.785c4.279 5.814 12.653 13.887 12.653 13.887z"/>
        <path fill="#D40000" d="M25.743-14.022s3.351 7.839 6.692 12.993c1.576 2.431 7.204 9.081 7.204 9.081l.117-19.415s-3.019.364-5.675-1.125c-2.037-1.142-3.345-4.033-3.345-4.033l-4.993 2.499z"/>
        <path fill="#E2CF00" d="M39.733 12.7l.028-3.673s-5.827-6.51-7.473-8.906c-2.992-4.356-7.161-13.813-7.161-13.813l-2.38.957s4.058 9.18 7.435 13.985c3.041 4.327 9.551 11.45 9.551 11.45z"/>
        <path fill="none" stroke="#131F67" stroke-miterlimit="10" d="M40.13-11.835l.644 81.5 5.945 5.559 6.484-5.849v-82.259"/>
        <path fill="#D40000" d="M12.957-14.294l10.791-5.347s.612-17.671 8.615-31.32c8.645-14.742 21.666-23.023 21.666-23.023s-8.353-5.888-11.338-7.62c-2.769-1.605-12.251-6.38-12.251-6.38l-.958 1.172s10.667 18 1.977 35.317C24.61-37.847 10.55-31.436 10.55-31.436s.308 5.003.809 8.458c.465 3.213 1.598 8.684 1.598 8.684z"/>
        <path fill="#E2CF00" d="M-1.205 15.259l-3.173-1.004S-8.614 3.867-9.736.303c-2.416-7.671-4.232-20.224-4.232-20.224h10.323S-1.314-8.188 1.661-1.315c4.874 11.262 8.991 17.201 8.991 17.201l-2.573.761S4.24 11.21-.968-1.053c-2.294-5.401-4.775-16.213-4.775-16.213l-4.987.108s.983 8.729 3.825 17.026c2.333 6.817 5.7 15.391 5.7 15.391z"/>
        <path fill="#D40000" d="M-4.854-37.015l.295 9.848-9.937.193S-13.35-30-13.38-32.445c-.021-1.722-.832-4.392-.832-4.392l9.358-.178zm-30.003 20.484l4.86.028S-31.066-3.208-33.803 6.49c-2.002 7.094-7.334 20-7.334 20l-9.171.241S-43.53 14.742-40.018 5.1c3.565-9.788 5.161-21.631 5.161-21.631z"/>
        <path fill="#E2CF00" d="M-37.396-19.732h10.439s.229 12.544-3.649 26.896c-3.77 13.948-7.425 20.419-7.425 20.419l-2.267-.726s4.094-8.345 7.449-19.908c2.851-9.824 3.561-24.272 3.561-24.272l-6.322.033s-.656 10.79-5.144 22.63c-6.309 16.644-11.149 21.709-11.149 21.709l-4.115 2.647s6.564-8.229 13.072-24.714c4.055-10.272 5.55-24.714 5.55-24.714z"/>
        <path fill="none" stroke="#000" stroke-miterlimit="10" d="M-17.834 8.396a1.71 1.71 0 1 0-3.422 0 1.71 1.71 0 0 0 3.422 0z"/>
        <path fill="#E2CF00" d="M15.48-8.912c.238-.143 2.363-1.446 2.715-1.197s-.645 4.959-1.146 4.714-1.807-3.375-1.569-3.517zm3.248-1.344c.241.49 4.708 2.086 4.748 1.39s-1.407-3.148-1.59-3.235-3.4 1.355-3.158 1.845zm1.09 1.948c.051.415 1.852 4.644 2.431 5.125s3.796.904 4.234.388-2.142-4.22-2.5-4.595-4.215-1.333-4.165-.918zm-.899.886c-.247-.046-1.187 3.002-1.17 3.666s2.546 5.574 2.938 5.486 1.093-3.314 1.03-3.602-2.551-5.504-2.798-5.55zm3.534 6.926c-.219-.035-.951 3.695-.772 4.252s2.741 4.182 2.991 4.15.5-3.894.562-4.048-2.562-4.319-2.781-4.354zm3.724 5.952c-.107.068-1.185 2.579-.446 3.952s3.455 4.445 3.769 4.276.073-3.606.029-3.942-3.245-4.354-3.352-4.286zm4.34 5.767c-.251.136-.202 3.446 0 3.822s3.733 4.007 4.085 3.934.263-3.243.15-3.521-3.984-4.371-4.235-4.235zm5.435 5.682c-.452.329-.613 4.083.567 4.37s2.613-1.154 3.016-1.621-3.131-3.078-3.583-2.749zm.297-1.764c-.187.437 3.007 3.109 3.34 3.093s.136-3.307.07-3.513-3.223-.017-3.41.42zm-5.141-5.266c.214.674 2.942 4.122 3.909 4.209s3.811-.027 4.342-.399-3.539-3.904-3.871-4.115-4.593-.369-4.38.305zm-4.515-5.911c-.155.208 2.659 4.583 3.415 4.689s4.753.036 4.364-.46-3.03-3.956-3.428-4.371-4.196-.066-4.351.142zm-3.575-5.648c-.033.278 2.262 4.05 2.896 4.5s4.13.332 4.233 0-2.287-3.922-2.631-4.338-4.465-.44-4.498-.162z"/>
        <path fill="none" stroke="#131F67" stroke-miterlimit="10" d="M14.838-94.17s30.379 10.944 43.314 23.358M21.096 30.913S32.75 25.604 40.38 19.84"/>
    </symbol>
    <symbol id="spades_2_" viewBox="-9.479 -11.83 18.957 23.661">
        <path d="M.007 11.831S9.453.656 9.478-3.852c.013-2.172-1.3-4.664-4.338-4.595-3.228.073-3.662 2.252-3.661 3.5 0 .948-.547.546-.56.383-.163-2.029 2.063-7.266 2.063-7.266h-5.964S-.756-6.593-.918-4.564c-.014.163-.562.565-.561-.383 0-1.248-.434-3.427-3.661-3.5-3.039-.069-4.351 2.423-4.339 4.595C-9.454.655-.008 11.831-.008 11.831"/>
    </symbol>
    <symbol id="spades-medium_1_" viewBox="-18.979 -23.688 37.957 47.376">
        <use xlink:href="#spades_2_" width="18.957" height="23.661" x="-9.479" y="-11.83" transform="scale(2.0023)" overflow="visible"/>
    </symbol>
    <use xlink:href="#king-spades" width="116.821" height="191.34" x="-58.322" y="-94.641" transform="matrix(-1 0 0 1 94.376 192.56)" overflow="visible"/>
    <use xlink:href="#king-spades" width="116.821" height="191.34" x="-58.322" y="-94.641" transform="matrix(1 0 0 -1 135.99 128.44)" overflow="visible"/>
    <use xlink:href="#spades_2_" width="18.957" height="23.661" x="-9.479" y="-11.83" transform="matrix(1 0 0 -1 20 61)" overflow="visible"/>
    <use xlink:href="#spades_2_" width="18.957" height="23.661" x="-9.479" y="-11.83" transform="translate(209.5 252.5)" overflow="visible"/>
    <use xlink:href="#face-frame" width="161.544" height="259.519" x="-80.771" y="-129.759" transform="matrix(1 0 0 -1 115.183 160.5)" overflow="visible"/>
    <path fill="#E2CF00" d="M120.304 154.281c-1.238-2.155-3.613-3.821-5.611-5.046-1.73 1.475-3.45 2.938-4.688 5.36-1.847 3.61-2.125 7.789-.166 11.656.871 1.897 3.601 4.292 5.029 5.418 2.01-1.333 4.731-4.184 5.562-5.632 1.963-3.422 1.848-8.32-.126-11.756z"/>
    <path fill="#E2CF00" stroke="#000" stroke-miterlimit="10" d="M119.206 157.265c-.345-1.811-2.384-3.866-4.411-4.749-2.524 1.694-3.145 3.082-3.838 4.749-1.043 2.506-.486 4.523.357 6.782.385 1.032 1.539 3.058 3.48 4.376 2.198-1.745 2.98-2.988 3.771-4.376 1.57-2.751 1.027-4.758.641-6.782z"/>
    <path fill="#E2CF00" stroke="#000" stroke-miterlimit="10" d="M112.79 160.257c-.067-1.326.119-3.857 2.07-4.979 1.651.726 2.229 3.634 2.309 4.658.094 1.212-.351 3.739-2.309 5.027-2.074-2.209-2.007-3.468-2.07-4.706z"/>
    <use xlink:href="#spades-medium_1_" width="37.957" height="47.376" x="-18.979" y="-23.688" transform="matrix(1 0 0 -1 63.808 63.563)" overflow="visible"/>
    <use xlink:href="#spades-medium_1_" width="37.957" height="47.376" x="-18.979" y="-23.688" transform="translate(165.661 257.437)" overflow="visible"/>
    <path fill="none" d="M2.5 11.576h33.411v39.516H2.5z"/>
    <text transform="translate(7.174 43.08)" font-family="'ArialNarrow'" font-size="44">
        K
    </text>
    <path fill="none" d="M194.143 261.095h33.411v39.516h-33.411z"/>
    <text transform="rotate(180 111.44 134.553)" font-family="'ArialNarrow'" font-size="44">
        K
    </text>
</svg>
