<svg xmlns="http://www.w3.org/2000/svg" xmlns:xlink="http://www.w3.org/1999/xlink" viewBox="0 0 227 315">
    <symbol id="face-frame" viewBox="-80.771 -129.759 161.544 259.519">
        <path fill="none" stroke="#131F67" stroke-width="3" stroke-miterlimit="10" d="M79.272-128.259H-79.271V128.26H79.272z"/>
    </symbol>
    <symbol id="hearts" viewBox="-10.934 -11.657 21.868 23.314">
        <path fill="#D40000" d="M0-11.657s4.999 6.392 6.686 8.509C9.635.55 10.935 2.963 10.935 6.399c0 3.217-2.825 5.256-5.339 5.259C.787 11.664 0 7.146 0 7.146s-.787 4.518-5.595 4.511c-2.515-.003-5.339-2.042-5.339-5.259 0-3.436 1.299-5.849 4.248-9.547C-4.998-5.266 0-11.657 0-11.657z"/>
    </symbol>
    <symbol id="hearts-medium" viewBox="-21.892 -23.341 43.787 46.682">
        <use xlink:href="#hearts" width="21.868" height="23.314" x="-10.934" y="-11.657" transform="scale(2.0023)" overflow="visible"/>
    </symbol>
    <symbol id="king-hearts" viewBox="-80.202 -72.973 160.405 146.771">
        <path fill="#131F67" d="M67.324 54.471c-1.76 1.288-1.898 2.052-4.255 2.254-2.654.228-8.466 1.655-9.667-.083-1.261-1.824-2.65-3.633-3.162-6.162-.667-3.3-.377-7.664.811-10.755 1.51-3.928 6.466-3.242 9.98-2.772 3.812.509 6.806.443 7.709 4.875.635 3.11 1.262 6.664 1.412 9.812.108 2.268-1.284 1.7-2.828 2.831zm-3.569.926c.747.441 1.685-.255 1.839-.812.794-2.871 1.446-7.09-2.04-6.598.156 1.567.472 3.436.302 5.089-.137 1.332-.918 1.839-.101 2.321zm.428-8.247c.493.653 1.267.365 1.387-.259.408-2.114-2.568-1.306-1.387.259zm-3.955 9.159c.775.438 1.657-.792 2.009-1.25 1.083-1.412.35-4.846.32-6.487-.799-.029-1.907-.349-2.683-.583-.323.508.593 3.55.612 4.232.052 1.786-1.295 3.503-.258 4.088zm1.801-9.898c-.47-1.823-3.044-.457-1.464.84.775.635 1.704.091 1.464-.84zm-5.462 9.765c.465.432 1.19.216 1.617-.106 1.309-.978 1.448-3.449 1.033-5.048-.44-1.691-1.076-1.206-2.705-1.258-.274 1.342.597 2.871.331 4.276-.135.721-.877 1.576-.276 2.136zm2.169-8.784c-.302-1.97-3.093-.146-1.421 1.156.833.648 1.569-.195 1.421-1.156zm-5.221 8.119c.164.33.728 1.638 1.304.371.824-1.812-.409-2.816-1.721-2.654-.121.623.144 1.73.417 2.283zm13.279-15.827c-.955-1.823-2.711-1.945-5.346-2.314-2.271-.317-5.586-.496-7.546 1.124-2.007 1.66-2.278 4.519-2.581 6.937-.128 1.024.096 5.452 1.002 6.765.568.823 1.855-.637 3.265 1.104.676-.9.288-2.757-.19-3.71-.839-1.67-.975-1.22-.312-2.506.251-.487-.318-.742.216-1.343.36-.404 1.239-.632 1.65-.991 1.25-1.093 2.216-4.164 2.817-4.311.809-.197-.511 3.131-.437 4.189 2.435-.412 3.31 1.565 3.817.019.197-.601-3.664-1.057-2.675-1.859.779-.633 3.631.457 4.386.747 3.237 1.242 5.086 2.166 1.934-3.851zm.281 7.52c.33 1.055 1.837.466 1.661-.396-.22-1.081-1.974-.605-1.661.396zm2.039 1.608c-.758-.449-1.45-.557-2.074-.327-.323.119-.011 3.824.167 4.126.511.868 1.922.237 2.052-.868.084-.713 0-1.82-.145-2.931z"/>
        <path fill="#D40000" stroke="#000" stroke-miterlimit="10" d="M-52.351-15.131s1.398-3.029 3.211-5.404 5.031-5.25 5.031-5.25l2.074 1.021 1.613-1.021s2.027 2.668 4.482 3.818 5.242 1.439 5.242 1.439-1.986 5.229-3.449 7.688-3.885 5.687-3.885 5.687l-14.319-7.978z"/>
        <path fill="#E2CF00" stroke="#000" stroke-miterlimit="10" d="M-44.014-37.285s-.976 2.469-1.107 5.988 1.013 5.512 1.013 5.512l-8.914 10.062-.991-5.016s-9.712-3.14-13.844-6.976c-3.776-3.506-11.766-12.75-11.766-12.75l-.073-6.072 26.669.242s.854 2.594 4.104 5.268 4.909 3.742 4.909 3.742z"/>
        <path fill="#D40000" stroke="#000" stroke-miterlimit="10" d="M-24.014 5.34c3.937-1.781 5.259-.159 7.216.084 1.374.171 2.396-.878 3.801-.084 1.067.602 1.791 2.067 3.021 1.988 1.52-.098 2.794.871 3.368 2.522.54 1.552.199 2.716.413 3.364.867 2.625 2.479-1.683 3.735-4.55.98-2.237 3.206-4.762 5.594-5.848 1.066-.485 4.42-.868 5.527-.728L-12.98-19.769s-4.321 11.225-5.838 14.936C-20.576-.526-24.014 5.34-24.014 5.34z"/>
        <path d="M40.313 9.335s4.132 4.444 6.518 9.004 3.197 8.442 3.197 8.442-1.295 1.484-1.185 3.74 2.513 3.175 2.513 3.175-.839 1.677-.23 2.89 1.815 1.256 1.815 1.256 3.662-1.444 6.091-1.393 7.762 1.393 7.762 1.393.664-.127 1.037-1.564-1.107-2.312-1.107-2.312 2.029-.639 2.505-2.976-1.397-4.1-1.397-4.1 1.553-4.258 3.144-8.175 4.729-9.121 4.729-9.121l-35.392-.259z"/>
        <path fill="#E2CF00" stroke="#000" stroke-miterlimit="10" d="M28.688 48.368s-12.773 2.923-25.41 3.51-24.738-1.755-24.738-1.755l-17.047 23.113 86.832.061-19.637-24.929z"/>
        <path fill="#131F67" d="M46.238 53.298l-13.434.21-4.116-4.731 2.98-6.937h15.234l-.664 11.458zm-13.079-.696l3.524-.043v-.871l-4.159.031.635.883zm-1.713-2.065l5.237-.055v-1.166l-5.986.014.749 1.207zm-1.463-2.344l6.7-.02v-.947l-6.767-.057.067 1.024zm6.832-5.312l-5.146.023-.512 1.115 5.658-.006v-1.132zm0 2.166l-6.089.062-.421 1.07 6.51-.059v-1.073zm1.391-2.264l.024 9.664 7.259.004.006-1.127-5.311-.01v-7.07l5.938-.02.029-1.344-7.945-.097zm6.362 5.152a1.55 1.55 0 1 0-3.099-.001 1.55 1.55 0 0 0 3.099.001z"/>
        <path d="M24.348-69.201s-4.008 15.285.591 37.059S48.954 9.335 48.954 9.335l30.375.259.231-11.152-33.541.628s11.156-13.643 8.129-36.041-29.8-32.23-29.8-32.23z"/>
        <path fill="none" stroke="#131F67" stroke-miterlimit="10" d="M-20.921 49.84c.024-5.639.965-11.543.381-17.25-.36-3.529-1.711-9.436-5.037-11.473-1.014-.621-2.074-1.156-3.094.348m.729-8.601c0-3.903 5.902-4.169 8.146-2.149 2.326 2.094 2.935 5.043 3.125 8m-8.156-11.176c1.614-6.244 12.844-1.221 13.021 6.826m.787-6.223c4.162-1.137 5.049 4.414 4.848 5.448m-17.75 20.375c1.715 4.472 3.24 8.277 3.25 13.25"/>
        <path fill="none" stroke="#131F67" stroke-miterlimit="10" d="M-20.349 36.213c.203-2.5-2.669-7.148-5.572-5.16-4.677 3.203 1.485 7.673 2.625 4.162"/>
        <path fill="none" stroke="#131F67" stroke-miterlimit="10" d="M-25.546 21.215c1.772 2.125-2.997 4.42-4.666 2.205-1.683-2.233.326-4.748 2.666-5.08 6.104-.866 7.4 7.543 7.375 11.868-.005.8-.297 2.353-.375 2.507m6.125-16.125c1.626-7.587-10.089-14.004-12.25-6.244m17.5 3.869c.16-2.954-3.376-11.834-7.375-7.875"/>
        <path fill="#131F67" d="M-9.505 27.299c0 1.76 1.317 2.214 2.651 1.558 1.13-.556 1.654-1.848 2.869-2.271 1.095-.381 2.626.055 2.75 1.403.078.854-.814 1.398-1.46 1.743-.324.174-1.747.465-.66.822 1.246.41 2.689-1.22 2.823-2.366.246-2.104-2.351-3.471-4.161-2.848-1.121.387-1.798 1.523-2.904 1.864-.636.196-.798-.267-1.326-.344-.242-.035-.582.058-.582.439zm-4.167-7.813c.032.666.197 1.414.391 2.13.101.375.011 1.287.385 1.417.338.118.564-.203.794-.377.293-.222.632-.422.998-.483 1.052-.176 1.775 1.009 2.784.478.706-.372 1.212-.612 1.921-.187a3.153 3.153 0 0 0 2.66.249c.643-.235 1.315-.534 2.006-.304.323.107.671.573.996.585.399.014.293-.514.352-.838.144-.779.386-1.552.339-2.36-.051-.874-.905-.132-1.404.059-1.102.422-1.952.285-3.032-.118-1.05-.392-2.183-.598-3.297-.381-1.122.219-2.045.765-3.223.735-.596-.015-1.1-.158-1.647-.37-.214-.083-1.035-.473-1.023-.235zm3.292-1.353c.054.648 1.613-.144 1.975-.256.812-.253 1.598-.206 2.425-.082.438.065 1.96.559 2.002-.069.06-.911-1.45-.969-2.036-.968-.938.001-1.746-.002-2.656.285-.474.149-1.759.496-1.71 1.09zm8.022 28.394c3.125 1.688 7.496 1.263 11.389-.314 1.31-.53 2.879-1.194 3.863-2.25 1.328-1.425.068-1.364-1.135-.815-2.678 1.22-3.836 2.051-6.398 2.505-1.348.239-3.594.438-5.713-.248-1.091-.353-2.035-1.223-3.117-1.328-2.336-.229-.009 1.846 1.111 2.45z"/>
        <path fill="none" stroke="#131F67" stroke-miterlimit="10" d="M-29.921 19.59c-2.251-3.629 4.031-5.948 7.082-3.671 3.478 2.596 3.385 8.928 2.793 12.296m36.25 1.25c2.259-2.774 5.188-7.75 3.907-12.787m-5.657 10.537c2.038-1.554 4.156-6.375 3.969-9.562m-5.594 6.687c1.784-2.257 3.296-4.886 4.053-7m-6.178 4.625c1.574-1.75 2.962-4.271 4.656-5.75M8.704 19.59c.978-1.454 4.032-4.688 5.707-5.234M7.204 17.59c1.062-1.594 2.188-3.36 3.242-4.995M4.829 16.34c.687-1.688 1.781-2.969 2.822-4.499m-4.947 2.811c.593-.805 2.255-3.062 3.685-4.508M.423 14.215c.73-1.702 3.25-6.031 5.531-5.875"/>
        <path fill="none" stroke="#131F67" stroke-miterlimit="10" d="M-2.046 13.215c1.876-3.341 4.425-7.61 8.869-8 1.596-.14 4.129.063 4.512 2.153.33 1.803-1.874 3.783-3.006 1.847M28.454 49.34c1.474-3.479 2.585-7.14 4.25-10.623 1.658-3.469 3.459-6.848 4.969-10.377 2.078-4.857 3.706-10.573 1.785-15.757-.733-1.978-1.539-4.094-4.282-2.412"/>
        <path fill="#131F67" d="M8.914 42.787c-3.135 1.723-6.728 2.184-9.81.408a6.265 6.265 0 0 1-1.787-1.54c-.558-.702-.492-.488-1.475-.36-.427.056-1.055.419-1.343-.14-.288-.558.874-1.206 1.204-1.44.668-.475 1.417-1.326 1.426-1.961.022-1.623.275-1.175 1.535-1.723 1.59-.691 4.354-4.801 6.109-4.083-.142.694-1.905 1.464-2.494 1.94-.721.584-2.138 1.659-2.123 2.48.007.387 1.214-.592 2.423-.634 1.309-.046 2.153.089 3.361.292 1.408.236 2.176.987 3.385 1.576 1.013.494 1.97-.229 2.878.111 1.487.558-.213 1.473-.964 1.81-1.492.67-2.881 1.615-4.456 2.112-1.685.531-3.617.64-5.395.516-.912-.063-3.061-1.383-3.691-1 .357.588.892 1.002 1.52 1.33 2.08 1.085 5.265.937 7.459.246 1.271-.4 6.277-3.389 6.647-3.015.64.647-2.988 2.294-4.409 3.075zm-1.96-3.447c2.729 0 .958-2.328-.428-1.802.026.606.09 1.318.428 1.802zm-5.771.371s.501-2.218 2.127-2.246c1.499-.026 1.938 2.414 1.938 2.414l.808-.072s-.538-3.423-2.776-3.423c-2.345 0-2.777 3.302-2.777 3.302l.68.025zm-1.561-.674c.418-.468.469-1.25.259-1.75-.37.128-.926.561-1.039.99-.06.229-.004.646.78.76zm-9.78-12.369c-1.042.666-1.297 1.062-1.028 2.295.544 2.495 1.497 4.847 1.967 7.318.609 3.201.617 6.435-1.902 8.871-1.811 1.751-5.715 1.979-8.047 1.061-2.017-.793-1.492-5.768-1.314-7.748.219-2.43 2.549-3.864 4.938-3.688.792.059 4.393 1.591 4.427.812.017-.376-1.611-1.903-1.927-2.264-.569-.65-1.627-1.438-1.615-2.352 1.306-.023 2.607 2.951 3.794 3.544.329-1.186-.271-2.986-.498-4.175-.213-1.111-1.441-2.677-.62-3.768.707-.939 3.287-1.773 4.43-1.727-.071.867-1.892 1.365-2.605 1.821zm-9.575 16.797c1.252.984 2.656 1.413 4.422 1.359 1.343-.041 4.011-.865 4.468-2.134.409-1.135-2.24.874-4.604.831-1.41-.025-2.057-.451-2.97-.731-.609-.188-2.422-.414-1.316.675zm.183-5.968c-.727.029-.757.893.01.895 0-.271.01-.583-.01-.895zm3.707-1.872c-2.344-.001-2.578 2.986-2.578 2.986l.558.201s.536-2.348 2.067-2.243c1.258.086 1.827 2.037 1.827 2.037l.885.065c0 .001-.128-3.045-2.759-3.046zm3.168 1.1c-.262 1.756 1.145 1.6 1.35.849-.374-.561-.658-1.109-1.35-.849zm1.879 3.19c-.78.093-1.805.956-2.62 1.175a6.89 6.89 0 0 1-2.059.21c-1.389-.049-3.077-.849-4.376-.514.555 2.21 5.914 2.101 8.114.944.687-.361 2.805-2.037.941-1.815z"/>
        <path fill="none" stroke="#131F67" stroke-miterlimit="10" d="M25.486 49.348c1.598-5.74 4.434-11.219 7.156-16.562 3.104-6.096 7.119-13.387 4.191-20.188-.498-1.157-1.922-4.175-4.971-2.565"/>
        <path fill="none" stroke="#131F67" stroke-miterlimit="10" d="M22.736 49.848c1.343-4.62 3.514-9.655 5.718-14.195 1.442-2.97 2.902-6.125 4.312-9.189 1.519-3.301 3.617-7.69 1.188-13.248-.317-.726-1.635-5.021-5.687-3.5"/>
        <path fill="none" stroke="#131F67" stroke-miterlimit="10" d="M20.111 50.723c.968-3.945 2.738-9.241 4.53-13.564 1.923-4.64 3.62-8.509 5.685-12.713 2.122-4.319 3.268-9.672-.309-13.382-1.854-1.924-3.188-1.841-4.445-1.609"/>
        <path fill="none" stroke="#131F67" stroke-miterlimit="10" d="M17.986 51.098c1.43-7.561 4.974-15.84 8.593-23.883 2.331-5.18 4.403-11.968.032-16.721-.377-.41-1.323-2.343-5.491-1.388"/>
        <path fill="none" stroke="#131F67" stroke-miterlimit="10" d="M12.736 51.473c1.243-3.597 1.413-6.245 3.375-11.504 1.491-3.996 3.4-7.681 4.905-11.67 1.133-3.006 4.944-16.523-1.905-16.458-1.514.015-3.296 1.751-2.125 3.132m-21.5-.75C-1.644 8.422 1.715 1.009 9.829 2.621c5.48 1.09 5.126 11.327-.968 9.854-1.673-.405-3.158-2.704-2.721-4.433.415-1.642 3.752-4.108 5.195-.674"/>
        <path fill="none" stroke="#131F67" stroke-miterlimit="10" d="M18.944 11.853c4.918-.268.929 9.078-3.367 4.468-4.478-4.808 2.736-8.605 5.752-7.123 1.397.687 2.679 1.747 3.5 3.08 3.262 5.293-.123 12.449-2.093 17.771-1.35 3.647-3.008 6.677-4.254 10.335-1.252 3.679-1.885 7.117-2.746 10.84"/>
        <path d="M-28.728 64.771c1.963.193 3.192.16 3.588-1.451.547-2.23-.969-3.168-2.122-3.326 1.216-1.154 2.653-1.936 5.392.224 1.741-2.151 5.913.19 5.425 1.73-5.788-.983-3.194 5.86-.254 4.392-1.597 5.719 6.185 4.189 4.342.216 4.812.753 4.593-5.747-.066-4.941 1.409-1.837 3.972-2.618 6.905-.17 4.566-2.979 6.036-1.132 7.575.271-3.938-1.671-5.62 5.253-.248 4.942-1.139 1.325-.542 3.683 1.693 3.802 2.6.139 3.015-2.244 2.111-4.186 1.747 1.066 3.893-.228 3.973-2.132.118-2.802-2.787-2.601-4.012-2.181 1.839-2.877 4.149-2.82 7.078-1.14 1.321-2.124 6.271-1.888 7.467.479-5.071-1.492-4.321 6.633.186 4.236.029-.03.027-.031-.005-.005-1.208 1.225.232 4.039 1.96 3.887 3.726-.329 3.913-2.392 2.651-4.179 1.968.252 4.184-1.105 3.054-3.679-.948-2.159-3.452-1.087-4.559-.349.985-2.686 4.08-3.183 5.807-1.412 1.24-1.752 4.679-2.336 5.512-.59-1.818-.63-3.085 2.042-1.973 3.434.995 1.244 2.421 1.008 3.801.264-1.38 1.963 1.966 4.334 4.504 2.431-.849-1.959-2.579-4.175-3.412-5.146-2.695-3.142-4.928-4.3-9.143-4.048-3.032.182-6.235 3.601-6.045 6.234.062.864 1.591 1.491.911 2.384-.386.506-1.435.628-1.975.398-1.393-.591.054-1.799-.215-3.123-.818-4.043-6.186-5.527-9.186-5.314-2.508.178-6.972 2.899-7.609 5.249-.335 1.233 1.142 2.785.337 3.646-.578.619-1.984.436-2.31-.275-.335-.731.23-1.08.579-1.725 1.589-2.937-4.41-6.303-7.345-6.646-3.232-.378-8.245 2.676-9.792 5.781-.556 1.115 1.726 1.74.471 3.052-.399.417-1.706.695-2.17.336-.921-.715-.341-2.131.522-2.823.871-.699-.941-5.574-5.106-6.201-2.791-.42-5.592.464-7.438 2.498-1.112 1.227-2.087 2.622-3.061 3.956-.946 1.295-3.415 3.436-.614 4.134 1.792.448 3.061-.365 2.816-2.934z"/>
        <path fill="#E2CF00" stroke="#000" stroke-miterlimit="10" d="M48.819 56.392c2.159-1.636 5.596-.881 4.477 2.416-1.395 4.11-5.106.684-6.233-1.526-2.27-4.452-.296-10.523-.164-15.307.018-.65.144-2.427.117-3.221-1.113.096-1.443-.095-1.933-.446-1.713-1.23-.798-3.7 1.005-4.085 2.232-.477 4.273 1.786 4.645 3.816.276 1.505-.167 2.991-.307 4.464-.257 2.702-.42 6.16-.111 8.976.115 1.048 1.183 3.947 2.145 4.355"/>
        <path fill="#E2CF00" d="M71.319 50.808c4.124.293 2.391-5.56-.919-3.479-.842.529-.764 1.765-.5 2.832.302 1.226.304 1.562 1.257 1.999 5.306 2.434 6.881-7.383.076-7.417-1.05-.005-2.811 1.427-1.17 2.907"/>
        <path d="M71.325 51.036l.355-.004c.216.017.596-.021 1.066-.183a1.954 1.954 0 0 0 1.152-1.272c.186-.659.056-1.474-.447-2.143-.496-.679-1.556-1.034-2.461-.703-.418.173-.895.341-1.215.804-.328.487-.371 1.004-.363 1.504.009.498.124.993.231 1.454.132.442.151.999.613 1.481.454.43.938.582 1.429.754.53.17 1.077.225 1.636.131 1.137-.173 2.039-1.064 2.443-2.038a4.872 4.872 0 0 0 .263-3.053 4.394 4.394 0 0 0-1.544-2.458c-.755-.577-1.625-.861-2.413-.965-.198-.04-.392-.038-.582-.053-.109-.003-.154-.015-.314-.012-.094.01-.152.003-.289.032a2.636 2.636 0 0 0-1.082.483c-.589.414-.952 1.124-.887 1.744.055.618.361.957.521 1.178l.29.303.67-.742-.205-.207c-.106-.14-.286-.354-.304-.614-.031-.247.097-.607.488-.903.176-.144.449-.273.643-.317.028-.019.143-.021.221-.029l.21.009c.164.011.336.004.503.036.677.077 1.387.304 1.996.75a3.53 3.53 0 0 1 1.273 1.963c.216.81.158 1.736-.174 2.547-.328.812-1.004 1.483-1.854 1.629a2.737 2.737 0 0 1-1.289-.081c-.435-.132-.911-.314-1.166-.562-.255-.217-.335-.705-.461-1.16-.116-.465-.222-.893-.237-1.324-.025-.417.047-.852.216-1.111.171-.303.572-.468.917-.616.717-.26 1.443-.022 1.854.486.401.515.516 1.175.381 1.669a1.453 1.453 0 0 1-.846.964c-.346.122-.646.177-.895.163l-.355.011.012.455z"/>
        <path fill="#E2CF00" d="M51.986 35.725c.974 1.913 3.373.66 4.933.396 2.787-.472 5.047.367 7.738.686.627.074 1.752.341 2.081-.33.325-.664-.861-2.133-1.33-2.481-1.815-1.348-5.788-1.315-7.942-1.021-1.201.164-6.513.719-5.48 2.75zm14.021-3.227c1.856.782 2.728-3.062 1.314-3.879-1.518-.878-2.621 3.329-1.314 3.879zm-3.122-.486c2 .061 2.502-4.978-.148-4.453-1.845.365-1.685 4.397.148 4.453zm-3.983-.537c2.038.211 2.115-4.566.03-4.585-1.74-.015-1.803 4.401-.03 4.585zm-4.594-.418c2.251 2.783 3.437-2.131 1.531-3.271-2.243-1.344-2.341 2.27-1.531 3.271zm-2.695 1.515c2.424 1.226 1.822-4.483-.296-4.268-1.865.191-.639 3.796.296 4.268z"/>
        <path fill="none" stroke="#000" stroke-miterlimit="10" d="M-79.696-46.537c3.075 4.125 9.606 9.01 13.046 11.642 4.143 3.17 6.697 4.543 11.362 6.812m-19.177-18.694c3.84 6 11.128 10.068 16.303 13.448m-11.22-13.208c2.856 3.572 9.667 9.604 14.094 11.019m-8.726-10.884c1.552 2.403 6.361 5.938 9.752 6.875m-4.877-7c1.509 1.654 2.894 3.347 4.82 3.864m1.93 25.761c1.323-5.41 3.279-9.279 4.293-10.812m-.418-7.188c-1.883-2.978-4.391-7.793-4.625-11.25"/>
        <path fill="none" stroke="#000" stroke-miterlimit="10" d="M-52.389-16.902c-1.875-2.365-.755-7.332-.25-9.25-.633-.829-5.765-3.051-5.762-6.8.512-1.25 4.617-3.504 5.012-3.513-1.196-2.178-1.535-7.463.25-9.688"/>
        <path fill="none" stroke="#000" stroke-miterlimit="10" d="M-44.44-27.312c-3.234.774-7.599-2.352-9.226-4.21 2.286-2.348 5.825-3.881 9.022-3.881"/>
        <path fill="none" stroke="#000" stroke-miterlimit="10" d="M-45.264-29.777c-1.344-.09-2.361-.601-3.877-1.667 1.339-.849 2.561-1.367 4.013-1.224"/>
        <path fill="#E2CF00" stroke="#000" stroke-miterlimit="10" d="M-40.764-38.902c2.043.143-.349 2.928-.378 6.502-.031 3.754 1.205 6.834-.066 7.438-4.617 2.191-5.966-14.389.444-13.94z"/>
        <path fill="none" stroke="#000" stroke-miterlimit="10" d="M-79.696-41.027c1.545 1.263 3.219 3.203 4.313 4.034.931.706 2.477 2.056 3.417 2.749 2.617 1.934 4.576 3.221 7.417 4.792 2.167 1.198 4.455 2.555 6.708 3.582.624.283 3 1.375 4.629 1.991"/>
        <path fill="#131F67" d="M-16.829-31.842c1.347 1.522-.089 1.884-.625 3.189-.613 1.495.214 2.372-1.684 3.141-.724.293-1.681.12-2.11.729-.508.721.063 1.652-.641 2.383-.928.963-3.459.891-4.734.997-1.739.145-3.866.511-5.59.253-3.078-.46-7.052-2.53-8.238-5.361-.713-1.701-.5-4.475-.188-6.293.248-1.448.774-3.295.987-5.504.104-1.083-1.378-1.222-1.98-1.103-.914.181-1.436.508-2.185 1.152 0 0 .307-8.172.29-10.897-.006-.915.188-3.652.188-3.652 1.322 1.149 4.406 3.417 5.764 4.595 2.673 2.32 5.349 3.838 8.475 5.378.983.484 1.972 1.037 2.991 1.445.844.337 1.945.846 2.782 1.112.716.228 1.468 1.035 2.003 1.641.479.54.491 1.232.854 1.752.665.952 2.342.887 2.584 2.17.101.53-.543 1.151-.441 1.562.114.461 1.137.904 1.498 1.311zm-1.591 5.033c1.006-.804.238-2.024-.865-1.534-1.589.706-.22 2.402.865 1.534zm-3.875 3.907c.283-.463.706-.887-.049-1.339-.523-.313-1.672-.095-1.974.456-.676 1.235 1.694 1.422 2.023.883zm-.656-15.376c-.588.011-1.268.323-1.104.918.164.594.836.758 1.354.708 1.156-.113.751-1.645-.25-1.626zm.263 3.612c-.62-.961-.38-1.069-1.62-1.232-1.37-.182-4.691.451-5.59-.439.452-.651 2.861-.065 3.759-.301.9-.236 1.771-1.108 1.019-2.092-.956-1.249-4.973-1.201-6.394-1.169-2.146.049-4.657.646-6.438 1.935-2.958 2.142-2.928 8.624-1.5 11.71 1.649 3.563 6.73 4.964 10.296 4.476.876-.12 4.117-.755 3.831-2.123-.191-.911-3.19-.313-4.06-.873.604-.923 4.411-.325 5.497-.498 1.104-.177 2.935-.449 2.435-3.043-2.031-.137-8.062.226-7.924-.525.206-1.11 8.43.516 9.779-1.831 1.028-1.789-1.042-1.431-2.225-1.555-1.8-.187-3.412.237-5.229.138-.745-.04-1.694.011-2.284-.438.781-.819 3.128-.403 4.181-.375 1.103.03 2.823.136 3.756-.45-.089-.55-.916-.739-1.289-1.315zm2.739-1.133c-.518-.262-1.498-.248-1.642.52-.137.737.589 1.457 1.171 1.377.464-.063.956-.214 1.126-.779.168-.557-.18-.879-.655-1.118zm.845 5.662c.059.627.736.601 1.34.43 1.266-.359.802-2.328-.464-1.996-.488.128-.924 1.053-.876 1.566z"/>
        <path fill="#E2CF00" d="M45.861 15.035s3.134 5.513 5.198 11.428c.884-.039 2.656-.15 2.656-.15s-1.052-2.07-1.385-2.661c-.838-1.489-2.447-4.14-3.035-4.937-1.028-1.397-3.434-3.68-3.434-3.68zm17.75 11.125s2.776-4.977 4.439-7.328c1.037-1.468 4-4.959 4-4.959s-.856 1.888-1.26 2.825a218.7 218.7 0 0 0-2.599 6.375c-.315.818-1.203 3.403-1.203 3.403l-3.377-.316zm-9.062 0s1.572-7.383 4.483-9.751c2.651 2.639 3.817 9.516 3.817 9.516s-.831-.141-1.507-.101c-.422-1.871-1.557-4.182-2.418-5.918-1.238 2.076-2.135 3.954-2.681 6.131-.551.031-1.694.123-1.694.123z"/>
        <path fill="#E2CF00" d="M53.454 18.477c-2.027-2.298-8.343-6.379-8.343-6.379s3.234 3.896 4.795 5.857c1.51 1.898 2.951 3.799 3.846 6.062.346-1.7 1.541-3.974 2.411-5.473.9-1.551 1.734-2.704 2.763-4.066 2.014 2.682 4.051 5.582 4.695 8.97l7.354-10.442-7.176 5.025c-1.33-2.375-2.857-4.853-4.926-7.098l-5.419 7.544z"/>
        <path fill="#131F67" d="M-41.296 11.275l2.301-4.552.521 2.33 1.859-.332.312 1.494 2.054.293-2.859 2.707zm6.106-5.138l2.002-8.905 1.343 1.692 2.064-.658.141 2.05 1.698.788zm6.984-10.768l.662-9.99 1.523 1.521 1.583-.651.803 1.853 1.915.095zm5.271-11.553v-5.502l1.687-3.096.403.88 1.723-1.393.626 2.586 2.337-.131zm4.637-19.277l1.565-2 1.008 2.127 2.314-.195-2.735 4.341-2.181-1.964.441-1.563zm2.205-4.713l-2.493-9.246 2.085 1.207 1.162-1.207 1.351 1.369 2.176-.576zm28.626-17.041l2.186 1.262 1.132-1.127 1.168 1.07 1.988-.984-2.998 8.9zm.118 13.213l2.092.84 1.268-1.695 1.305 1.158 1.974-.979-1.473 9.475zm2.227 13.268l2.187.863 1.041-2.272 1.751 1.268 1.749-1.096-1.05 9.616zm3.617 13.513l2.182-.207.685-1.972 1.396 1.201 1.694-1.26.703 9.191zM23.771-5.49l2.251.095.404-2.238 2.016.936 1.631-1.528L31.806 2.18zm9.246 14.882l-1.813-2.847 1.903.309.538-1.653 1.395.67 1.405-1.787 1.759 5.308z"/>
        <path fill="#E2CF00" stroke="#000" stroke-miterlimit="10" d="M-9.166-36.383l-3.813 16.615L15.36 8.872l9.801-.112-9.19-19.879z"/>
        <path fill="none" stroke="#000" stroke-miterlimit="10" d="M-9.709-32.97l1.412 1.23-2.158 2.137-.887 3.638 3.213 2.68 2-2.01-1.547-1.823 1.838-1.792 4.042 3.615-3.958 4.556 4.166 4.121 1.917-2.084-1.458-1.583 2.233-2.07 3.85 3.862L.871-14.16l4.291 4.333 2-2.125-1.791-2 2.208-1.916 4.042 4.041-4.166 4.333 4.459 4.472 2-1.972-1.875-2.166 2.083-2.167 4.608 4.178-4.108 4.822 3.873 4 2.127-1.916-1.916-2.209 1.176-1.207m2.643 6.005l-1.528 1.869 2.291 2.363m-4.282 0l-31.148-31.461"/>
        <path fill="#E2CF00" d="M32.122-20.289l3.865-3.525 1.232 4.894-3.777 2.713zm1.732-8.732l2.02-4.387 3.322 3.777-2.384 4.059zm-2.186-8.7l-.086-5.056 4.405 2.528-.345 4.72zm-5.546-6.652l-2.374-4.635 5.228.082 1.959 4.635z"/>
        <path fill="#D40000" d="M44.548 10.363l8.503 6.149 5.114-6.344zm15.368-.09l4.211 6.137 8.329-5.818z"/>
        <path d="M-9.166-36.383l.582-4.481 22.777 22.556 1.778 7.189z"/>
        <path fill="#D40000" stroke="#000" stroke-miterlimit="10" d="M-8.12-46.901H9.185s.813 10.696 1.258 14.171c.729 5.693 3.604 13.92 3.604 13.92L-8.688-41.198l.568-5.703z"/>
        <path d="M28.688 48.776s-11.387 2.276-24.404 3.045-25.518-1.419-25.518-1.419l-6.461 8.762s3.574-4.818 7.611-4.29 5.698 6.21 5.698 6.21 4.3-6.824 9.913-6.378 8.213 6.526 8.213 6.526 3.527-6.98 8.995-6.874 8.915 6.083 8.915 6.083 2.452-6.898 6.803-6.916 7.808 4.943 7.808 4.943l-7.573-9.692z"/>
        <path fill="#131F67" d="M46.019-.93l6.271-10.521 10.163-8.689.301-43.537 17.449-.053-.642 62.171-33.542.629zm19.518-62.144l-2.342-.047-.058 41.414 2.399-2.645v-38.722zm.896-.069l-.076 37.896 4.078-4.115-1.074.004.027-2.287 3.422-.039 1.879-1.867-5.224.023v-2.334l6.469-.004-.034.998 2.556-2.348.303-25.965-12.326.038z"/>
        <path fill="#131F67" d="M69.422-37.965v-2.488l6.511-.004v2.486zm-.004-4.414v-2.232h6.509v2.218zm.004-4.168v-2.408h6.511v2.408zm0-3.992v-2.58h6.511v2.58zm0-4.322v-2.555h6.505v2.555zm0-4.207v-2.307h6.505v2.307z"/>
        <path fill="#E2CF00" stroke="#000" stroke-miterlimit="10" d="M78.818-13.393l-.032 3.996s-3.182.581-6.109 1.151-5.891 3.357-5.891 3.357-2.889-3.019-7.666-3.337-8.758.961-8.758.961l1.927-4.188s4.499-1.397 7.627-.917 7.158 2.759 7.158 2.759.902-1.396 4.977-2.775 6.767-1.007 6.767-1.007z"/>
        <path fill="#D40000" stroke="#000" stroke-miterlimit="10" d="M-62.765-23.621l9.207 7.555.536-.836-.992-3.837z"/>
        <path d="M-37.772-6.577L-49.686 7.635s-8.821-4.844-17.466-11.194-12.545-11.038-12.545-11.038l.073-25.867s9.577 11.367 17.717 18.156C-49.741-12.162-37.772-6.577-37.772-6.577z"/>
        <path fill="#E2CF00" d="M-78.877-28.656l-.113 3.271s8.903 9.133 17.215 15.409S-44.448.442-44.448.442l1.106-1.372s-8.146-4.065-17.509-10.959-18.026-16.767-18.026-16.767zm-.208 10.254l.141 3.791s4.318 4.819 12.631 10.804S-49.853 6.79-49.853 6.79l2.026-2.199S-57.174-.495-64.652-5.805s-14.433-12.597-14.433-12.597z"/>
        <path fill="#131F67" d="M-37.366 1.625a1.215 1.215 0 1 0-2.43 0 1.215 1.215 0 0 0 2.43 0zm2.429 5.738a1.215 1.215 0 1 0-2.43 0 1.215 1.215 0 0 0 2.43 0zm6.504-.242a1.215 1.215 0 1 0-2.43 0 1.215 1.215 0 0 0 2.43 0zm.821-10.249a1.215 1.215 0 1 0-2.43 0 1.215 1.215 0 0 0 2.43 0zm-2.74-5.59a1.215 1.215 0 1 0-2.43 0 1.215 1.215 0 0 0 2.43 0zm7.819-6.253a1.215 1.215 0 1 0-2.43 0 1.215 1.215 0 0 0 2.43 0zm5.431-1.931a1.215 1.215 0 1 0-2.43 0 1.215 1.215 0 0 0 2.43 0zm-8.081-1.5a1.215 1.215 0 1 0-2.43 0 1.215 1.215 0 0 0 2.43 0zm2.65 14.274a1.215 1.215 0 1 0-2.43 0 1.215 1.215 0 0 0 2.43 0zm9.554-25.649a1.215 1.215 0 1 0-2.43 0 1.215 1.215 0 0 0 2.43 0zm-2.075-9.134a1.215 1.215 0 1 0-2.43 0 1.215 1.215 0 0 0 2.43 0zm4.457-3.456a1.215 1.215 0 1 0-2.43 0 1.215 1.215 0 0 0 2.43 0zm-8.197-.335a1.215 1.215 0 1 0-2.43 0 1.215 1.215 0 0 0 2.43 0zm4.811-8.288a1.215 1.215 0 1 0-2.43 0 1.215 1.215 0 0 0 2.43 0zm27.209.432a1.215 1.215 0 1 0-2.43 0 1.215 1.215 0 0 0 2.43 0zm3.759 3.909a1.215 1.215 0 1 0-2.43 0 1.215 1.215 0 0 0 2.43 0zm4.064-3.574a1.215 1.215 0 1 0-2.43 0 1.215 1.215 0 0 0 2.43 0zm-6.086 14.694a1.215 1.215 0 1 0-2.43 0 1.215 1.215 0 0 0 2.43 0zm4.043 2.121a1.215 1.215 0 1 0-2.43 0 1.215 1.215 0 0 0 2.43 0zm3.684-4.53a1.215 1.215 0 1 0-2.43 0 1.215 1.215 0 0 0 2.43 0zm2.471 12.643a1.215 1.215 0 1 0-2.43 0 1.215 1.215 0 0 0 2.43 0zm-2.952 4.556a1.215 1.215 0 1 0-2.43 0 1.215 1.215 0 0 0 2.43 0zM17.791-22.6a1.215 1.215 0 1 0-2.43 0 1.215 1.215 0 0 0 2.43 0zm4.75 14.233a1.215 1.215 0 1 0-2.43 0 1.215 1.215 0 0 0 2.43 0zm4.475-.418a1.215 1.215 0 1 0-2.43 0 1.215 1.215 0 0 0 2.43 0zm3.099-3.881a1.215 1.215 0 1 0-2.43 0 1.215 1.215 0 0 0 2.43 0zM28.9 2.869a1.215 1.215 0 1 0-2.43 0 1.215 1.215 0 0 0 2.43 0zm5.335.526a1.215 1.215 0 1 0-2.43 0 1.215 1.215 0 0 0 2.43 0zm2.043-4.954a1.215 1.215 0 1 0-2.43 0 1.215 1.215 0 0 0 2.43 0z"/>
        <path fill="#E2CF00" d="M-46.546 1.559a1.281 1.281 0 1 0-2.562 0 1.281 1.281 0 0 0 2.562 0zm4.66-5.687a1.281 1.281 0 1 0-2.562 0 1.281 1.281 0 0 0 2.562 0zm-3.995-2.094a1.281 1.281 0 1 0-2.562 0 1.281 1.281 0 0 0 2.562 0zm-4.361-2.496a1.281 1.281 0 1 0-2.562 0 1.281 1.281 0 0 0 2.562 0zm-3.871-2.853a1.281 1.281 0 1 0-2.562 0 1.281 1.281 0 0 0 2.562 0zm-3.967-2.871a1.281 1.281 0 1 0-2.562 0 1.281 1.281 0 0 0 2.562 0zm-3.403-2.563a1.281 1.281 0 1 0-2.562 0 1.281 1.281 0 0 0 2.562 0zm-3.812-3.002a1.281 1.281 0 1 0-2.562 0 1.281 1.281 0 0 0 2.562 0zm-3.432-3.246a1.281 1.281 0 1 0-2.562 0 1.281 1.281 0 0 0 2.562 0zm-3.411-3.378a1.281 1.281 0 1 0-2.562 0 1.281 1.281 0 0 0 2.562 0zm-3.31-3.121a1.281 1.281 0 1 0-2.562 0 1.281 1.281 0 0 0 2.562 0zm-.559 9.273a1.281 1.281 0 1 0-2.562 0 1.281 1.281 0 0 0 2.562 0zm3.063 3.035a1.281 1.281 0 1 0-2.562 0 1.281 1.281 0 0 0 2.562 0zm3.253 3.189a1.281 1.281 0 1 0-2.562 0 1.281 1.281 0 0 0 2.562 0zm3.5 2.696a1.281 1.281 0 1 0-2.562 0 1.281 1.281 0 0 0 2.562 0zm3.951 2.841a1.281 1.281 0 1 0-2.562 0 1.281 1.281 0 0 0 2.562 0zm3.71 2.754a1.281 1.281 0 1 0-2.562 0 1.281 1.281 0 0 0 2.562 0zm3.788 2.563a1.281 1.281 0 1 0-2.562 0 1.281 1.281 0 0 0 2.562 0zm3.801 2.562a1.281 1.281 0 1 0-2.562 0 1.281 1.281 0 0 0 2.562 0zm92.389-.362l1.613 2.252s13.296-11.562 10.761-35.99S24.669-67.59 24.669-67.59l-.321 2.012s24.528 8.454 27.154 30.712S41.448-1.201 41.448-1.201z"/>
        <path fill="#E2CF00" d="M36.551-7.244l1.704-1.764s3.449 1.352 4.652-1.26-1.516-4.262-1.516-4.262l1.778-5.125s3.323.438 3.897-2.3-2.411-3.628-2.411-3.628l-.155-5.662s3-.748 2.586-3.379-3.566-2.723-3.566-2.723l-2.124-5.451s2.823-2.879.675-4.73-4.119-.389-4.119-.389l-3.81-4.002s1.784-2.494-.358-4.306-4.553.911-4.553.911l-4.485-2.229s.105-1.104-.23-1.781-.938-1.346-.938-1.346l.274-1.84s1.612.768 2.092 1.964.425 2.636.425 2.636l2.078.809s3.379-2.971 6.334-.328 1.123 5.779 1.123 5.779l1.873 1.902s2.932-1.793 5.883 1.334-.669 6.279-.669 6.279l1.32 3.131s4.88.885 4.699 4.379-3.123 4.939-3.123 4.939l.038 2.756s3.365 1.336 2.744 4.974-4.567 4.128-4.567 4.128l-.761 2.508s2.205 1.62.918 5.318-5.749 2.57-5.749 2.57l-1.188 1.1-.771-.912z"/>
        <path fill="#E2CF00" d="M35.277-9.238l-1.078-1.871s8.504-10.016 5.046-24.094-15.962-17.748-15.962-17.748l.101-2.209s14.267 4.55 17.877 19.631-5.984 26.291-5.984 26.291zM23.596-45.471l.208 2.516s3.897 2.001 6.557 8.641-.859 13.521-.859 13.521l.809 1.902s4.543-8.824 1.844-15.732-8.559-10.848-8.559-10.848z"/>
        <path fill="none" stroke="#131F67" stroke-miterlimit="10" d="M-79.696-14.598S-68.612-2.41-54.641 5.34s25.056 11 25.056 11c-.812-4.615 6.584-5.509 9.332-2.242 2.144 2.547 2.338 7.516.49 10.125M25.801 9.335h14.512"/>
        <path fill="none" stroke="#131F67" stroke-miterlimit="10" d="M-8.688-54.284s1.213 22.116-6.51 40.87S-30.696 15.99-30.696 15.99M8.953-55.535s.825 24.029 5.877 38.577S25.486 8.446 25.486 8.446"/>
        <path fill="#E2CF00" d="M-39.813-4.881l1.232-1.488s-11.265-5.545-20.78-13.23-19.436-19.379-19.436-19.379v2.4s8.366 10.459 18.31 18.292S-39.813-4.881-39.813-4.881z"/>
        <path fill="#D40000" stroke="#000" stroke-miterlimit="10" d="M44.123-72.287l-.442 15.741s10.946 12.756 11.07 23.901c.125 11.26-3.326 21.552-3.326 21.552l11.027-9.048.3-43.363-9.673-.227s-.625-2.344-3.469-5.012-5.487-3.544-5.487-3.544z"/>
        <path fill="#E2CF00" stroke="#000" stroke-miterlimit="10" d="M79.396-36.971l-.017 4.329-21.336 19.976-5.153.701z"/>
    </symbol>
    <path d="M104.847 152.568l17.368.126-.564 16.536-17.624.288z"/>
    <use xlink:href="#king-hearts" width="160.405" height="146.771" x="-80.202" y="-72.973" transform="matrix(1 0 0 -1 112.948 106.045)" overflow="visible"/>
    <use xlink:href="#king-hearts" width="160.405" height="146.771" x="-80.202" y="-72.973" transform="matrix(-1 0 0 1 113.167 215.887)" overflow="visible"/>
    <path fill="#E2CF00" d="M110.586 152.993h4.766v4.621h-4.766zm5.566 5.514h4.604v4.621h-4.604zm-11.001 0h4.641v4.621h-4.641zm5.435 5.836h4.997v4.75h-4.997z"/>
    <use xlink:href="#hearts" width="21.868" height="23.314" x="-10.934" y="-11.657" transform="matrix(1 0 0 -1 19 61)" overflow="visible"/>
    <use xlink:href="#hearts" width="21.868" height="23.314" x="-10.934" y="-11.657" transform="translate(207 252)" overflow="visible"/>
    <use xlink:href="#hearts-medium" width="43.787" height="46.682" x="-21.892" y="-23.341" transform="matrix(1 0 0 -1 61.315 65.416)" overflow="visible"/>
    <use xlink:href="#hearts-medium" width="43.787" height="46.682" x="-21.892" y="-23.341" transform="translate(165.684 256.67)" overflow="visible"/>
    <use xlink:href="#face-frame" width="161.544" height="259.519" x="-80.771" y="-129.759" transform="matrix(1 0 0 -1 112.993 160.74)" overflow="visible"/>
    <path fill="none" d="M2.527 13.094h33.41V52.61H2.527z"/>
    <text transform="translate(7.201 44.598)" fill="#D40000" font-family="'ArialNarrow'" font-size="44">
        K
    </text>
    <path fill="none" d="M194.17 262.613h33.41v39.516h-33.41z"/>
    <text transform="rotate(180 111.454 135.313)" fill="#D40000" font-family="'ArialNarrow'" font-size="44">
        K
    </text>
</svg>
