<svg xmlns="http://www.w3.org/2000/svg" xmlns:xlink="http://www.w3.org/1999/xlink" viewBox="0 0 227 315">
    <symbol id="clubs_4_" viewBox="-11.089 -11.846 22.179 23.691">
        <path d="M.076-11.846h-2.951S-.856-7.584-.856-3.989c0 .711-.403.53-.46.004-.217-1.981-1.856-4.288-4.857-4.168-3.653.145-4.915 2.93-4.915 5.221 0 1.702.89 5.168 4.671 5.309 1.202.045 2.285-.327 2.925-.875.473-.405.691-.164.19.405-.35.398-1.975 1.813-1.903 4.629C-5.07 11.844 0 11.846 0 11.846s5.071-.001 5.207-5.309c.072-2.816-1.553-4.231-1.903-4.629-.5-.569-.283-.81.19-.405.64.548 1.723.919 2.925.875 3.78-.141 4.67-3.607 4.67-5.309 0-2.291-1.262-5.076-4.915-5.221-3-.119-4.641 2.188-4.857 4.168-.057.526-.461.707-.461-.005 0-3.595 2.019-7.857 2.019-7.857h-2.95"/>
    </symbol>
    <symbol id="clubs-medium" viewBox="-22.204 -23.719 44.409 47.437">
        <use xlink:href="#clubs_4_" width="22.179" height="23.691" x="-11.089" y="-11.846" transform="scale(2.0023)" overflow="visible"/>
    </symbol>
    <symbol id="face-frame" viewBox="-80.771 -129.759 161.544 259.519">
        <path fill="none" stroke="#131F67" stroke-width="3" stroke-miterlimit="10" d="M79.272-128.259H-79.271V128.26H79.272z"/>
    </symbol>
    <symbol id="king-clubs" viewBox="-94.616 -90.656 157.942 182.904">
        <path fill="#E2CF00" stroke="#000" stroke-miterlimit="10" d="M46.751-33.641l-1.11 4.077 1.885-1.393s-2.478 4.181.252 8.311c2.278.301 1.883-3.146 1.883-3.146l.424-3.161 1.132-1.914.283-3.503-4.749.729z"/>
        <path fill="#E2CF00" stroke="#131F67" stroke-miterlimit="10" d="M-48.201 91.747l14.441-27.909s8.76 2.039 23.709 2.832c10.581.561 28.14-2.123 28.14-2.123L33.678 91.69l-81.879.057z"/>
        <path d="M-44.386 85.854s4.007-2.557 4.424-4.634c4.583 2.41 6.041-4.215 1.482-4.678 1.559-1.079 4.059-.913 5.195.647 1.311-.57 3.45-2.66 6.33 1.104-6.048-1.121-4.966 5.253-1.805 5.258-.369 4.371 5.589 3.788 5.04.217 3.423.196 4.34-5.388-.009-5.673 2.141-1.589 5.016-1.714 6.822.661 2.818-2.334 5.86-2.042 7.303.604-5.219-.859-4.733 5.645-1.342 5.238.109 4.365 5.026 4.031 5.624-.001 2.736.407 5.069-5.133-.435-5.563 2.962-3.482 6.363-.27 6.363-.27s4.029-3.609 7.145-.42c-5.747.029-3.047 6.827-.411 5.367.488 3.792 5.488 4.334 5.425-.604 4.022.688 3.98-7.02-1.464-4.453 1.012-3.826 4.82-1.828 5.806-1.578 1.056-2.823 4.559-1.911 5.153-1.502-2.973.805-3.723 6.513 2.239 5.229.211 4.701 3.773 2.864 3.773 2.864s-7.188-13.59-10.193-18.787c-24.68 3.243-31.79 2.612-51.666-.46-3.209 6.541-10.799 21.434-10.799 21.434zM17.012-62.691s-1.528-3.357-4.435-5.761c.431-1.356 3.089-1.824 5.344-1.958 1.557-1.395 3.194-3.755 4.684-3.69 1.378.061 2.919 2.616 4.058 3.741 1.612.083 5.318.755 5.797 2.233-3.003 2.751-4.03 5.435-4.03 5.435H17.012z"/>
        <path fill="#131F67" d="M36.156-55.293l1.575-1.941 1.692.152-2.708-9.672-3.548 9.264 1.588-.331zM5.026-40.016l1.576-1.94 1.691.152-2.708-9.673-3.548 9.265 1.588-.331z"/>
        <path d="M38.268-47.609c0 8.824-7.152 15.976-15.976 15.976S6.316-38.785 6.316-47.609c0-8.823 7.152-15.976 15.976-15.976s15.976 7.153 15.976 15.976z"/>
        <path fill="none" stroke="#E2CF00" stroke-width="2" stroke-miterlimit="10" d="M43.919 19.551C34.088 4.909 28.163-7.901 25.998-31.338"/>
        <path fill="none" stroke="#131F67" stroke-miterlimit="10" d="M2.623-29.139a3.7 3.7 0 1 0-7.4.002 3.7 3.7 0 0 0 7.4-.002z"/>
        <path fill="#E2CF00" stroke="#000" stroke-miterlimit="10" d="M-24.243 21.446c5.494-7.649 14.631-33.195 15.345-51.896 7.482 2.58 13.648 1.497 17.313-.417C7-16.536 16.123 10.714 24.267 23.693c-.673.686-1.255 1.702-1.255 1.702L-1.56 8.47s-16.307 10.694-21.062 13.805c-.524-.297-.865-.514-1.621-.829z"/>
        <path fill="none" stroke="#000" stroke-miterlimit="10" d="M-19.578 12.172L-1.883.63l22.242 15.638"/>
        <path fill="none" stroke="#000" stroke-miterlimit="10" d="M-19.207 6.402L-1.512-5.139 20.73 10.498"/>
        <path fill="none" stroke="#000" stroke-miterlimit="10" d="M-19.207.987l17.695-11.542L20.73 5.083"/>
        <path fill="none" stroke="#000" stroke-miterlimit="10" d="M-19.207-5.079L-1.512-16.62 20.73-.983"/>
        <path fill="none" stroke="#000" stroke-miterlimit="10" d="M-19.207-10.978L-1.512-22.52 20.73-6.882"/>
        <path fill="none" stroke="#000" stroke-miterlimit="10" d="M-18.784-16.966l17.695-11.542 22.242 15.637"/>
        <path d="M-23.205 22.511s3.09 1.239 4.732 3.913c4.089-4.21 11.695-8.47 16.237-11.181 4.691 2.998 11.491 8.385 11.491 8.385s1.575-3.822 8.795-1.65L-1.56 8.47l-21.645 14.041z"/>
        <path fill="#D40000" stroke="#000" stroke-miterlimit="10" d="M43.141 21.606c-4.88 3.183-9.562 5.927-13.624 8.75C14.946 13.629 5.834-19.787 8.879-38.425c3.873 7.087 12.871 7.01 15.703 7.558C25.717-7.121 35.019 7.876 43.141 21.606z"/>
        <path d="M-8.797-35.601h-14.734c1.813 19.571-7.066 41.147-34.801 56.115 3.89 1.617 8.905 3.921 13.759 6.097 4.49-5.293 10.199-7.981 19.588-4.962C-8.333-4.034-8.797-35.601-8.797-35.601z"/>
        <path fill="none" stroke="#D40000" stroke-width="2.5" stroke-miterlimit="10" d="M-35.085 66.952c19.559 3.595 32.221 3.936 54.125.313"/>
        <path fill="none" stroke="#131F67" stroke-miterlimit="10" d="M-17.03 39.046c-.334 3.575-5.592 2.459-5.494 4.904.143 3.56 3.295 10.518 2.6 14.012-.257 1.292-2.435 2.95-3.666 3.417-2.313.878-5.625 1.792-9.666-1.221m.589-3.112c3.708 3.555 10.393 2.905 12.719-1.793m-4.582-6.036c1.481.814 4.302 3.017 4.302 4.489"/>
        <path fill="none" stroke="#131F67" stroke-width="2" stroke-linecap="round" stroke-miterlimit="10" d="M-12.792 55.631c.95-.581 2.383.423 4.389.84 5.86 1.217 7.25-1.066 9.532-2.324"/>
        <path fill="none" stroke="#131F67" stroke-miterlimit="10" d="M1.633 54.549c-1.638-1.593-7.78-3.266-11.491-2.381-.08.019-1.987.67-2.059.711-.754.434-1.229 2.898-1.792 3.523m5.938-6.471c-1.777.707-4.486 1.241-4.146 2.948m-2.367 7.722c2.534 2.253 8.137 3.57 15.518-1.208m-14.38-3.241c3.455 3.748 9.77 3.757 14.602.522m-36.038 8.701s1.644-5.496 1.659-7.703c.041-5.726.757-15.621 2.254-22.792.571-2.736-2.417-8.694-4.848-10.076-1.446-.822-5.212-.831-6.652 0-1.169.674-2.701 1.929-2.701 4.675 0 2.692 2.029 3.628 3.365 4.358 2.21 1.208 10.245 1.726 10.245 4.245"/>
        <path fill="none" stroke="#131F67" stroke-miterlimit="10" d="M-38.353 29.915c0 .657-1.147 1.55-2.563.372-.768-.638-.791-2.69-.038-3.347 2.447-2.135 4.301.164 5.119 1.191.805 1.01.228 4.137-.893 4.778-1.621.928-1.621.928-3.026 1.493m4.257-5.936c3.549 3.147.144 5.818-1.112 6.742m2.629-4.872c2.628 2.438 1.397 4.425.467 5.535"/>
        <path fill="none" stroke="#131F67" stroke-miterlimit="10" d="M-43.034 25.395c2.23-2.463 4.969-4.072 6.662-4.516 2.874-.754 9.175-.338 11.842.972 2.674 1.313 6.345 2.955 8.033 8.804 3.068-5.977 3.068-5.977 4.747-7.394 1.921-1.622 5.312-4.281 9.331-4.278 3.831.003 5.724 1.922 7.167 3.232 1.024.93 2.728 3.546 2.539 4.916-.202 1.467-2.569 4.148-4.039 4.334-1.228.155-3.723-1.513-4.167-2.667-.373-.968.27-3.375 1.096-4.003.749-.57 3.155-.707 3.765.011.494.583.677 2.153-.212 2.821-.841.632-1.833.274-2.792-.438"/>
        <path fill="#131F67" d="M-17.43 45.253l.12-.077c.096-.043.151-.091.379-.181.443-.152.898-.402 1.389-.703.492-.286.901-.652 1.355-.759a1.81 1.81 0 0 1 .777-.004c.286.062.568.122.788.291.462.326.817.871.901 1.398a1.463 1.463 0 0 1-.449 1.333 2.903 2.903 0 0 1-.936.601 4.506 4.506 0 0 1-.412.148.26.26 0 1 0 .14.5l.006-.001.014-.004s.167-.052.45-.177c.277-.129.695-.307 1.101-.696.404-.372.757-1.043.68-1.775-.07-.723-.451-1.417-1.045-1.913-.303-.265-.676-.41-1.019-.533a2.89 2.89 0 0 0-1.139-.149c-.395.024-.755.153-1.042.274-.29.121-.534.241-.74.316a1.482 1.482 0 0 1-.559.096.716.716 0 0 1-.365-.106c-.062-.047-.239-.122-.3-.154l-.121-.074a1.387 1.387 0 0 0-1.905.461 1.387 1.387 0 0 0 .462 1.905 1.397 1.397 0 0 0 1.47-.017zm3.745-4.01l.209-.033c.158-.031.285-.034.641-.107l.532-.112.545-.171c.378-.136.793-.285 1.217-.478.853-.375 1.753-.897 2.696-1.285.467-.187.951-.326 1.383-.329.219-.005.42.034.606.122l.14.069c.004-.003.094.054.026 0l.084.069c.103.09.249.189.314.272.271.268.566.793.743 1.251.194.48.272.99.272 1.459-.009.478-.18.869-.421 1.114-.23.272-.625.312-.979.347-.375-.031-.729-.069-1.042-.192-.314-.096-.587-.185-.806-.302l-.687-.334-.044-.021a.5.5 0 0 0-.439.899l.027.012.775.321c.236.118.554.214.922.315.354.127.808.167 1.298.2.492-.03 1.13-.092 1.606-.58.468-.449.707-1.111.729-1.726.025-.618-.031-1.249-.231-1.848-.216-.611-.425-1.165-.95-1.757-.118-.143-.217-.21-.326-.319l-.079-.074c-.125-.097-.104-.069-.162-.109l-.242-.142a2.845 2.845 0 0 0-1.053-.311c-.716-.07-1.347.081-1.916.223-1.123.319-2.072.669-2.875.856-.4.099-.756.173-1.068.198l-.43.03a44.233 44.233 0 0 1-.306-.012c-.148.01-.426-.041-.539-.051l-.21-.027a1.293 1.293 0 0 0-.331 2.565c.125.019.255.015.371-.002z"/>
        <path fill="none" stroke="#131F67" stroke-miterlimit="10" d="M-19.713 32.873c.673-1.659 3.825-1.637 5.915.23"/>
        <path fill="#131F67" d="M-19.981 38.597l-.182-.004c-.111-.003-.323 0-.427-.029-.119-.005-.346-.064-.603-.134a8.18 8.18 0 0 1-.889-.347c-.667-.296-1.473-.709-2.463-1.042-.506-.143-1.068-.27-1.675-.201a3.483 3.483 0 0 0-1.646.651l-.091.061-.043.031-.012.007-.062.056-.017.017-.128.137c-.081.069-.184.221-.276.377a1.647 1.647 0 0 0-.208.435c-.047.137-.109.273-.131.41-.147.545-.147 1.087-.1 1.61.051.52.205 1.042.521 1.492.093.107.173.221.28.312.119.083.242.162.363.233.255.085.552.183.783.131.248-.018.475-.058.652-.143.186-.075.382-.131.514-.23.283-.181.553-.325.717-.484.363-.295.569-.465.569-.465a.5.5 0 1 0-.655-.755l-.04.037-.473.438c-.146.154-.353.262-.575.423-.111.093-.237.119-.365.18-.131.077-.26.087-.389.097-.255.011-.479-.044-.653-.315a2.077 2.077 0 0 1-.333-1.042c-.018-.409 0-.857.135-1.262.02-.108.072-.195.108-.292a.799.799 0 0 1 .119-.233c.033-.06.054-.127.168-.222l.135-.131.017-.016.004-.004c-.021.02.057-.049-.049.043l.008-.005.035-.02.068-.04c.717-.49 1.525-.424 2.293-.099.776.32 1.473.837 2.134 1.241.333.206.655.391.953.556.312.153.582.288.894.378.314.106.45.129.57.161l.176.044a1.038 1.038 0 1 0 .279-2.046h-.01z"/>
        <path fill="none" stroke="#131F67" stroke-miterlimit="10" d="M-33.554 60.601l-2.281-5.166s-.264 1.261-.774 1.227c-2.901-.196-2.555-2.583-2.331-3.696.252-1.255 3.099-1.982 4.285-1.503 1.142.461 1.785 2.703 1.785 3.71m.118-2.684c-.033-5.189-4.084-9.44-4.084-9.44s-.821 2.403-1.678 2.486c-2.773.269-3.556-2.802-3.026-3.922.942-1.994 4.446-2.347 5.695-1.724 2.219 1.107 3.475 5.417 3.475 7.24"/>
        <path fill="#E2CF00" d="M-39.31 76.146c1.149-.82 2.387-1.564 3.639-2.065.631-.24 1.262-.444 1.894-.525a5.368 5.368 0 0 1 1.846.01c.3.048.59.137.879.234.282.12.561.249.833.408.273.153.537.336.79.54.251.206.506.417.74.66.253.22.453.504.694.749.225.262.429.547.651.82l.62.871c.187.307.387.609.594.912l.003.006a.461.461 0 0 0 .76.188l.106-.104c.34-.33.665-.664.979-1.005.304-.351.662-.643 1.005-.944.335-.309.659-.628 1.034-.874.367-.251.687-.577 1.078-.772.388-.199.735-.479 1.131-.635.397-.145.768-.382 1.177-.459.4-.1.792-.262 1.202-.272l.607-.072c.203-.003.405.02.607.02.408-.02.807.08 1.208.159.407.049.778.267 1.181.372.383.166.755.374 1.132.568.345.258.726.465 1.067.739.328.292.683.555 1 .87.307.325.642.627.936.974.289.35.602.687.88 1.054.261.378.537.751.823 1.125a.481.481 0 0 0 .864.03l.055-.102c.215-.4.425-.796.617-1.195.223-.383.496-.733.734-1.097.264-.346.572-.652.85-.978.305-.299.65-.552.962-.836a25.12 25.12 0 0 1 1.071-.661c.391-.153.754-.365 1.154-.478.408-.085.792-.261 1.213-.281.412-.048.822-.132 1.242-.094l.625.011c.208.014.414.064.623.088l.623.09.608.181c.202.062.408.113.608.182l.59.252c.195.087.397.16.59.256l.559.328.568.319.525.392c.354.258.724.504 1.035.823.314.312.697.564.982.915.299.336.606.67.93 1l.098.1a.464.464 0 0 0 .764-.155l.002-.005c.227-.316.444-.634.651-.955l.683-.914.716-.862c.264-.256.486-.557.765-.786 1.051-.989 2.257-1.732 3.566-1.891a5.516 5.516 0 0 1 1.995.083c.675.131 1.338.392 1.994.699.65.318 1.291.696 1.902 1.129.624.411 1.221.909 1.775 1.389l.77-.64c-.478-.709-1.035-1.289-1.627-1.875a11.526 11.526 0 0 0-2-1.514 9.067 9.067 0 0 0-2.388-1.012 7.176 7.176 0 0 0-2.69-.16 7.314 7.314 0 0 0-1.326.333 7.038 7.038 0 0 0-1.218.584 8.007 8.007 0 0 0-1.067.777 7.351 7.351 0 0 0-.919.905c-.299.308-.531.657-.789.988-.231.347-.452.698-.665 1.051l-.554 1.097c-.166.371-.321.747-.468 1.123l-.003.005.862-.054c-.242-.42-.501-.835-.768-1.248-.249-.426-.598-.781-.905-1.171-.306-.393-.676-.729-1.05-1.062l-.564-.5-.621-.432-.633-.422c-.221-.126-.455-.23-.684-.345l-.689-.336c-.237-.097-.489-.162-.733-.243l-.738-.229-.768-.13c-.509-.113-1.03-.12-1.553-.112-.522-.032-1.04.069-1.558.142-.524.038-1.01.275-1.511.412-.494.167-.946.443-1.416.664-.434.286-.854.597-1.261.912-.363.366-.75.712-1.071 1.107-.29.42-.625.809-.864 1.253-.22.455-.466.894-.651 1.354-.163.47-.31.942-.45 1.411l.918-.073c-.19-.452-.39-.905-.604-1.353-.225-.442-.491-.865-.739-1.302-.259-.431-.594-.813-.893-1.224-.307-.406-.697-.747-1.048-1.123-.374-.354-.796-.668-1.207-.99-.449-.274-.901-.557-1.378-.793-.504-.188-.983-.447-1.523-.539-.532-.12-1.062-.249-1.614-.245-.273-.011-.548-.036-.82-.021l-.812.105c-.55.041-1.053.24-1.57.389-.525.141-.966.446-1.447.665-.477.23-.872.571-1.299.865-.436.287-.768.677-1.148 1.014-.382.34-.689.738-1.007 1.124-.644.77-1.146 1.623-1.642 2.467l.866.083-.004-.006a19.68 19.68 0 0 0-.372-1.089l-.462-1.068c-.364-.69-.761-1.38-1.284-2.002a7.03 7.03 0 0 0-.837-.902 7.758 7.758 0 0 0-.992-.779c-.351-.246-.743-.429-1.14-.605a7.504 7.504 0 0 0-1.256-.368 7.051 7.051 0 0 0-2.572.032 8.798 8.798 0 0 0-2.318.843c-.715.375-1.368.831-1.967 1.336-.593.519-1.141 1.056-1.613 1.706l.719.691z"/>
        <path fill="none" stroke="#131F67" stroke-miterlimit="10" d="M-36.609 21.039c4.875.059 9.467 8.418 9.467 12.297m-4.734-12.821c3.315 2.037 7.496 7.325 7.496 10.201m-2.763-9.677c2.27 2.502 5.562 7.313 5.562 9.955m0-7.612c0 2.008 2.384 5.662 2.384 7.67m22.223-6.25c0-1.412-3.033-3.475-4.445-3.484-3.93-.025-12.492 5.609-12.492 9.539m13.658-6.052c-3.541-2.756-9.508 2.159-10.123 5.117m9.412-3.126c-2.643-1.572-6.548 2.187-7.833 4.735m7.878-2.734c-1.646.923-5.044 2.483-5.858 4.076m7.539-2.326c-1.836 1.035-4.417 2.414-5.29 4.214m7.776-3.297c-1.519 1.19-4.456 3.698-5.667 5.374M.762 65.443s1.414-19.029 2.486-27.228C3.77 34.22 6.37 25.857 9.549 23.382c1.371-1.068 3.181-2.868 6.807-1.405 4.472 2.245 15.476 7.944 15.476 7.944s1.398 2.25-.219 4.839c-1.763 2.561-4.195 3.322-4.195 3.322s-2.732-.761-5.724-1.579c-3.313 5.019-3.612 28.377-3.612 28.377l-17.32.563z"/>
        <path fill="none" stroke="#131F67" stroke-miterlimit="10" d="M3.729 64.899s1.921-26.75 5.186-34.978c.571-1.44 1.981-4.805 3.5-5.117.995-.204 3.299.589 3.156 2.558-.058.795-1.111 2.491-1.906 2.559-1.417.121-1.86-1.423-1.86-1.423"/>
        <path fill="none" stroke="#131F67" stroke-miterlimit="10" d="M9.098 29.47c.08 2.517 1.988 3.443 2.817 3.929 1.35.79 4.544 1.193 6 1.763 1.13.443 4.348.946 4.348 2.16M6.831 64.899s1.336-26.816 4-32.026M9.778 64.781s1.611-23.139 3.637-30.763m-1.167 30.881s1.167-22.603 3.875-29.737"/>
        <path fill="none" stroke="#131F67" stroke-miterlimit="10" d="M17.074 22.798s2.843 3.625.846 7.124c-1.38 2.417-3.597 2.859-4.974 3.917m7.802-9.034s1.081 3.603-.379 6.052c-1.186 1.989-2.563 2.98-4.246 3.778m7.458-8.547s1.183 3.008-.511 5.925c-1.241 2.139-2.743 2.25-4.019 3.498-3.186 5.974-4.059 29.472-4.059 29.472"/>
        <path fill="none" stroke="#131F67" stroke-miterlimit="10" d="M26.505 27.188s.157 4.277-1.062 6.215c-.728 1.156-1.452 2.122-3.749 3.102m7.471-7.708s.439 3.375-.701 5.354c-.654 1.136-1.995 2.227-4.197 3.397"/>
        <path fill="#D40000" stroke="#131F67" stroke-miterlimit="10" d="M-18.139 26.088c3.014-3.443 15.903-10.845 15.903-10.845s7.631 4.474 10.729 7.903c-.283 1.025-.517.935-1.273 3.436-.731-7.825-9.152-7.6-9.152-7.6s-10.234 0-14.407 10.795c-.631-1.311-1.424-2.56-1.8-3.689z"/>
        <path fill="none" stroke="#131F67" stroke-miterlimit="10" d="M44.028-10.32l-.282 77.619 6.083 4.534 5.917-4.163.499-76.709z"/>
        <path fill="none" stroke="#131F67" stroke-miterlimit="10" d="M49.245 71.211s1.069-8.338 1.034-11.125c-.03-2.385-.771-7.082-.833-9.417-.086-3.21.638-9.575.633-12.75-.004-2.569-.549-7.67-.552-10.208-.004-3.122.828-9.158.749-12.25-.052-2.026-.725-6.09-.74-8.125-.022-2.886 1.097-8.507 1.115-11.37.009-1.392-.572-5.505-.572-5.505"/>
        <path fill="none" stroke="#E2CF00" stroke-width="2" stroke-miterlimit="10" d="M8.604-41.815c7.531-2.588 17.685-3.276 27.999-.65"/>
        <path fill="none" stroke="#E2CF00" stroke-width="1.5" stroke-miterlimit="10" d="M7.613-48.967l11.217-2.144v-11.287m18.55 13.237l-11.37-1.948v-11.273"/>
        <path fill="none" stroke="#E2CF00" stroke-width="1.5" stroke-miterlimit="10" d="M36.917-51.271l-8.938-1.401.141-9.257M7.959-51.271l8.965-1.498.088-8.846m.863-1.668s-1.485-3.709-3.333-5.014c-.891-.629 3-.594 4.288-.469.647-1.75 2.328-4.006 3.677-3.938 1.318.067 2.598 3.062 2.973 4.25 1.312-.094 5.604.215 4.685.715-1.81.984-2.966 4.465-2.966 4.465"/>
        <path fill="none" stroke="#0F0" stroke-miterlimit="10" d="M49.916-41.688c-2.499-.325-5.749 3.099-1.898 6.197"/>
        <path fill="none" stroke="#000" stroke-width="5" stroke-miterlimit="10" d="M44.25-81.612l-.167 46.12"/>
        <path fill="#D40000" stroke="#131F67" stroke-miterlimit="10" d="M-8.797-36.453c-.102-9.443 1.42-21 8.211-29.301-.079 7.427-.004 17.343.062 22.813-5.092.098-3.926 5.747-3.926 5.747s-3.221-1.379-4.347.741z"/>
        <path fill="#FFF" d="M-15.362-21.791l.262-.135a6.14 6.14 0 0 0 .67-.431 4.43 4.43 0 0 0 1.021-1.042c.094-.134.187-.281.269-.473.087-.174.159-.375.205-.613.111-.448.073-1.003-.086-1.467a3.359 3.359 0 0 0-.678-1.146c-.137-.173-.274-.293-.416-.418l-.218-.19-.056-.048-.027-.023-.168-.118-.092-.056-.38-.229a4.836 4.836 0 0 0-.824-.312 3.378 3.378 0 0 0-1.669.001c-1.063.267-1.839.887-2.473 1.54-.635.666-1.145 1.415-1.587 2.236-.431.841-.829 1.681-1.03 2.841l-.032.227-.016.113-.003.029-.008.122v.379l.001.683c.011.466-.024.906.024 1.414.179 2.088.531 4.093.945 6.111.407 2.038.815 4.089 1.096 6.171.097.523.101 1.035.147 1.554.026.515.102 1.042.091 1.552l-.068 1.523-.016.381-.004.096-.002.048-.001.024c.022-.134.003-.022.007-.046l-.035.203-.145.811-.289 1.622c-.119.513-.293.961-.432 1.445-.229.97-.739 1.856-1.147 2.762-1.007 1.692-2.329 3.12-3.908 3.925l-.598.276-.296.137-.314.073-.621.153-.307.079-.038.01-.02.005c-.028.005.181-.023.081-.011l-.093.006-.186.013c-.158.019-.158-.013-.213-.016-.036-.003-.093-.007-.187-.032-.16-.025-.33-.083-.498-.138a4.534 4.534 0 0 1-.979-.508c-1.269-.833-1.958-2.134-1.931-3.25l.002-.212v-.053c.001-.023-.015.16-.007.073l.003-.019.005-.038.021-.15c.024-.205.053-.422.087-.467.031-.156.148-.426.257-.589.22-.368.562-.616.941-.783.375-.17.809-.224 1.1-.193.083-.001.12.024.178.026a.081.081 0 0 0 .033.015l.008.001h.003l-.078-.036.022.011.09.045c.109.057.255.124.326.168a.12.12 0 0 0 .068.051c.135.125.067.033.096-.006.028-.029.047.089.02.209-.054.258-.162.44-.112.393a1.249 1.249 0 1 0 1.809 1.725c.038-.052.351-.25.769-.911.191-.34.443-.84.428-1.62-.008-.388-.129-.813-.334-1.209a4.003 4.003 0 0 0-.371-.526 6.452 6.452 0 0 0-.446-.423 6.765 6.765 0 0 0-.544-.363c-.148-.081-.24-.119-.367-.182l-.09-.043-.023-.011-.102-.046-.022-.009-.088-.031-.358-.114c-.216-.042-.455-.095-.663-.101a5.24 5.24 0 0 0-2.552.463c-.835.373-1.688 1.021-2.24 1.951-.137.23-.271.466-.361.719a4.196 4.196 0 0 0-.258.815c-.085.333-.096.514-.118.709l-.018.151-.016.167.001.1.006.402a6.268 6.268 0 0 0 .971 3.135c.592.954 1.415 1.743 2.384 2.349.996.59 2.039 1.081 3.576 1.025 1.242-.202 2.292-.531 3.342-1.115 2.08-1.115 3.716-2.942 4.881-4.979.473-1.066 1.058-2.087 1.354-3.255.169-.565.376-1.15.507-1.704l.299-1.62.15-.81.037-.203.016-.097.001-.027.003-.055.007-.11.024-.44.09-1.761c.014-.583-.06-1.145-.086-1.715-.046-.565-.053-1.144-.148-1.687-.277-2.209-.701-4.333-1.068-6.341-.384-2.022-.66-3.953-.794-5.629-.042-.431.003-.926-.001-1.375l.013-.682.006-.337.001-.042a.759.759 0 0 0-.004.081l.003-.013.011-.052.018-.104c.104-.594.433-1.34.771-1.949.666-1.244 1.736-2.21 2.266-2.271.113-.04.238-.002.247-.001.009.024-.043-.047.043-.011l.372.241.091.059.011.007c-.28-.197-.074-.051-.135-.093l.012.012.023.023.096.092c.066.059.134.117.153.161.088.1.097.154.094.146-.015-.009-.011-.092-.013-.127.011-.025.013-.031.004-.028a1.58 1.58 0 0 1-.344.313c-.134.088-.25.157-.324.193l-.099.047-.08.038a1.557 1.557 0 1 0 1.386 2.789z"/>
        <path fill="#131F67" d="M36.989-70.73l1.575-1.941 1.692.152-2.708-9.672L34-72.927l1.588-.331z"/>
        <path fill="#FFF" d="M-13.612-11.103l-.003-.57c-.014-.228-.002-.508-.058-.811-.048-.303-.096-.656-.271-1.058-.165-.389-.46-.862-.986-1.148-.517-.297-1.137-.308-1.622-.171-.983.291-1.688.951-2.233 1.669-1.086 1.472-1.369 3.301-1.263 4.583.034.649.14 1.179.228 1.544l.147.571a.499.499 0 1 0 .968-.25l-.005-.016-.011-.037-.149-.504a7.127 7.127 0 0 1-.208-1.36 6.034 6.034 0 0 1 .219-1.903 5.07 5.07 0 0 1 1.013-1.882c.449-.551 1.09-.958 1.598-1.015.252-.031.416.028.495.105.077.081.128.216.163.393.034.171.04.383.015.571-.009.19-.063.341-.08.468l-.144.537a1.112 1.112 0 1 0 2.187.284zm-9.801 7.466l-.508-.323a106.46 106.46 0 0 0-.263-.176 1.065 1.065 0 0 1-.244-.189c-.114-.126-.305-.241-.433-.432-.123-.192-.29-.411-.324-.646-.017-.059-.047-.122-.059-.184l.01-.178-.002-.192.07-.174c.024-.059.035-.128.065-.188l.132-.158c.071-.128.206-.197.334-.281.256-.164.598-.253.945-.233.176-.026.352.031.528.074.179.035.359.075.52.18.164.09.336.163.493.263l.436.355c.309.208.494.546.729.798.244.249.363.578.528.835.33.521.458 1.039.597 1.372l.187.538.02.054a.5.5 0 1 0 .928-.376l-.261-.56-.285-.646c-.093-.256-.276-.512-.441-.807-.183-.286-.327-.624-.593-.921-.259-.297-.465-.663-.818-.935l-.498-.448c-.185-.133-.396-.243-.598-.366a2.337 2.337 0 0 0-.664-.292c-.235-.079-.47-.167-.732-.167a2.953 2.953 0 0 0-1.546.213c-.248.114-.497.228-.688.436l-.306.282c-.086.106-.151.229-.225.347l-.202.361-.098.39-.083.392c-.009.127.005.25.009.375-.008.52.162.927.297 1.328.148.392.395.704.57 1.013.1.166.183.27.252.35l.201.244.371.473.008.011a1.24 1.24 0 1 0 1.641-1.812zm-10.646 15.315c.001 0-.546.015-1.341.109-.4.05-.87.114-1.376.225-.507.1-1.051.255-1.606.468-.276.104-.558.254-.835.398-.277.201-.558.333-.812.626-.128.136-.256.258-.368.41a6.96 6.96 0 0 0-.289.527c-.188.342-.205.774-.253 1.133.017.338.077.648.135.924.065.263.162.42.229.586l.234.49a1.56 1.56 0 1 0 2.68-1.575l-.165-.231s-.034-.048-.113-.127c-.029-.035-.114-.098-.137-.135-.012-.03-.053-.062-.101-.101.025-.016-.073-.033-.052-.087a.257.257 0 0 0-.013-.095c.011-.043.05-.094.069-.149.017-.114.181-.242.275-.383.147-.129.293-.274.475-.402.36-.258.768-.505 1.18-.702.406-.207.811-.373 1.158-.511.705-.274 1.18-.41 1.181-.41a.504.504 0 0 0-.155-.988z"/>
        <path fill="#E2CF00" d="M17.176-34.023l-.497-.79-1.09-1.667-.547-.858a17.816 17.816 0 0 0-.426-.709c-.073-.104-.087-.185-.135-.257l-.102-.185c-.057-.102-.097-.156-.097-.156l-.224-.298a1.57 1.57 0 0 0-2.201-.314 1.577 1.577 0 0 0-.37 2.124l.175.266.212.298c.08.109.179.256.287.358.219.22.464.499.758.738.294.229.585.501.917.709a15.61 15.61 0 0 0 1.816 1.1c.518.265.88.408.88.408l.006.002a.525.525 0 0 0 .638-.769zm3.339.847l-.063-.277c-.046-.166-.089-.412-.169-.697-.143-.554-.331-1.292-.52-2.031-.076-.355-.162-.707-.234-1.023-.047-.316-.128-.601-.168-.842-.04-.459-.122-.75-.122-.75l-.081-.288a1.632 1.632 0 0 0-3.187.68s.07.479.259 1.176c.123.324.268.69.444 1.075.188.372.425.739.652 1.106.261.344.505.694.774.989.263.299.531.56.762.777.223.221.449.385.593.505.149.119.238.17.239.17l.03.018a.537.537 0 0 0 .791-.588zm2.277.29s.179-.393.391-.983c.195-.59.454-1.377.621-2.165.187-.788.31-1.576.348-2.167.039-.592.006-.986.006-.986a1.794 1.794 0 0 0-3.575-.045v.014s-.043.395-.02.986c.024.592.128 1.382.295 2.173.147.791.387 1.582.568 2.175.196.594.365.99.365.99a.547.547 0 0 0 1.001.008zm1.876.294s.384-.229.907-.638c.514-.41 1.18-.984 1.76-1.652.306-.318.568-.694.821-1.032.245-.351.441-.733.606-1.046.085-.146.145-.346.194-.497l.128-.407c.07-.227.095-.359.095-.359a1.768 1.768 0 0 0-3.278-1.198l-.247.442s-.036.063-.072.179c-.019.058-.039.129-.063.21-.034.084-.026.166-.083.294-.048.12-.085.255-.131.398-.054.143-.069.296-.14.463-.121.333-.214.697-.342 1.075l-.364 1.123c-.106.372-.212.721-.312 1.017-.173.604-.282 1.03-.282 1.03a.541.541 0 0 0 .803.598zm3.806-.657s.386-.152.93-.446c.549-.284 1.235-.726 1.907-1.219.335-.246.643-.541.947-.796.3-.274.543-.579.771-.82.221-.267.371-.541.489-.711l.172-.283a1.42 1.42 0 0 0-2.393-1.527l-.152.228c.001 0-.162.243-.378.659-.14.216-.311.457-.479.744l-.619.882c-.434.611-.896 1.229-1.243 1.702l-.573.802a.52.52 0 0 0 .611.788l.01-.003z"/>
        <path fill="#131F67" d="M-.683-39.341l5.44 5.825-5.687 5.051-5.442-5.361z"/>
        <path fill="none" stroke="#131F67" stroke-miterlimit="10" d="M56.054-7.785l-6.106 4.339m6.106.061L49.948.954m6.106.061l-6.106 4.339m6.106.061l-6.106 4.338m6.106.061l-6.106 4.339m6.106.061l-6.106 4.339m6.106.061l-6.106 4.339m6.106.061l-6.106 4.339m6.106.061l-6.106 4.339m6.106.061l-6.106 4.339m6.106.061l-6.106 4.339m6.106.061l-6.106 4.339m6.106.061l-6.106 4.339m6.106.061l-6.106 4.338m6.106.061l-6.106 4.339m6.106.061l-6.106 4.339m6.106.061l-6.106 4.339"/>
        <path fill="#131F67" d="M26.523-79.195l1.576-1.941 1.691.152-2.708-9.672-3.548 9.264 1.588-.331zm-10.312 7.222l1.575-1.94 1.692.152-2.708-9.673-3.548 9.265 1.588-.331zM5.612-60.024l1.576-1.94 1.691.152-2.708-9.673-3.548 9.265 1.588-.331z"/>
        <path fill="none" stroke="#131F67" stroke-width="2" stroke-linecap="round" stroke-miterlimit="10" d="M-32.37 54.399c5.287 4.835 11.537.023 11.537.023"/>
        <path fill="none" stroke="#131F67" stroke-miterlimit="10" d="M-32.667 53.421c6.709-4.205 12.438.285 12.438.285m-23.89-27.095s-26.045-7.629-50.168-28.717"/>
        <path d="M27.561-31.707l6.215-4.078 8.541.439s-5.148 1.705-3.02 7.849c-1.462 7.877 3.808 10.85 6.946 11.639 2.765.695 10.276.205 10.276.205l-.274 6.614-12.22-.5s-.045 12.503-.279 26.72C26.662-6.644 27.561-31.707 27.561-31.707z"/>
        <path fill="none" stroke="#131F67" stroke-miterlimit="10" d="M57.435-17.561s2.764-1.768 1.979-4.009c.214-.882 1.659-1.852.219-4.007.368-.922 1.097-1.553-.772-3.716 1.404-3.035-3.86-4.347-3.86-4.347s-3.212-.378-3.506.455.694 2.319 1.673 2.67c-1.403-.078-2.384.232-2.722.952-.249.529.604 1.769.37 2.305-.199.458-1.102.97-1.155 1.467-.073.674.256 1.433 1.307 1.861-.911.246-1.187.727-1.431 1.108-.262.409.053 1.453.053 1.453s-2.275.367-2.321-.227c-.209-2.69-3.102-6.44-3.102-6.44l1.782.327.409-6.916s-2.216-.766-2.982-.899c-1.277-.221-5.791.572-4.078 8.027-1.63 7.379 5.319 11.081 5.319 11.081s7.674.923 10.885.47c1.424-.725 1.604-1.486 1.604-1.486l.329-.129z"/>
        <path fill="none" stroke="#131F67" stroke-miterlimit="10" d="M49.41-21.345c.922 1.49 2.256-.025 2.256-.025l.417-2.75s.459-2.239 0-3.167c.65-.947 1.428-2.615 1.428-2.615s1.35-2.021 1.35-3.521M51.5-15.946s.081-1.926.417-2.256c.926-.909 5.586.05 5.586.05M51.5-21.224c4.85.714 6.003 2.833 6.003 2.833m-6.536-5.54c3.198-.729 8.169 2.071 8.169 2.071m-8.321-5.399c2.75-1.479 8.817 1.682 8.817 1.682m-5.844-5.29c1.566 0 5.321 1.93 5.321 1.93"/>
        <path fill="#D40000" stroke="#131F67" stroke-miterlimit="10" d="M48.979-78.962l13.844 10.174-.472 54.086h-2.105l-2.812-2.859s2.816-2.558 1.979-4.009c1.413-2.216.634-3.094.219-4.007 1.194-2.01-.687-2.525-.523-3.359.762-3.901-2.909-5.18-6.058-5.965 4.784-8.758-4.049-9.624-4.049-9.624l-.023-34.437z"/>
        <path fill="none" stroke="#000" stroke-miterlimit="10" d="M-13.798 15.989V8.355m-6.591 12.451v-7.634m12.554-1V4.538M-1.883 1v7.634m5.612 3.538V4.538m6.049 11.73V8.634m5.799 11.881v-7.634m5.688 11.31v-6.422"/>
        <path d="M16.739-26.436l-1.864.169s1.52 2.576 1.726 4.847c.041.449-.225.358-.291.029-.25-1.239-1.418-2.602-3.307-2.354-2.299.301-2.937 2.132-2.805 3.579.097 1.075.858 3.213 3.254 3.086.762-.041 1.425-.337 1.798-.72.275-.283.427-.143.144.245-.199.271-1.144 1.259-.938 3.033.391 3.344 3.593 3.055 3.593 3.055s3.203-.292 2.984-3.652c-.116-1.783-1.224-2.583-1.468-2.815-.349-.331-.225-.495.098-.267.436.309 1.141.482 1.897.385 2.38-.306 2.743-2.546 2.646-3.621-.131-1.447-1.088-3.134-3.403-3.016-1.902.097-2.806 1.648-2.829 2.912-.006.335-.25.473-.291.024-.206-2.271.824-5.079.824-5.079l-1.863.169m8.668 34.739l-1.571 1.017s2.543 1.574 3.78 3.488c.246.379-.032.422-.244.161-.797-.98-2.465-1.644-4.021-.547-1.896 1.335-1.609 3.253-.82 4.473.586.907 2.254 2.446 4.316 1.22.655-.39 1.104-.961 1.257-1.474.112-.378.312-.325.241.15-.051.333-.428 1.646.58 3.121 1.9 2.78 4.601 1.035 4.601 1.035s2.7-1.747.944-4.621c-.932-1.524-2.283-1.718-2.607-1.81-.463-.131-.43-.334-.038-.282.529.071 1.234-.103 1.859-.542 1.964-1.377 1.245-3.529.658-4.436-.788-1.22-2.42-2.269-4.415-1.088-1.639.97-1.718 2.763-1.151 3.893.151.3-.001.535-.247.157-1.237-1.915-1.631-4.88-1.631-4.88l-1.57 1.016m30.488-52.754l-1.31-.072s.998-1.843 1.086-3.438c.017-.316-.168-.245-.206-.013-.143.874-.927 1.858-2.255 1.733-1.618-.152-2.111-1.418-2.057-2.435.041-.755.52-2.272 2.201-2.245.534.009 1.006.201 1.277.459.2.191.303.089.095-.175-.147-.185-.834-.853-.734-2.1.188-2.353 2.438-2.231 2.438-2.231s2.25.123 2.184 2.482c-.037 1.251-.791 1.84-.956 2.008-.236.241-.146.353.074.185.297-.228.786-.367 1.319-.318 1.674.154 1.987 1.713 1.945 2.468-.055 1.017-.683 2.222-2.307 2.2-1.334-.02-2.007-1.083-2.056-1.967-.012-.236-.187-.326-.204-.01-.086 1.596.706 3.536.706 3.536l-1.31-.071m.07-15.363l-1.31-.072s.998-1.843 1.086-3.438c.017-.316-.168-.245-.206-.013-.143.874-.927 1.858-2.255 1.733-1.618-.152-2.111-1.418-2.057-2.435.041-.755.52-2.272 2.201-2.245.534.009 1.006.201 1.277.459.2.191.303.089.095-.175-.147-.185-.834-.853-.734-2.1.188-2.353 2.438-2.231 2.438-2.231s2.25.123 2.184 2.482c-.037 1.251-.791 1.84-.956 2.008-.236.241-.146.353.074.185.297-.228.786-.367 1.319-.318 1.674.154 1.987 1.713 1.945 2.468-.055 1.017-.683 2.222-2.307 2.2-1.334-.02-2.007-1.083-2.056-1.967-.012-.236-.187-.326-.204-.01-.086 1.596.706 3.536.706 3.536l-1.31-.071m-77.63 48.639a1.82 1.82 0 1 0-3.64 0 1.82 1.82 0 0 0 3.64 0zm9.52-20.96a2.945 2.945 0 1 0-5.89.001 2.945 2.945 0 0 0 5.89-.001zm30.51 30.376a3.103 3.103 0 1 1 6.207 0 3.103 3.103 0 0 1-6.207 0z" fill="#FFF"/>
        <path fill="none" stroke="#FFF" stroke-miterlimit="10" d="M16.216-1.707a4.938 4.938 0 1 1 9.876 0 4.938 4.938 0 0 1-9.876 0z"/>
        <path fill="none" stroke="#131F67" stroke-miterlimit="10" d="M-1.917-33.903a3.7 3.7 0 1 0-7.4.002 3.7 3.7 0 0 0 7.4-.002zm10.077.262a3.7 3.7 0 1 0-7.4.002 3.7 3.7 0 0 0 7.4-.002z"/>
        <path fill="none" stroke="#131F67" stroke-miterlimit="10" d="M2.892-39.341a3.7 3.7 0 1 0-7.4.002 3.7 3.7 0 0 0 7.4-.002z"/>
        <path fill="#FFF" stroke="#131F67" stroke-miterlimit="10" d="M2.322-33.903a3.13 3.13 0 1 0-6.262.002 3.13 3.13 0 0 0 6.262-.002z"/>
        <path fill="#E2CF00" d="M43.722-10.904c-.015-.073.007.116-.033.082-.03.005-.084-.026-.132-.04-.044-.017-.114.005-.199.027-.082.028-.177-.036-.046-.155l.01-.011.004-.006.002-.001c-.052.017.116-.041-.115.038l.011-.005.087-.039.178-.079c.037-.011-.026-.018.031-.043.12-.041.275-.099.479-.107.395-.034.91-.013 1.469.058 1.121.164 2.41.487 3.734.821 1.334.313 2.715.642 4.128.821 1.407.159 2.879.126 4.184-.25l.12-.033.03-.008.139-.06.044-.016.171-.06c.06-.004.353-.16.57-.286.442-.262.76-.547 1.07-.919.6-.756.811-1.634.852-2.241a5.291 5.291 0 0 0-.081-1.377 2.844 2.844 0 0 0-.166-.575 2.514 2.514 0 0 0-4.534 2.169c-.028-.058-.035-.122-.001-.128.028-.017.087-.008.131-.05.045-.033.138-.178.269-.265.067-.05.087-.017.152-.027.027-.003.133-.017-.029.071l-.153.097-.039.025-.01.006-.005.003.111-.05-.014.008-.054.031c-.55.369-1.442.597-2.514.567-1.073 0-2.296-.258-3.524-.63-1.242-.347-2.49-.817-3.801-1.191-.656-.195-1.332-.375-2.078-.461a7.388 7.388 0 0 0-1.18-.053c-.209.006-.53.06-.746.099l-.191.034-.094.017-.262.087c-.798.243-1.639.767-2.182 1.458a4.854 4.854 0 0 0-.956 1.958c-.132.562-.16.991-.161 1.304-.009.275.053.626.037.554a2.707 2.707 0 1 0 5.287-1.169zM11.983-46.328a1.552 1.552 0 1 0-3.105 0 1.552 1.552 0 0 0 3.105 0zm5.938-.971a1.552 1.552 0 1 0-3.105 0 1.552 1.552 0 0 0 3.105 0zm5.969-.31a1.552 1.552 0 1 0-3.105 0 1.552 1.552 0 0 0 3.105 0zm5.937.31a1.552 1.552 0 1 0-3.105 0 1.552 1.552 0 0 0 3.105 0zm5.947.846a1.552 1.552 0 1 0-3.105 0 1.552 1.552 0 0 0 3.105 0zm-12.041-6.77a1.552 1.552 0 1 0-3.105 0 1.552 1.552 0 0 0 3.105 0zm0-6.105a1.552 1.552 0 1 0-3.105 0 1.552 1.552 0 0 0 3.105 0z"/>
        <path fill="#E2CF00" stroke="#131F67" stroke-miterlimit="10" d="M45.25-39.203c0 2.654 2.151 4.805 4.806 4.805s4.805-2.151 4.805-4.805a4.805 4.805 0 1 0-9.611 0z"/>
        <path fill="#131F67" d="M-23.275 33.367c-.528.346.3 2.118.88 2.369.814.353 3.271 1.134 4.257 1.025.581-.064 1.202-.787 1.786-.769.417.013 1.129.586 1.543.641 1.083.143 3.102-.19 4.333-.569.741-.228 1.7-2.961.925-2.961-.614 0-2.062.929-2.802.985-.981.074-2.911-.555-3.896-.58-.971-.025-2.709.33-3.866.372m-9.656 22.794s.875-3.46 2.628-3.46c1.56 0 2.612 3.506 2.612 3.506"/>
        <path fill="none" stroke="#131F67" stroke-miterlimit="10" d="M-23.189 56.201c-.894-5.081-6.019-7.315-7.702.473"/>
        <path fill="#131F67" d="M-9.507 56.942s.875-3.46 2.628-3.46c1.56 0 2.612 3.506 2.612 3.506"/>
        <path fill="none" stroke="#131F67" stroke-miterlimit="10" d="M-3.132 56.72c-.662-5.407-5.659-7.235-7.382-.27"/>
        <path fill="#E2CF00" d="M-27.353 80.285c.016 1.626 2.603 2.301 2.716.255.044-.791-.801-2.304-.801-2.304s-1.922 1.229-1.915 2.049zm18.019 1.226c.341 1.59 3.009 1.733 2.712-.293-.115-.784-1.245-2.097-1.245-2.097s-1.639 1.587-1.467 2.39zm17.751-.914c.347 1.589 3.017 1.724 2.711-.302-.117-.783-1.252-2.093-1.252-2.093s-1.633 1.594-1.459 2.395z"/>
    </symbol>
    <use xlink:href="#king-clubs" width="157.942" height="182.904" x="-94.616" y="-90.656" transform="matrix(-1 0 0 1 99.041 195.053)" overflow="visible"/>
    <use xlink:href="#king-clubs" width="157.942" height="182.904" x="-94.616" y="-90.656" transform="matrix(1 0 0 -1 130.708 124.322)" overflow="visible"/>
    <use xlink:href="#clubs_4_" width="22.179" height="23.691" x="-11.089" y="-11.846" transform="matrix(1 0 0 -1 19 61)" overflow="visible"/>
    <use xlink:href="#clubs_4_" width="22.179" height="23.691" x="-11.089" y="-11.846" transform="translate(209.5 252)" overflow="visible"/>
    <use xlink:href="#face-frame" width="161.544" height="259.519" x="-80.771" y="-129.759" transform="matrix(1 0 0 -1 115.183 160)" overflow="visible"/>
    <use xlink:href="#clubs-medium" width="44.409" height="47.437" x="-22.204" y="-23.719" transform="matrix(1 0 0 -1 64.378 63.13)" overflow="visible"/>
    <use xlink:href="#clubs-medium" width="44.409" height="47.437" x="-22.204" y="-23.719" transform="translate(166.231 257.004)" overflow="visible"/>
    <path fill="none" d="M1.947 12.255h33.41v39.516H1.947z"/>
    <text transform="translate(6.621 43.759)" font-family="'ArialNarrow'" font-size="44">
        K
    </text>
    <path fill="none" d="M193.59 261.774H227v39.516h-33.41z"/>
    <text transform="rotate(180 111.163 134.893)" font-family="'ArialNarrow'" font-size="44">
        K
    </text>
</svg>
