<svg xmlns="http://www.w3.org/2000/svg" xmlns:xlink="http://www.w3.org/1999/xlink" viewBox="0 0 227 315">
    <symbol id="diamonds" viewBox="-8.447 -11.626 16.895 23.251">
        <path fill="#D40000" d="M0 11.625S4.224 4.051 8.447 0C4.224-4.454 0-11.626 0-11.626S-4.224-4.454-8.447 0C-4.224 4.051 0 11.625 0 11.625z"/>
    </symbol>
    <symbol id="diamonds-medium" viewBox="-16.914 -23.279 33.828 46.555">
        <use xlink:href="#diamonds" width="16.895" height="23.251" x="-8.447" y="-11.626" transform="scale(2.0023)" overflow="visible"/>
    </symbol>
    <symbol id="face-frame" viewBox="-80.771 -129.759 161.544 259.519">
        <path fill="none" stroke="#131F67" stroke-width="3" stroke-miterlimit="10" d="M79.272-128.259H-79.271V128.26H79.272z"/>
    </symbol>
    <symbol id="king-diamonds" viewBox="-79.585 -94.049 159.17 188.097">
        <path d="M-79.205-48.859l.062 10.562S-59.125-26.526-47.509.245c6.085 2.677 8.472 3.732 8.472 3.732l1.448-2.701s-10.67-36.897-41.616-50.135z"/>
        <path stroke="#000" stroke-miterlimit="10" d="M34.541-7.92s2.134 6.391 5.362 10.808c4.829-6.373 22.765-29.721 22.765-29.721l-8.09-7.542L34.541-7.92z"/>
        <path fill="#E2CF00" stroke="#000" stroke-miterlimit="10" d="M20.129-2.037l-2.341-5.645 8.619-.158 1.832 5.283z"/>
        <path d="M49.331 15.752l7.933 8.279 22.321-22.02-.545-18.327-4.102-1.872zM11.312-34.629H-9.229l.291 19.683 25.801.11 6.497-11.726-11.04.069z"/>
        <path fill="#E2CF00" stroke="#000" stroke-miterlimit="10" d="M-43.531 15.831s17.094-23.269 18.548-47.187c2.466-40.557-25.2-62.182-25.2-62.182l-4.868.321s29.291 19.109 26.556 62.108C-30.201-4.3-46.129 14.285-46.129 14.285l2.598 1.546z"/>
        <path fill="#D40000" stroke="#000" stroke-miterlimit="10" d="M-78.983-13.766l-.096-13.169s4.579 2.517 9.326 8.902S-62.444-7.19-62.444-7.19l-16.539-6.576z"/>
        <path fill="#E2CF00" stroke="#000" stroke-miterlimit="10" d="M-53.524-3.007s-3.839-10.034-10.327-17.216-14.981-12.741-14.981-12.741l.065-4.958s12.885 9.886 17.681 15.562C-55.329-15.547-47.922-.439-47.922-.439l-5.602-2.568zm38.423 17.48l2.577.787 2.8-7.844-2.803-1.11zm3.416 1.042l2.708-7.779 2.497 1.018-2.828 7.724z"/>
        <path d="M20.499-4.776l3.431 1.984 2.153-2.702-3.798-1.796z"/>
        <path fill="#E2CF00" stroke="#000" stroke-miterlimit="10" d="M-9.769-6.444S-2.378-3.886 5.025 1.1s10.041 9.792 10.041 9.792l12.125-.209 4.935 8.209-21.426.101s-3.324-5.519-8.438-9.665-13.905-7.313-13.905-7.313l1.874-8.459z"/>
        <path fill="#E2CF00" stroke="#000" stroke-miterlimit="10" d="M27.191 10.683l4.935 8.209 9.563-.223-6.465-8.373zm-.696-.389l-2.878-5.426 8.179-.383 3.428 5.811zM20.129-2.037l8.11-.52 3.557 7.042-8.179.383zm-2.341-5.645l-1.848-7.969 8.107-.4 2.36 8.211zm5.125-17.181l1.134 8.812-7.367.046zm16.99 27.751l1.655 2.424 23.507-30.698-2.397-1.447zM34.541-7.92l-1.209-3.19L52.59-36.386l1.988 2.011zm-53.679 21.958s5.443-12.237 6.53-25.881-.391-31.084-.391-31.084h3.006s2.512 21.146.763 31.084-6.349 26.523-6.349 26.523l-3.559-.642z"/>
        <path fill="#E2CF00" d="M-8.487-31.665l-.451-5.928h5.586v5.928zm5.135 5.201h7.825v-5.201h-7.825zm13.944-5.201H4.473v-5.928h5.643zM-3.352-42.794h7.825l-.24 5.201h-7.375z"/>
        <path fill="#E2CF00" stroke="#131F67" stroke-miterlimit="10" d="M-33.777 93.458l85.101.089-14.822-27.796s-1.686-5.569-30.895 4.64c-15.729 5.497-29.826 2.803-29.826 2.803l-9.722 20.574"/>
        <path fill="#131F67" d="M-67.191 8.576c1.271.42 1.091 1.854 3.176 3.26.363.245 2.508 1.696 2.357 2.365-.221.979-4.335-2.959-4.785-3.509-.366-.445-1.951-2.512-.748-2.116z"/>
        <path fill="#131F67" d="M-53.494 13.854c-.376 1.462-.498 2.844-.335 4.348.096.88.746 2.599.37 3.417-.498 1.084-2.022.36-2.788-.027-.896-.453-1.896-1.182-2.299-2.143-.157-.374-.106-1.275-.662-1.286-.877-.019-1.908 2.954-2.12 3.347a27.228 27.228 0 0 1-.999 1.664c-.617.971-1.405 2.617-2.426 3.2-1.281.731-1.989-.323-3.075-.584-.944-.227-1.277.841-2.336.673-.68-.107-1.142-.251-1.537-.849-.352-.531-.113-1.121-.409-1.618-.305-.512-1.15-.666-1.551-1.196-.492-.652-.495-1.455-.5-2.244-.003-.541.079-1.146-.032-1.674-.138-.658-.629-1.188-.841-1.839-.677-2.065.133-4.312 1.123-6.142 1.037-1.915 1.909-3.597 2.983-5.494.948-1.675 1.936-3.142 2.635-5.142l16.38 9.545c-.346 1.108-1.279 2.873-1.581 4.044zm-3.031 6.669c.109.41.728.744 1.116.72 1.228-.075 1.11-3.15.093-3.25-.94-.093-.627 1.132-.885 1.747-.184.44-.465.262-.324.783zm2.806-10.495c-.254-.57-1.377-1.137-1.86-1.444-.747-.477-1.489-1.049-2.265-1.474-2.596-1.424-5.131-2.954-7.722-4.376-1.224-.672-2.067-.966-2.91.303-.597.897-1.238 1.782-1.808 2.703-.961 1.552-1.75 3.243-2.483 4.903-.599 1.354-1.322 2.847-1.771 4.266-.193.613-.271 2.721 1.045 1.948.878-.515.99-1.467.788-2.375-.027-.123-.26-.702-.274-.824.289-.096.916-.043 1.037-.165.986-.993.36-1.372.49-1.878.15-.584.078-.367.343-.436.108-.028.237.291.458.233.243-.063.264-.395.375-.575.248-.404.395-1.078 1.004-.879.456.149.544.809.409 1.162-.187.486-.936 1.002-1.245 1.422-.471.642-.852 1.396-1.289 2.061-.826 1.255-1.345 2.59-1.932 3.963-.516 1.205-.955 3.025.554 3.769 1.267.625 1.548-1.674 2.115-2.547.298-.458.693-.938.885-1.464.186-.508.001-.854.073-1.34.106-.706 1.218-1.262 1.634-2.105.358-.729.352-2.732 1.376-2.314 1.629.666-.158 1.918-.63 2.628-.607.915-.308 1.396-.048 2.333.204.732.233.737-.418.958-.73.249-1.435.191-1.78 1.148-.278.772.226 1.273.454 1.946-.483.274-.922.008-1.37.424-.39.362-.662 1.155-.802 1.65-.389 1.374.804 2.326 2.018 1.634.689-.395.924-1.014 1.312-1.631.423-.673.838-1.193 1.14-1.942.569-1.416 1.275-2.787 1.803-4.211.252-.682-.017-2.789 1.155-2.584.277.049 1.11.928 1.17 1.2.136.615-.397.559-.741.957-.287.333-.654 1.219-.751 1.657-.106.48.254 1.021.073 1.312-.236.381-1.16.537-1.5 1.028-.422.608-.71 1.392-.959 2.087-.327.911-.426 2.476 1.083 2.208.545-.097.681-.485.978-.927.331-.49.716-.796 1.104-1.239 1.442-1.643 2.513-4.047 3.139-6.131a11.65 11.65 0 0 0 .446-2.251c.027-.3.2-.953-.254-.953-.241 0-.369.539-.623.62-.628-1.517-.834-2.812-2.125-3.996-.844-.774-2.54-2.209-2.826-3.323.665-.239 1.959 2.208 2.701 2.622.97-.771-.332-3.031.617-3.707.573.389.496 1.293.645 1.909.214.881.479 1.819.823 2.656.466 1.136 1.856 1.572 2.199 2.677.134.432-.141 6.717 1.552 5.837.362-.189.308-1.371.51-1.711.307-.517.649-.375 1.072-.671.964-.674.902-2.62 1.051-3.65.119-.825 1.094-2.338.755-3.101z"/>
        <path fill="none" stroke="#131F67" stroke-miterlimit="10" d="M-20.857 67.783c-.367-1.417-1.43-2.398-1.097-4.146.36-1.888 1.735-3.493 1.599-5.572-.167-2.57-1.756-5.654-2.568-8.143-.637-1.952-2.677-4.803-1.655-6.732 1.425-2.689 4.249-3.299 3.999-5.143-.699-5.16 2.922-8.453-5.364-13.955"/>
        <path fill="#131F67" d="M-12.34 63.242c5.301-.898 6.43-1.693 10.511-4.884.221-.173 1.598-1.075 1.129-1.542-.273-.273-2.798 1.285-3.259 1.471-1.976.793-3.782 1.654-5.875 2.15-1.406.332-2.869.321-4.318.427-1.158.084-2.345-.203-3.476-.083-.947.101-2.123 1.252-1.255 1.933 1.261.988 5.79.656 6.543.528zm-2.099-4.169c3.572.168 6.383-.843 8.752-2.26.335-.2 3.781-2.406 3.041-2.981-.502-.391-4.722 2.707-5.196 2.938-1.905.922-3.903 1.413-6.007 1.189-.35-.038-1.768-.426-2.092-.221-.704.445.277 1.278 1.502 1.335z"/>
        <path fill="#131F67" d="M-6.225 54.888c-1.768.946-3.924 2.155-5.968 2.246-1.225.055-2.146-.564-3.255-.185-.664.228-3.002 1.333-2.455.115.225-.499 1.307-1.146 1.538-1.697.286-.684-.382-1.854.056-2.246.621-.558.636 1.86 1.328 1.533.367-.174.271-1.188.361-1.583.125-.541.518-.569-.206-.789-.776-.235-1.011.228-1.645-.458-.521-.563-.958-1.109-.252-1.374.56-.21 1.152-.005 1.766-.272.69-.301 1.284-.627 1.87-1.115.996-.829 2.688-2.292 4.145-1.909-.448.643-1.343 1.038-2.002 1.474-.401.265-1.908 1.005-1.988 1.479-.145.85 1.594.717 2.159.894.554.173 1.375.44 1.91.616.571.188.994.546 1.563.718 1.085.328 3.367-.56 4.118.283-.581 1.048-2.025 1.725-3.043 2.27zm-6.211-2.639c-.037.761.749 2.472 1.621 1.991-.228-.821-.572-2.396-1.621-1.991zm4.165.731c-.257-.557-1.966-.721-2.416-.618.277.543.711 1.216.873 1.711.486-.12 1.806-.52 1.543-1.093zm-14.041-10.615c-.799 2.307 2.093 1.649 3.156.957.881-.574 2.401-1.545 3.512-.884 1.169.694.063 2.159-.471 2.947-.954 1.407 1.363.571 1.971-.895.685-1.651-.635-3.119-2.016-3.675-1.084-.437-2.869.109-3.736.76-.831.624-2.062-.233-2.416.79zm4-4.333c-.443.107.108 2.437 3.432 1.662 2.039-.476 3.498-2.171 5.583-2.561.806-.15 2.202.344 2.493 1.29.191.619-.141 1.144-.549 1.565-.328.34-.708.654-1.148.837-.531.221-1.135.136-1.261.415-.229.508.597.742.948.74 1.98-.009 3.522-1.444 3.46-3.384-.03-.923-.55-1.725-1.22-2.368-.537-.517-1.281-.805-2.01-.879-.676-.067-2.048.004-2.659.306-2.087 1.033-3.837 1.591-7.069 2.377zm-1.542-5.584c.899 1.067 1.683 1.345 2.958 1.157 1.062-.156 2.357-.249 3.301-.75.523-.276 2.254-2.061 2.15-.519-.057.839-.141 1.888-.521 2.429-.258.365-1.24-.393-1.978.021-.842.474-1.574 1.002-2.461 1.42-.859.404-1.41.66-2.388.658-.633-.001-1.381-.106-1.854.381-.79-.604.178-2.136.301-2.918.075-.474-.076-2.552.492-1.879z"/>
        <path d="M-31.163 87.004s1.568 1.245 3.44.337 1.756-2.752 1.756-2.752 2.776.615 3.738-2.146-2.251-3.532-2.251-3.532 1.618-1.645 4.134-1.029 4.209 2.222 4.209 2.222-3.538-1.569-4.001 1.588 3.504 3.287 3.504 3.287-2.217 4.897 2.533 5.051 2.621-4.648 2.621-4.648 3.609.04 3.244-2.829-3.257-2.642-3.257-2.642 1.115-2.071 4.391-2.066 4.548.605 4.548.605-2.827.335-2.354 3.242 4.033 2.003 4.033 2.003-1.066 5.118 3.021 4.47 1.698-5.234 1.698-5.234 3.95-.71 2.839-3.846-3.621-1.405-3.621-1.405.823-1.725 4.455-2.194 4.31.526 4.31.526-3.854.925-2.599 3.673 3.961.803 3.961.803-.546 5.466 4.124 3.872.652-5.287.652-5.287 3.598-1.036 2.141-3.713-4.191-1.207-4.191-1.207 1.688-2.665 4.503-2.942 4.052 1.069 4.052 1.069-3.02.745-2.378 3.574 3.513 2.477 3.513 2.477-.428 5.433 4.101 4.018.803-5.769.803-5.769 3.081-.726 2.611-2.895-3.061-2.166-3.061-2.166 1.044-.962 3.109-1.232 3.12 1.139 3.12 1.139-2.715 1.092-2.177 3.508 3.866 2.055 3.866 2.055-1.077 1.278 1.006 2.778 4.233-.328 4.233-.328l-4.318-8.218s-3.001-2.314-5.958-1.926-5.24 2.123-4.878 3.222 1.003 1.333 1.42 2.75-.793 1.672-1.459 1.836-1.769-.338-1.746-1.098.672-1.709.626-2.458-.427-1.429-1.674-2.104-2.159-1.321-4.281-1.124-5.255 1.592-5.767 3.457-.208 2.338.479 3.322 1.49 2.238-.062 2.844-1.939-1.016-1.746-2.174-.301-2.553-1.866-3.043-2.944-.535-4.468-.247-4.424 1.083-5.188 2.329-1.295 2.03-.812 2.993 2.204 2.951-.094 3.423-1.688-2.082-1.002-3.082-.895-1.69-1.336-1.968-3.914-1.79-6.087-1.442-6.048 2.242-6.438 4.092.505 1.597.668 2.881c.223 1.75-2.871 2.156-2.971-.033-.044-.967.99-1.268 1.062-1.979 0 0 .405-1.356-.831-2.48s-3.194-1.969-4.835-2.129-5.131 1.393-5.131 1.393l-5.686 8.528z"/>
        <path d="M-25.523 76.871s2.023-1.611 4.597-1.332 6.814 2.832 6.814 2.832 2.261-2.79 6.928-2.864S.281 76.953.281 76.953s3.197-2.844 6.941-4.052 6.403.207 6.403.207 3.192-3.568 6.451-4.355 7.097 1.695 7.097 1.695 2.143-2.564 5.31-2.665 5.333 1.107 5.333 1.107l-1.313-3.14s-3.038-2.5-12.32-.951-12.555 3.866-17.759 5.298-13.845 3.713-19.099 3.507-11.543-.411-11.543-.411l-1.305 3.678z"/>
        <path fill="#E2CF00" d="M-16.13 75.771l1.99 1.567 2.519-1.595zm13.815-.896l2.33 1.129 2.114-2.067zm15.443-2.735l2.81-3.002-5.786 2.194zm10.604-4.357l6.401-1.018-3.096 2.465zM40.021-6.488c1.794.587 2.795-.579 2.835-2.827s-.367-4.333.878-6.919 1.781-4.272 4.323-5.514 3.702-1.231 4.627-1.975 0-1.287 0-1.287-1.554-.628-1.266-1.726 1.198-2.542 1.995-2.549.87.481.581 1.126-.232 2.399.923 2.25 2.173-.523 2.606-2.312.661-2.987 1.685-1.709.845 2.959-.314 4.411-1.246 2.451-4.745 3.734-6.059 1.327-6.593 3.384-.619 3.08.208 3.346 1.558.62 2.187-.312 1.38-2.526 1.78-1.731.879 2.521-.602 3.343-1.87 1.358-3.05.996-2.457-1.391-2.457-1.391-.6 1.002-.492 2.667.27 3.187-1.439 5.634c0 0-1.964 1.952-3.67 2.991s-3.368.785-3.459 0 .222-1.762 1.08-1.739 1.257-.337.291-1.432-1.663-1.959-.656-2.84 1.985-1.898 2.637-.883-.844.854-.879 1.5.986 1.764.986 1.764z"/>
        <path fill="#131F67" d="M-16.375-9.878c-3.808 16.727-8.982 25.382-8.982 25.382l-11.923 4.094-2.584-1.646S-29.729 1.619-26.041-10.78c5.192-17.453 4.184-31.578 4.184-31.578h1.75l1.454 1.793 1.19-1.793h2.115c0-.001 1.847 19.855-1.027 32.48zM-32.55 16.56l5.803-2.758-.861-5.993-6.077 2.818 1.135 5.933zm3.643-14.303l1.38 5.158 4.744-2.467-1.34-5.388-4.784 2.697zm5.292-3.805l3.899-2.86-1.781-4.569-3.927 2.721 1.809 4.708zm.275-12.454l2.19 4.083 3.531-3.376-2.098-3.724-3.623 3.017zm3.8-4.03l3.166-3.025-1.999-3.925-3.214 2.959 2.047 3.991zm.982-21.818l-2.27 3.618 2.525 3.275 2.396-3.456-2.651-3.437zm.09 7.539l-2.517 2.849 2.554 3.476 2.649-3.117-2.686-3.208zm-24.441.038l6.451 9.394s1.271-3.353 1.376-8.35-.431-10.553-.431-10.553l-7.396 9.509z"/>
        <path fill="#131F67" d="M-35.104-5.22s-4.058-9.379-6.926-14.632-8.699-12.033-8.699-12.033l19.548-25.607s2.546 13.769 2.686 26.385S-35.104-5.22-35.104-5.22zm1.733-45.076L-47.35-32.517l11.852 18.361s3.984-8.106 4.232-18.155-2.105-17.985-2.105-17.985z"/>
        <path d="M-78.703-11.365l.06 5.943 32.563 19.313 6.281-8.581z"/>
        <path fill="#D40000" stroke="#000" stroke-miterlimit="10" d="M-38.06.515l2.991-5.333s-7.363-14.68-13.604-23.446c-10.915-15.333-30.033-25.095-30.033-25.095l-.198 4.613s17.871 9.09 26.598 21.375C-41.643-12.359-38.06.515-38.06.515z"/>
        <path d="M-9.163 1.147l-.829-3.961 3.848-1.048.813 3.82zM-4.485-.2l.977 4.025 3.841-.803-.668-3.94zm6.593 7.821L1.15 3.825l3.844-1.87.728 4.921zm4.045 4.002l.138-4.203 4.311.106-.314 4.307zm5.028 6.157l-.605-4.848 3.933-1.329.56 4.199zm8.038.491l2.907-3.23-2.793-3.181-3.057 3.133zm3.684-3.043l2.983 3.121 2.435-3.212-3.092-3.051zm7.478-2.568l2.554 4.02 4.338-.086-2.931-4.365zm-3.812-5.037l3.16 1.837 2.256-2.731-3.484-1.343zm.006-3.744L28.727.782l-2.94-2.363-2.396 2.788zm-8.517-15.33l3.27 2.282 2.782-2.691-3.465-2.157z"/>
        <path fill="#D40000" stroke="#000" stroke-miterlimit="10" d="M-9.229-6.988l.783-8.007 24.256.021s1.192 6.363 3.877 12.017 6.809 13.252 6.809 13.252l-11.224-.065S9.878 3.806 5.99 1.147-9.229-6.988-9.229-6.988zm3.586 16.169l-3.023 7.693s2.398.32 5.108 2.724 5.555 5.633 5.555 5.633.456-1.008 2.179-1.739 3.322-1.069 3.322-1.069-3.062-4.488-5.5-7.355C-.81 11.765-5.643 9.181-5.643 9.181z"/>
        <path fill="none" stroke="#131F67" stroke-miterlimit="10" d="M55.049 38.774s-10.32 8.526-9.527 20.301 9.591 19.557 9.591 19.557.439-5.761 3.868-9.382 7.031-5.425 7.031-5.425l-.447-10.643s-2.938-.142-6.902-4.564-3.614-9.844-3.614-9.844z"/>
        <path d="M55.534 74.989s-7.098-5.457-6.646-16.849 6.337-15.023 6.337-15.023.392 1.984 3.437 5.501 4.163 3.822 4.163 3.822-1.688 2.331-1.718 6.669 1.718 6.406 1.718 6.406-2.609 1.281-4.327 3.622-2.964 5.852-2.964 5.852z"/>
        <path fill="#D40000" stroke="#000" stroke-miterlimit="10" d="M42.208 6.115l5.791 7.457 24.668-33.247-7.602-5.711z"/>
        <path fill="none" stroke="#131F67" stroke-miterlimit="10" d="M-12.643 5.431s8.391 2.352 13.032 7.05 8.219 10.098 8.219 10.098l48.447 1.236M-78.742-5.136l44.245 26.347"/>
        <path fill="#E2CF00" stroke="#000" stroke-miterlimit="10" d="M65.476 16.867l.527 57.821 12.69 13.284.103-5.831-8.873-9.229.232-60.805z"/>
        <path fill="#D40000" stroke="#000" stroke-miterlimit="10" d="M79.007 3.156l-.454 78.535-8.323-9.341.294-60.747z"/>
        <path fill="none" stroke="#131F67" stroke-miterlimit="10" d="M-79.079-13.469l39.468 17.145"/>
        <path fill="#131F67" d="M-77.43-28.033l1.102-1.533 1.522 1.108-1.099 1.535zm2.431 1.821l1.187-1.473 1.458 1.197-1.183 1.472zm2.112 1.745l1.092-1.196 1.463 1.196-1.167 1.282zm2.191 2.051l1.357-1.31 1.299 1.368-1.356 1.309zm2.063 2.209l1.43-1.224 1.216 1.44-1.43 1.223zm1.886 2.271l1.48-1.167 1.159 1.497-1.48 1.166zm1.662 2.171l1.552-1.072 1.058 1.569-1.551 1.066zm1.514 2.265l1.599-.993.989 1.61-1.6.995zm1.434 2.285l1.628-.947.94 1.641-1.627.947zm1.41 2.563l1.628-.947.941 1.641-1.628.945zm1.285 2.725l1.744-1.134 1.144 2.056-1.945.476z"/>
        <path fill="#E2CF00" d="M59.633 50.702l2.335 1.847s-1.662 2.96-1.573 6.692 1.272 6.207 1.272 6.207l-2.313 1.896s-2.25-3.168-2.081-8.103 2.36-8.539 2.36-8.539zm-4.408 23.454s-5.857-5.625-5.857-15.133 5.599-15.141 5.599-15.141l.951 1.434s-4.696 5.281-4.696 13.736S55.92 72.44 55.92 72.44l-.695 1.716z"/>
        <path fill="#E2CF00" d="M56.027 71.399s.594-.606.55-.766-1.078-.486-1.254-.114.704.88.704.88zm1.315-5.142s-1.9 1.905-1.699 2.35 1.472 1.521 1.894.978l1.044-1.344-1.239-1.984zm-.478-1.334s-2.625.25-2.754-.87 2.199-2.629 2.199-2.629l.555 3.499zm-2.426 3.055s1.429-1.438 1.189-1.769-2.035-1.107-2.383-.796 1.194 2.565 1.194 2.565zm-1.692-4.394s-.942-3.055-.562-3.832 2.296 1.079 2.296 1.672-1.734 2.16-1.734 2.16zm3.466-3.138s-2.595-.243-2.778-1.743 3.058-1.737 3.058-1.737l-.28 3.48zm-4.118-2.93l.662-3.268s2.316 1.637 1.724 2.101-2.189 1.834-2.386 1.167zm5.511-5.334l-1.114 4.292s-2.891-2.095-2.386-3.31 3.5-.982 3.5-.982zm-4.35-.171l1.704-3.456s1.545 1.61 1.241 2.327-2.335 1.985-2.945 1.129zm4.717-1.239c-.826.152-2.598-2.464-1.48-3.174s3.362 2.828 1.48 3.174zM-77.776-38.76s4.206-2.982 5.17-2.166 1.235 6.062.256 6.096-5.426-3.93-5.426-3.93zm7.444 5.128s4.108-2.333 5.247-1.145-.848 5.319-1.335 5.058-4.048-2.769-3.912-3.913zm5.884 5.997s4.966-1.23 5.781-.559-1.199 4.869-1.454 5.009-4.327-4.45-4.327-4.45zm5.94 6.635s4.521-1.388 5.428-.431-1.925 5.227-2.259 5.157-3.097-3.681-3.169-4.726zm4.652 6.877s5.171-.205 5.505.654-1.666 4.9-2.604 4.661-3.211-5.136-2.901-5.315zm4.083 8.052s4.863.513 5.091 1.175-2.144 3.965-2.654 3.704-2.437-4.879-2.437-4.879zm3.572 5.297l1.368.692s.628-1.654 1.44-1.466.846 2.363.846 2.363l1.593.73s-.756-5.536-1.881-5.574-3.366 3.255-3.366 3.255zm-3.928-6.631c2.206-1.572 1.814-4.913 3.211-5.465.924-.365 4.324 5.839 2.412 6.556-1.386.519-1.695-.875-5.623-1.091zm-4.087-8.265c2.03-1.792 1.295-5.074 2.627-5.769.881-.459 4.905 5.36 3.078 6.271-1.323.66-1.776-.695-5.705-.502zm-5.007-6.674c1.763-2.057.579-5.205 1.803-6.077.809-.577 5.601 4.629 3.917 5.783-1.219.837-1.855-.442-5.72.294zm-5.834-6.373c1.594-2.19.164-5.235 1.314-6.201.761-.64 5.951 4.169 4.364 5.453-1.147.932-1.884-.293-5.678.748zm-6.026-5.765c1.059-2.492-1.02-5.138-.116-6.338.597-.794 6.737 2.723 5.479 4.331-.908 1.166-1.902.138-5.363 2.007zm-6.855-5.999l-.046-1.532s1.764.135 1.939-.682c.175-.815-1.78-1.769-1.78-1.769l.017-1.754s4.689 3.038 4.246 4.072c-.445 1.036-4.376 1.665-4.376 1.665z"/>
        <path fill="#D40000" stroke="#000" stroke-miterlimit="10" d="M-23.099 70.538s5.448 1.999 17.248-.106 17.333-6.083 26.75-7.75 15.711.364 15.711.364 1.494-1.017.13-2.87-9.211-2.581-16.99-.263-15.641 6.183-23.663 7.329-17.2.679-18.354.732-.832 2.564-.832 2.564z"/>
        <path fill="#D40000" stroke="#000" stroke-miterlimit="10" d="M-23.194 70.89s-2.227.899-1.024 2.304 11.129 1.005 16.111.264S15.65 66.515 22.9 65.099s13.603.653 13.603.653 1.703-.761.364-1.873-4.226-4.017-14.417-1.44-21.002 7.96-30.953 8.415-14.691.036-14.691.036z"/>
        <path fill="none" stroke="#131F67" stroke-miterlimit="10" d="M-18.121 27.08s-3.896-4.479-6.563-5.562-4.917-2.75-7.167.25 1.375 3.837 2.071 3.618 3.727-3.18-.321-4.451"/>
        <path fill="none" stroke="#131F67" stroke-miterlimit="10" d="M-14.176 27.478s-6.979-11.4-14.009-10.293-6.757 4.778-6.167 6.916 2.833 4.331 5.334 3.25 2.168-5.82 2.168-5.82m16.401 6.345s-4.707-10.537-14.596-13.072"/>
        <path fill="none" stroke="#131F67" stroke-miterlimit="10" d="M-7.434 27.604s-3.568-7.748-8.909-11.917-6.961-.339-6.961-.339m18.718 12.036s-5.767-13.373-12.266-12.077m15.58 12.709s-4.683-12.794-9.802-10.432M7.695 28.828s.288 2.44-2.212 2.023-3.165-3.421-.999-4.544 5.084-.445 6 2.091.122 7.527-2.065 14.319-4.461 11.208-6.3 22.722"/>
        <path fill="none" stroke="#131F67" stroke-miterlimit="10" d="M4.424 64.717s8.02-26.969 8.977-29.772.197-11.511-6.298-11.407-5.905 4.02-6.075 6.249 4.385 7.327 9.828.979"/>
        <path fill="none" stroke="#131F67" stroke-miterlimit="10" d="M7.632 63.832s5.06-17.972 7.768-27.15-.71-14.743-6.675-12.966"/>
        <path fill="none" stroke="#131F67" stroke-miterlimit="10" d="M11.015 62.44s3.405-12.55 5.905-20.3 4.269-20.858-3.521-18.088"/>
        <path fill="none" stroke="#131F67" stroke-miterlimit="10" d="M13.987 61.396s5.308-18.068 7.058-23.318 1.032-17.183-4.014-13.917"/>
        <path fill="none" stroke="#131F67" stroke-miterlimit="10" d="M17.341 60.275s3.892-13.947 6.079-20.26 2.855-19.77-3.416-15.822"/>
        <path fill="none" stroke="#131F67" stroke-miterlimit="10" d="M20.726 59.299s1.683-8.146 4.569-16.533 4.963-18.355-1.519-18.834"/>
        <path fill="none" stroke="#131F67" stroke-miterlimit="10" d="M23.607 58.825s4.867-17.406 6.188-20.622 3.398-17.711-4.395-13.887"/>
        <path fill="none" stroke="#131F67" stroke-miterlimit="10" d="M26.474 58.338s3.009-11.885 5.634-18.822 3.547-16.684-2.977-15.436"/>
        <path fill="none" stroke="#131F67" stroke-miterlimit="10" d="M29.108 58.229s5.749-18.4 6.687-20.775 3.723-14.492-3.82-13.048"/>
        <path fill="none" stroke="#131F67" stroke-miterlimit="10" d="M31.727 58.332s6.693-20.066 7.506-23.191 1.754-13.705-4.311-10.446"/>
        <path fill="none" stroke="#131F67" stroke-miterlimit="10" d="M34.779 58.934s3.078-12.418 5.703-19.105 4.494-13.717-1.44-15.608"/>
    </symbol>
    <use xlink:href="#king-diamonds" width="159.17" height="188.097" x="-79.585" y="-94.049" transform="matrix(1 0 0 -1 111.6 126.182)" overflow="visible"/>
    <use xlink:href="#king-diamonds" width="159.17" height="188.097" x="-79.585" y="-94.049" transform="matrix(-1 0 0 1 112.5 195.333)" overflow="visible"/>
    <use xlink:href="#diamonds" width="16.895" height="23.251" x="-8.447" y="-11.626" transform="matrix(1 0 0 -1 20 61)" overflow="visible"/>
    <use xlink:href="#diamonds" width="16.895" height="23.251" x="-8.447" y="-11.626" transform="matrix(1 0 0 -1 208 252)" overflow="visible"/>
    <use xlink:href="#face-frame" width="161.544" height="259.519" x="-80.771" y="-129.759" transform="matrix(1 0 0 -1 113.058 160.5)" overflow="visible"/>
    <path fill="none" d="M1.947 14.774h33.41V54.29H1.947z"/>
    <text transform="translate(6.621 46.277)" fill="#D40000" font-family="'ArialNarrow'" font-size="44">
        K
    </text>
    <path fill="none" d="M193.59 264.293H227v39.516h-33.41z"/>
    <text transform="rotate(180 111.164 136.152)" fill="#D40000" font-family="'ArialNarrow'" font-size="44">
        K
    </text>
    <use xlink:href="#diamonds-medium" width="33.828" height="46.555" x="-16.914" y="-23.279" transform="matrix(1 0 0 -1 60.281 64.424)" overflow="visible"/>
    <use xlink:href="#diamonds-medium" width="33.828" height="46.555" x="-16.914" y="-23.279" transform="translate(164.65 255.678)" overflow="visible"/>
</svg>
