<svg xmlns="http://www.w3.org/2000/svg" xmlns:xlink="http://www.w3.org/1999/xlink" viewBox="0 0 227 315">
    <symbol id="face-frame" viewBox="-80.771 -129.759 161.544 259.519">
        <path fill="none" stroke="#131F67" stroke-width="3" stroke-miterlimit="10" d="M79.272-128.259H-79.271V128.26H79.272z"/>
    </symbol>
    <symbol id="hearts" viewBox="-10.934 -11.657 21.868 23.314">
        <path fill="#D40000" d="M0-11.657s4.999 6.392 6.686 8.509C9.635.55 10.935 2.963 10.935 6.399c0 3.217-2.825 5.256-5.339 5.259C.787 11.664 0 7.146 0 7.146s-.787 4.518-5.595 4.511c-2.515-.003-5.339-2.042-5.339-5.259 0-3.436 1.299-5.849 4.248-9.547C-4.998-5.266 0-11.657 0-11.657z"/>
    </symbol>
    <symbol id="hearts-medium" viewBox="-21.892 -23.341 43.787 46.682">
        <use xlink:href="#hearts" width="21.868" height="23.314" x="-10.934" y="-11.657" transform="scale(2.0023)" overflow="visible"/>
    </symbol>
    <symbol id="queen-hearts" viewBox="-65.757 -94.651 131.514 188.314">
        <path fill="#E2CF00" stroke="#000" stroke-miterlimit="10" d="M54.157 2.266s-1.123 3.914-1.375 5.978c-.256 2.098-.398 4.257-.344 6.375.072 2.787-.056 5.781-.068 8.539.384-.005 1.853-.236 1.853-.236s.124-2.222.138-2.801c.062-2.559.107-5.138.312-7.689.226-2.798.533-5.396 1.076-8.135.089-.447.398-1.464-.027-1.868-.379-.361-1.565-.163-1.565-.163z"/>
        <path fill="#131F67" d="M46.923 24.915s.092 1.883.182 2.803c-2.81.426-3.195 3.091-2.996 4.879.187 1.672 1.441 2.959 3.182 3.392-.148.997-.378 3.217-.378 3.217s1.431-.777 2.237-.785c.566 2.744 3.717 3.757 5.362 3.279 1.396-.405 2.708-1.802 3.045-3.219.907.484 2.762 1.058 2.762 1.058s-.355-2.242-.626-3.302c1.907-.437 3.883-2.024 3.92-4.104.035-2.043-1.5-4.218-3.492-4.712.18-.956.668-2.873.668-2.873s-2.043 1-3.043 1.487c.176-1.984-1.98-3.757-3.844-3.745-2.338.015-3.725 1.593-4.115 3.743a377.19 377.19 0 0 1-2.864-1.118z"/>
        <path d="M49.424 35.724s-.751 5.604 3.853 5.604c4.959 0 3.729-5.604 3.729-5.604s6.559 1.34 6.277-4.028c-.267-5.093-5.876-3.347-5.876-3.347s1.402-5.894-3.703-5.715c-4.469.156-3.805 5.195-3.805 5.195s-5.195-.945-5.379 3.896c-.171 4.534 4.904 3.999 4.904 3.999z"/>
        <path fill="#E2CF00" d="M51.973 31.733a3.494 3.494 0 1 0-6.989 0 3.494 3.494 0 1 0 6.989 0zm4.84 5.658a3.494 3.494 0 1 0-6.989 0 3.494 3.494 0 1 0 6.989 0zm5.841-5.412a3.494 3.494 0 1 0-6.989 0 3.494 3.494 0 1 0 6.989 0z"/>
        <path fill="#E2CF00" d="M57.333 26.651a3.494 3.494 0 1 0-6.989 0 3.494 3.494 0 1 0 6.989 0z"/>
        <path fill="#131F67" d="M8.981-29.067c-2.658-5.738-3.225-13.026-.99-18.823.923-2.394 1.953-4.539 3.545-6.538 1.174-1.474 3.613-4.267 5.389-5.073 1.606 1.939 2.311 3.346 3.014 4.558 1.121 1.929 1.545 3.066 2.342 5.133 1.468 3.802 2.181 8.037 2.654 12.102.899 7.716 2.309 22.863 2.309 22.863-8.432-.865-15.071-7.334-18.263-14.222zm16.063 8.958c.909-.278.353-2.717.06-3.254-.429.353-1.79 3.785-.06 3.254zm-3.909-1.57c1.935 1.59 3.548-1.953 3.795-3.375.039-.225.131-.488.087-.726-.073-.399-.164-.271-.344-.423-.146-.123-.289-.101-.43-.39-.121-.249-.187-.527-.383-.587-.508-.113-1.979 2.124-2.306 2.656-.463.757-1.295 2.125-.419 2.845zm-3.404-1.866c1.391.556 3.593-2.365 4.444-3.315.242-.27 1.338-1.28 1.043-1.755-.309-.498-1.152.107-1.571-.17-.166-.111.184-.771-.229-.942-1.499.032-5.85 5.32-3.687 6.182zm-2.752-3.203c.96.253 2.009-.444 2.724-.992.667-.511 1.447-1.07 1.948-1.751.25-.34.741-1.787-.071-1.594-.163-.398.089-1.078-.438-1.219-.356-.096-1.275.479-1.619.655-1.215.623-2.918 1.649-3.419 2.985-.287.765.032 1.693.875 1.916zm-2.777-4.212c.811.407 1.912.101 2.698-.163 1.065-.357 1.951-.97 2.896-1.549.297-.182 1.074-.429.814-.909-.182-.335-.707-.124-.812-.535-.088-.34.161-.99-.12-1.238-.203-.18-.814-.013-1.063.059-.59.168-1.214.396-1.792.594-.984.335-1.812.941-2.522 1.685-.605.63-1.174 1.516-.099 2.056zm-1.844-4.906c.535.992 1.64.814 2.555.748 1.191-.086 2.271-.517 3.377-.959.173-.069 1.184-.408 1.167-.665-.011-.161-.873-.644-.959-.728-.358-.354.686-.98.206-1.272-.317-.192-1.281.055-1.631.063-1.263.03-2.649-.211-3.75.561-.692.484-1.447 1.357-.965 2.252zm-.303-5.29c.044.978 1.346 1.233 2.091 1.376 1.041.199 2.085.194 3.15.195.322 0 1.558.166 1.592-.399.015-.241-.407-.539-.465-.882-.055-.324.783-.495.636-.936-.128-.383-1.219-.556-1.542-.666-1.258-.428-2.358-.631-3.679-.431-.787.12-1.824.817-1.783 1.743zm1.806-5.578c-.511.683-.44 1.548.153 2.148.94.951 2.516 1.163 3.737 1.477.385.099 1.663.585 1.884.092.127-.282-.389-.942-.369-1.161.031-.338.582-.463.57-.743-.015-.343-.488-.537-.731-.665-.871-.456-1.759-.921-2.661-1.324-.851-.382-1.929-.697-2.583.176zm2.849-4.234c-1.176.432-.947 1.752-.325 2.541.782.991 1.806 1.617 3.01 2.02.319.106 1.444.709 1.739.409.153-.155.076-.834.102-1.024.045-.344.78-.235.876-.438.181-.383-.412-.709-.652-.917-.8-.69-1.491-1.489-2.323-2.152-.601-.479-1.698-.706-2.427-.439zm6.322.671c-.247-1.277-1.55-4.858-3.385-3.538-.787.567-.682 1.346-.192 2.12.671 1.063 2.355 2.664 3.616 2.692.052-.222.005-1.05-.039-1.274zm3.903 18.431c-2.517-1.14-3.683-4.839-3.621-7.328.037-1.5.229-3.323 1.651-6.12-.135-.392-.249-.984-.536-1.875-2.579 1.688-3.424 7.059-2.82 10.015.53 2.597 1.943 6.521 5.627 7.798-.087-.812-.208-1.605-.301-2.49z"/>
        <path fill="none" stroke="#131F67" stroke-miterlimit="10" d="M-2.056-71.781s13.215-3.922 21.166-8.25c9.688-5.272 19.052-14.259 19.052-14.259"/>
        <path d="M18.423-79.418c7.966 4.354 15.605 16.521 18.505 24.796 3.087 8.811 4.505 18.437 5.004 27.712.535 9.966 1.722 19.499 9.974 28.138.202-.128.896-.701 1.066-.952-3.596-3.345-8.592-10.243-8.789-16.032-.121-3.529 3.457-5.372 6.832-5.288 1.79.045 3.435.728 4.844 1.813 1.65 1.271 2.202 1.891 4.06 1.975 1.38.062 6.349 3.156 2.55 4.338 2.08 2.693.591 3.772 3.289 3.878l-.236-63.286c-3.899-3.952-6.484-6.338-11.515-10.609-3.067-2.604-10.066-7.659-15.421-11.074-7.247 7.131-20.163 14.591-20.163 14.591zM8.306-48.657c-10.23-1.237-18.876 5.132-27.063 10.237-4.139 2.581-10.164 5.491-15.207 5.099-.393 3.117-.681 5.95-1.301 9.214 2.369.121 5.124.126 8.561-.877 3.492-1.02 8.811-3.112 11.856-5.102 5.041-3.291 11.608-8.187 21.472-8.934-.325-2.794.549-7.596 1.682-9.637z"/>
        <path fill="#E2CF00" d="M33.449-72.208l4.144 2.379-.115 2.961 2.819.017 2.645 3.34 2.187-3.252 2.419-.162.285-2.629 3.668-2.3-3.179-2.006-.023-2.539-3.032-.26-2.68-3.578-2.281 3.158-2.282-.01-.536 2.818z"/>
        <path d="M38.585-72.419l3.132 4.195 4.442-3.463-3.355-4.244zM20.978-16.604c2.593 1.117 6.303 2.146 6.303 2.146s1.717 7.299 5.305 14.454c3.102 6.186 8.146 12.37 8.146 12.37l-4.764 6.648s-3.098-.759-6.904 1.447c-2.516 1.459-4.627 4.019-5.702 5.519-1.106 1.544-2.461 4.83-3.004 7.997-.664 3.878.728 7.199.728 7.199S10.615 34.78-4.855 34.934c-14.462.144-23.721 6.242-23.721 6.242s-9.145-3.025-16.828-6.793c-7.489-3.672-13.426-7.685-13.426-7.685S-41.489 7.769-7.271 5.538c11.811-.77 23.92 2.805 23.92 2.805l.086-27.347s1.564 1.245 4.243 2.4z"/>
        <path fill="#E2CF00" d="M28.027 15.462l-2.495 6.674-6.938-2.518 2.714-6.926zM11.092 17.39l7.081 2.113-2.016 6.773-6.663-1.806zm1.962-7.145l-1.962 7.145-7.488-1.289 1.272-7.262zm-16.92 12.527l6.491.37.979-7.041-7.162-.305z"/>
        <path fill="#E2CF00" d="M-11.532 8.7l.566 7.522 7.408-.426.067-7.445z"/>
        <path fill="#E2CF00" d="M-17.157 24.194l6.405-.937-.214-7.035-7.555.789zm-11.039-12.125l2.5 7.008 6.927-1.783-1.61-7.316zm-1.683 16.369l6.464-2.498-2.281-6.863-7.299 2.764zm-6.438-13.292l-7.079 3.824 3.44 6.343 6.961-3.472zm-5.132 20.146l-4.38-6.008 5.873-3.971 3.962 6.202zm-8.577-11.934l-5.769 4.655 6.784 3.861 3.182-2.59zM20.743 40.63l-.671-5.66S8.476 28.579-6.954 29.293c-16.843.779-28.146 9.175-28.146 9.175l5.845 2.35s10.367-6.062 22.301-6.428c15.239-.467 27.697 6.24 27.697 6.24z"/>
        <path fill="#E2CF00" d="M-35.94 38.095l-1.716-.756s11.721-9.549 30.702-10.241c15.283-.558 27.203 5.308 27.203 5.308l-.204 1.498S6.941 28.008-6.954 28.561c-17.009.676-28.986 9.534-28.986 9.534z"/>
        <path fill="#E2CF00" d="M21.212 29.065S6.983 23.081-6.954 23.822c-20.427 1.086-33.99 12.028-33.99 12.028l2.314.986s12.701-9.631 31.676-10.561c14.768-.724 27.358 5.061 27.358 5.061l.808-2.271zm14.571-10.711l.942-1.534S17.888 4.744-7.271 5.538c-30.386.959-51.244 20.689-51.244 20.689l2.075 1.473S-39.47 9.48-7.179 7.639c22.208-1.265 42.962 10.715 42.962 10.715z"/>
        <path fill="#131F67" d="M-6.946 5.003c-6.834 0-19.368 2.742-19.368 2.742l7.51-31.988s6.027-3.133 9.915-5.672c4.875-3.184 12.075-5.757 12.075-5.757l9.237 42.587S1.753 5.003-6.946 5.003zm-4.072-.35l.023-2.254-5.573 3.018 5.55-.764zm-7.74.842l7.788-4.135-.115-2.746-7.199 3.631-.474 3.25zm1.013-4.56l6.709-3.646-.025-2.57-6.457 3.576-.227 2.64zm.788-4.311l5.981-3.092-.061-2.481-5.418 2.96-.502 2.613zm.821-4.01l5.308-2.68.024-2.746-4.875 2.559-.457 2.867zm.879-4.164l4.524-2.455-.024-2.611-4.318 2.459-.182 2.607zm.656-4.105l3.863-2.123-.023-2.566-3.55 2.078-.29 2.611zm.608-4.078l3.251-1.619.048-2.646-2.952 1.559-.347 2.706zm1.16-6.995l-.4 3.016 2.572-1.379.113-2.629-2.285.992zm9.896 31.256l4.677.014-4.677-2.719v2.705zm2.258-37.627l-2.07 1.157 2.07 1.157v-2.314zm.533 3.473l-3.169-1.547.02 1.982 3.178 1.756-.029-2.191zm.433 3.545l-3.526-1.666v2.283l3.835 2.047-.309-2.664zm.48 3.885l-4.021-2.066v2.617l4.375 2.168-.354-2.719zm.507 4.006l-4.495-2.244.062 2.406 4.623 2.307-.19-2.469zm.718 3.765l-5.193-2.58-.033 2.551 5.332 2.703-.106-2.674zm.493 4.063l-5.715-2.957.015 2.148 6.071 3.406-.371-2.597zm.514 3.841L-3.23-9.785l.033 2.58 6.52 3.482-.324-2.798zm.719 4.024L-3.19-6.185l-.059 2.905L4.111.853l-.393-3.35zm-6.73.435V.483l8.035 4.52-.228-2.6-7.807-4.465z"/>
        <path fill="#E2CF00" stroke="#000" stroke-miterlimit="10" d="M-9.679 4.71l.227-33.67 5.153-2.822.07 36.324z"/>
        <path fill="#131F67" d="M-.209 72.889c-2.427.508-4.249-.389-6.406-.886 1.215 2.595 5.308 2.248 7.572 1.382 1.972-.754 5.325-2.798 5.498-2.36.327.828-5.507 3.799-7.859 3.891-1.361.053-4.496.146-5.509-1.558-.835-1.405-2.801.865-.852-1.833.775-1.073.381-1.804-.195-2.916-.646-1.246.423-1.383 1.902-2.234 1.549-.892 5.17-3.615 5.512-3.037.212.358-5.484 3.888-5.111 4.169.377.284 3.127-1.231 6.281-.599 1.072.215 2.509 1.078 3.452 1.595 1.121.614 2.394-.303 2.901.48.285.438-5.075 3.463-7.186 3.906zm-4.28-4.531c-.153-.084-.884.115-.955.277-.113.26.324.779.501.907.168.121.329.14.527-.156.141-.207.187-.884-.073-1.028zm4.721-.081a2.81 2.81 0 0 0-2.078-.766c-.664.045-1.381.345-1.737.921-.366.59-.291 1.168-.327 1.795.427.016.427.016.724.016.041-.419.333-1.119.631-1.407.563-.546 1.546-.557 1.994.039.249.331.728 1.368.728 1.368l.936.001c-.096-.726-.405-1.524-.871-1.967zm2.477.434c-.281-.2-1.018-.829-1.211-.312-.169.449.069 1.308.47 1.448.52.182 1.644-.496.741-1.136zm-18.626-17.429c-.003.122-.016.391.08.452.307.196.839-1.182 2.003-.881 1.108.288 1.491.483 2.875-.029 1.075-.398 2.029.635 3.128.343.57-.152 1.241-.654 1.852-.533.526.105.98.984 1.341.816.332-.154.239-1.359.398-1.886.111-.371.71-1.434.531-1.824-.281-.615-2.465.839-3.174.875-1.47.075-2.695-.824-4.2-.575-1.13.188-1.941.974-3.043.441-.979-.474-1.752-1.282-1.759.218-.004.83-.013 1.767-.032 2.583zm5.809-4.822c1.079.073 2.234.562 3.262.41 1.176-.174-.854-1.098-2.137-1.269-1.509-.201-3.855.629-3.703.767.551.499 2.125.062 2.578.092zm-.738-1.969c.812.174 1.747.103 2.525-.067.876-.191 2.449-1.015 2.405-2.144-.043-1.1-1.24.463-2.343.72-1.3.303-2.534.326-3.742-.061-.297-.095-1.875-.79-2.117-.357-.258.46.993 1.094 1.283 1.2.497.182 1.474.599 1.989.709z"/>
        <path fill="#131F67" d="M-3.896 78.762c-1.087.005-6.228-1.034-5.948-2.799.272-1.725 3.005-.224 3.901.061 2.434.77 5.221.21 7.614-.574 1.565-.513 4.884-2.951 5.184-2 .354 1.125-4.163 3.656-4.891 3.936-2.03.779-3.822 1.366-5.86 1.376zm-3.212-18.967c-1.371.069 2.31-1.628 1.176-3.2-.843-1.167-2.977.168-4.044.433-.672.167-1.316.405-1.956.037-.376-.217-.171-.816-.646-.899-.95-.165-2.137.981-2.181 1.78-.052.972.394 2.533.615 3.518.324 1.443 1.062 3.851 1.298 5.318.52 3.226 1.184 5.914-.998 8.919-2.471 3.401-5.904 3.199-9.114 2.437-3.174-.754-1.753-4.387-1.812-6.312-.033-1.062-.131-2.052.125-3.125.339-1.422.795-1.032 2.033-1.238 1.297-.217 2.021-.796 3.917-.639 1.216.101 3.6 1.33 4.018 1.095.446-.252-.895-1.543-1.449-2.125-.546-.573-2.246-1.877-1.96-2.274.552-.767 3.651 3.194 3.886 2.866.538-.754-.328-2.402-.625-3.344-.587-1.862-1.527-5.871-1.271-6.591.38-1.065 3.569-2.264 4.716-3.97-.011.486-.032.867-.14 1.352-.354 1.596-.02 1.852 1.454 1.26 1.062-.426 2.228-1.167 3.421-.957 2.929.512 3.094 5.478-.463 5.659zm-17.226 14.029c-.806 3.81 10.123 2.497 10.102-.868-.002-.307-1.282 1.787-5.852 1.681-2.542-.06-3.166-1.072-4.25-.813zm.562-4.497c-.028 1.119 1.098 1.07 1.23.844 1.434-2.443-1.212-1.603-1.23-.844zm6.335-1.021c-.713-1.054-2.439-1.051-3.396-.247-.7.589-1.071 1.504-.903 2.403l.878.025c.054-.604.138-.925.504-1.44.292-.411.74-.789 1.28-.72 1.123.146 1.398 1.287 1.576 2.16.296.027.608.049 1.05.123-.212-.764-.553-1.82-.989-2.304zm1.157.828c-.001.943 1.408 1.923 1.408.266 0-.251-1.407-1.527-1.408-.266zm-.459 3.559c-1.465.478-2.56.612-3.956.269-1.043-.258-2.991-.938-3.177-.5-.187.44 1.146.764 1.604.901 1.425.427 2.754.579 4.262.289.7-.135 3.833-.858 4.08-1.659.341-1.106-2.34.546-2.813.7z"/>
        <path fill="none" stroke="#131F67" stroke-miterlimit="10" d="M-3.459 93.157c.567-1.379 1.531-2.321 2.181-2.98.7-.71 2.554-2.333 4.304-3.105m-9.235 5.835c.857-2.231 1.539-3.043 3.442-4.855 2.167-2.063 5.416-3.48 7.5-4.416"/>
        <path fill="none" stroke="#131F67" stroke-miterlimit="10" d="M-8.709 93.073c1.359-3.419 2.667-5.305 5.484-7.646 3.008-2.5 6.368-3.854 9.53-5.044"/>
        <path fill="none" stroke="#131F67" stroke-miterlimit="10" d="M-11.459 93.073c1.201-4.192 3.481-7 6.817-9.761 1.328-1.1 4.805-3.308 6.36-4.021 2.226-1.021 3.807-1.822 6.932-2.738m5.641-13.231c-.24-1.574.025-3.637.669-5.25.367-.918.921-1.694 1.584-2.431.624-.691 2.308-1.978 2.331-1.985"/>
        <path fill="none" stroke="#131F67" stroke-miterlimit="10" d="M12.541 67.989c-1.479-3.5-1.701-8.031.287-11.604 2.018-3.624 4.826-5.007 8.466-6.421"/>
        <path fill="none" stroke="#131F67" stroke-miterlimit="10" d="M10.708 71.656c-3.863-5.04-2.749-13.653.755-18.486 1.271-1.755 3.062-3.637 5.002-4.691 2.114-1.15 4.237-1.821 6.568-2.149"/>
        <path fill="#131F67" d="M-20.954 93.119l-.115-.194c-.079-.13-.147-.293-.309-.53l-.244-.368c-.084-.135-.194-.238-.288-.371-.188-.265-.432-.501-.661-.751-.239-.237-.471-.488-.72-.685a9.99 9.99 0 0 0-.665-.56c-.196-.164-.371-.291-.492-.381l-.189-.147-.477.879s.293.098.699.327c.202.116.438.255.668.438.238.171.46.393.691.601.205.232.415.464.571.705.185.231.271.471.369.659.104.174.133.415.181.539l.055.219.926-.38zm3.637.046l-.182-.42-.201-.485c-.059-.186-.215-.401-.345-.634-.14-.229-.284-.486-.452-.736a22.101 22.101 0 0 1-.579-.724c-.187-.264-.423-.493-.657-.731-.239-.232-.461-.494-.722-.709l-.754-.67c-.248-.223-.521-.403-.771-.599-.257-.184-.485-.393-.731-.546l-.677-.461c-.416-.293-.789-.497-1.04-.659l-.396-.253-.438.9.41.174c.252.127.644.257 1.062.506.42.248.935.503 1.424.87.244.182.515.349.758.557l.742.625c.258.201.451.466.676.691.218.233.438.457.604.71a18 18 0 0 1 .502.706c.129.234.229.461.334.663.1.208.209.372.244.585l.131.508.107.444.951-.312zm3.411.152l-.231-.602c-.065-.188-.195-.44-.318-.715-.143-.269-.301-.577-.507-.885-.401-.634-.956-1.261-1.535-1.93l-.899-1.018c-.295-.334-.63-.712-.95-1.05a11.556 11.556 0 0 0-1.021-1.004c-.349-.339-.729-.603-1.082-.888-.728-.538-1.45-.98-2.094-1.314-.328-.154-.613-.328-.89-.437-.273-.115-.506-.228-.708-.299l-.636-.227-.283.959.587.184c.188.058.408.155.666.252.26.092.537.238.846.382.609.306 1.296.714 1.989 1.212.334.264.707.514 1.023.817.333.283.668.59.987.943.335.335.614.665.924 1.028l.881 1.028c.562.668 1.087 1.286 1.429 1.85.182.277.313.55.424.791.098.253.193.445.256.649l.204.612.938-.338z"/>
        <path fill="#131F67" d="M-10.791 93.132c-.017-.014-.037-.261-.247-.834-.195-.55-.556-1.252-1.072-2.032-.517-.779-1.212-1.603-1.975-2.452a48.47 48.47 0 0 0-1.205-1.274 31.084 31.084 0 0 0-1.288-1.278c-.917-.842-1.881-1.568-2.817-2.231-.931-.664-1.825-1.246-2.648-1.688a7.798 7.798 0 0 0-1.201-.514c-.365-.124-.688-.21-.958-.274-.527-.13-.905-.148-.905-.148l-.023 1s.229-.007.734.086c.246.046.546.108.883.204.339.093.689.216 1.088.398 1.568.779 3.619 2.101 5.379 3.663.447.401.865.817 1.267 1.253.406.432.803.854 1.172 1.274.745.834 1.373 1.664 1.825 2.414.461.741.723 1.425.851 1.878.131.427.157.79.166.77l.974-.215z"/>
        <path fill="none" stroke="#131F67" stroke-miterlimit="10" d="M-21.226 46.988c-.533-.636-.878-2.048-1.066-3.023m-.08 6.357c-1.475-2.116-2.696-5.188-2.837-7.417m1.999 11.34c-1.822-2.425-2.162-3.486-3.617-6.205-.719-1.344-1.942-4.984-2.428-6.588m5.564 16.726c-2.644-3.595-4.84-7.311-6.667-11.379-.594-1.322-1.41-3.718-2.017-6.573m59.167-1.321c-.403-2.874-.562-4.7.6-7.646.585-1.484 1.223-2.515 2.256-3.572 1.353-1.384 2.836-1.836 3.901-2.062m-8.257 17.863c-4.578-8.324-.054-21.032 10.491-22.314"/>
        <path fill="none" stroke="#131F67" stroke-miterlimit="10" d="M36.726 18.304c-2.376.558-4.731.438-7.038 1.603-2.495 1.257-4.873 3.538-6.392 5.831-2.251 3.398-3.595 7.552-3.175 11.664.303 2.977 1.642 7.01 3.338 9.504"/>
        <path fill="#131F67" d="M-24.71 93.163s.096-1.404.139-3.903c.062-2.481-.013-6.021.273-10.23.18-2.096.408-4.413.468-6.852.085-2.438.104-5.003.17-7.651.14-5.273.415-10.983 2.292-16.287.943-2.623 2.3-5.129 4.121-7.176 1.803-2.056 4.16-3.579 6.688-4.124 2.529-.571 5.1-.119 7.289.781 2.233.909 4.067 2.222 5.721 3.534 1.636 1.319 3.05 2.645 4.278 3.845 1.232 1.211 2.286 2.268 3.121 3.169a39.797 39.797 0 0 1 1.889 2.132l.648.769.773-.635-.681-.771a41.433 41.433 0 0 0-1.972-2.125c-.867-.896-1.963-1.944-3.218-3.121-1.263-1.184-2.689-2.523-4.372-3.852-1.668-1.311-3.636-2.685-5.929-3.594-2.288-.921-5.012-1.384-7.689-.756-2.681.593-5.118 2.238-6.989 4.353-1.896 2.111-3.295 4.67-4.277 7.358-.961 2.692-1.539 5.51-1.873 8.289-.33 2.784-.457 5.535-.537 8.19-.079 2.656-.111 5.22-.208 7.643-.073 2.425-.308 4.686-.5 6.817-.344 4.258-.33 7.803-.428 10.27-.079 2.452-.196 3.87-.196 3.87l.999.057z"/>
        <path fill="none" stroke="#131F67" stroke-miterlimit="10" d="M-65.464 22.39c11.471 8.297 35.568 18.896 37.297 19.504 2.24.787 5.875 2.084 8.026 2.814"/>
        <path fill="#E2CF00" stroke="#000" stroke-miterlimit="10" d="M56.291 2.824c-1.49 2.772-2.003 7.571-.35 10.716 1.537 2.924 4.533 5.019 6.23 7.868.704-4.259 1.016-7.992-1.016-12.003-1.104-2.181-2.476-5.663-4.864-6.581zm-2.603-.721c-2.822-.361-7.203 3.46-8.925 5.483-1.81 2.127-2.888 4.281-2.575 7.032 3.141-1.125 6.181-3.275 8.23-5.193 2.377-2.223 2.418-4.432 3.27-7.322z"/>
        <path fill="#E2CF00" d="M33.955-79.175c.012.32 1.032 1.174.845 2.258-.334 1.929-1.953 3.316-4.167 1.896-1.667-1.07-2.281-7.919.491-8.572 1.049-.247 2.4-.204 2.978.774.529.898.447 1.752.272 2.578-.097.454-.438.568-.419 1.066zm-.748-2c.025-.789-.911-1.641-1.666-1.169-1.302.813-.594 2.901-.451 4.175.133 1.176.646 3.375 2.25 1.938.802-.719-.833-2.545-1.367-2.935.742-.711 1.209-1.219 1.234-2.009zm28.096 11.424c-.238.751-1.192 1.085-1.387 1.907-.169.716.113 1.486.281 2.157.529 2.109.34 4.721-.895 6.581-.636.959-1.38 1.771-2.562 2.293-1.376.607-3.087.543-4.521.218-1.749-.396-1.482.654-2.094 1.866-.761 1.51-2.484 2.698-4.084 3.084-1.891.456-2.939.826-4.243 1.593-1.131.665-1.825-.324-2.215-1.542-.224-.699.115-.979.252-1.571.134-.581-.151-1.093-.377-1.562-.569-1.183-.791-2.367.03-3.449.959-1.264 2.649-1.958 4.178-1.043.688.411 1.206.848 1.56 1.559.202.408.177 1.248.812 1.003.307-.118.689-.909.789-1.198.213-.617.189-1.198-.118-2.279-.162-.568-.838-2.211-.838-2.211.833-.458 1.504-.881 1.967-1.08.453-.194 1.209-.527 1.209-.527s.423 1.015.603 1.276c1.045 1.521 2.833 3.068 4.606 1.873.693-.467 1.831-1.466.769-1.9-.5-.204-1.117-.192-1.613-.496-.375-.229-.665-.624-.891-1.005-.982-1.666-.024-3.604 1.688-4.213 1.05-.372 1.308-.089 1.864-1.676.247-.705.651-1.154 1.386-1.447.881-.353 2.143-.317 2.915.238.494.355 1.101 1.008.929 1.551zm-2.19-.553c-.617-.358-1.52.366-1.832.825-.423.62.096 1.957-.53 2.3-.282.154-1.241-.083-1.573-.007-.45.103-.738.363-1.066.717-.562.606-.653 1.773.055 2.271.976.687 1.582-.315 2.207.218.552.472.289 2.066.012 2.678-.824 1.812-3.261 2.365-5.135 1.846s-2.472-1.977-2.842-2.743l-.669.353c.181.446.591 1.775.666 2.317.102.729-.109 1.884-.352 2.596-.425 1.247-2.38 2.776-3.921 1.768-.689-.452-.165-1.437-.545-2.087-.453-.774-1.635-1.072-2.393-.56-.68.459-.846 1.326-.657 2.054.085.329.257.683.462.958.177.238.698.525.792.747.219.517-.562 1.011-.711 1.418-.067.184.02.656.186.76.594.369 1.552-.536 1.99-.666.955-.284 1.743-.037 2.668-.452 1.116-.501 2.255-1.44 2.89-2.486.615-1.016.906-2.07 1.118-3.194 1.406.511 2.354.988 3.798.956 1.394-.031 3.063-.761 3.935-1.824 1.337-1.634 1.483-4.089 1.208-6.095-.104-.763-.55-1.489-.417-2.272.121-.722 1.841-1.708.656-2.396z"/>
        <path fill="#131F67" d="M65.256-8.502c-.305.866-1.674.474-2.06 1.17-.289.522.182 2.318-.857 3.864a35.518 35.518 0 0 1-1.745 2.317c-.46.558-1.36.928-1.694 1.482-1.094 1.816.353 3.063-2.501 2.188-.989-.303-3.497-.719-4.56-1.188.499-.434 1.484-1.467 2.186-1.9 1.205-.746 2.099-.178 3.389-.364-.806-1.612-1.517-1.792-3.3-2.364-1.267-.406-1.712-2.566-2.952-3.284 1-1.084 1.199-2.743.826-4.158-.282-1.07-1.297-1.822-1.136-3.002 1.213.687 2.343 3.882 2.654 4.996.422-1.708.292-2.59 1.756-3.93.889-.813-.729-1.176 1.819-2.931-.455-4.198 5.124-2.515 6.925-.607 1.157 1.227 1.038 2.903 1.083 4.532.023.826.405 2.5.167 3.179zm-2.061-1.762c0-.305-.024-.601-.136-.83a6.556 6.556 0 0 0-.477-.807c-.541-.773-1.992-1.61-2.846-1.106-.418.247-.772.671-1.279.675-.307.002-.915.077-1.016.394-.144.451 1.222.671 1.626.874.421.213.896.358 1.295.598.448.269.882.544 1.288.862.224.176.834.624 1.146.557.448-.098.399-.866.399-1.217zm-1.508 5.455c1.556.056.388-2.212-.074-2.761-.643-.763-1.156-2.005-2.25-2.157-.412-.058-.892-.089-1.252.141-.352.224-.56.536-.982.673-.232.076-.648-.019-.794.179-.271.368.159.58.658.853.633.346 2.419 1.57 2.419 1.57.312.256.621.517.93.775.376.315.817.709 1.345.727zM54.604.793c.17.665 3.061 2.044 3.189.374.083-1.071-3.442-1.36-3.189-.374zm.692-5.282c.22.543.554.896 1.026 1.188.862.535 1.762 1.34 2.721 1.651.896.291 1.641-.316 1.477-1.24-.142-.802-1.012-1.776-1.61-2.286-.503-.428-.981-.891-1.604-.532-.562.324-.765.563-1.448.658-.491.068-.793-.01-.562.561zm-1.255-1.749c.585.294 1.36.497 1.986.123.844-.503.369-1.232-.38-1.501-1.177-.422-2.905.724-1.606 1.378zm1.091-4.623c-.293.275-.178 1.116.312 1.067.598-.06 1.285.042 1.732-.43.532-.561-.255-.76-.734-.821-.37-.048-1.007-.101-1.31.184zm1.687-3.293c-.241.227-.881.607-.167 1.193.44.362 1.34.382 1.787-.146.299-.353.07-.804-.277-1.047-.34-.239-1.028-.295-1.343 0zm2.932-2.307c-.386-.58-2.029-.104-1.703.646.316.729 2.478.523 1.703-.646zm2.448.275c-.308-.261-1.376-1.232-1.609-.462-.133.438.035.972-.335 1.375-.216.236-1.018.227-.811.624.228.436.823.52 1.229.776.428.271.823.586 1.31.751.862.293 1.644.035 1.795-.923.159-1.015-.922-1.582-1.579-2.141z"/>
        <path fill="none" stroke="#0F0" stroke-width=".25" stroke-miterlimit="10" d="M39.61 68.134l.031-.031"/>
        <path fill="#E2CF00" d="M-32.343-29.96c-.536.125-.219-.797-1.398-.643l-.484 3.65c.141.087 1.761.168 1.958.195.733.102.97-.134 1.625-.514 1.153-.669 3.425-2.611 3.076-.777-.135.708 2.654-1.112 3.602-1.727 1.193-.773 2.013-1.701 2.283-.395.241 1.165 2.382-1.244 3.231-2.104.839-.85 1.295-1.766 1.855-.541.517 1.128 2.096-1.284 2.721-1.883.364-.349.948-1.233 1.404-1.424.885-.367.589.384 1.189.426.984.066 2.351-2.026 3.029-2.719.378-.384 1.006-1.142 1.549-.829.393.226.007 1.088.443 1.253.646.245 2.191-1.62 2.98-2.209.281-.21 1.328-1.107 1.697-1.075.855.074-.165.828.538 1.062.822.274 2.628-1.61 3.292-2.062.404-.274 1.335-.978 1.857-.924.908.094.467.506.5 1.227.454.009.983-.053 1.457-.376.263-1.187.516-2.189.891-3.755-.721.016-1.479.567-2.146.378-.332-.095.02-.73-.016-1.059-.057-.522-2.637 1.163-3.471 1.621 0 0-1.43 1.028-2.252.987-.616-.03.32-1.044-.693-.853-.714.136-1.635 1.334-2.226 1.768-.386.283-2.072 1.726-2.233.229-.166-1.541-2.979 2.553-4.747 2.946-.754.168-.414-1.442-1.357-.631-1.015.873-2.667 3.087-3.84 3.731-.317.175-.652-.755-.862-.65-1.303.648-3.044 3.303-4.414 3.792-.618.221-.123-.845-.895-.751-1.35.164-2.978 2.447-4.389 2.898-.585.188-.292-1.082-1.238-.767-1.156.393-3.326 2.227-4.516 2.505zm86.894-5.084l2.523-3.195 2.243-.168.498-2.307 3.275-2.685-3.278-2.239-.291-2.554-2.437-.25-2.414-3.823-2.36 3.748-2.264.243-.069 2.459-3.555 2.642 3.392 2.053.067 2.779 2.654-.01z"/>
        <path d="M50.973-43.862l3.37 4.23 4.368-3.422-3.732-4.416z"/>
        <path fill="#D40000" d="M52.68-43.79l2.275-1.762 1.862 2.215-2.138 1.858z"/>
        <path d="M-24.56 61.097c-.42-1.002-1.723-2.368-2.317-3.32-2.857-4.573-5.387-8.413-6.793-13.632-.292-1.084-.985-2.798-1.153-5.339l-11.504-4.808c.025 1.418.128 2.184.165 3.157.072 1.892.405 3.797.839 5.641.99 4.213 2.494 8.427 4.473 12.275a77.956 77.956 0 0 0 15.361 20.565l.929-14.539z"/>
        <path fill="none" stroke="#131F67" stroke-width="2" stroke-miterlimit="10" d="M16.048-75.736l-4.449 5.353 6.238 4.798 2.373-2.75-2.373-2.326 2.309-2.674 6.197 6.17-5.248 4.681 3.933 7.024 3.27-1.875-1.875-3.57 2.826-1.68 3.959 8.489-5.965 2.569 2.006 7.976 3.445-.465-.67-4.482 3.293-.843 1.52 9.192-6.914 1.334.918 8.017 3.42-.224-.033-3.584 3.28-.456.596 7.852-7.263 1.5 1.183 9.012 3.734-.307-.335-4.703 3.526-.627 1.517 7.981-7.258 2.144 3.34 8.504 3.25-1.102-1.176-3.62 2.801-1.341 3.5 7.003L38.949.93l5.41 7.617 2.832-2.486-2.49-2.806L48.014.93l2.128 2.729"/>
        <path fill="#D40000" stroke="#000" stroke-miterlimit="10" d="M6.854-36.41c-1.227.107-2.341.477-3.669.738.905 3.662 1.78 9.067 2.497 12.644.836 4.172 1.788 8.346 2.741 12.486C8.993-8.064 10.872-.23 10.872-.23s3.681.826 5.717 1.332c.158-6.246-.042-15.594-.108-20.517-1.148-.829-4.188-3.954-5.943-6.83-1.62-2.655-3.33-6.277-3.684-10.165zm5.899 43.457c-.254-1.269-.654-2.58-.915-3.739 1.866.389 3.023.632 4.897.936-.031 1.345-.125 2.219-.21 3.525-1.387-.214-2.431-.443-3.772-.722z"/>
        <path d="M60.749 16.26l-2.518-6.651c-.142-.417-.283-.833-.424-1.242l-.207-.608c-.039-.162-.078-.406-.115-.601-.147-.819-.304-1.587-.404-2.242l-.297-2.174-.986.166.438 2.21c.141.656.34 1.404.535 2.216.056.211.088.388.165.637l.248.61.507 1.242 2.906 6.498.152-.061zm-15.732-4.693s.565-.576 1.445-1.396c.877-.815 2.097-1.863 3.301-2.94.59-.556 1.195-1.094 1.72-1.653.262-.278.537-.526.759-.801l.646-.756c.411-.46.676-.91.897-1.195l.331-.464-.855-.518-.287.453c-.195.281-.417.721-.786 1.183l-.578.761c-.196.276-.452.532-.69.817-.477.571-1.043 1.137-1.592 1.717-1.132 1.136-2.291 2.254-3.134 3.132a48.599 48.599 0 0 0-1.364 1.481l.187.179z"/>
        <path fill="#D40000" stroke="#000" stroke-miterlimit="10" d="M-19.134-23.851s-9.193 4.373-17.421 2.766c-3.185 4.729-4.608 6.227-7.322 8.449 5.915 8.5 19.169 12.455 19.169 12.455l5.574-23.67z"/>
        <path fill="none" stroke="#131F67" stroke-miterlimit="10" d="M42.759 10.32S34.116.881 30.62-9.769c-3.377-10.285-2.177-32.71-8.191-45.379-4.006-8.437-20.331-18.154-20.331-18.154"/>
        <path fill="#D40000" stroke="#000" stroke-miterlimit="10" d="M-59.144 26.022l-2.205-1.445s8.925-8.326 18.174-13.109c4.679-2.42 17.639-7.039 17.639-7.039l-.778 3.316s-9.521 2.921-15.594 6.004c-7.711 3.915-17.236 12.273-17.236 12.273z"/>
        <path fill="#E2CF00" stroke="#000" stroke-miterlimit="10" d="M44.095 48.312c3.493.08 6.544-.641 6.544-.641S45.11 62 44.425 70.349c-1.174 14.291 1.963 22.814 1.963 22.814h-36.09l26.925-45.735s3.625.81 6.872.884z"/>
        <path fill="#D40000" stroke="#000" stroke-miterlimit="10" d="M33.198 46.13l3.166 1.549L9.465 93.135l-3.534-.003z"/>
        <path d="M-.888 93.427l6.819-.295 42.547-73.158-10.93-3.684zM-8.045 3.255V1.604h2.287v1.651zm0-3.225h2.287v-1.709h-2.287zm.024-3.517l2.263-.016v-1.406l-2.263.015zm-.024-2.901h2.287v-1.447h-2.287zm0-3.123h2.287v-1.484h-2.287zm0-2.914h2.287v-1.57h-2.287zm0-2.924h2.287v-1.464h-2.287zm0-2.98h2.287v-1.481h-2.287zm0-3.141h2.287v-1.31h-2.287zm0-2.855h2.287v-1.33h-2.287zm-.003-2.832h2.284v-1.514h-2.284zm.408-2.865l1.797.107.016-1.107z"/>
        <path fill="#D40000" d="M40.501-72.142l1.539 2.02 2.177-1.695-1.554-1.985z"/>
        <path fill="none" stroke="#000" stroke-miterlimit="10" d="M25.238 17.667a1.995 1.995 0 0 0-1.993-1.994 1.995 1.995 0 0 0-1.994 1.994 1.994 1.994 0 0 0 3.987 0zm-9.525 4.072a1.995 1.995 0 0 0-1.993-1.994 1.995 1.995 0 0 0-1.994 1.994 1.995 1.995 0 0 0 3.987 0zm-5.906-8.842a1.995 1.995 0 0 0-1.993-1.994 1.995 1.995 0 0 0-1.994 1.994 1.994 1.994 0 0 0 3.987 0zm-8.096 6.308a1.995 1.995 0 0 0-1.993-1.994 1.995 1.995 0 0 0-1.994 1.994 1.995 1.995 0 0 0 3.987 0zm-7.229-6.919a1.995 1.995 0 0 0-1.993-1.994 1.995 1.995 0 0 0-1.994 1.994 1.994 1.994 0 0 0 3.987 0zm-6.84 7.512a1.995 1.995 0 0 0-1.993-1.994 1.995 1.995 0 0 0-1.994 1.994c0 1.1.894 1.993 1.994 1.993a1.995 1.995 0 0 0 1.993-1.993zm-8.859-5.519a1.995 1.995 0 0 0-1.993-1.994 1.995 1.995 0 0 0-1.994 1.994 1.994 1.994 0 0 0 3.987 0zm-4.986 9.281a1.995 1.995 0 0 0-1.993-1.994 1.995 1.995 0 0 0-1.994 1.994c0 1.1.894 1.993 1.994 1.993a1.995 1.995 0 0 0 1.993-1.993zm-10.143-2.736a1.995 1.995 0 0 0-1.993-1.994 1.995 1.995 0 0 0-1.994 1.994 1.994 1.994 0 0 0 3.987 0zm-2.331 9.609a1.995 1.995 0 0 0-1.993-1.994 1.995 1.995 0 0 0-1.994 1.994 1.995 1.995 0 0 0 3.987 0zm-10.141-1.74a1.995 1.995 0 0 0-1.993-1.994 1.995 1.995 0 0 0-1.994 1.994 1.994 1.994 0 0 0 3.987 0z"/>
        <path d="M-30.353 37.345l1.098 1.592-2.26 1.289-2.187-.827zm2.361.965l2.057-1.11-.837-1.908-2.055 1.104zm3.413-1.541l2.051-.879-.67-1.951-2.199.839zm3.464-1.368l2.227-.646-.402-2.01-2.314.656zm3.6-1.011l2.411-.526-.393-1.909-2.402.46zm3.836-.856l-.281-1.99 2.503-.342.196 2.018zm3.569-.502l2.167-.258v-1.962l-2.196.177zm3.82-.297l.01-2 2.233-.009-.076 2.029zm3.658.024l.016-1.975 2.251.208-.132 1.846zm3.566.246l2.251.256.314-1.912-2.338-.297zm3.976.566l.381-1.965 2.218.469-.385 1.981zm3.567.772l.468-1.805 2.127.65-.512 1.782zm3.419.957l.616-1.904 2.053.703-.689 1.847zm3.13 1.076l.793-1.846 2.058.885-.851 1.766zm3.36 1.59l1.041-1.918.627.352.315 2.635zm30.609-6.154l4.147 4.482 4.57-4.033-4.227-4.867z"/>
        <path fill="#D40000" d="M50.133 31.649l3.251-3.3 3.178 3.744-3.465 3.025z"/>
        <path d="M51.506 31.788l1.825-1.904 1.839 1.904-1.839 1.803z"/>
        <path fill="#D40000" d="M52.357 31.788l.997-.921.927.921-.95.957z"/>
        <path d="M24.3 86.12c-.352.405-.459-.777-.758-1.247-1.007-1.576-3.479-2.426-4.891-.936-.889.938-1.015 2.306-.345 3.404.368.604 1.864 2.136 2.313.946.232-.616-.764-1.53.125-1.979.844-.425 1.432.557 1.469 1.262.034.653.084.844.645 1.229.499.344.973.62 1.263 1.161.392.733.427 1.73.108 2.498-.109.265-.266.49-.447.687H17.44c-.244-.16-.404-.386-.354-.7.119-.757 1.437-.481 1.699-1.089.202-.47-.626-1.111-1.009-1.327-.805-.453-1.707-.402-2.462.04-1.15.673-2.084 1.714-2.008 3.076H11.08a4.441 4.441 0 0 1 .024-1.107c.12-.747.801-1.972 1.423-2.413.837-.594 1.898-.985 2.874-1.118.501-.068.89-.079 1.56-.04-.553-.812-.96-2.972-.904-3.86.1-1.571.946-2.459 2.375-3.046.978-.4 2.79-.949 3.789-.484 1.09.507 2.466 1.516 2.619 2.811.063.532-.178 1.814-.54 2.232zm-3.153 6.803a1.47 1.47 0 1 0 0-2.94 1.47 1.47 0 0 0 0 2.94zm12.549-22.988c-.352.405-.459-.777-.758-1.247-1.007-1.576-3.479-2.426-4.891-.936-.889.938-1.015 2.306-.345 3.404.368.604 1.864 2.136 2.313.946.232-.616-.764-1.53.125-1.979.844-.425 1.432.557 1.469 1.262.034.653.084.844.645 1.229.499.344.973.62 1.263 1.161.392.733.427 1.73.108 2.498-.482 1.162-1.77 1.686-2.959 1.367-.462-.123-.886-.586-1.314-.665-.389-.071-.57.153-.975.252-.549.134-2.035-.081-1.896-.968.119-.757 1.437-.481 1.699-1.089.202-.47-.626-1.111-1.009-1.327-.805-.453-1.707-.402-2.462.04-1.292.756-2.319 1.974-1.938 3.593.335 1.421 1.688 2.789 3.244 2.306.43-.134 1.268-.854 1.522-.584.337.356-.129 1.23-.365 1.566-.827 1.175-2.621 1.065-3.807.518-1.254-.58-1.85-1.827-2.503-2.984-.393-.695-.492-1.635-.362-2.445.12-.747.801-1.972 1.423-2.413.837-.594 1.898-.985 2.874-1.118.501-.068.89-.079 1.56-.04-.553-.812-.96-2.972-.904-3.86.1-1.571.946-2.459 2.375-3.046.978-.4 2.79-.949 3.789-.484 1.09.507 2.466 1.516 2.619 2.811.064.531-.177 1.814-.54 2.232zm-2.487 6.472a1.47 1.47 0 1 0 0-2.94 1.47 1.47 0 0 0 0 2.94z"/>
        <path d="M42.713 54.356c-.352.405-.459-.777-.758-1.247-1.007-1.576-3.479-2.426-4.891-.936-.889.938-1.015 2.306-.345 3.404.368.604 1.864 2.136 2.313.946.232-.616-.764-1.53.125-1.979.844-.425 1.432.557 1.469 1.262.034.653.084.844.645 1.229.499.344.973.62 1.263 1.161.392.733.427 1.73.108 2.498-.482 1.162-1.77 1.686-2.959 1.367-.462-.123-.886-.586-1.314-.665-.389-.071-.57.153-.975.252-.549.134-2.035-.081-1.896-.968.119-.757 1.437-.481 1.699-1.089.202-.47-.626-1.111-1.009-1.327-.805-.453-1.707-.402-2.462.04-1.292.756-2.319 1.974-1.938 3.593.335 1.421 1.688 2.789 3.244 2.306.43-.134 1.268-.854 1.522-.584.337.356-.129 1.23-.365 1.566-.827 1.175-2.621 1.065-3.807.518-1.254-.58-1.85-1.827-2.503-2.984-.393-.695-.492-1.635-.362-2.445.12-.747.801-1.972 1.423-2.413.837-.594 1.898-.985 2.874-1.118.501-.068.89-.079 1.56-.04-.553-.812-.96-2.972-.904-3.86.1-1.571.946-2.459 2.375-3.046.978-.4 2.79-.949 3.789-.484 1.09.507 2.466 1.516 2.619 2.811.063.532-.178 1.814-.54 2.232zm-2.637 6.203a1.47 1.47 0 1 0 0-2.94 1.47 1.47 0 0 0 0 2.94z"/>
        <path fill="#E2CF00" d="M62.691-30.805c-.108.665-.551 1.289-.771 1.934-.18.524-.241 1.003-.352 1.549-.227 1.123-.241 2.032-.859 2.945a4.674 4.674 0 0 1-2.824 1.959c-.877.214-2.067.115-2.905-.201-.78-.294-1.277-1.108-2.099-.926-.563.126-1.05.707-1.575.932-.744.317-1.62.272-2.423.368-.996.118-1.978.09-2.959.342-1.125.289-1.782 1.303-2.883-.241-.386-.541-.244-1.73.002-2.198.251-.479.719-.716 1.029-1.138.328-.446.301-.903.368-1.438.164-1.3 1.196-2.187 2.505-2.257.834-.045 1.576.408 2.149.962.503.485.922 1.488 1.391.227.258-.694.256-1.514.275-2.257.015-.554.216-2.052.216-2.052 1.09.07 2.127-.122 3.184-.218.125.981.6 2.339.506 3.364.886-.427 1.022-1.186 2.812-1.276.664-.034.68-.701 1.194-1.093.691-.525 1.557-.911 2.429-.761.776.134 1.733.608 1.59 1.474zm-2.494.108c-.765-.277-.982 1.372-1.516 1.641-.583.294-1.716.014-2.257.401-.477.342-.777.825-.61 1.393.091.309.83 1.05.51 1.381-.712.736-2.468-1.217-2.684-1.703-.446-1.003-.584-2.145-.48-3.213-.294.074-.622-.005-.927.033-.304 1.969.049 5.086-2.756 5.089-.39 0-.99-.042-1.157-.467-.086-.217.097-.582.026-.841-.069-.255-.276-.512-.463-.693-1.143-1.112-2.442.32-2.195 1.404.328 1.438-.079 1.265-.335 1.479-.398.334-.83.615-.998 1.153-.262.835.377.683.977.597.879-.126 1.739-.217 2.606-.313.642-.071 1.347-.026 1.979-.17.627-.143 1.127-.593 1.62-.991.736-.595 1.201-1.153 2.095-.598.809.503 1.506.927 2.434 1.188 1.172.331 2.266.011 3.104-.91.697-.766.761-2.102.927-3.097.114-.681.67-2.557.1-2.763z"/>
        <path fill="#D40000" stroke="#000" stroke-miterlimit="10" d="M24.935-32.21c-.262-4.284-1.822-12.594-1.822-12.594S21-41.465 21.875-36.752c.321 1.731 1.616 3.826 3.06 4.542z"/>
    </symbol>
    <use xlink:href="#queen-hearts" width="131.514" height="188.314" x="-65.757" y="-94.651" transform="matrix(1 0 0 -1 127.1 123.303)" overflow="visible"/>
    <use xlink:href="#queen-hearts" width="131.514" height="188.314" x="-65.757" y="-94.651" transform="matrix(-1 0 0 1 98.934 195.177)" overflow="visible"/>
    <use xlink:href="#hearts" width="21.868" height="23.314" x="-10.934" y="-11.657" transform="matrix(1 0 0 -1 20 61)" overflow="visible"/>
    <use xlink:href="#hearts" width="21.868" height="23.314" x="-10.934" y="-11.657" transform="translate(208 252)" overflow="visible"/>
    <use xlink:href="#hearts-medium" width="43.787" height="46.682" x="-21.892" y="-23.341" transform="matrix(1 0 0 -1 62.305 63.348)" overflow="visible"/>
    <use xlink:href="#hearts-medium" width="43.787" height="46.682" x="-21.892" y="-23.341" transform="translate(166.674 254.602)" overflow="visible"/>
    <use xlink:href="#face-frame" width="161.544" height="259.519" x="-80.771" y="-129.759" transform="matrix(1 0 0 -1 113.904 159.24)" overflow="visible"/>
    <path fill="none" d="M1.945 13.418h33.412v39.516H1.945z"/>
    <text transform="translate(4.611 44.922)" fill="#D40000" font-family="'ArialNarrow'" font-size="44">
        Q
    </text>
    <path fill="none" d="M193.588 262.938H227v39.516h-33.412z"/>
    <text transform="rotate(180 112.167 135.475)" fill="#D40000" font-family="'ArialNarrow'" font-size="44">
        Q
    </text>
</svg>
