<svg xmlns="http://www.w3.org/2000/svg" xmlns:xlink="http://www.w3.org/1999/xlink" viewBox="0 0 227 315">
    <symbol id="clubs_4_" viewBox="-11.089 -11.846 22.179 23.691">
        <path d="M.076-11.846h-2.951S-.856-7.584-.856-3.989c0 .711-.403.53-.46.004-.217-1.981-1.856-4.288-4.857-4.168-3.653.145-4.915 2.93-4.915 5.221 0 1.702.89 5.168 4.671 5.309 1.202.045 2.285-.327 2.925-.875.473-.405.691-.164.19.405-.35.398-1.975 1.813-1.903 4.629C-5.07 11.844 0 11.846 0 11.846s5.071-.001 5.207-5.309c.072-2.816-1.553-4.231-1.903-4.629-.5-.569-.283-.81.19-.405.64.548 1.723.919 2.925.875 3.78-.141 4.67-3.607 4.67-5.309 0-2.291-1.262-5.076-4.915-5.221-3-.119-4.641 2.188-4.857 4.168-.057.526-.461.707-.461-.005 0-3.595 2.019-7.857 2.019-7.857h-2.95"/>
    </symbol>
    <symbol id="clubs-medium" viewBox="-22.204 -23.719 44.409 47.437">
        <use xlink:href="#clubs_4_" width="22.179" height="23.691" x="-11.089" y="-11.846" transform="scale(2.0023)" overflow="visible"/>
    </symbol>
    <symbol id="face-frame" viewBox="-80.771 -129.759 161.544 259.519">
        <path fill="none" stroke="#131F67" stroke-width="3" stroke-miterlimit="10" d="M79.272-128.259H-79.271V128.26H79.272z"/>
    </symbol>
    <symbol id="queen-spades" viewBox="-79.098 -81.033 158.194 162.066">
        <path fill="#D40000" d="M50.766 3.555c-7.051-.063-12.739-.115-20.364-.123C9.571-15.695 8.277-40.774 8.277-40.774l2.951.02C22.277-4.186 57.695-9.443 57.695-9.443l3.105 5.1c.001 0-4 2.148-10.034 7.898zM25.02-16.862c-1.191-.047-1.843.869-1.928 1.655-.023.209-.184.281-.184-.001 0-1.427.802-3.119.802-3.119h-2.283s.802 1.692.802 3.119c0 .283-.16.21-.183.001-.086-.786-.737-1.702-1.929-1.655-1.45.058-1.951 1.164-1.951 2.073 0 .676.354 2.051 1.854 2.107.477.018.907-.13 1.161-.347.188-.161.274-.065.075.161-.139.158-.784.72-.755 1.837.054 2.107 2.066 2.108 2.066 2.108s2.013-.001 2.066-2.108c.029-1.118-.616-1.68-.755-1.837-.199-.226-.112-.322.075-.161.254.217.685.365 1.161.347 1.501-.056 1.854-1.432 1.854-2.107.003-.909-.498-2.015-1.948-2.073zm9.875 10.703c-1.191-.047-1.843.869-1.928 1.655-.023.209-.184.281-.184-.001 0-1.427.802-3.119.802-3.119h-2.283s.802 1.692.802 3.119c0 .283-.16.21-.183.001-.086-.786-.737-1.702-1.929-1.655-1.45.058-1.951 1.164-1.951 2.073 0 .676.354 2.051 1.854 2.107.477.018.907-.13 1.161-.347.188-.161.274-.065.075.161-.139.158-.784.72-.755 1.837.054 2.107 2.066 2.108 2.066 2.108s2.013-.001 2.066-2.108c.029-1.118-.616-1.68-.755-1.837-.199-.226-.112-.322.075-.161.254.217.685.365 1.161.347 1.501-.056 1.854-1.432 1.854-2.107.003-.91-.498-2.016-1.948-2.073zm17 0c-1.191-.047-1.843.869-1.928 1.655-.023.209-.184.281-.184-.001 0-1.427.802-3.119.802-3.119h-2.283s.802 1.692.802 3.119c0 .283-.16.21-.183.001-.086-.786-.737-1.702-1.929-1.655-1.45.058-1.951 1.164-1.951 2.073 0 .676.354 2.051 1.854 2.107.477.018.907-.13 1.161-.347.188-.161.274-.065.075.161-.139.158-.784.72-.755 1.837.054 2.107 2.066 2.108 2.066 2.108s2.013-.001 2.066-2.108c.029-1.118-.616-1.68-.755-1.837-.199-.226-.112-.322.075-.161.254.217.685.365 1.161.347 1.501-.056 1.854-1.432 1.854-2.107.003-.91-.498-2.016-1.948-2.073z"/>
        <path d="M-19.279 4.036c7.333-15.759 1.734-23.812-.979-27.981 3.641-5.047 5.229-16.861 5.229-16.861l23.307-.503S11.86-12.173 31.611 4.036c-13.501 0-46.14.043-50.89 0zm11.123-44.717l-4.89-.028c-2.372 11.264-6.106 17.454-6.106 17.454s8.807 11.773.622 26.337c6.435-.025 10.843.124 16.919-.066-6.86-19.211-6.545-43.697-6.545-43.697z"/>
        <path d="M-63.107-59.728s13.822-10.82 26.65 1.094c11.92 11.07 3.555 23.934 3.555 23.934l13.005 10.755s16.364-28.428-6.075-47.812c-28.875-21.729-49.688 1.533-49.688 1.533l12.553 10.496z"/>
        <path fill="#E2CF00" d="M-58.607-8.681s13.245-3.012 16.136 4.437C-58.112-3.001-58.94-9.042-58.94-9.042"/>
        <path d="M-58.499-8.192a29.11 29.11 0 0 1 4.394-.648c1.482-.107 2.975-.094 4.442.094 1.462.2 2.918.576 4.189 1.316.323.176.618.394.911.614a6.7 6.7 0 0 1 .799.754c.236.278.478.561.659.881.208.306.352.647.513.98l.002.003.107-.173-2.273.078c-.758.038-1.516-.017-2.271-.021-.757.007-1.508-.097-2.26-.147-.754-.047-1.49-.21-2.234-.309l-1.093-.251a7.669 7.669 0 0 1-1.074-.305c-.349-.124-.713-.213-1.042-.378-.33-.161-.688-.272-.993-.471-.312-.186-.641-.349-.917-.578a5.854 5.854 0 0 1-.811-.689 4.764 4.764 0 0 1-.635-.814c-.17-.271-.326-.63-.359-.853l-.99.136c.111.527.311.859.544 1.227.229.355.511.662.803.949.303.275.613.538.955.75.323.243.686.408 1.035.595.345.202.726.306 1.087.462.36.161.743.241 1.115.354.373.116.749.211 1.131.272l1.14.213c.767.071 1.528.206 2.296.222.767.02 1.531.094 2.297.056.764-.027 1.529-.004 2.29-.073l2.281-.171.185-.014-.076-.159-.001-.003c-.151-.352-.288-.713-.491-1.042-.177-.343-.417-.651-.654-.954-.246-.3-.52-.574-.811-.831a7.927 7.927 0 0 0-.934-.687c-1.311-.836-2.816-1.289-4.323-1.56-1.515-.257-3.051-.334-4.578-.287a30.086 30.086 0 0 0-4.57.484l.215.978zm26.975 9.809s1.191 1.713 2.364 3.196c15.51-14.708.678-27.529.678-27.529l-2.615 2.938c11.642 10.88-.427 21.395-.427 21.395z"/>
        <path fill="#E2CF00" stroke="#000" stroke-miterlimit="10" d="M-29.598 4.036l2.25 2.568 75.986-.121 1.994-2.447z"/>
        <path d="M-18.651 23.381l21.647.448c4.531-4.353 12.039.207 12.039.207l21.545.488 11.824-17.92h-76.037l8.982 16.777z"/>
        <path fill="none" stroke="#131F67" stroke-miterlimit="10" d="M-40.002-9.015l15.66-18.918-2.753-2.03-15.643 18.733"/>
        <path fill="#E2CF00" d="M48.34 7.389h-4.183l1.89 2.965"/>
        <path fill="none" stroke="#131F67" stroke-miterlimit="10" d="M-42.738-11.482c6.185 5.079 11.214 12.694 11.214 12.694"/>
        <path fill="#E2CF00" d="M44.412 12.459h-4.418l2.061 3.233"/>
        <path fill="none" stroke="#000" stroke-miterlimit="10" d="M15.035 24.036h21.949"/>
        <path fill="#E2CF00" stroke="#000" stroke-miterlimit="10" d="M-60.557-7.875C-61.876.498-68.673 2.148-72.678 4.954c-.851 1.139-1.701-7.917 11.837-12.195"/>
        <path d="M-58.355-7.895l1.688.33c.99.216 2.289.575 3.646.928.331.096.688.147 1.024.22.337.081.682.105 1.012.141.658.1 1.277.042 1.805.057.524-.027.957-.085 1.261-.109l.478-.046a.258.258 0 0 0-.038-.515l-.021.001-.466.024c-.296.01-.72.048-1.226.053-.503-.038-1.096-.007-1.712-.13-.31-.048-.63-.083-.949-.175-.321-.085-.646-.145-.972-.254-1.291-.397-2.628-.83-3.645-1.099l-1.672-.403a.501.501 0 0 0-.236.972c.007.003.016.004.023.005z"/>
        <path fill="#E2CF00" d="M-61.054-7.278l1.981-.796L-55.308.11l-1.838.983z"/>
        <path d="M-60.406-7l1.52-.61-.641-.255c.83 1.271 1.519 2.607 2.162 3.963.639 1.359 1.225 2.742 1.604 4.221l.218-.65-1.838.983.689.229c-.504-.614-.893-1.283-1.237-1.972A62.228 62.228 0 0 1-60.406-7zm-1.101-.067a59.447 59.447 0 0 1 2.201 4.071c.34.691.677 1.383.99 2.086.307.707.57 1.433.717 2.214l.103.543.587-.314 1.838-.983.49-.262-.272-.388c-.876-1.25-1.546-2.594-2.162-3.963-.611-1.372-1.179-2.763-1.604-4.221l-.134-.458-.507.204-2.521 1.013.274.458z"/>
        <path fill="#131F67" d="M-60.747.955l.101 13.242 12.772.028-.085-13.35z"/>
        <path fill="#E2CF00" stroke="#000" stroke-miterlimit="10" d="M-47.023 7.798a2.984 2.984 0 1 0-5.968 0 2.984 2.984 0 0 0 5.968 0zm-4.572-5.002a2.984 2.984 0 1 0-5.968 0 2.984 2.984 0 0 0 5.968 0zm-4.533 4.754a2.984 2.984 0 1 0-5.968 0 2.984 2.984 0 0 0 5.968 0zm4.323 5.092a2.984 2.984 0 1 0-5.968 0 2.984 2.984 0 0 0 5.968 0z"/>
        <path fill="none" stroke="#131F67" stroke-miterlimit="10" d="M78.031-1.156C59.902-22.945 23.097 33.555 18.777 79.882"/>
        <path stroke="#000" stroke-miterlimit="10" d="M23.097 79.945c9.267-16.349 22.509-46.888 37.426-70.846C65.025 1.869 72.487-1.257 78.032.011c-10.885 17.6-49.754 79.934-49.754 79.934h-5.181z"/>
        <path fill="#D40000" stroke="#000" stroke-miterlimit="10" d="M35.092 79.882l29.179-45.548-6.083-2.443-29.911 48.054z"/>
        <path fill="none" stroke="#131F67" stroke-miterlimit="10" d="M-7.385 63.166S2.277 67.93 5.218 78.815c3.497-11.26 16.435-15.01 16.435-15.01"/>
        <path fill="none" stroke="#131F67" stroke-miterlimit="10" d="M-7.473 66.43c7.662 3.861 9.25 13.453 9.25 13.453h6.25s2.49-9.828 12.75-12.578"/>
        <path fill="none" stroke="#131F67" stroke-miterlimit="10" d="M-7.385 70.055c4.537 2 7.104 9.89 7.104 9.89h11.184s1.374-6.612 9.375-9.89"/>
        <path fill="none" stroke="#131F67" stroke-miterlimit="10" d="M-7.227 73.156c2.69 2.593 3.879 6.789 3.879 6.789h17.25s1.596-3.905 5.75-6.789"/>
        <path fill="#131F67" d="M-7.57 61.006s.102.125.283.318c.193.19.476.467.872.779.793.595 2.073 1.424 3.918 1.614a5.814 5.814 0 0 0 2.911-.483c.956-.444 1.815-1.13 2.506-1.954l.278-.334.226-.325c.174-.28.298-.552.394-.827.2-.553.276-1.128.311-1.691.053-1.13-.109-2.24-.34-3.317-.485-2.149-1.153-4.219-1.792-6.141-.318-.96-.628-1.885-.893-2.764a37.48 37.48 0 0 1-.374-1.317l-.016-.08c.005-.018.003.033.005.015.002-.007-.003-.017.023-.052a1.28 1.28 0 0 1 .311-.271c.604-.383 1.34-.725 1.903-1.178.288-.222.542-.475.746-.741.11-.152.171-.229.284-.451.045-.107.09-.255.12-.42a2.91 2.91 0 0 0-.052-1.181c-.064-.268-.146-.414-.146-.414s-.113.122-.254.354c-.14.222-.317.597-.462.973-.025.065-.056.154-.12.285-.011.007-.104.158-.169.229a3.06 3.06 0 0 1-.579.533c-.478.36-1.113.621-1.88 1.101-.191.132-.405.278-.605.554a1.181 1.181 0 0 0-.21.869l.015.08.029.12c.12.43.254.869.399 1.314.288.894.617 1.819.954 2.774.666 1.909 1.443 3.922 1.874 5.998.221 1.032.363 2.08.313 3.077a4.228 4.228 0 0 1-.302 1.395 3.32 3.32 0 0 1-.314.552c-.062.087-.161.192-.241.285l-.243.222c-.697.649-1.475 1.111-2.241 1.364a5.51 5.51 0 0 1-2.221.238c-1.404-.145-2.56-.708-3.339-1.116a10.646 10.646 0 0 1-.896-.519l-.301-.192-.025-.016a.503.503 0 0 0-.66.741z"/>
        <path fill="#131F67" d="M3.898 44.98c0-.006.046.062.133.123.104.063.171.186.423.228.239.052.53.077.777.028.271-.046.54-.146.832-.244.577-.212 1.183-.521 1.784-.866.302-.166.611-.342.914-.48.3-.146.626-.258.856-.266a.547.547 0 0 1 .256.04c-.004-.011.048.033 0-.023l.049.051.097.101.18.211c.105.151.106.25.167.363.002.122.056.237.037.335.049.379-.268.808-.641 1.121-.363.322-.748.541-1.007.695-.267.15-.414.216-.414.216l-.005.002a.5.5 0 1 0 .352.935s.205-.064.529-.201a5.694 5.694 0 0 0 1.288-.748 3.34 3.34 0 0 0 .744-.792c.204-.349.433-.817.349-1.333-.011-.255-.136-.472-.23-.694-.137-.189-.284-.432-.422-.559l-.189-.204-.089-.107-.045-.054c-.085-.084-.073-.065-.115-.102a1.502 1.502 0 0 0-.776-.349c-.521-.085-.938-.006-1.346.044-.409.058-.777.144-1.135.223-.712.155-1.324.337-1.82.464-.245.071-.47.119-.648.162a.894.894 0 0 0-.39.213c-.073.096-.267.174-.337.248-.089.058-.137.125-.137.119a.905.905 0 0 0-.021 1.1z"/>
        <path d="M-18.223 23.381s7.714 15.424 11.287 33.821c2.588-10.59 4.114-31.216 10.46-33.821-7.345.009-21.747 0-21.747 0z"/>
        <path fill="#131F67" d="M14.921 46.947c-1.628.76-3.138 1.804-4.336 3.265-.571.744-1.06 1.626-1.221 2.646a4.533 4.533 0 0 0 .03 1.545c.102.511.297.989.527 1.44l.081.157.189.113c1.062.634 2.216.916 3.34 1.074 1.13.155 2.252.137 3.352.033a27.175 27.175 0 0 0 3.237-.572c1.062-.264 2.096-.57 3.119-.99a.504.504 0 1 0-.271-.961l-.015.003a92.566 92.566 0 0 1-3.112.463c-1.037.132-2.071.255-3.101.298a26.684 26.684 0 0 1-3.041.036c-.989-.063-1.97-.238-2.774-.658l.27.27a4.14 4.14 0 0 1-.447-1.013 3.652 3.652 0 0 1-.102-1.086c.045-.742.357-1.497.797-2.189.438-.7 1.002-1.347 1.62-1.945a17.074 17.074 0 0 1 2.006-1.661l.005-.003a.154.154 0 0 0-.153-.265z"/>
        <path fill="none" stroke="#131F67" stroke-miterlimit="10" d="M3.277 55.918c-5.75 5.262-10.213 1.531-10.213 1.531"/>
        <path fill="#131F67" d="M-3.07 48.504a18.918 18.918 0 0 1 2.529 1.798l.573.516c.194.168.357.365.537.545.372.354.646.775.963 1.162l.568-.77-1.927-.581c-.328-.075-.664-.13-.995-.195-.335-.052-.659-.151-1.005-.157l-1.026-.07c-.345-.001-.694.035-1.042.052-.173 0-.349.054-.523.083-.174.038-.349.064-.522.114l-.521.183c-.186.095-.324.139-.547.301a.501.501 0 1 0 .597.803l.028-.021c.042-.032.211-.112.316-.164l.405-.142c.14-.04.291-.06.436-.092.147-.024.288-.073.444-.071.307-.013.609-.046.918-.046l.934.065c.312.002.621.1.932.147.311.062.622.112.932.182l1.833.553 1.623.489-1.056-1.259c-.379-.405-.724-.845-1.145-1.193-.207-.179-.398-.375-.615-.537l-.643-.496a19.473 19.473 0 0 0-2.756-1.666.265.265 0 0 0-.252.465l.007.002zM9.058 61.966s.151.159.436.411c.157.125.271.295.562.438.263.152.577.322.92.48.339.104.709.229 1.106.325.398.054.823.124 1.258.141.432-.01.886.028 1.33-.027.447-.042.903-.074 1.345-.164 1.785-.291 3.456-.921 4.661-1.464a23.088 23.088 0 0 0 1.432-.714l.534-.31a.5.5 0 0 0-.443-.893l-.033.014-.525.219c-.338.142-.83.336-1.426.543-.598.204-1.292.444-2.049.644-.758.189-1.568.385-2.38.494-.405.075-.811.094-1.208.124-.4.043-.783-.004-1.158.001-.371-.025-.718-.092-1.055-.117a21.34 21.34 0 0 0-.911-.204c-.255-.083-.476-.173-.693-.23-.208-.036-.427-.204-.593-.271-.336-.177-.538-.263-.538-.263a.51.51 0 0 0-.67.269.509.509 0 0 0 .098.554z"/>
        <path fill="none" stroke="#131F67" stroke-miterlimit="10" d="M-6.703 79.906s-.99-12.969-.646-17.444c.131-1.703.684-5.484 1.027-7.157C-5.179 49.73-3.8 38.392-2.31 32.9c1.003-3.696 4.289-11.432 10.974-10.69 10.988 1.22 22.488 13.845 22.488 13.845"/>
        <path fill="#131F67" d="M1.836 30.598l.319.24.372.268c.135.11.336.197.535.305.205.104.425.231.669.314.244.089.496.209.776.263.279.057.562.154.861.18.297.035.6.094.905.08.611.023 1.218-.064 1.776-.16a8.794 8.794 0 0 0 1.477-.467c.419-.171.744-.365.972-.5.224-.137.353-.24.353-.24a.278.278 0 0 0-.288-.471l-.016.007-.34.151c-.221.099-.548.22-.944.345-.392.138-.867.237-1.373.333-.508.079-1.055.152-1.601.122-.273.002-.545-.021-.813-.043-.271-.007-.526-.084-.781-.121-.255-.038-.487-.132-.721-.179-.236-.048-.436-.137-.629-.206-.191-.08-.371-.12-.533-.202l-.415-.193-.366-.161a.195.195 0 0 0-.195.335z"/>
        <path fill="none" stroke="#131F67" stroke-linecap="round" stroke-miterlimit="10" d="M3.277 33.898c3.328-1.5 5.672.594 5.672.594"/>
        <path fill="#D40000" stroke="#131F67" stroke-miterlimit="10" d="M-33.116.148c10.919 12.66 22.062 37.593 26.181 57.925-1.317 8.5 0 17.356.613 22.459h-2.525C-4.348 45.805-40.848 29.43-33.116.148z"/>
        <path fill="#D40000" stroke="#000" stroke-miterlimit="10" d="M-55.894-54.578l16.585 13.771s3.069-8.155-3.132-12.836c-6.032-4.553-13.453-.935-13.453-.935z"/>
        <path fill="none" stroke="#E2CF00" stroke-width="2" stroke-miterlimit="10" d="M-63.563-61.207c14.639-12.333 43.604 1.005 32.245 26.506"/>
        <path fill="#E2CF00" stroke="#000" stroke-miterlimit="10" d="M-57.807 7.519l2.986 2.984 3.05-2.971-2.919-2.936z"/>
        <path fill="none" stroke="#E2CF00" stroke-width="2" stroke-miterlimit="10" d="M4.559 2.68C4.467.359 1.746.836 1.027-.264c-.596-.912 1.672-2.387 1.5-3.462-.18-1.13-3.032-2.003-3.375-3.094C-1.092-7.598.525-8.6.559-9.414c.047-1.151-2.623-2.738-2.812-3.875-.136-.812 1.512-1.707 1.5-2.531-.015-1.051-2.283-1.871-2.594-2.875-.265-.855 1.224-2.208 1.094-3.094-.113-.773-1.811-1.304-2.094-2.031-.295-.757 1.34-1.854 1.215-2.656-.119-.764-1.648-1.479-1.871-2.219-.239-.795 1.278-1.766 1.344-2.594.06-.753-1.798-1.555-1.729-2.307.058-.626.824-1.083.979-1.693.196-.779-.742-1.545-.947-2.322-.188-.712 1.01-1.115 1.01-3.025m9.624.017c-.019.643-.459.956-.41 1.33.036.277 1.025.814 1.034 1.094.02.637-1.457 1.956-1.125 2.5.276.453 1.721.901 1.88 1.407.255.808-1.27 2.061-.942 2.843.261.624 1.574.797 1.656 1.469.115.951-1.479 2.263-1.058 3.123.387.787 2.852 1.439 3.089 2.284.198.704-1.266 2.068-1 2.75.381.978 3.106 1.615 3.25 2.654.12.867-1.705 2.095-1.4 2.916.427 1.149 3.344 1.974 3.557 3.18.156.886-1.244 2.048-.883 2.873.532 1.214 3.913 1.924 4.155 3.228.136.73-1.694 1.938-1.397 2.619.729 1.673 5.837 2.678 6.188 4.469.156.801-1.472 1.943-1.472 2.716"/>
        <path fill="#E2CF00" stroke="#E2CF00" stroke-miterlimit="10" d="M-1.611-40.648S-1.676-20.722 8.848 2.958c2.821.123 4.68-.061 8.078-.104C1.782-17.555 1.439-40.695 1.439-40.695l-3.05.047z"/>
        <path fill="#E2CF00" d="M-16.238 12.459l2.622 4.115H-7.1l-2.414-4.115zm14.278 0l2.622 4.115h6.517l-2.414-4.115zm13.677 0l2.622 4.115h6.516l-2.414-4.115zm14.336 0l2.622 4.115h6.516l-2.414-4.115zm3.917-5.07l2.622 4.114h6.516l-2.414-4.114zm-13.684 0l2.622 4.114h6.517l-2.414-4.114zm-14.504 0l2.622 4.114h6.517L8.507 7.389zm-13.451 0l2.622 4.114h6.517l-2.414-4.114zm-15.196 0l2.622 4.114h6.516l-2.414-4.114z"/>
        <path fill="#131F67" d="M-40.002-8.471l9.223-11.306s11.5 9.769-.745 21.394c-4.949-7.312-8.478-10.088-8.478-10.088z"/>
        <path fill="#D40000" stroke="#000" stroke-miterlimit="10" d="M-78.598-40.819v-3.876l37.955 30.98-2.095 2.233z"/>
        <path fill="#131F67" d="M-58.244-19.332l-1.164 5.452.323-.375-1.078.431c-.356.151-.7.347-1.05.52-.177.082-.336.208-.504.311-.166.11-.335.213-.496.33-.304.268-.637.495-.898.819-.135.157-.286.295-.394.478-.111.178-.244.341-.335.533a3.978 3.978 0 0 0-.268 3.108c.064.21.141.389.263.618l.186.348.392-.125c1.34-.429 2.669-.853 3.99-1.347l.99-.366c.33-.127.66-.229.989-.395l.986-.46.492-.23c.093-.053.14-.045.271-.148l.209-.157c.279-.211.561-.405.83-.672.267-.251.553-.501.802-.756.493-.508.988-1.015 1.452-1.542a73.941 73.941 0 0 0 2.736-3.208.5.5 0 1 0-.778-.627l-.003.003a74.437 74.437 0 0 1-2.696 3.162c-.458.52-.938 1.011-1.417 1.505-.24.244-.48.452-.719.681-.223.231-.517.435-.794.645l-.209.157c0 .016-.132.065-.19.096l-.456.21-.911.424c-.295.152-.633.256-.954.38l-.974.359c-1.293.484-2.623.909-3.941 1.331l.577.223a2.412 2.412 0 0 1-.171-.417 3.007 3.007 0 0 1-.107-1.427 3.12 3.12 0 0 1 .31-.908c.067-.147.178-.276.263-.417.079-.145.211-.259.32-.386.207-.266.503-.463.758-.692.142-.103.294-.193.439-.291.151-.091.287-.204.451-.279.322-.157.63-.336.963-.477l1.008-.404h.001l.292-.132.031-.243.715-5.54.002-.013a.271.271 0 0 0-.534-.09z"/>
        <path fill="none" stroke="#131F67" stroke-miterlimit="10" d="M9.715 53.055c7.091-3.45 13.382 2.125 13.382 2.125"/>
        <path fill="#131F67" d="M3.004 54.761l-.361.147c-.241.084-.575.233-1 .354-.411.154-.911.271-1.444.391a8.954 8.954 0 0 1-1.704.189c-.293.022-.584-.022-.873-.024-.288-.013-.568-.064-.843-.091-.273-.038-.531-.11-.78-.158-.251-.043-.475-.137-.69-.192-.433-.111-.774-.267-1.019-.363l-.383-.154-.457.89.4.204c.257.128.615.33 1.083.497.231.086.477.202.755.264.276.07.564.163.87.222a9.465 9.465 0 0 0 1.947.198c.668.002 1.337-.066 1.952-.185a8.36 8.36 0 0 0 1.639-.49 6.66 6.66 0 0 0 1.072-.575c.244-.162.394-.295.383-.286l-.547-.838zM-.467 34.219s3.474 1.501 6.404.986c4.777 1.748 7.231-.253 7.231-.253s-.913 2.81-1.036 4c-2.376-2-3.75-.266-4.999-.375-1.981-1.212-2.731-.795-3.856-.379-2.479-1.479-2.938-.541-3.691-.169.004-1.076-.053-3.81-.053-3.81z"/>
        <path d="M-14.476-40.806s21.463 0 29.241.042c-2.113-5.886-1-11.887-1-11.887s-19.515-.099-28.795.138c1.165 4.128.554 11.707.554 11.707z"/>
        <path fill="#131F67" stroke="#000" stroke-miterlimit="10" d="M-38.611-39.772c1.382 1.132 5.568 4.474 5.568 4.474s7.862-13.149-3.909-23.795c-12.413-11.227-26.155-.634-26.155-.634s4.361 3.219 6.431 4.868c5.703-2.211 21.151-3.431 18.065 15.087z"/>
        <path fill="none" stroke="#131F67" stroke-miterlimit="10" d="M77.175-2.794C56.402-5.977 40.152 51.033 20.277 80.533m-1.134-3.982l9.418-10.121m-8.776 5.678L32.07 59.764m-11.245 6.809l14.648-13.67m-13.559 8.926L38.788 46.06M23.33 56.549L41.791 39.84M24.743 51.928s14.784-16.182 19.941-18.003M27.158 45.012S43.341 29.18 47.966 27.43M29.224 39.791s17.364-16.655 21.542-17.63m-17.401 8.507l19.951-13.02m-16.533 6.51L56.8 12.005m-15.957 5.373l19.278-9.989m-15.381 4.32C53.016 4.885 65.432 1.602 65.432 1.602M51.296 3.865L70.234-1.66M19.143 76.551s-2.59 1.991-3.27 3.982"/>
        <path fill="#131F67" stroke="#131F67" stroke-miterlimit="10" d="M55.356-12.283C58.169-8.664 60.8-4.344 60.8-4.344s10.727-6.102 17.23 2.683c0-9.66.247-18.277.247-18.277l-3.509-2.137c.002.001-5.116 6.755-19.412 9.792z"/>
        <path fill="#E2CF00" d="M-.188-51.655l1.987 2.291 3.271.063-1.394 3.006 1.584 2.342-3.094.161-1.689 2.225-1.81-2.191-3.258-.157 1.419-2.693-1.759-2.817 3.019-.161z"/>
        <path fill="#E2CF00" stroke="#000" stroke-miterlimit="10" d="M35.358 79.945s21.71-.062 29.815.14C64.41 51.332 75.281 37.481 77.716 34.49c-7.917 2.211-13.745-.271-13.745-.271L35.358 79.945z"/>
        <path fill="none" stroke="#131F67" stroke-miterlimit="10" d="M10.485 55.918l-1.143 1.531c7.22 5.278 12.571-1.832 12.571-1.832m-89.03-82.231c2.582.731 1.832 3.544 1.832 3.544s1.475.969 1.188 2.406c.715.143 1.781.668 1.281 3.656 1.723.281 2.098 3.92 2.098 3.92s-1.937 1.329-2.395 2.017c-.494.742-1.089 3.378-1.089 3.378s-3.603.706-3.936-2.96c-2.5-.25-2.929-1.949-2.334-3.417-1.563-1.219-.915-3.905-.532-4.875-1.406-1.469-.22-4.144.438-4.981 1.348-1.718 6.364-4.386 6.364-4.386"/>
        <path fill="#131F67" d="M-38.436-16.789l-40.162-32.657v-14.5l47.5 38.729-7.338 8.428zM-75.873-56.76a1.31 1.31 0 1 0-.001 2.619 1.31 1.31 0 0 0 .001-2.619zm5.389 1.018l-1.559 2.201-2.279.156.543 2.212-2.094 1.43 8.999 2.18-3.61-8.179zm3.35 9.737a1.31 1.31 0 1 0-.001 2.619 1.31 1.31 0 0 0 .001-2.619zm2.717-3.678a1.31 1.31 0 1 0-.001 2.619 1.31 1.31 0 0 0 .001-2.619zm1.31 3.917a1.31 1.31 0 1 0-.001 2.619 1.31 1.31 0 0 0 .001-2.619zm5.774 1.31l-1.559 2.201-2.279.156.543 2.212-2.094 1.43 8.999 2.18-3.61-8.179zm3.253 9.481a1.31 1.31 0 1 0-.001 2.619 1.31 1.31 0 0 0 .001-2.619zm2.684-3.921a1.31 1.31 0 1 0-.001 2.619 1.31 1.31 0 0 0 .001-2.619zm1.309 4.191a1.31 1.31 0 1 0-.001 2.619 1.31 1.31 0 0 0 .001-2.619zm6.856 1.309l-1.559 2.201-2.279.156.543 2.212-2.094 1.43 8.999 2.18-3.61-8.179zm2.588 9.01a1.31 1.31 0 1 0-.001 2.619 1.31 1.31 0 0 0 .001-2.619zm2.971-3.703a1.31 1.31 0 1 0-.001 2.619 1.31 1.31 0 0 0 .001-2.619zm.865 4.275a1.31 1.31 0 1 0-.001 2.619 1.31 1.31 0 0 0 .001-2.619z"/>
        <path d="M49.59 68.805s-5.562 3.304-2.326 5.556c2.608 1.815 4.085-1.799 4.085-1.799s3.116 3.431 5.059.206c1.945-3.23-2.661-4.067-2.661-4.067s3.219-3.458.509-5.019c-3.396-1.957-4.666 5.123-4.666 5.123"/>
        <path fill="#D40000" d="M-1.738 3.015c-6.076.19-10.484.041-16.919.066 8.185-14.564-.622-26.337-.622-26.337s3.734-6.19 6.106-17.454l4.89.028s-.315 24.487 6.545 43.697zm-10.445-5.297c.477.018.907-.13 1.161-.347.188-.161.274-.065.075.161-.139.158-.784.72-.755 1.837.054 2.107 2.066 2.108 2.066 2.108s2.013-.001 2.066-2.108c.029-1.118-.616-1.68-.755-1.837-.197-.226-.111-.322.077-.161.254.217.685.365 1.161.347 1.501-.056 1.854-1.432 1.854-2.107 0-.909-.501-2.015-1.951-2.073-1.191-.047-1.843.869-1.928 1.655-.023.209-.184.281-.184-.001 0-1.427.802-3.119.802-3.119h-2.283s.802 1.692.802 3.119c0 .283-.16.21-.183.001-.086-.786-.737-1.702-1.929-1.655-1.45.058-1.951 1.164-1.951 2.073.001.675.354 2.051 1.855 2.107zm1.749-23.459c-1.191-.047-1.843.869-1.928 1.655-.023.209-.184.281-.184-.001 0-1.427.802-3.119.802-3.119h-2.283s.802 1.692.802 3.119c0 .283-.16.21-.183.001-.086-.786-.737-1.702-1.929-1.655-1.45.058-1.951 1.164-1.951 2.073 0 .676.354 2.051 1.854 2.107.477.018.907-.13 1.161-.347.188-.161.274-.065.075.161-.139.158-.784.72-.755 1.837.054 2.107 2.066 2.108 2.066 2.108s2.013-.001 2.066-2.108c.029-1.118-.616-1.68-.755-1.837-.199-.226-.112-.322.075-.161.254.217.685.365 1.161.347 1.501-.056 1.854-1.432 1.854-2.107.004-.91-.497-2.016-1.948-2.073z"/>
        <path d="M59.108 53.644s-5.562 3.304-2.326 5.556c2.608 1.815 4.085-1.799 4.085-1.799s3.116 3.431 5.059.206c1.945-3.23-2.661-4.067-2.661-4.067s3.219-3.458.509-5.019c-3.395-1.957-4.666 5.123-4.666 5.123m9.017-14.103s-5.562 3.304-2.326 5.556c2.608 1.815 4.085-1.799 4.085-1.799s1.432 1.858 2.77-.451c1.885-3.253-.372-3.411-.372-3.411s2.65-3.602-.29-4.045c-2.906-.438-3.867 4.15-3.867 4.15"/>
        <path d="M69.884 43.297s1.979 2.309 2.77-.451c2.209-3.056-.372-3.411-.372-3.411"/>
        <path fill="none" stroke="#000" stroke-miterlimit="10" d="M39.527 79.945s-.5-10.835 10.062-11.14c-3.062-11.356 4.321-13.13 9.405-15.583-1.457-8.467 2.674-14.113 9.157-13.859-.675-3.549 0-4.411 0-4.411"/>
        <path fill="#E2CF00" d="M52.569 69.487a1.312 1.312 0 1 0-2.624 0 1.312 1.312 0 0 0 2.624 0zm9.083-15.543a1.312 1.312 0 1 0-2.624 0 1.312 1.312 0 0 0 2.624 0zm9.125-13.826a1.312 1.312 0 1 0-2.624 0 1.312 1.312 0 0 0 2.624 0z"/>
        <path fill="#131F67" d="M16.086 24.524l4.519 2.601H35.59l.99-2.601z"/>
        <path fill="#E2CF00" d="M-18.651 21.119l.925 2.149H3.096c4.083-3.318 11.244.162 11.244.162l22.24-.049 1.322-2.263h-56.553zM38.59 20.02l1.404-2.372h-60.655l1.438 2.372zM-69.902-66.768l3.773-3.146s-1.65 1.8-3.113 3.399c-.215.235.713.94.996.795 1.243-.639 2.402-1.916 3.025-2.59 1.051-1.137 2.677-3.979 2.677-4.933 0-.468-.572-.331-.851-.363-.588-.067-1.68.607-2.178.926-1.072.687-2.994 2.047-4.279 3.387-.351.365-1.368 1.494-1.368 1.494l1.318 1.031zm2.747 1.587c.041.237.663.302.901.338.531.082 1.62-.009 2.147-.114.908-.181 2.64-.875 3.493-1.234.805-.339 2.454-.996 3.135-1.544.475-.382.459-.757-.145-1.126-.653-.4-1.649-.603-2.414-.645-.502-.027-1.576-.149-2.416.104-.702.212-2.712 1.334-3.131 1.937-.074.106-.285.318-.196.413.288.308 1.091.089 1.491-.044.309-.103 1.039-.632 1.356-.703.33-.074 1.691-.114 1.405.067-2.132 1.35-3.773 1.27-4.907 1.945-.201.12-.759.374-.719.606zm8.07-5.094c.571.519 1.952.741 2.594.912.803.214 2.447.494 3.276.557 1.063.081 2.806.174 4.267-.07.506-.084 1.768-.072 1.98-.539.092-.202-.236-.636-.385-.802-.327-.365-1.219-.829-1.659-1.044-.621-.304-1.928-.772-2.597-.946-1.238-.321-2.435-.116-3.226.044-.409.083-1.739.31-1.645.717.111.48.799.255 1.361.36.438.082 1.625.35 1.299.468-.609.222-1.422.182-1.914.204-.811.036-3.953-.407-3.351.139zm-2.188-.023c.238.337 2.172-.562 3.704-1.184s2.475-.906 3.524-1.946 1.711-1.77 1.993-2.386-1.038-.594-1.038-.594-3.52.213-5.139.736-2.225 1.118-2.855 1.776-1.671 2.454-1.671 2.454-.511 1.33.948.539.895-.711 2.646-2.041 1.854-.686.938.083-3.289 2.225-3.05 2.563zm8.664-3.348c-.004.606 5.518-1.111 5.562-.62s-3.368 1.06-3.326 1.338 2.817.122 2.817.122 2.188.171 3.042 0 3.386-1.406 3.831-1.601.289-.453 0-.902-2.645-1.21-4.365-1.439-2.424.142-3.799.339-3.758 2.157-3.762 2.763zm4.317 2.065c-.071.417 3.185 2.849 4.174 3.383s6.313 2.669 6.253 2.031-2.334-4.023-2.721-4.542-1.973-1.059-2.5-1.218-2.281-.256-2.482-.083 2.787 1.583 2.598 1.871-2.74-1.197-3.676-1.533-1.575-.325-1.646.091zm9.623 2.272c.29-.308 1.084-.527 2.456 1.868.809 1.411 2.908 3.712 2.637 2.99-.495-1.32-2.842-4.313-2.244-4.341s1.764.49 3.571 2.934 1.433 3.616 1.151 4.022-.312.575-1.523.225-2.906-2.547-3.668-3.531-2.67-3.859-2.38-4.167zm-3.136-3.588c.129.827 4.746.576 5.414 1.444s-3.279-.274-3.556 0 .997 1.687 3.931 2.145 4.701.496 5.544 0 .589-.989.589-.989-3.262-2.3-4.024-2.745-4.567-.609-4.567-.609-3.46-.074-3.331.754zm10.126 6.274c-.716.208.636 1.438 2.452 3.003s2.885 1.688 5.038 1.962 1.37-.978 1.37-.978-2.475-2.962-3.096-3.699-2.43-1.804-3.658-2.099-3.096-.487-3.248 0 4.109 1.66 4.752 3.128-2.894-1.525-3.61-1.317zm1.553 3.418c-.742.079-.632 2.426-.122 4.366s1.33 2.847 1.932 3.722 1.943 2.95 2.427 1.441c.698-2.178.509-2.817.22-3.769-.28-.923-1.379-4.17-2.185-3.944s.336 3.782.168 3.788c-.759.025-1.314-4.056-1.314-4.056s-.384-1.627-1.126-1.548zm4.456 2.093c-.021.276 3.369 4.533 2.416 4.155s-1.12-1.819-1.771-2.12-.597 1.079.954 3.629 3.463 3.487 4.843 3.761.097-3.371-.395-4.712-.847-1.875-2.606-3.559-3.419-1.431-3.441-1.154zm1.43 6.584c-.107-.402-1.521.418-1.916 3.383s-.131 4.614-.122 5.446.444 3.09.766 3.109 1.628-1.319 2.404-3.111.321-4.142.29-4.913.07-1.873-.62-1.79-.522 4.044-.849 4.298.154-6.02.047-6.422zm2.297 4.752c-.561.377-.221 3.229 0 4.678s.783 2.568 2.377 4.079 1.901-.74 1.901-.74.321-3.384-.089-4.853-.668-2.989-1.701-4.06-1.971-1.758-2.166-1.313.912 2.52 1.116 3.232.831 3.246.268 2.62c-.923-.312-.47-3.781-1.706-3.643zm.73 8.501c-.604.252-.314 1.427-.095 2.313s.339 2.495.095 2.803-.404-2.599-.73-2.677-1.025 1.478-1.082 3.724.338 4.163 1.082 4.306 2.266-2.733 2.4-4.06.273-1.797 0-3.633-1.066-3.028-1.67-2.776zm-1.812-3.055c.693.322-1.334 5.175-.939 4.754s1.396-2.22 1.608-1.443.399 1.66-1.608 4.21-2.953 2.502-3.637 2.378.27-3.19.535-3.962.947-2.01 1.467-2.883 1.88-3.375 2.574-3.054zm-43.907-19.804c.692-.188 1.959-.483 1.607.189s-1.048.887-1.048.887-1.251-.889-.559-1.076zm42.918 35.081s.184-1.397.901-1.426 1.208 2.13.471 2.973-1.372-1.547-1.372-1.547zm-1.522-.957s1.079-2.697 1.454-2.691.402.623.436 1.346-1.332 2.363-1.332 2.363l-.558-1.018zm-1.472-1.438s1.479-2.089 2.029-1.716c.624.423-.954 2.861-.954 2.861l-1.075-1.145zm-1.711-1.568s2.677-1.889 3.183-1.205c.502.679-2.065 2.671-2.065 2.671l-1.118-1.466z"/>
        <path fill="#E2CF00" stroke="#000" stroke-miterlimit="10" d="M-23.031 3.505s2.355.046 3.684.081c11.188-19.781-4.994-31.519-4.994-31.519s-1.524 1.879-2.329 2.893c14.656 12.386 3.639 28.545 3.639 28.545zm-54.683-71.507l.257-3.045 50.362 41.084-1.641 2.03z"/>
        <path d="M-61.101-6.923l-1.001 1.327-.574.536c-.212.181-.394.411-.659.574-.501.354-1.038.722-1.633 1.014-.574.317-1.184.596-1.729.924-.27.172-.531.338-.778.497-.234.187-.45.374-.642.552-.195.173-.363.345-.467.541-.117.181-.21.344-.281.479-.142.271-.203.431-.203.43a.127.127 0 0 0 .071.164c.04.016.083.009.116-.013l.021-.015s.146-.1.369-.282c.111-.091.24-.204.377-.338.127-.142.3-.275.495-.413.189-.144.385-.308.589-.487l.728-.482c.497-.356 1.075-.683 1.623-1.079.273-.199.562-.37.823-.577l.763-.614c.262-.178.454-.436.665-.636l.572-.593.956-1.36a.126.126 0 0 0-.029-.174.123.123 0 0 0-.172.025z"/>
        <path fill="none" stroke="#131F67" stroke-miterlimit="10" d="M10.84 55.18s.734-2.033 1.578-2.562 2.541-1.125 3.734-.125 1.578 3.125 1.578 3.125"/>
        <path fill="#131F67" d="M12.012 55.398c.203-.688.648-2.51 2.434-2.239s2.09 2.458 2.09 2.458-1.806.672-4.524-.219z"/>
        <path fill="none" stroke="#131F67" stroke-miterlimit="10" d="M-5.566 55.237s.734-2.033 1.578-2.562 2.541-1.125 3.734-.125 1.578 3.125 1.578 3.125"/>
        <path fill="#131F67" d="M-4.395 55.456c.203-.688.648-2.51 2.434-2.239s2.09 2.458 2.09 2.458-1.805.672-4.524-.219zm-58.88-62.982l.149-.167c.092-.1.222-.245.396-.413.336-.347.821-.767 1.334-1.154.26-.186.533-.347.786-.511l.734-.343.759-.192.046-.012a.186.186 0 0 0 .134-.225.186.186 0 0 0-.203-.138l-.871.114-.847.279c-.288.141-.606.282-.908.449a12.63 12.63 0 0 0-1.562 1.058c-.203.155-.37.301-.487.402l-.174.155a.502.502 0 1 0 .705.711l.009-.013zm-4.656-2.826s.015-.151.067-.353c.044-.206.152-.529.301-.899l.294-.58c.099-.211.218-.425.374-.627l.452-.642c.169-.207.36-.401.543-.603.191-.193.369-.401.569-.579l.617-.491c.394-.326.79-.588 1.156-.777.717-.395 1.207-.618 1.207-.618l.048-.021a.509.509 0 1 0-.55-.842s-.435.389-1.104.912c-.167.132-.357.26-.539.421-.177.169-.358.351-.557.525l-.606.544c-.202.188-.383.408-.576.613-.192.207-.396.402-.576.614l-.509.64c-.35.402-.604.835-.857 1.186-.207.38-.422.673-.53.929l-.184.366-.003.007a.508.508 0 1 0 .911.456.51.51 0 0 0 .052-.181zm-2.072-3.544s.03-.16.109-.378a6.55 6.55 0 0 1 .397-.948c.086-.2.225-.391.348-.608.132-.211.251-.451.436-.653.353-.416.682-.906 1.138-1.277l.646-.584c.221-.182.465-.327.688-.486.229-.148.449-.292.66-.427.2-.149.434-.219.628-.316.803-.349 1.338-.551 1.338-.551l.064-.024a.506.506 0 1 0-.453-.897s-.528.341-1.32.809c-.195.123-.427.218-.627.396l-.656.508c-.228.174-.478.335-.703.533-.217.208-.438.42-.657.633-.214.218-.459.404-.645.643l-.581.667c-.198.209-.336.453-.505.657-.154.215-.322.403-.438.605-.241.395-.471.713-.597.974l-.207.379-.007.012a.507.507 0 1 0 .944.333zm-.752-4.801s.247-.364.71-.835a12.038 12.038 0 0 1 1.835-1.566c.372-.232.731-.484 1.089-.685.365-.183.705-.358 1.002-.487.612-.22 1.021-.336 1.021-.337l.045-.013a.509.509 0 1 0-.42-.915s-.395.261-.988.606c-.294.176-.614.413-.971.643-.358.225-.716.499-1.086.754-.717.54-1.447 1.06-1.996 1.458-.268.204-.513.356-.675.479l-.26.176-.017.011a.511.511 0 1 0 .711.711z"/>
        <path fill="#131F67" d="M-61.174-14.878s-.258.189-.679.433c-.426.219-1.003.518-1.606.683-.15.04-.302.076-.441.092a.527.527 0 0 1-.348-.044.52.52 0 0 1-.174-.219 1.191 1.191 0 0 1-.088-.312c-.051-.428.072-.737.068-.712a.5.5 0 0 0-1 .022c.006.021.106.375.338.88.128.243.256.574.682.778.169.079.409.083.568.058.178-.016.343-.05.508-.088a43.89 43.89 0 0 0 1.763-.466c.482-.117.815-.192.815-.192l.01-.002a.512.512 0 1 0-.416-.911zm-1.661-2.629s-.273.068-.703.116c-.423.029-1.01.056-1.53-.078a1.662 1.662 0 0 1-.337-.116c-.154-.082-.141-.12-.229-.215a1.175 1.175 0 0 1-.161-.596c-.021-.389.111-.651.104-.625a.5.5 0 1 0-.998-.071c-.002.024.068.354.21.832.085.236.194.514.396.786.082.117.287.298.391.351.171.106.316.153.473.205.308.096.611.132.893.187.281.052.544.085.77.112l.761.113.012.002a.511.511 0 1 0-.052-1.003zm-1.618-3.333l-.121.114a4.182 4.182 0 0 1-.388.257 3.67 3.67 0 0 1-.62.24c-.117.024-.241.059-.368.07l-.366.01-.207-.026-.141-.043a.765.765 0 0 1-.273-.18 1.055 1.055 0 0 1-.287-.537c-.102-.363.001-.635-.002-.604a.5.5 0 0 0-.993.124c.001.028.158.332.403.748.138.203.305.433.54.641.119.103.259.189.407.268.078.037.17.065.257.094l.211.042.479.021.443-.02a5.49 5.49 0 0 0 .78-.135c.44-.095.783-.247.769-.234a.5.5 0 1 0-.523-.85zm-.955-3.213c-.012.009-.206.187-.603.38a4.686 4.686 0 0 1-.694.233l-.404.045-.407-.042c-.123-.047-.249-.092-.368-.145a5.307 5.307 0 0 1-.334-.254c-.166-.183-.293-.375-.348-.569a.928.928 0 0 1-.031-.448c.014-.109.053-.127.049-.116a.501.501 0 0 0-1-.024c-.003.01.032.146.098.298.062.163.186.367.344.582.155.213.377.428.634.629l.384.25.472.196.491.086.473.011c.305-.005.592-.028.832-.072.246-.03.445-.057.597-.092l.229-.039a.517.517 0 1 0-.393-.926l-.021.017z"/>
        <path fill="none" stroke="#E2CF00" stroke-width="2" stroke-miterlimit="10" d="M-73.963-69.655c24.053-25.248 74.331.936 53.271 44.227"/>
    </symbol>
    <use xlink:href="#clubs_4_" width="22.179" height="23.691" x="-11.089" y="-11.846" transform="matrix(1 0 0 -1 20 61)" overflow="visible"/>
    <use xlink:href="#clubs_4_" width="22.179" height="23.691" x="-11.089" y="-11.846" transform="translate(208 252)" overflow="visible"/>
    <use xlink:href="#face-frame" width="161.544" height="259.519" x="-80.771" y="-129.759" transform="matrix(1 0 0 -1 114.094 158.5)" overflow="visible"/>
    <use xlink:href="#queen-spades" width="158.194" height="162.066" x="-79.098" y="-81.033" transform="matrix(1 0 0 -1 114.012 111.269)" overflow="visible"/>
    <use xlink:href="#queen-spades" width="158.194" height="162.066" x="-79.098" y="-81.033" transform="matrix(-1 0 0 1 113.177 205.731)" overflow="visible"/>
    <use xlink:href="#clubs-medium" width="44.409" height="47.437" x="-22.204" y="-23.719" transform="matrix(1 0 0 -1 62.648 62.1)" overflow="visible"/>
    <use xlink:href="#clubs-medium" width="44.409" height="47.437" x="-22.204" y="-23.719" transform="translate(164.501 255.974)" overflow="visible"/>
    <path fill="none" d="M1.945 12.58h33.412v39.516H1.945z"/>
    <text transform="translate(4.611 44.083)" font-family="'ArialNarrow'" font-size="44">
        Q
    </text>
    <path fill="none" d="M193.588 262.099H227v39.516h-33.412z"/>
    <text transform="rotate(180 112.167 135.055)" font-family="'ArialNarrow'" font-size="44">
        Q
    </text>
</svg>
