<svg xmlns="http://www.w3.org/2000/svg" xmlns:xlink="http://www.w3.org/1999/xlink" viewBox="0 0 227 315">
    <symbol id="face-frame" viewBox="-80.771 -129.759 161.544 259.519">
        <path fill="none" stroke="#131F67" stroke-width="3" stroke-miterlimit="10" d="M79.272-128.259H-79.271V128.26H79.272z"/>
    </symbol>
    <symbol id="queen-spades2" viewBox="-78.023 -74.183 156.046 148.366">
        <path stroke="#131F67" stroke-width=".5" stroke-miterlimit="10" d="M-68.806-6.248c-1.085.151-2.009 1.373-2.277 2.347-.384 1.391-.289 3.184 2.023 4.543-.562 1.902-1.114 3.478-1.774 5.333 1.521-.833 3.348-1.916 4.964-2.496.009 1.338 1.485 2.858 2.723 3.151 1.253.297 2.36-.282 3.188-1.155.361-.381.934-1.088 1.258-1.502l4.455 1.468c-.557-1.622-1.127-3.062-1.678-4.553 1.967-.825 3.807-3.873 2.052-5.678-.399-.411-1.549-1.304-2.036-1.594l1.012-4.578c-1.447.639-2.583 1.083-3.75 1.722-.324-.925-.684-1.773-1.567-2.385-.997-.69-2.593-.687-3.558.061-.709.549-1.353 1.648-1.537 2.503-1.634-.504-3.053-.987-4.76-1.557l1.262 4.37z"/>
        <path fill="none" stroke="#131F67" stroke-miterlimit="10" d="M-.396 23.225c13.533-4.346 23.938-4.333 23.938-4.333m-4.11 40.193c4.297-.312 9.509 1.793 12.018 4.818 1.348 1.625 2.884 3.184 3.605 5.211.557 1.561.287 2.988.402 4.577"/>
        <path fill="none" stroke="#131F67" stroke-miterlimit="10" d="M20.635 61.351c2.621-.299 6.415.84 9.109 3.688 1.175 1.241 2.368 2.987 3.037 4.567.284.672.518 1.686.635 2.402.102.622.144 1.219.25 1.943"/>
        <path fill="none" stroke="#131F67" stroke-miterlimit="10" d="M21.572 63.788c1.328 0 3.087.289 4.269 1.005 1.274.773 2.52 1.987 3.419 3.151 1.399 1.81 1.859 3.75 2.541 6.017"/>
        <path fill="none" stroke="#131F67" stroke-miterlimit="10" d="M23.244 66.835c1.816.049 2.887.896 3.942 2.24 1.186 1.508 1.745 3.073 2.208 4.991M7.635 37.851c1.914-4.727 3.263-8.661 6.969-12.167 3.028-2.865 5.912-5.188 9.763-7 3.104-1.461 6.853-2.63 10.269-2.235 3.886.449 6.087 1.909 7.993 5.149 2.247 3.82 4.492 10.886 4.834 15.705.331 4.679.435 6.252.548 10.939.199 8.254.333 17.019-.5 24.984M3.572 22.268c-.286 2.061-.435 4.276-1.125 6.208m4.396-6.979c-.546 2.485-.764 3.398-1.208 5.896-.202 1.139-.632 3.358-1.197 4.982m5.094-11.483c-.274 1.002-1.035 4.691-1.25 5.707-.302 1.429-.515 2.735-.771 4.168-.324 1.81-.56 3.514-1.084 5.292"/>
        <path stroke="#131F67" stroke-miterlimit="10" d="M40.411 18.059l37.305-28.937"/>
        <path d="M-78.023-14.33l20.667-9.898-1.509-20.796-18.952-10.002z"/>
        <path fill="#E2CF00" d="M-65.617-2.743l3.805 3.081 2.841-3.265-3.787-3.194z"/>
        <path fill="#131F67" d="M-64.333-20.722s17.552 8.99 29.928 19.787c3.903-3.376 11.414-10.797 11.414-10.797l-17.834-15.226-7.804 2.162-5.411-1.55-10.293 5.624z"/>
        <path d="M-1.805-46.303h21.41l-25.452 23.26-8.027-.115s1.321-5.241-4.258-14.167c2.454 0 6.817-.184 6.817-.184l9.51-8.794z"/>
        <path fill="#E2CF00" stroke="#000" stroke-miterlimit="10" d="M24.371 18.292c9.139-4.316 15.419-.466 15.419-.466l9.429-7.366S36.854 6.497 20.448 7.509c-12.889.795-25.593 6.003-25.593 6.003l4.465 8.755c0 .001 15.502-4.604 25.051-3.975zm43.201 14.871l5.031 8.818-4.304 7.822-4.924-8.157z"/>
        <path fill="#D40000" d="M60.502 2.037c-.427-.932-2.471-2.516-2.843-2.955-1.222-1.439-2.811-3.775-3.356-5.625-.529-1.792 1.077-4.507 3.166-4.15.731.125 1.856 1.715 2.252 1.678 1.082-.102.32-1.712-.022-2.176-1.193-1.616-2.998-1.384-4.57-.592.05-.256.228-.575.318-.908 1.048-3.836 3.708-6.842 3.605-10.978-.06-2.377-.805-4.483-1.25-6.788-.184-.948-.507-2.582.19-3.383.412-.474 1.39-.471 1.902-.853-.411-.7-1.131-1.335-1.926-1.189-1.432.262-1.879 2.475-2 3.623-.286 2.726-.35 1.832-2.667 1.488-1.888-.28-4.102.82-4.083 3.097.009 1.001.331 1.951 1.083 1.315.631-.534.286-1.856 1.248-2.355 1.438-.748 3.673-.001 4.567 1.187 1.041 1.384 1.233 3.147 1.105 4.835-.074.988-.243 2.227-.566 3.172-.438 1.279-.617 1.757-1.331.783-.675-.92-.551-2.378-2.194-2.459-.918-.046-1.795.669-2.068 1.491 1.517.26 2.879.223 3.32 1.925.977 3.76-2.064 7.294-1.668 11.155.378 3.691 4.327 7.086 7.004 9.016l.141.141-4.026 3.109-13.781-50.999-63.369 56.891-9.753-10.25s16.33-12.495 17.393-24.194c3.109-.06 7.831-.132 7.831-.132l25.751-23.259 22.561-.043 8.352 11.904s14.881-11.964 26.881-17.924c.018 9.149.019 41.11.019 41.11L60.502 2.037zM17.734-25.49a1.305 1.305 0 1 0 0-2.61 1.305 1.305 0 0 0 0 2.61zM3.53-12.331a1.305 1.305 0 1 0 0-2.61 1.305 1.305 0 0 0 0 2.61zm-24.265 6.715a1.305 1.305 0 1 0 0 2.61 1.305 1.305 0 0 0 0-2.61zm20.536-18.55a1.305 1.305 0 1 0 0 2.61 1.305 1.305 0 0 0 0-2.61zm29.263-20.131c-.605-.001-1.718.446-2.047 1.013-.773 1.333.035 1.677.411 1.304.456-.453 1.689-1.468 2.43-.732.819.814.378 1.509.281 2.021-.313 1.669-2.15 2.012-3.462 1.785-2.892-.5-5.209-2.283-8.123-1.623-3.752.85-5.401 4.141-6.129 7.804-.238 1.201.083 2.827-1.083 4.494-.396.566-.667-1.167-2.605-1.629-1.513-.361-5.144-.412-5.789 3.648-.328 2.064 1.145 3.814 2.591 3.754.845-.106-1.211-2.594-.726-4.035.715-2.123 3.164-1.872 4.723-1.055 2.173 1.139 2.016 3.285 1.129 5.318-.849 1.947-2.419 3.3-4.739 3.555-2.391.262-4.392-.322-6.773-.516-3.781-.307-7.449-.903-10.682 1.433-2.372 1.715-3.52 4.597-3.919 7.403-.406 2.856-.849 5.391-1.333 8.165-.438 2.506-2.595 7.716-6.044 6.817-2.196-.572-2.651-3.187-.735-4.059.833-.379 2.363.301 1.928-.92-.268-.749-1.449-.838-2.144-.84-2.339-.01-3.022 2.729-2.715 4.497.296 1.705 2.039 3.176 3.79 3.524 5.501 1.095 6.492-5.647 7.503-9.539.98-3.776.947-7.717 2.797-11.183 2.159-4.045 6.307-5.537 9.62-2.794 1.185.98 1.795 1.878 1.894 3.373.132 1.993-.495 2.937-1.789 3.619-1.4.738-3.44.631-4.567-.239-1.894-1.462-.35-4.09-1.305-3.545-1.608.917-1.177 2.346-.917 2.95.608 1.412 2.142 2.217.604 3.07-.716.397-1.893 1.168-2.528 1.692-1.584 1.304-2.593 2.243-2.71 4.331-.048.848.523 1.581 1.346 1.925 1.19.499 1.849-.012 1.62-.812-.275-.963-1.326-1.653-.417-3.036.548-.833 1.475-1.384 2.335-1.808 1.787-.881 3.646-1.361 5.45-2.101 2.019-.827 4.407-2.796 4.402-5.17-.003-1.5-.659-2.961-.987-4.404 2.099.025 3.843.876 6.062.492a8.766 8.766 0 0 0 4.777-2.484c4.8-4.873.925-15.006 6.9-19.125 2.899-1.999 6.169-.143 6.503 3.267.201 2.061-2.111 3.572-3.983 2.654-.632-.31-.872-1.86-1.585-1.239-.715.624.193 1.889.646 2.321 3.307 3.154 7.067-1.461 6.583-4.902-.314-2.235-.5-1.661 2.583-1.496 1.78.095 3.441-1.396 3.648-3.315.177-1.652-1.012-3.625-2.72-3.628z"/>
        <path fill="#E2CF00" stroke="#000" stroke-miterlimit="10" d="M65.469-44.858c-.076 2.915-.539 5.77-.747 8.956-.244 3.735-1.265 11.194-.562 14.965.687 3.688 4.974 5.398 7.413 1.833 1.651-2.412.487-8.587.062-11.316-.881-5.641-.908-11.61-2.101-17.071-1.122.566-2.696 1.685-4.065 2.633z"/>
        <path fill="#E2CF00" stroke="#000" stroke-miterlimit="10" d="M72.24-12.346a4.532 4.532 0 1 0-9.063.001 4.532 4.532 0 0 0 9.063-.001z"/>
        <path fill="#E2CF00" stroke="#000" stroke-miterlimit="10" d="M64.636-6.025c-2.681 1.406-1.014 7.903-.667 10.485.544 4.047 1.08 8.171 1.564 12.244.31 2.605.642 5.26.853 7.85.138 1.7.484 4.566 1.085 5.913 1.209-2.893 1.17-5.819 1.577-8.927.456-3.483.856-7.012 1.421-10.478.447-2.749.701-5.559 1.15-8.324.364-2.244.675-4.762.27-7.038-.581-3.255-4.574-4.233-6.947-2.075-.13.119-.255.234-.39.35"/>
        <path d="M16.816 73.517h10.922L-5.404 13.746l42.007-37.912 8.232 33.289 5.111 1.56 5.887-4.584L42.238-46.05l-63.556 57.583s8.425 9.359 13.043 16.868c6.878 11.568 25.091 45.116 25.091 45.116z"/>
        <path fill="#E2CF00" stroke="#000" stroke-miterlimit="10" d="M-24.961 72.793l34.912-.07-23.018-41.196s-4.64 1.789-6.227 2.262c-1.191.355-4.84 1.141-4.84 1.141s2.705 12.54 1.98 22.614c-.415 5.793-2.807 15.249-2.807 15.249z"/>
        <path fill="none" stroke="#131F67" stroke-miterlimit="10" d="M12.424 19.953c-.646 3.23-1.819 8.716-2.363 12.13m5.012-12.232c-.679 1.784-1.105 4.75-1.376 6.749m4.293-6.999c.062.742.1 2.081.104 3.018m30.041 35.294c-2.609 1.204-5.895 2.733-7.855 5-1.914 2.213-4.941 5.625-4.86 8.375"/>
        <path fill="none" stroke="#131F67" stroke-miterlimit="10" d="M48.01 60.851c-2.696.833-5.404 2.52-7.172 4.721-2.018 2.512-2.693 5.048-3.328 8.092m10.437-10.063c-4.779 1.776-7.21 5.464-8.062 10.25m8.25-7.625c-3.268.818-5.899 4.091-6.312 7.438m6.06-5.002c-2.047 1.453-2.854 3.049-3.436 5.376"/>
        <path fill="#131F67" d="M23.635 54.684c2.131.305 4.554.56 6.717-.125.479-.152 3.195-1.505 3.195-.95 0 .277-.945 1.416-1.138 1.598a5.537 5.537 0 0 1-1.911 1.176c-1.373.489-3.008.509-4.447.382-2.562-.226-5.282-.945-7.54-2.236-.823-.472-1.661-1.602-.147-1.16 1.752.512 3.452 1.055 5.271 1.315z"/>
        <path fill="#131F67" d="M30.341 50.443c.429.491 1.483 1.968.009 1.326-.582-.254-.502-.237-1.076.192-1.376 1.029-3.373 1.764-5.373 1.39-2.921-.546-3.999-1.969-6.257-3.734-.513-.401-2.8-1.696-1.884-2.466.569-.479 2.504.171 3.291.125 1.233-.073 2.264-.631 3.428-1.008 1.358-.439 2.548-.984 3.98-.752.785.127 3.334 1.388 3.059.641-.32-.869-1.867-1.953-2.568-2.627-.402-.386-1.64-1.179-1.808-1.669-.267-.778.736-.126 1.087.113 1.195.813 2.111 1.748 3.203 2.674.891.755.937 1.24 1.084 2.457 1.105-.06.339 1.096-.018 1.46-.672.686-.856 1.078-.157 1.878zm-12.164-1.509c-.708-.129 2.901 2.227 3.594 2.633.937.549 1.959.911 3.047.951.95.035 3.504.025 3.909-1.167.188-.55-.136-.505-.702-.584-1.073-.15-3.224-.271-4.307-.386-1.869-.198-3.349-1.046-5.541-1.447zm3.041-1.333c.515.754 2.155 1.723 2.293.133.128-1.469-1.504-.199-2.293-.133zm4.854-1.251c-.456-.029-1.049.171-1.399.498-.322.301-.761 1.33-.961 1.871.235-.009.469-.012.85.092.425-1.136.562-1.418 1.073-1.543.881-.214 1.68.575 1.756 1.401.228-.021.463-.053.697-.074-.15-.959-.93-2.176-2.016-2.245zm3.191 1.021c-1.412-1.235-.865.402-.67.896.362.917 1.432-.229.67-.896zM46.46 56.09c-1.307.236-3.467.154-4.737-.32-1.665-.622-2.911-2.001-3.626-3.587-.816-1.812-.938-3.027-.957-4.958-.021-1.957.076-3.249.519-5.251a74.975 74.975 0 0 1 1.207-4.671c.432-1.469.356-1.363-.533-2.586-.764-1.049-1.918-2.02-2.282-3.313-.237-.846.011-.795.492-.07.271.409.633.991 1.013 1.283.818.63 2.267.989 2.609 2.027.347 1.047-.383 2.166-.605 3.163-.333 1.487-.729 3-.999 4.502-.066.369-.31 1.403-.094 1.719.368.539.92-.086 1.362-.303.482-.237 1.713-1.187 1.605-.811-.131.458-.656.916-1.008 1.23-.484.435-1.476 1.261-1.66 1.836.549.256 1.145-.158 1.679-.294a12.775 12.775 0 0 1 2.356-.334c1.313-.068 3.635.901 4.736 1.562.775.465.43 4.146.578 6.406.092 1.402-.058 2.481-1.655 2.77zm-8.013-8.864c.312 1 1.219 1.509 1.743.632.697-1.163-.571-1.476-1.743-.632zm.396 2.958c-.633-.085-.14.975.457 1.501.526.464 1.249.667 1.926.747 1.026.121 1.926.071 2.926-.111 1.404-.255 2.483-1.002 3.077-2.205.183-.37-.466-.047-.835.108-1.002.419-2.014.708-3.112.75-1.694.064-3.194-.623-4.439-.79zm3.995-3.974c-.492.003-1.289.324-1.609.703-.373.439-.426 1.288-.493 1.818.243.003.438-.024.662-.08.112-1.348 1.089-1.691 1.521-1.708.82-.033 1.331 1.084 1.565 1.748.213-.035.452-.03.677-.031.089-1.421-1.016-2.459-2.323-2.45zm2.828.703c-.101.503-.017 1.565.574 1.791.352.133.966-.188 1.138-.502.535-.98-1.103-1.289-1.712-1.289zm1.795 4.944c-.139-.636-2.043.84-2.824 1.106-1.337.455-2.427.445-3.901.346-1.793-.121 2.087 1.604 4.983.906 1.315-.317 2.066-.87 1.742-2.358zM28.979 33.241c-1.063.838-.262 2.255.527 3.157.141.161.958.638.707.854-.28.241-1.359-.47-1.574-.648-.471-.392-.643-1.021-.802-1.59-.418-1.49.525-3.612 2.204-3.664.438-.013.967-.046 1.387.059.484.121.986.392 1.411.645.37.22.706.35 1.145.375.407.023 1.202-.173 1.468.161.3.377.503 1.365.138 1.758-.747.803-2.193.051-2.924-.357-.449-.25-.856-.513-1.273-.82-.245-.181-.486-.383-.791-.441a1.805 1.805 0 0 0-.75.015c-.284.08-.648.318-.873.496zm-.25-8.109c-.155-.078-.637-.579-.828-.59-.312-.019-.135.485-.078.713.12.479.287.943.379 1.429.049.259.054.641.218.853.34-.039.596-.487.928-.605.289-.103.634-.075.933-.049.509.043.934.359 1.431.391.317.02.655-.009.976 0 .627.017 1.045-.096 1.626-.254.742-.202 1.563.419 2.295.519.638.087 1.229-.269 1.841-.112.341.087.839.451 1.141.16.159-.153.213-.5.297-.7.101-.237.588-1.002.422-1.24-.126-.181-.689.124-.873.174-.594.162-1.152-.011-1.709-.222-.555-.211-1.092-.481-1.66-.651-.459-.137-.942-.155-1.419-.203-.669-.066-1.243.075-1.886.262-.796.232-1.913.661-2.75.474-.327-.073-.988-.2-1.284-.349zm2.484-1.328c-.145.404-.322.735.218.562.473-.151.898-.479 1.39-.595.401-.095.874-.216 1.288-.218.544-.002 1.089.165 1.62.266.526.1 1.024.287 1.544.404.214.048.581.125.486-.185-.14-.455-1.791-.717-1.121-1.249.224-.177 1.335-.589 1.06-.923-.203-.245-.768.048-1.003.094-.935.183-1.673.14-2.611.062-.513-.042-.983-.099-1.483-.235-.315-.086-.782-.381-1.11-.371-.328.009-.188.243-.03.431.338.406.8.588 1.268.774.578.23.203.386-.185.616-.347.204-1.286.28-1.331.567z"/>
        <path d="M66.649-14.708c-.671.434 1.927-.269 2.687 2.217.443 1.452-2.248 3.065-1.401 3.019 4.663-.259 2.586-7.741-1.286-5.236zm3.726 10.624c-.263-1-2.711-2.986-3.121-1.462-.097.358 1.651 1.57 1.894 1.953.586.93.519 1.895.488 2.982-.121 4.43-.735 8.738-1.415 13.148-.324 2.104-.804 7.499-.401 8.183.362.616.83-3.609 1.066-5.077.248-1.537.304-3.1.519-4.662C69.9 7.374 70.429 3.722 70.634.1c.057-1.037.002-3.193-.259-4.184zM68.51-18.962c-1.328.009.879-.797 1.252-3 .299-1.764.003-4-.127-5.752-.354-4.767-.973-9.507-1.361-14.248-.067-.829-.771-5.125.539-4.758.038 1.458.226 2.648.347 4.13.163 1.992.388 4.003.552 6.008.338 4.14.875 8.163.986 12.319.046 1.74.082 5.286-2.188 5.301z"/>
        <path fill="#E2CF00" d="M38.511-34.734c-1.556-.152-2.583 4.302-.266 4.093 1.425-.129 2.01-3.923.266-4.093zm2.495.535c-.646.295-1.944-.538-1.269-1.575 1.045-1.605 3.051.76 1.269 1.575zm-4.372-.742c-.803.199-1.727-1.379-.399-2.079a1.085 1.085 0 0 1 .399 2.079zm2.083-1.75c-.932-.077-1.595-4.074.25-4.083 2.69-.013 1.003 4.187-.25 4.083zM-7.986 12.048c.019-1.537.454-2.931-.161-3.265-1.964-1.064-1.701-3.279.556-2.646 3.374.948-.41 7.12-.395 5.911z"/>
        <path fill="#E2CF00" d="M-5.537 9.877c.019-1.537.454-2.931-.161-3.265-1.964-1.064-1.701-3.279.556-2.646 3.374.949-.41 7.12-.395 5.911zm5.944-5.17C.426 3.17.861 1.776.246 1.442-1.718.378-1.455-1.837.802-1.204c3.375.948-.409 7.12-.395 5.911z"/>
        <path fill="#E2CF00" d="M3.169 2.078c.019-1.537.454-2.931-.161-3.265-1.964-1.064-1.701-3.278.555-2.645 3.375.947-.409 7.119-.394 5.91zM9.06-3.079c.018-1.537.454-2.931-.162-3.265-1.963-1.064-1.701-3.279.556-2.645 3.375.947-.409 7.119-.394 5.91z"/>
        <path fill="#E2CF00" d="M11.755-5.531c.019-1.537.454-2.931-.161-3.265-1.964-1.064-1.701-3.279.556-2.646 3.374.948-.41 7.12-.395 5.911zm5.202-4.49c.019-1.537.454-2.931-.161-3.265-1.964-1.064-1.701-3.279.556-2.646 3.375.949-.41 7.12-.395 5.911z"/>
        <path fill="#E2CF00" d="M19.448-12.378c.019-1.537.454-2.931-.161-3.265-1.964-1.064-1.701-3.279.556-2.646 3.375.948-.409 7.12-.395 5.911zm5.275-4.758c.019-1.537.454-2.931-.161-3.265-1.964-1.064-1.701-3.279.556-2.646 3.374.948-.41 7.12-.395 5.911z"/>
        <path fill="#E2CF00" d="M27.118-19.277c.019-1.537.454-2.931-.161-3.265-1.964-1.064-1.701-3.279.556-2.646 3.375.948-.409 7.12-.395 5.911zm5.295-4.4c.019-1.537.454-2.931-.161-3.265-1.964-1.064-1.701-3.279.556-2.646 3.375.948-.41 7.12-.395 5.911zM-3.023 7.474c-.238-2.332.783-3.735-.327-5.397-.663-.994-2.681-.827-2.183-2.268.832-2.405 3.21-1.667 4 .498.675 1.85.597 3.708-.165 5.415-.327.731-1.241 2.573-1.325 1.752zM5.629-.465c-.237-2.331.783-3.734-.326-5.397-.663-.993-2.682-.827-2.184-2.268.832-2.405 3.21-1.667 4 .498.675 1.85.597 3.708-.165 5.415-.327.732-1.241 2.574-1.325 1.752zm8.24-6.879c-.237-2.332.783-3.734-.326-5.397-.663-.994-2.682-.827-2.184-2.268.832-2.405 3.21-1.667 4 .498.675 1.85.597 3.708-.165 5.415-.327.732-1.241 2.574-1.325 1.752zm7.693-7.016c-.237-2.332.783-3.734-.326-5.397-.663-.994-2.682-.827-2.184-2.268.832-2.405 3.21-1.667 4 .498.675 1.85.597 3.708-.165 5.415-.326.732-1.241 2.574-1.325 1.752z"/>
        <path fill="#E2CF00" d="M29.232-21.364c-.237-2.332.783-3.734-.326-5.397-.663-.994-2.682-.827-2.184-2.268.832-2.405 3.21-1.667 4 .498.675 1.85.597 3.708-.165 5.415-.327.731-1.241 2.574-1.325 1.752z"/>
        <path fill="#E2CF00" stroke="#000" stroke-miterlimit="10" d="M-45.399-25.084c.662 2.292-2.009 5.523-3.872 6.623-1.812 1.069-4.096 1.659-5.944 2.707-1.019.578-2.14.906-2.993 1.73-.641.62-1.053 1.658-1.594 2.281-1.256.052-2-.062-2.98-.875.375-1.916 2.692-4.838 4.312-5.785 1.742-1.018 3.232-.743 5.449-2.246 1.479-1.003 3.281-3.062 3.875-4.295 1.412 0 2.527-.042 3.747-.14z"/>
        <path fill="#E2CF00" stroke="#000" stroke-miterlimit="10" d="M-42.834-25.415c2.746 1.676 3.229 8.018 2.237 11.476-1.025 3.577-4.287 6.451-3.769 2.975.625-4.186-3.25-5.436-1.167-12.042.406-1.286 1.249-3.294 2.699-2.409zm-9.202.211c-2.72-.533-1.756.991-5.188 2.226-1.82.655-2.646 4.51.052 4.182 2.297-.279 10.598-5.338 5.136-6.408z"/>
        <path d="M-11.6 46.616c.125-.625.367-2.188-.066-3.099-.416-.874-1.521-1.368-2.404-1.5-1.297-.193-3.179.703-3.412 2.049-.291 1.686.386 2.928 1.572 3.944-2.596.288-4.146 3.266-2.224 5.089 2.487 2.36 4.612-.309 5.729-1.651-.213 1.551-.148 2.74 1.107 3.887.935.854 2.041 1.015 3.104.565 1.125-.476 1.832-1.69 1.827-2.893-.006-1.337-.399-1.942-1.546-2.688-.609-.396-1.518-.462-2.17-.468-.081-.402.086-1.792-.144-2.139-.223-.339-1.099-.83-1.373-1.096zm9.818 24.193c-.302 2.457 2.044 3.667 3.948 3.14.832-.23 1.661-.975 1.677-1.993a2.803 2.803 0 0 0-1.371-2.438C1.77 69.114.99 69.136.24 69.01c.167-.372.221-2.096.032-2.526-.254-.583-.887-1.013-1.527-1.133 0 0 .156-2.344-.344-3.266-.756-1.394-3.587-1.91-4.662-.664-.656.761-.873 2.075-.677 3.037.1.49.318.983.635 1.374.548.675 1.598 1.205 1.598 1.205-.625.338-1.449.706-2.003 1.187-.9.782-1.298 2.311-.266 3.408 2.734 2.906 5.192-.823 5.192-.823z"/>
        <path fill="none" stroke="#000" stroke-miterlimit="10" d="M-15.491 32.178c.477 1.537.519 3.278-.247 4.67-.461.838-1.152 1.722-1.792 2.46 1.825.071 4.792-.541 6.625 1.729 1.877 2.324.867 5.613.206 7.167 2.446-.296 4.981.74 6.252 3.75 1.119 2.652-1.125 4.569-2.041 6.375 2.222.258 5.021-.292 6.542 2.167 1.14 1.842.853 4.169-.249 6.188 1.225-.116 3.315.707 4.209 1.48 1.605 1.391 1.646 3.166 1.813 5.101"/>
        <path fill="#E2CF00" d="M-2.826 11.392l39.429-35.558 8.15 32.699S22.802 2.726-2.826 11.392z"/>
        <path fill="none" stroke="#000" stroke-miterlimit="10" d="M6.717 6.026c17.054-3.3 34.367-.395 34.367-.395l-6.407-24.752S12.513 1.101 6.717 6.026z"/>
        <path fill="none" stroke="#000" stroke-miterlimit="10" d="M15.157 1.683L33.539-15.21 37.84 1.683S30.48.895 28.016.871c-3.221-.031-12.859.812-12.859.812z"/>
        <path fill="none" stroke="#000" stroke-miterlimit="10" d="M22.802 1.101s4.88-2.269 7.069-2.718c1.785 1.134 3.949 2.9 3.949 2.9"/>
        <path fill="none" stroke="#000" stroke-miterlimit="10" d="M16.104 1.319S26.95-2.983 30.552-4.066c1.896 1.312 6.677 5.385 6.677 5.385"/>
        <path fill="none" stroke="#000" stroke-miterlimit="10" d="M19.052-1.896s9.125-3.69 12.125-4.652c1.73 1.399 5.7 4.447 5.7 4.447"/>
        <path fill="none" stroke="#000" stroke-miterlimit="10" d="M24.113-6.548s5.689-1.892 7.688-2.393c1.627 1.23 4.242 3.566 4.242 3.566m-7.904-4.872s3.061-1.026 4.246-1.306c1.148 1.084 2.75 2.612 2.75 2.612"/>
        <path fill="#E2CF00" d="M-11.867 10.241c0 .583 1.917 1.195 2.4.87.451-.303.052-1.836-.468-1.996-1.742-.535-1.933.626-1.933 1.194"/>
        <path fill="#D40000" stroke="#000" stroke-miterlimit="10" d="M10.874 72.662l5.196-.024-24.453-43.535-3.906 2.014z"/>
        <path fill="#131F67" d="M55.643 29.103c1.54-9.55 1.371-23.494 1.371-23.494l-16.603 13.17s6.146 7.339 6.849 16.705c.367 4.887 1.189 19.565 1.189 19.565s5.248-13.886 7.194-25.946z"/>
        <path fill="#E2CF00" stroke="#000" stroke-miterlimit="10" d="M-33.587-1.115l2.371 2.123 10.587-10.109s6.182-4.68 6.725-14.669c.542-9.976-6.339-15.25-10.03-18.08-9.845-7.547-20.509-22.824-27.048-31.565-7.005 7.187-25.781 18.258-25.781 18.258l3.34 1.873s13.193-6.945 22.062-14.903c10.833 17.375 21.456 26.651 24.184 28.381 3.745 2.376 10.182 7.8 9.538 15.862-.667 8.351-5.541 13.055-5.541 13.055l-10.407 9.774z"/>
        <path fill="#131F67" d="M-36.83-31.47l.757 2.954-2.862.872 9.651 4.446-3.914-9.274-1.301 1.983zm6.825 11.576l2.272-.762-.019-2.36 2.092.67.887-2.203 3.365 8.749zm-3.962-14.104l2.521-.75-.598-2.909 2.335.966 1.326-1.835 4.38 9.506zm-12.578-11.815l9.74 4.613-3.729-9.29-1.202 2.292-2.273-.864.601 2.719zm-11.173-13.062l9.888 4.837-3.308-10.058-1.353 2.824-2.495-1.421.337 3.096zm-5.522 2.892l.537 2.98-3.055.642 10.52 4.883-4.133-10.371-1.111 2.945z"/>
        <path fill="#E2CF00" d="M-65.085-47.873l4.855 2.585-1.554 5.163zm3.151 11.305l1.001 5.562-3.5-2.335zm1.864 7.586l2.181 3.831-6.444 3.274z"/>
        <path fill="#E2CF00" stroke="#000" stroke-miterlimit="10" d="M44.753-34.738c-.327 2.607-1.567 8.186-6.958 7.88-4.409-.25-5.624-6.765-5.321-9.462.304-2.711.992-9.181 7.113-8.533 4.987.529 5.504 7.419 5.166 10.115zm-5.259-7.686c-2.018-.208-4.566 1.941-4.85 6.503-.215 3.459 1.431 6.81 3.369 7.046s4.576-1.662 4.939-6.049c.393-4.725-1.404-7.288-3.458-7.5z"/>
        <path fill="#E2CF00" d="M-68.288-33.031c-.076.965 4.485 4.048 4.485 4.048l-4.584 8.921-7.906 3.935 7.365-12.21-5.334-5.42 6.331-5.94-8.312-14.002 8.029 4.329 3.88 11.2c.001 0-3.901 4.476-3.954 5.139z"/>
        <path fill="#D40000" d="M-77.168-16.966l6.716-11.328-5.146-5.415 6.2-6.124-7.654-13.363zM-64.741-.261l-1.402 3.317-3.914 1.627 1.412-3.934zm5.282.365l3.037.838 1.162 3.302-3-.858zm.742-6.3l.63-2.901 2.56-.996-.904 3.114zm-6.117.341l-3.478-1.115-.739-2.703 3.156.817z"/>
        <path fill="#131F67" d="M-38.616-32.026c-.128.755.18 1.388-.073 2.169-.258.799-.795 1.492-1.334 2.123-1.295 1.518-3.161 2.215-5.008 2.544-1.608.286-3.423.368-5.083.001-1.904-.42-3.597-.436-4.823-2.127-1.409-1.942-1.876-3.787-2.44-6.089-.575-2.346-.664-4.285-.176-7.112.169-.979.653-2.277 1.096-3.172.468-.948 1.277-1.072 2.26-1.083 1.989-.024 4.015-.274 5.989-.011 1.621.216 3.668.62 4.804 1.886.479.535.698 1.243 1.157 1.794.445.536 1.062.746 1.561 1.207.562.521.824 1.085 1.021 1.8.229.827.428 1.016.998 1.668.509.582.958 1.329.93 2.115-.032.845-.746 1.505-.879 2.287zm-.704-3.766c-.527-.515-1.871-.614-2.539-.639-.688-.025-1.48-.118-2.14.032-.619.14-1.921.3-2.546.401-1.713.278-2.322.523-3.908.782.001-.377.312-.757.526-1.058.374-.526.396-.416.942-.375.981.074 1.947-.388 2.932-.408 1.103-.022 2.169-.196 3.25-.306.459-.046 1.566.024 1.869-.451.951-1.495-2.032-2.399-2.904-2.402-.854-.002-1.988.139-2.85.161-.868.022-1.832.499-2.672.71-.689.174-1.371.438-2.102.38-.338-.027-.485.113-.444-.288.003-.023.456-.714.509-.775.445-.518 1.796-.413 2.508-.468.811-.063 1.598-.182 2.397-.249.648-.054 1.652-.182 2.204-.583.888-.646.388-1.14-.598-1.487-1.81-.637-3.727-.792-5.631-.892-1.71-.09-3.256-.153-4.912.407-1.164.394-1.337 1.917-1.625 2.93-.405 1.424-.229 2.999-.219 4.468.006.927.127 1.827.397 2.71.614 2.003 1.337 4.023 2.837 5.539 1.204 1.218 3.247 1.873 4.943 1.91 3.256.071 7.587-.638 9.508-3.533.389-.585.603-.986.386-1.686-.289-.929-.745-1.081-1.659-1.156-1.753-.145-3.542.592-5.233.998-.976.234-2.162.641-3.174.558-.055-.44.81-.818 1.111-1.095.637-.583 1.082-.471 1.854-.706 1.697-.518 3.481-.716 5.247-.857.67-.054 2.022.121 2.308-.682.126-.352.021-1.31-.572-1.89z"/>
        <path fill="#D40000" stroke="#000" stroke-miterlimit="10" d="M65.76 41.851l2-4 2.437 4-2.218 3.812z"/>
        <path fill="#E2CF00" stroke="#000" stroke-miterlimit="10" d="M-58.865-45.024c-3.019 3.579-2.3 9.247-1.501 12.886.506 2.303 1.122 4.354 2.812 6.05.589.591 1.353 1.66 2.293.925 1.173-.917-.513-2.947-.928-3.807-1.781-3.696-2.427-7.694-1.678-11.724.18-.97.75-2.168.993-3.069.328-1.218-.995-2.442-1.991-1.261z"/>
        <path fill="#E2CF00" d="M43.948-27.774c-.658-.153-1.755.363-2.203.85-.628.681-1.004 1.661-1.229 2.542-.225.877-.385 1.842-.317 2.751.024.327.31 1.384.624.811.11-.201.086-.564.151-.792.093-.326.203-.644.292-.97.148-.544.367-1.155.706-1.611.323-.438.81-.879 1.353-.935.42-.043.843-.018 1.25-.172.733-.278 1.003-.909.733-1.609-.204-.528-.555-.678-1.36-.865zm4.865 18.691c-.658-.153-1.755.363-2.203.85-.628.681-1.004 1.661-1.229 2.542-.225.877-.385 1.842-.317 2.751.024.327.31 1.384.624.811.11-.201.086-.564.151-.792.093-.326.203-.644.292-.97.148-.544.367-1.155.706-1.611.323-.438.81-.879 1.353-.935.42-.043.843-.018 1.25-.172.733-.278 1.003-.909.733-1.609-.203-.528-.555-.678-1.36-.865zM46.2-17.792c-.658-.153-1.755.363-2.203.85-.628.681-1.004 1.661-1.229 2.542-.225.877-.385 1.842-.317 2.751.024.327.31 1.384.624.811.11-.201.086-.564.151-.792.093-.326.203-.644.292-.97.148-.544.367-1.155.706-1.611.323-.438.81-.879 1.353-.935.42-.043.843-.018 1.25-.172.733-.278 1.003-.909.733-1.609-.204-.529-.555-.679-1.36-.865zM50.985-.177c-.658-.153-1.755.363-2.203.85-.628.681-1.004 1.661-1.229 2.542-.225.877-.385 1.842-.317 2.751.024.327.31 1.384.624.811.11-.201.086-.564.151-.792.093-.326.203-.644.292-.97.148-.544.367-1.155.706-1.611.323-.438.81-.879 1.353-.935.42-.043.843-.018 1.25-.172.733-.278 1.003-.909.733-1.609-.203-.528-.555-.679-1.36-.865z"/>
        <path fill="#E2CF00" d="M42.949-22.816c-.684-.056-1.214.79-1.458 1.333-.382.849-.478 1.663-.562 2.58-.029.326-.217 1.488.103 1.733.481.37.635-.913.709-1.15.17-.544.337-1.172.599-1.682.281-.547.781-.587 1.234-.912.692-.496.842-1.782-.625-1.902z"/>
        <path fill="#E2CF00" d="M43.703-19.958c-.684-.056-1.214.79-1.458 1.333-.382.849-.478 1.663-.562 2.58-.029.326-.217 1.488.103 1.733.481.37.635-.913.709-1.15.17-.544.337-1.172.599-1.682.281-.547.781-.587 1.234-.912.692-.496.842-1.782-.625-1.902zm1.829 6.432c-.684-.056-1.214.79-1.458 1.333-.382.849-.478 1.663-.562 2.58-.029.326-.217 1.488.103 1.733.481.37.635-.913.709-1.15.17-.544.337-1.172.599-1.682.281-.547.781-.587 1.234-.912.692-.496.842-1.782-.625-1.902z"/>
        <path fill="#E2CF00" d="M46.182-10.875c-.684-.056-1.214.79-1.458 1.333-.382.849-.478 1.663-.562 2.58-.029.326-.217 1.488.103 1.733.481.37.635-.913.709-1.15.17-.544.337-1.172.599-1.682.281-.547.781-.587 1.234-.912.691-.496.841-1.783-.625-1.902zm1.791 5.342c-.684-.056-1.214.79-1.458 1.333-.382.849-.478 1.663-.562 2.58-.029.326-.217 1.488.103 1.733.481.37.635-.913.709-1.15.17-.544.337-1.172.599-1.682.281-.547.781-.587 1.234-.912.691-.496.841-1.783-.625-1.902z"/>
        <path fill="#E2CF00" d="M48.562-2.343c-.684-.056-1.214.79-1.458 1.333-.382.849-.478 1.663-.562 2.58-.029.326-.217 1.488.103 1.733.481.37.635-.913.709-1.15.17-.544.337-1.172.599-1.682.281-.547.781-.587 1.234-.912.692-.496.842-1.782-.625-1.902zm1.756 5.947c-.684-.056-1.214.79-1.458 1.333-.382.849-.478 1.663-.562 2.58-.029.326-.217 1.488.103 1.733.481.37.635-.913.709-1.15.17-.544.337-1.172.599-1.682.281-.547.781-.587 1.234-.912.692-.495.842-1.782-.625-1.902z"/>
        <path fill="#E2CF00" stroke="#000" stroke-miterlimit="10" d="M67.25 32.084a2.964 2.964 0 1 0-5.928 0 2.964 2.964 0 0 0 5.928 0zm6.55 0a2.964 2.964 0 1 0-5.928 0 2.964 2.964 0 0 0 5.928 0z"/>
        <path fill="none" stroke="#000" stroke-miterlimit="10" d="M-1.658 19.601s9.984-3.403 19.701-4.236c13.758-1.18 23.341 1.006 23.341 1.006"/>
        <path d="M43.674 14.083l.68.178 2.326-1.987-2.76-.443zm-5.859-.903l.216-2.368 3.482.41-.255 2.335zm-6.044-.533l.118-2.482 3.433.217-.136 2.492zm-5.573-.17l-.013-2.51 3.258-.014-.019 2.538zm-6.397.344v-2.637l3.5-.132.042 2.694zm-6.344.779l-.302-2.689 4.045-.43.25 2.723zm-6.312 1.307l-.504-2.789 3.815-.707.475 2.713zm-5.814 1.514l-.87-2.448 3.801-1.133.649 2.501zm-2.126.736l-.785-2.487-2.719.779 1.397 2.459z"/>
        <path fill="#E2CF00" d="M18.272-45.929l-2.29.053L-6.43-25.392l-6.974-.019.004 1.769 7.281-.25z"/>
        <path fill="#E2CF00" d="M9.473-45.876h2.974L-6.975-27.893l-6.867.142-.362-1.944 6.302-.32z"/>
        <path fill="#E2CF00" d="M7.888-45.708l-2.46-.168L-8.95-32.672l-6.251.245.733 1.939 6.025-.137z"/>
        <path fill="#E2CF00" d="M1.947-45.99l-3.42-.038-9.848 8.955-6.251.235 1.222 2.137 6.289.034z"/>
        <path fill="#131F67" d="M-28.984-46.728l10.852 9.403 6.818-.184 9.924-8.957z"/>
        <path fill="none" stroke="#131F67" stroke-miterlimit="10" d="M43.263-45.99l-46.919-.12"/>
        <path fill="#E2CF00" d="M49.911 9.635c.35.451 1.836-.367 2.108-.867.19-.349.771-1.151-.29-1.564-.707-.275-2.283 1.831-1.818 2.431zM-.251 67.7a1.622 1.622 0 1 0-3.244 0 1.622 1.622 0 0 0 3.244 0zm-10.608-18.861a1.622 1.622 0 1 0-3.244 0 1.622 1.622 0 0 0 3.244 0z"/>
        <path fill="#131F67" d="M-23.262-15.753a.688.688 0 1 0-1.376.002.688.688 0 0 0 1.376-.002zm2.916-2.687a.688.688 0 1 0-1.376.002.688.688 0 0 0 1.376-.002zm-7.952-7.562a.688.688 0 1 0-1.376.002.688.688 0 0 0 1.376-.002zm-2.917 3.375a.688.688 0 1 0-1.376.002.688.688 0 0 0 1.376-.002zm5.041-6.393a.688.688 0 1 0-1.376.002.688.688 0 0 0 1.376-.002zm2.959-3.146a.688.688 0 1 0-1.376.002.688.688 0 0 0 1.376-.002zm-15.442-8.649a.688.688 0 1 0-1.376.002.688.688 0 0 0 1.376-.002zm3.084-3.209a.688.688 0 1 0-1.376.002.688.688 0 0 0 1.376-.002zm-21.96-3.541a.688.688 0 1 0-1.376.002.688.688 0 0 0 1.376-.002zm3.366-2.792a.688.688 0 1 0-1.376.002.688.688 0 0 0 1.376-.002zM-50-53.883a.688.688 0 1 0-1.376.002.688.688 0 0 0 1.376-.002zm3.544-2.875a.688.688 0 1 0-1.376.002.688.688 0 0 0 1.376-.002z"/>
        <path fill="#E2CF00" d="M-62.195 2.211c.372-2.107 3.09-1.777 3.084.327-.007 2.093-1.629 3.938-4.164 3.484-1.935-.346-2.987-2.737-1.908-4.729.863-1.595 2.889-1.554 2.988.918zm-.003-10.402c-.237 1.287-1.157 2.94-2.231 1.398-1.229-1.762.548-4.928 2.631-4.715 1.935.198 3.313 2.663 2.34 4.483-1.229 2.296-2.837.889-2.74-1.166zm-5.832 5.299c2.726.36 3.496 2.342 1.248 2.934-2.589.682-4.779-1.272-3.93-3.951.672-2.119 2.865-2.938 4.786-1.783 2.038 1.227-.054 2.702-2.104 2.8zm10.671-.164c-2.263.763-2.444-1.944-.44-2.596 1.631-.53 4.324.502 4.3 2.76-.023 2.142-2.29 4.028-4.335 2.995-2.247-1.134-1.226-2.287.475-3.159z"/>
    </symbol>
    <symbol id="spades_2_" viewBox="-9.479 -11.83 18.957 23.661">
        <path d="M.007 11.831S9.453.656 9.478-3.852c.013-2.172-1.3-4.664-4.338-4.595-3.228.073-3.662 2.252-3.661 3.5 0 .948-.547.546-.56.383-.163-2.029 2.063-7.266 2.063-7.266h-5.964S-.756-6.593-.918-4.564c-.014.163-.562.565-.561-.383 0-1.248-.434-3.427-3.661-3.5-3.039-.069-4.351 2.423-4.339 4.595C-9.454.655-.008 11.831-.008 11.831"/>
    </symbol>
    <symbol id="spades-medium_1_" viewBox="-18.979 -23.688 37.957 47.376">
        <use xlink:href="#spades_2_" width="18.957" height="23.661" x="-9.479" y="-11.83" transform="scale(2.0023)" overflow="visible"/>
    </symbol>
    <use xlink:href="#queen-spades2" width="156.046" height="148.366" x="-78.023" y="-74.183" transform="matrix(1 0 0 -1 113.976 104.542)" overflow="visible"/>
    <use xlink:href="#queen-spades2" width="156.046" height="148.366" x="-78.023" y="-74.183" transform="matrix(-1 0 0 1 114.212 212.643)" overflow="visible"/>
    <path d="M154.824 153.372l-7.559 9.019H74.284l7.789-8.766z"/>
    <use xlink:href="#spades_2_" width="18.957" height="23.661" x="-9.479" y="-11.83" transform="matrix(1 0 0 -1 19 61)" overflow="visible"/>
    <use xlink:href="#spades_2_" width="18.957" height="23.661" x="-9.479" y="-11.83" transform="translate(207 252)" overflow="visible"/>
    <use xlink:href="#face-frame" width="161.544" height="259.519" x="-80.771" y="-129.759" transform="matrix(1 0 0 -1 114.094 159)" overflow="visible"/>
    <use xlink:href="#spades-medium_1_" width="37.957" height="47.376" x="-18.979" y="-23.688" transform="matrix(1 0 0 -1 62.254 62.063)" overflow="visible"/>
    <use xlink:href="#spades-medium_1_" width="37.957" height="47.376" x="-18.979" y="-23.688" transform="translate(164.107 255.936)" overflow="visible"/>
    <path fill="none" d="M1.567 11.9h33.411v39.516H1.567z"/>
    <text transform="translate(4.233 43.403)" font-family="'ArialNarrow'" font-size="44">
        Q
    </text>
    <path fill="none" d="M193.21 261.419h33.411v39.516H193.21z"/>
    <text transform="rotate(180 111.978 134.715)" font-family="'ArialNarrow'" font-size="44">
        Q
    </text>
</svg>
