<svg xmlns="http://www.w3.org/2000/svg" xmlns:xlink="http://www.w3.org/1999/xlink" viewBox="0 0 227 315">
    <symbol id="diamonds" viewBox="-8.447 -11.626 16.895 23.251">
        <path fill="#D40000" d="M0 11.625S4.224 4.051 8.447 0C4.224-4.454 0-11.626 0-11.626S-4.224-4.454-8.447 0C-4.224 4.051 0 11.625 0 11.625z"/>
    </symbol>
    <symbol id="diamonds-medium" viewBox="-16.914 -23.279 33.828 46.555">
        <use xlink:href="#diamonds" width="16.895" height="23.251" x="-8.447" y="-11.626" transform="scale(2.0023)" overflow="visible"/>
    </symbol>
    <symbol id="face-frame" viewBox="-80.771 -129.759 161.544 259.519">
        <path fill="none" stroke="#131F67" stroke-width="3" stroke-miterlimit="10" d="M79.272-128.259H-79.271V128.26H79.272z"/>
    </symbol>
    <symbol id="queen-diamonds" viewBox="-79.698 -83.87 159.396 167.74">
        <path d="M-28.719 6.329s-2.065 16.322 4.046 32.073S-8.475 64.301-8.475 64.301l-.027-20.652s-2.55-3.866-4.781-9.915-3.078-14.27-3.078-14.27L-28.719 6.329z"/>
        <path fill="#D40000" d="M-5.513 29.449l-2.989 14.199s-3.248-5.103-5.44-11.892-2.419-12.293-2.419-12.293l10.848 9.986z"/>
        <path d="M-28.719 6.329l18.654 18.495s14.275-5.036 25.333-3.667 24.071 5.518 24.071 5.518S48.437 16.49 59.103 8.657C47.115 1.53 30.688-3.556 16.976-4.897-10.968-7.632-28.719 6.329-28.719 6.329z"/>
        <path fill="#D40000" stroke="#000" stroke-miterlimit="10" d="M33.236-56.14s-5.739 13.916.481 26.772 17.96 19.288 17.96 19.288-.621-12.862-4.68-23.563S33.236-56.14 33.236-56.14z"/>
        <path d="M-23.36-24.089s1.513-1.958 2.845-5.958 2.692-6.768 2.692-6.768 8.504-2.655 16.299-3.177 17.465-.618 17.465-.618l1.633 10.786-9.948-.211L14.5-12.7l12.061.659 6.526 6.331S18.682-8.82 8.102-7.874-18.492-2.48-18.492-2.48l-.904-4.554 9.472-3.07-5.387-16.656-8.049 2.671z"/>
        <path fill="#E2CF00" stroke="#000" stroke-miterlimit="10" d="M-41.388-5.71s6.738-3.196 9.913-6.667 8.114-11.712 8.114-11.712-14.693-10.678-20.138-23.288-9.799-35.452-9.799-35.452l-25.896 26.791.354 14.684L-41.388-5.71z"/>
        <path d="M-76.603-54.607l.105 12.197 34.684 32.688s4.202-2.34 7.204-5.594 6.456-8.02 6.456-8.02-11.349-9.3-18.066-22.321-9.743-29.567-9.743-29.567l-20.64 20.617z"/>
        <path fill="#E2CF00" stroke="#000" stroke-miterlimit="10" d="M-60.393 6.062c-.013-.783-.764-10.383 1.234-8.614 1.53 1.357.875 8.259-1.234 8.614"/>
        <path fill="#131F67" d="M-72.774 9.988l1.968 2.248s-2.198 3.976.814 6.78 6.17 2.217 6.17 2.217l1.5 2.597 1.963-2.259s3.794 2.195 7.254-.86 1.978-5.859 1.978-5.859l2.547-1.75-1.946-1.723s2.552-3.819-.7-7.021-8.502-.672-8.502-.672-4.795-3.946-8.022-.738-2.773 5.876-2.773 5.876l-2.251 1.164z"/>
        <path fill="#E2CF00" d="M-68.164 10.625s-2.539-4.783.736-6.939 7.691 1.099 7.691 1.099 4.119-3.942 7.771.673-1.618 7.438-1.618 7.438 3.46 4.055-.26 7.24-7.891-1.578-7.891-1.578-4.253 4.15-7.791-.293 1.362-7.64 1.362-7.64z"/>
        <path fill="none" stroke="#131F67" stroke-miterlimit="10" d="M-7.313 83.271c.477-5.205-.491-11.112-.63-16.424-.131-5.035-.367-10.1-.5-15.133-.244-9.23.03-17.561 5.667-25.205 4.921-6.674 12.774-6.378 19.708-2.755 6.519 3.407 14.75 9.901 17.459 16.793"/>
        <path fill="none" stroke="#131F67" stroke-miterlimit="10" d="M30.557 60.048c.663-10.528 2.907-20.027 7.625-29.495 5.047-10.129 13.368-15.81 22.18-22.219 3.457-2.514 5.261-3.09 9.029-3.786"/>
        <path fill="none" stroke="#131F67" stroke-miterlimit="10" d="M17.558 23.715c3.143-.564 8.408.927 11.523 1.793 3.489.97 7.876 2.761 10.644 3.624"/>
        <path fill="#131F67" d="M9.629 60.902c4.074 3.061 9.484 1.881 13.157-.038 1.493-.78 3.072-1.643 4.221-2.896.446-.487 1.528-1.41 1.556-2.091-.467-.229-1.055.405-1.428.619-.708.407-1.409.817-2.148 1.181-2.244 1.104-4.402 2.514-6.963 2.725-1.843.152-3.95.244-5.645-.639-.799-.417-2.588-1.951-3.65-1.238-.723.485.392 1.996.9 2.377z"/>
        <path fill="#131F67" d="M26.287 52.627c-.219.93-1.479 2.082-2.164 2.682-1.668 1.459-3.575 3.328-5.891 3.65-1.686.233-3.58-.338-5.128-.955-1.159-.462-2.239-1.421-3.431-1.727-.488-.126-1.898.66-1.857-.062.057-.52.832-1.406 1.156-1.899.449-.683.168-.964.123-1.732-.059-1.021 1.033-2.017 1.701-2.653 1.138-1.083 2.119-2.429 3.417-3.331.374-.26 1.398-1.011 1.829-.971.332.031.066.26.01.313-.243.229-.58.581-.928.959-.159.173-.742.611-.91.777-.454.448-2.274 1.701-1.99 2.277 1.389-.094 2.693-.535 4.116-.427.774.059 1.535.222 2.306.28.821.062 1.484.518 2.265.779 1.22.41 2.319.744 3.616.783.77.025 2.002.231 1.76 1.257zm-14.318.432c1.503 1.518 1.094-.611 2.102-2.25-1.205-.64-3.133 1.209-2.102 2.25zm6.98-1.981c-.84-.85-1.736-1.102-2.76-.918-1.271.228-1.808.759-2.119 1.927-.18.673-.18 1.657-.18 1.657s.632.303 1.047.31c-.152-.837-.005-2.888 1.511-2.965 2.228-.113 2.306 2.407 2.306 2.407s.725.086 1.033.121c.02-1.045-.285-1.98-.838-2.539zm2.064.105c-.36-.138-.849-.428-.886.085-.018.23.208.778.295.976.118.269.332.815.332.815s2.249-.365 2.347-.844c.074-.363-1.704-.885-2.088-1.032zm2.772 3.188c-.469-.211-3.095 1.418-3.438 1.593-1.871.955-3.014.798-5.088.532-.818-.104-1.646-.312-2.439-.54-.402-.116-1.968-.594-1.754-.241.517.85 3.62 2.556 6 2.607 2.382.052 4.094-1.188 5.848-2.608.232-.19 1.432-1.09.871-1.343zM8.496 45.22c-.009-.057-.011-.136-.022-.192-.146-.681.933-.661 1.254-.924.437-.356.687-.899.731-1.465.114-1.462-1.281-2.49-2.655-1.991-1.271.462-3.438 3.04-4.896 1.579-.397-.397-.092-1.165-.744-1.327-.571-.143-1.154.819-1.269 1.295-.269 1.121.604 3.324 1.031 4.398.896 2.252 1.712 4.36 1.672 6.901-.051 3.208-1.111 6.994-4.481 8.156-2.424.836-5.141-.011-7.269-1.061l.062-.25c-.057-2-.321-4.065-.375-6.125-.021-.834-.067-5.197.678-5.24.217.821 2.221-.111 2.95-.135 1.245-.041 2.761.185 3.935.607 1.198.433 2.451.782 1.364-.842-.526-.785-1.773-1.141-2.106-1.945 1.063.27 2.09 1.387 3.169 1.482.371-2.244-2.387-4.203-2.097-6.556.131-1.063 1.651-1.398 2.61-2.062.749-.519 2.026-1.991 2.928-1.987-.371.904-2.27 2.844-.421 2.991 1.533.122 2.615-1.666 4.273-1.362 3.162.581 2.397 6.314-.322 6.055zM-7.121 59.402c1.433 1.087 3.579 1.222 5.405.557 1.05-.383 2.769-1.148 3.405-2.11.801-1.21-.496-.581-1.062-.322a11.535 11.535 0 0 1-3.888 1.034c-1.427.112-2.414-.305-3.719-.771-.361-.129-.679-.23-.889.198-.32.662.343 1.107.748 1.414zm-.688-3c1.371 1.17 3.662 2.037 5.836 1.375a23.88 23.88 0 0 0 2.914-1.118c.411-.188 1.396-.539 1.524-1.101.238-1.05-2.21.104-2.612.25-1.859.673-3.342.971-5.222.314a15.007 15.007 0 0 1-1.215-.469c-.152-.068-.648-.455-.807-.441-.402.036-.517.84-.418 1.19zm1.745-6.04c-1.016-.579-2.169 1.14-1.494 1.759.744.683 1-.109 1.344-.692.244-.417.63-.792.15-1.067zm2.377-.335c-1.607.015-2.358 1.864-2.305 3.278.293-.053.476-.124.896-.126-.229-1.473 1.138-2.719 2.577-2.064.434.197.804.44.929.911.093.35.155 1.438.155 1.438.346-.055.601-.103.959-.098.378-2.547-1.572-3.353-3.211-3.339zm4.025.755c-.443-.048-.625.034-.548.523.114.732.72 1.063 1.245 1.347.515.278 1.535-.08 1.285-.662-.218-.511-1.424-1.147-1.982-1.208zm-49.551-60.815c-.828 4.796-5.695 6.172-9.854 7.359-3.47.99-8.742.98-11.975-.922-.658-.388-.898-.836-1.085-1.688-.178-.812-.812-1.329-1.333-1.971-.939-1.158-.309-2.231-.896-3.593-.705-1.632-1.32-2.357-1.109-4.258.216-1.946-.269-2.844.666-4.667.234-.458 1.062-1.809 1.214-1.958.87-.856 2.731-.73 3.686-.979 1.308-.34 1.995-1.21 2.908-2.162.658-.688 1.524-1.686 2.604-1.404 1.216.315 2.972 2.394 3.921 3.193 2.885 2.433 5.492 5.225 8.245 7.776 1.72 1.596 3.444 2.746 3.008 5.274zm-15.943 7.34c.664.412 4.203-.016 3.984-.685-.266-.81-6.489-.872-3.984.685zm-4.371-1.168c.512.277 2.125.921 2.688.594.32-.187.753-1.622.576-2.004-.241-.523-1.176-.509-1.782-.259.651-1.001 2.458-1.228 3.076-2.255-.544-.437-1.421-.732-1.681-1.435-.523-1.41.498-.47 1.168-.029.887.582 2.842 1.103 2.237-1.222-.485-1.866-3.453-.434-4.391.221-.766.534-1.3.95-1.829 1.72-.364.529-.825 1.006-1.188 1.558-.788 1.201-.152 2.417 1.126 3.111zm3.752-11.428c-2.306-.333-1.141 2.574.686 2.816 1.545-.206 1.128-2.554-.686-2.816zm.624-2.173c-.12-.513-.854-.999-1.315-1.141-.709-.216-1.672-.157-1.61.776.047.705 1.425 1.604 1.425 1.604s1.739-.216 1.5-1.239zm1.858 5.492c.132.306.471.58.627.946.282.66.076 1.823.991 1.955 1.907.274 1.197-1.926.852-2.852-.677-1.815-1.583-3.135-3.385-3.921.277 1.196.429 2.743.915 3.872zm-8.609 4.372c1.226-.969 2.1-1.892 2.759-2.578.831-.865 1.423-1.193 2.312-1.92-1.362-.634-.611-2.791-2.233-2.077-1.682.74-5.245 5.111-2.838 6.575zm-1.125-4.437c1.425-.765 1.889-2.298 3.185-3.127 1.063-.679 2.382-.144 1.239-2.303-.938-1.772-2.672-.182-3.799.61-1.995 1.4-2.452 3.446-.625 4.82zm2.229-9.816c-1.586.172-4.769 2.527-2.979 4.19 1.178-.338 2.568-1.394 3.807-1.761-.6-1.122 1.833-2.717-.828-2.429zm1.708 2.066c2.498.647 2.877-1.057 1.752-1.628-.872-.442-1.74 1.104-1.752 1.628zm18.873 7.799c-.453-1.685-2.71-2.895-3.877-4.188-1.281-1.422-2.591-2.875-4.056-4.143-1.444-1.251-2.76-2.623-4.19-3.906-.406-.364-.914-.828-1.422-1.014-.939-.343-.972.049-1.826.578-.527.325-1.395.586-1.676 1.199-.455.994.124.794.679 1.424.534.606.392 1.03.618 1.689.29.839.621.768 1.187 1.386.639.7.414 1.128.565 1.963.195 1.075.376.984 1.299 1.648.762.548 1.51 1.271 1.996 2.062.404.658.423 1.598 1.206 1.933.307-1.337-.049-2.771.298-4.173.239-.969.703-1.879.963-2.821.371.805-.076 2.079-.192 2.901a7.768 7.768 0 0 0 .329 3.647c.252.731.808 1.398.039 2.08-.556.493-1.611.599-2.25 1.168-1.412 1.259-3.582 1.79-4.41 3.644.66.363 1.674-.02 2.428.045.527.046 1.121.161 1.601.388.444.209.815.845 1.194.99 1.168.449 3.589-.615 4.784-1.302 2.703-1.551 5.725-3.439 4.713-7.198z"/>
        <path fill="none" stroke="#000" stroke-linecap="round" stroke-miterlimit="10" d="M-55.069 19.017l-10.929-13.56m-1.754 11.425l13.557-10.111"/>
        <path d="M-60.974 15.325c.942.185 3.518-.815 3.518-3.089 0-2.665-1.617-3.052-2.903-3.316s-3.137 1.1-3.359 2.906 1.461 3.248 2.744 3.499z"/>
        <path fill="#E2CF00" d="M-10.441-26.678l3.041 1.273-1.598 2.583 2.895 1.409-1.656 2.026 3.068 1.784-1.534 1.935 2.812 1.41-1.745 2.017 2.842 1.784-1.433 1.795L.319-7.625s-2.144-4.386-3.967-9.526S-7.2-27.678-7.2-27.678l-3.241 1zm9.096-1.874l1.632-.244 2.069.676-1.851 2.067 3.107 1.272-2.194 2.434 3.475 1.175-2.205 2.869 3.555 1.138-1.937 2.291 3.375 1.223-1.649 2.203 3.186 1.242-2.807 2.332s-2.946-5.838-4.517-10.461-3.239-10.217-3.239-10.217zm5.26 20.521l-.817-1.7-1.46.259.484 1.666-.86.166s-2.698-5.599-4.44-10.011-3.22-10.147-3.22-10.147l1.254-.034.66 2.015 1.353-.525-.464-1.738 1.583-.332s2.266 7.798 3.274 10.571 3.996 9.555 3.996 9.555l-1.343.255zM-2.271-23.93l-1.325.495.454 1.457 1.376-.48-.505-1.472zm1.238 3.268l-1.372.422.545 1.589 1.324-.466-.497-1.545zM.314-16.91l-1.313.446.524 1.508 1.281-.423-.492-1.531zm1.191 3.609l-1.279.364.581 1.483 1.243-.342-.545-1.505z"/>
        <path fill="#D40000" stroke="#000" stroke-miterlimit="10" d="M-23.417-23.435l-.921 2.519 3.268 10.465 9.771-3.347-3.814-12.575zM8.102-29.66s.197 2.526 1.804 6.471 2.523 5.991 2.523 5.991l10.715.461s-1.731-2.519-3.199-6.216-2.371-6.87-2.371-6.87l-9.472.163zM52.831-.023l9.986 6.055 7.112-1.484 9.267-13.851-.248-16.935zm-38.761 83.3l8.715-.125 56.268-72.05V-7.874z"/>
        <path fill="#E2CF00" stroke="#000" stroke-miterlimit="10" d="M73.341 40.823s-3.535 4.369-6.219 19.434.047 22.383.047 22.383l-37.718.192 32.758-43.261 11.132 1.252z"/>
        <path d="M22.646 83.489l5.917-.167 33.833-44.167-4.438-.753z"/>
        <path fill="#E2CF00" d="M-67.394-46.215l.885 6.108s2.671-.296 3.965 1.035.872 4.493.872 4.493l6.914.634-12.636-12.27zm8.643-4.329l11.441 10.553-.846-5.02s-1.438.274-2.892-1.009-1.317-4.601-1.317-4.601l-6.386.077zm-11.895-8.652s-4.685 4.204-3.77 4.986 5.372-2.769 5.372-2.769 1.238 8.254 4.234 7.465.202-8.276.202-8.276 6.985 4.079 7.921 2.189-6.226-6.009-6.226-6.009 6.231-5.284 4.16-7.085-6.401 4.024-6.401 4.024 3.148 2.098.463 5.42-5.955.055-5.955.055zm27.211 37.995s.747 5.885 2.872 5.36.726-6.482.726-6.482 5.413 3.63 6.031 1.45-4.596-5.115-4.596-5.115 4.948-.405 4.151-2.242-5.199-.889-5.199-.889 1.977-3.842.369-4.825-3.738 2.674-3.738 2.674-1.672-5.966-3.489-5.687-.409 6.279-.409 6.279-5.305-3.089-5.977-1.505 4.614 5.354 4.614 5.354-5.39.403-5.155 2.152 5.909 1.131 5.909 1.131-2.175 5.278-.269 5.761 4.16-3.416 4.16-3.416z"/>
        <path fill="#131F67" d="M-31.722 3.569s2.184-1.264 5.97-3.1 7.26-3.479 7.26-3.479l-6.32-18.294s-3.516 5.767-7.061 9.518-10.053 6.094-10.053 6.094l10.204 9.261z"/>
        <path fill="#D40000" stroke="#000" stroke-miterlimit="10" d="M-16.985-50.995s.302 3.779.022 6.726-.86 7.455-.86 7.455S-6.157-39.62 1.138-40.08s14.803-.529 14.803-.529-.737-2.834-.128-6.443 1.375-7.875 1.375-7.875S6.396-52.165-.096-51.666s-16.889.671-16.889.671z"/>
        <path fill="#E2CF00" d="M-23.359 3.466l2.333 5.613-3.462 1.417-4.231-4.167zm4.799 12.096l6.415-2.827-2.503-6.406-6.378 2.75zm6.541-2.629l1.625 5.734 5.675-1.77-1.253-5.922zm4.383-8.858l-6.879 1.996-1.836-5.269 7.544-2.179zM.306 9.497l-6.322.999L-7.454 4.3l6.803-1.467zm6.902 5.451l-.233-6.219-6.669.768 1.137 6.133z"/>
        <path fill="#E2CF00" d="M5.87-3.796l.311 5.739-6.832.89-.955-5.769zm7.626 12.209l-6.592.08-.723-6.55 7.238-.163zm6.926-6.335l.354-5.917-7.454-.34.097 5.959zM18.72 15.055l.789-6.225-6.013-.417-.1 6.377zm8.75-11.834l-1.119 6.641-6.353-.945.606-6.666zm8.543-4.468l-1.64 6.156-6.903-1.92.935-5.868z"/>
        <path fill="#E2CF00" d="M38.581 13.423l-6.06-1.944 1.852-6.57 6.54 2.117zm-13.195 2.57l.965-6.131 5.904 1.573-.983 5.887zM47.71 9.608l-6.797-2.582L43.154.937l6.885 2.888zm-5.195 11.799l2.37-5.724-6.304-2.26-1.608 5.719zm2.524-5.945l2.879-5.663 5.28 2.679-4.961 4.432zm11.568-8.196l2.095 1.172-4.226 2.997z"/>
        <path fill="#131F67" d="M-.528 35.149c.029.894.456-.622 1.927.164s1.231.836 1.812.975 1.601-.661 2.185-.595.851.775 1.317.734 3.041-1.243 3.852-1.227 1.659 1.071 1.84 1.074 1.09-4.165.655-4.382-1.209.479-1.847.63-1.595.281-2.743-.077-1.561-.673-2.282-.629-2.368.713-3.58.88-3.102-1.724-3.4-1.58c-.729.352.218 2.654.264 4.033zm6.32-5.262c1.234.062 2.349.224 3.664.954s-.64-1.981-3.267-1.917-4.271 1.186-3.928 1.5 1.823-.623 3.531-.537z"/>
        <path fill="#D40000" d="M-59.166 12.237a1.374 1.374 0 1 0-2.748-.002 1.374 1.374 0 0 0 2.748.002z"/>
        <path fill="none" stroke="#131F67" stroke-miterlimit="10" d="M4.733 78.574S1.562 72.322-7.813 64.947M2.438 82.322S.239 74.592-7.849 68.957m4.537 14.615s.672-.906-3.977-6.766m6.851 6.391s-1.248-4.48-7.124-10.24m9.374 10.49s6.125-16.125 25.625-19.125M4.812 83.447s3.875-10.5 19.625-15.375M8.188 83.197s4-8 13.5-11.375m-10.75 11.25s3.5-5 7.75-7m3.562-49.071l1.491-2.843m.833 4.566l1.947-4.069m.051 5.728l2.574-4.562m-.339 6.672l3.17-6.081m-1.081 8.402l3.593-7.52m-1.923 9.788l4.243-8.95m-5.041 21.764s.667 3.125 2.002 5.192m2.041-2.904s-2.081-3.486-2.831-6.944m4.583 4.446s-3.01-7.548-2.708-10.196m4.68 7.591s-3.348-10.672-2.056-14.466m3.185-5.238c-1.899 5.596.84 16.922.84 16.922m2.369-3.6s-1.818-7.266.395-18.403m2.076 14.885s-1.038-15.614 2.085-19.191m.751 15.153s-.161-13.9 2.672-18.109m.304 13.87s1.082-12.799 2.639-16.502m.564 11.941s1.774-12.103 3.242-14.144m1.524 7.78s.811-7.612 3.227-11.112M22.4-66.156s-10.826 14.6-4.332 35.727S32.825-5.964 32.825-5.964"/>
        <path fill="none" stroke="#131F67" stroke-miterlimit="10" d="M38.669-4.605s-12.84-8.694-17.731-26.321c-4.878-17.576 3.085-33.951 3.085-33.951"/>
        <path fill="none" stroke="#131F67" stroke-miterlimit="10" d="M26.881-63.373s-8.92 18.203-2.932 34.375C30.09-12.416 45.897-3.354 45.897-3.354"/>
        <path fill="none" stroke="#131F67" stroke-miterlimit="10" d="M48.063-5.128s-13.266-5.514-20.125-21.217c-8.373-19.169.832-35.265.832-35.265"/>
        <path fill="#131F67" d="M30.189-59.056s-7.085 17.045.33 31.921C38.1-11.929 50.386-7.481 50.386-7.481l1.736-1.886s-12.046-6.648-18.518-19.311c-6.468-12.655-.929-27.836-.929-27.836l-2.486-2.542z"/>
        <path d="M45.547-2.029L52.21.76l26.738-26.998.092-8.771z"/>
        <path fill="#E2CF00" stroke="#000" stroke-miterlimit="10" d="M-31.722 3.569l2.42 2.189S-6.735-7.132 16.1-4.987 59.595 8.071 59.595 8.071l3.223-2.039S42.768-6.842 16.102-7.842-31.722 3.569-31.722 3.569zm18.159 17.194l2.094 2.002S.604 17.619 14.77 18.139s27.047 6.516 27.047 6.516l1.994-2.479s-13.372-6.297-28.707-6.574-28.667 5.161-28.667 5.161z"/>
        <path fill="#E2CF00" stroke="#000" stroke-width=".5" stroke-miterlimit="10" d="M-57.874-2.811s-.389.901 1.939 2.299 9.027 2.222 11.029 3.886c-.35-2.702-1.658-6.029-3.926-7.107s-4.145-1.361-4.145-1.361l-4.897 2.283z"/>
        <path fill="#E2CF00" stroke="#000" stroke-width=".5" stroke-linecap="round" stroke-miterlimit="10" d="M-55.31-3.72s1.625 1.666 5.375 2.708"/>
        <path fill="#E2CF00" stroke="#000" stroke-width=".5" stroke-miterlimit="10" d="M-61.252-2.219s-.809 3.303-5.598 4.415-5.916.292-10.658 2.095c.709-3.5 4.219-5.592 5.728-5.856s10.528-.654 10.528-.654z"/>
        <path fill="#E2CF00" stroke="#000" stroke-width=".5" stroke-linecap="round" stroke-miterlimit="10" d="M-61.252-2.219S-65.726.406-69.351.697"/>
        <path fill="#E2CF00" stroke="#000" stroke-miterlimit="10" d="M-74.625-28.428c-.289-.649-1.211-2.434.285-3.264s4.004.17 4.562 1.556.854 7.021.854 7.021l-3.952.944c0 .001-1.051-4.69-1.749-6.257z"/>
        <path fill="none" stroke="#000" stroke-miterlimit="10" d="M-75.12-29.81s.214 3.226 5.736 1.53"/>
        <path fill="#E2CF00" stroke="#000" stroke-width=".25" stroke-miterlimit="10" d="M-64.105-15.553l.917 3.709s.548 2.721 1.291 2.75 1.748-.301 1.407-1.716c-1.073-4.451-3.615-4.743-3.615-4.743z"/>
        <path fill="none" stroke="#000" stroke-miterlimit="10" d="M34.438 82.807s0-10.734 9.913-13.901c1.587-14 12.348-15.458 12.348-15.458s.873-8.596 7.957-13.601"/>
        <path d="M35.625 82.376s.195-9.569 10.66-13.28C47.062 57.01 58.381 54.69 58.381 54.69s-.631-8.743 7.682-14.181c1.646.146 3.754.354 3.754.354s-4.471 3.081-4.612 6.332c-6.142 1.001-5.57 7.182-5.57 7.182s.487.823.63-.085.382-4.276 4.185-3.394.866 5.215.866 5.215 1.454.201 1.997 1.434-.9 5.068-.9 5.068-3.078 1.25-5.13-1.251c-.136.876-2.078 4.399-5.398 1.22s2.263-5.812 2.263-5.812-4.51-.841-6.213 6.104c-4.662 2.28-4.262 6.994-4.262 6.994s.736.341.725-.381.06-3.957 4.238-3.438 1.693 5.068 1.693 5.068 4.855 1.53 2.108 5.615-6.368-.571-6.368-.571-2.229 3.432-4.817.677c-3.228-3.436 1.667-5.395 1.667-5.395s-4.395-1.379-5.832 7.957c-.866 1.542-2.021 3.379-2.021 3.379l-3.441-.405z"/>
        <path fill="#E2CF00" d="M62.948 57.515a1.729 1.729 0 1 0-3.458 0 1.729 1.729 0 0 0 3.458 0zm-11.03 15.131a1.729 1.729 0 1 0-3.458 0 1.729 1.729 0 0 0 3.458 0zm-64.285-55.151a1.622 1.622 0 1 0-3.245 0 1.622 1.622 0 0 0 3.245 0zm11.953-4.071a1.622 1.622 0 1 0-3.245 0 1.622 1.622 0 0 0 3.245 0zm-7.626-4.89a1.622 1.622 0 1 0-3.245 0 1.622 1.622 0 0 0 3.245 0zm-9.401-4.051a1.622 1.622 0 1 0-3.245 0 1.622 1.622 0 0 0 3.245 0zm14.294-4.4a1.622 1.622 0 1 0-3.245 0 1.622 1.622 0 0 0 3.245 0zm8.058 5.582a1.622 1.622 0 1 0-3.245 0 1.622 1.622 0 0 0 3.245 0zm7.081 6.547a1.622 1.622 0 1 0-3.245 0 1.622 1.622 0 0 0 3.245 0zM11.17-1.731a1.622 1.622 0 1 0-3.245 0 1.622 1.622 0 0 0 3.245 0zm7.286 7.066a1.622 1.622 0 1 0-3.245 0 1.622 1.622 0 0 0 3.245 0zm5.969 7.344a1.622 1.622 0 1 0-3.245 0 1.622 1.622 0 0 0 3.245 0zm7.264-5.019a1.622 1.622 0 1 0-3.245 0 1.622 1.622 0 0 0 3.245 0zM26.177-.578a1.622 1.622 0 1 0-3.245 0 1.622 1.622 0 0 0 3.245 0zm10.221 16.126a1.622 1.622 0 1 0-3.245 0 1.622 1.622 0 0 0 3.245 0zm4.004-13.174a1.622 1.622 0 1 0-3.245 0 1.622 1.622 0 0 0 3.245 0zm4.375 9.313a1.622 1.622 0 1 0-3.245 0 1.622 1.622 0 0 0 3.245 0zm9.556-3.668a1.622 1.622 0 1 0-3.245 0 1.622 1.622 0 0 0 3.245 0zM-55.65-62.27a1.622 1.622 0 1 0-3.245 0 1.622 1.622 0 0 0 3.245 0zM-69.574-51.2a1.622 1.622 0 1 0-3.245 0 1.622 1.622 0 0 0 3.245 0zm13.957 8.557a1.622 1.622 0 1 0-3.245 0 1.622 1.622 0 0 0 3.245 0zm1.585 14.039a1.622 1.622 0 1 0-3.245 0 1.622 1.622 0 0 0 3.245 0z"/>
        <path fill="none" stroke="#131F67" stroke-miterlimit="10" d="M-78.839-41.354L-8.336 26.85c1.901-.829 4.448-1.717 7.57-2.555"/>
    </symbol>
    <use xlink:href="#queen-diamonds" width="159.396" height="167.74" x="-79.698" y="-83.87" transform="matrix(1 0 0 -1 114.495 113.281)" overflow="visible"/>
    <use xlink:href="#queen-diamonds" width="159.396" height="167.74" x="-79.698" y="-83.87" transform="matrix(-1 0 0 1 114.046 204.24)" overflow="visible"/>
    <use xlink:href="#diamonds" width="16.895" height="23.251" x="-8.447" y="-11.626" transform="matrix(1 0 0 -1 21 61)" overflow="visible"/>
    <use xlink:href="#diamonds" width="16.895" height="23.251" x="-8.447" y="-11.626" transform="matrix(1 0 0 -1 209 252)" overflow="visible"/>
    <use xlink:href="#face-frame" width="161.544" height="259.519" x="-80.771" y="-129.759" transform="matrix(1 0 0 -1 113.969 159)" overflow="visible"/>
    <path fill="none" d="M1.945 13.099h33.412v39.516H1.945z"/>
    <text transform="translate(4.612 44.602)" fill="#D40000" font-family="'ArialNarrow'" font-size="44">
        Q
    </text>
    <path fill="none" d="M193.588 262.617H227v39.516h-33.412z"/>
    <text transform="rotate(180 112.167 135.314)" fill="#D40000" font-family="'ArialNarrow'" font-size="44">
        Q
    </text>
    <use xlink:href="#diamonds-medium" width="33.828" height="46.555" x="-16.914" y="-23.279" transform="matrix(1 0 0 -1 64.281 62.424)" overflow="visible"/>
    <use xlink:href="#diamonds-medium" width="33.828" height="46.555" x="-16.914" y="-23.279" transform="translate(168.65 253.678)" overflow="visible"/>
</svg>
