<svg xmlns="http://www.w3.org/2000/svg" xmlns:xlink="http://www.w3.org/1999/xlink" viewBox="0 0 227 315">
    <symbol id="clubs_4_" viewBox="-11.089 -11.846 22.179 23.691">
        <path d="M.076-11.846h-2.951S-.856-7.584-.856-3.989c0 .711-.403.53-.46.004-.217-1.981-1.856-4.288-4.857-4.168-3.653.145-4.915 2.93-4.915 5.221 0 1.702.89 5.168 4.671 5.309 1.202.045 2.285-.327 2.925-.875.473-.405.691-.164.19.405-.35.398-1.975 1.813-1.903 4.629C-5.07 11.844 0 11.846 0 11.846s5.071-.001 5.207-5.309c.072-2.816-1.553-4.231-1.903-4.629-.5-.569-.283-.81.19-.405.64.548 1.723.919 2.925.875 3.78-.141 4.67-3.607 4.67-5.309 0-2.291-1.262-5.076-4.915-5.221-3-.119-4.641 2.188-4.857 4.168-.057.526-.461.707-.461-.005 0-3.595 2.019-7.857 2.019-7.857h-2.95"/>
    </symbol>
    <symbol id="clubs-medium" viewBox="-22.204 -23.719 44.409 47.437">
        <use xlink:href="#clubs_4_" width="22.179" height="23.691" x="-11.089" y="-11.846" transform="scale(2.0023)" overflow="visible"/>
    </symbol>
    <use xlink:href="#clubs_4_" width="22.179" height="23.691" x="-11.089" y="-11.846" transform="matrix(1 0 0 -1 19 61)" overflow="visible"/>
    <use xlink:href="#clubs_4_" width="22.179" height="23.691" x="-11.089" y="-11.846" transform="translate(207 252)" overflow="visible"/>
    <use xlink:href="#clubs-medium" width="44.409" height="47.437" x="-22.204" y="-23.719" transform="matrix(1 0 0 -1 61 46)" overflow="visible"/>
    <use xlink:href="#clubs-medium" width="44.409" height="47.437" x="-22.204" y="-23.719" transform="matrix(1 0 0 -1 166 46)" overflow="visible"/>
    <use xlink:href="#clubs-medium" width="44.409" height="47.437" x="-22.204" y="-23.719" transform="translate(61 268)" overflow="visible"/>
    <use xlink:href="#clubs-medium" width="44.409" height="47.437" x="-22.204" y="-23.719" transform="translate(166 268)" overflow="visible"/>
    <use xlink:href="#clubs-medium" width="44.409" height="47.437" x="-22.204" y="-23.719" transform="matrix(1 0 0 -1 166 157)" overflow="visible"/>
    <use xlink:href="#clubs-medium" width="44.409" height="47.437" x="-22.204" y="-23.719" transform="matrix(1 0 0 -1 61 156)" overflow="visible"/>
    <use xlink:href="#clubs-medium" width="44.409" height="47.437" x="-22.204" y="-23.719" transform="matrix(1 0 0 -1 113 84)" overflow="visible"/>
    <path fill="none" d="M4.348 9.616h33.411v39.516H4.348z"/>
    <text transform="translate(11.02 41.12)" font-family="'ArialNarrow'" font-size="44">
        7
    </text>
    <path fill="none" d="M195.991 259.135h33.41v39.516h-33.41z"/>
    <text transform="rotate(180 111.365 133.574)" font-family="'ArialNarrow'" font-size="44">
        7
    </text>
</svg>
