<svg xmlns="http://www.w3.org/2000/svg" xmlns:xlink="http://www.w3.org/1999/xlink" viewBox="0 0 227 315">
    <symbol id="hearts" viewBox="-10.934 -11.657 21.868 23.314">
        <path fill="#D40000" d="M0-11.657s4.999 6.392 6.686 8.509C9.635.55 10.935 2.963 10.935 6.399c0 3.217-2.825 5.256-5.339 5.259C.787 11.664 0 7.146 0 7.146s-.787 4.518-5.595 4.511c-2.515-.003-5.339-2.042-5.339-5.259 0-3.436 1.299-5.849 4.248-9.547C-4.998-5.266 0-11.657 0-11.657z"/>
    </symbol>
    <symbol id="hearts-medium" viewBox="-21.892 -23.341 43.787 46.682">
        <use xlink:href="#hearts" width="21.868" height="23.314" x="-10.934" y="-11.657" transform="scale(2.0023)" overflow="visible"/>
    </symbol>
    <use xlink:href="#hearts" width="21.868" height="23.314" x="-10.934" y="-11.657" transform="matrix(1 0 0 -1 19.576 61)" overflow="visible"/>
    <use xlink:href="#hearts" width="21.868" height="23.314" x="-10.934" y="-11.657" transform="translate(207.576 252)" overflow="visible"/>
    <use xlink:href="#hearts-medium" width="43.787" height="46.682" x="-21.892" y="-23.341" transform="matrix(1 0 0 -1 61.576 46)" overflow="visible"/>
    <use xlink:href="#hearts-medium" width="43.787" height="46.682" x="-21.892" y="-23.341" transform="matrix(1 0 0 -1 166.576 46)" overflow="visible"/>
    <use xlink:href="#hearts-medium" width="43.787" height="46.682" x="-21.892" y="-23.341" transform="matrix(1 0 0 -1 61.576 121)" overflow="visible"/>
    <use xlink:href="#hearts-medium" width="43.787" height="46.682" x="-21.892" y="-23.341" transform="matrix(1 0 0 -1 166.576 121)" overflow="visible"/>
    <use xlink:href="#hearts-medium" width="43.787" height="46.682" x="-21.892" y="-23.341" transform="translate(61.576 192)" overflow="visible"/>
    <use xlink:href="#hearts-medium" width="43.787" height="46.682" x="-21.892" y="-23.341" transform="translate(166.576 192)" overflow="visible"/>
    <use xlink:href="#hearts-medium" width="43.787" height="46.682" x="-21.892" y="-23.341" transform="translate(61.576 269)" overflow="visible"/>
    <use xlink:href="#hearts-medium" width="43.787" height="46.682" x="-21.892" y="-23.341" transform="translate(166.576 269)" overflow="visible"/>
    <use xlink:href="#hearts-medium" width="43.787" height="46.682" x="-21.892" y="-23.341" transform="matrix(1 0 0 -1 113.576 84)" overflow="visible"/>
    <use xlink:href="#hearts-medium" width="43.787" height="46.682" x="-21.892" y="-23.341" transform="matrix(1 0 0 -1 113.576 230)" overflow="visible"/>
    <path fill="none" d="M-3.758 12.483h44.566v39.516H-3.758z"/>
    <text transform="translate(-1.541 43.986)" fill="#D40000" font-family="'ArialNarrow'" font-size="44">
        10
    </text>
    <path fill="none" d="M186.49 262.002H229v39.516h-42.51z"/>
    <text transform="rotate(180 113.906 135.007)" fill="#D40000" font-family="'ArialNarrow'" font-size="44">
        10
    </text>
</svg>
