<?xml version="1.0" encoding="utf-8"?>
<!-- Generator: Adobe Illustrator 16.0.0, SVG Export Plug-In . SVG Version: 6.00 Build 0)  -->
<!DOCTYPE svg PUBLIC "-//W3C//DTD SVG 1.1//EN" "http://www.w3.org/Graphics/SVG/1.1/DTD/svg11.dtd">
<svg version="1.1" xmlns="http://www.w3.org/2000/svg" xmlns:xlink="http://www.w3.org/1999/xlink" x="0px" y="0px" width="227px"
	 height="315px" viewBox="0 0 227 315" enable-background="new 0 0 227 315" xml:space="preserve">
<symbol  id="clubs" viewBox="-11.089 -11.846 22.179 23.691">
	<path d="M0.076-11.846h-2.951c0,0,2.019,4.262,2.019,7.857c0,0.711-0.403,0.53-0.46,0.004c-0.217-1.981-1.856-4.288-4.857-4.168
		c-3.653,0.145-4.915,2.93-4.915,5.221c0,1.702,0.89,5.168,4.671,5.309c1.202,0.045,2.285-0.327,2.925-0.875
		c0.473-0.405,0.691-0.164,0.19,0.405c-0.35,0.398-1.975,1.813-1.903,4.629C-5.07,11.844,0,11.846,0,11.846s5.071-0.001,5.207-5.309
		c0.072-2.816-1.553-4.231-1.903-4.629c-0.5-0.569-0.283-0.81,0.19-0.405c0.64,0.548,1.723,0.919,2.925,0.875
		c3.78-0.141,4.67-3.607,4.67-5.309c0-2.291-1.262-5.076-4.915-5.221c-3-0.119-4.641,2.188-4.857,4.168
		C1.26-3.458,0.856-3.277,0.856-3.989c0-3.595,2.019-7.857,2.019-7.857h-2.95"/>
</symbol>
<symbol  id="diamonds" viewBox="-8.447 -11.626 16.895 23.251">
	<path fill="#ED1C24" d="M0,11.625C0,11.625,4.224,4.05,8.447,0C4.224-4.454,0-11.626,0-11.626S-4.224-4.454-8.447,0
		C-4.224,4.05,0,11.625,0,11.625z"/>
</symbol>
<symbol  id="hearts" viewBox="-10.934 -11.657 21.869 23.314">
	<path fill="#ED1C24" d="M0-11.657c0,0,4.999,6.392,6.686,8.508c2.949,3.699,4.249,6.112,4.249,9.548
		c0,3.217-2.825,5.255-5.339,5.258C0.788,11.664,0,7.146,0,7.146s-0.787,4.518-5.595,4.511c-2.514-0.003-5.339-2.042-5.339-5.258
		c0-3.436,1.299-5.849,4.249-9.548C-4.999-5.265,0-11.657,0-11.657z"/>
</symbol>
<symbol  id="spades" viewBox="-9.479 -11.83 18.957 23.661">
	<path d="M0.007,11.831c0,0,9.446-11.175,9.471-15.683c0.013-2.172-1.3-4.664-4.338-4.595c-3.228,0.073-3.662,2.252-3.661,3.5
		c0,0.948-0.547,0.546-0.56,0.383C0.756-6.593,2.982-11.83,2.982-11.83H0h-2.982c0,0,2.226,5.237,2.064,7.266
		C-0.932-4.401-1.48-3.999-1.479-4.947c0-1.248-0.434-3.427-3.661-3.5c-3.039-0.069-4.351,2.423-4.339,4.595
		c0.025,4.507,9.471,15.683,9.471,15.683"/>
</symbol>
<symbol  id="spades-medium" viewBox="-18.978 -23.688 37.957 47.376">
	
		<use xlink:href="#spades"  width="18.957" height="23.661" x="-9.479" y="-11.83" transform="matrix(2.0023 0 0 2.0023 4.882812e-04 -4.882812e-04)" overflow="visible"/>
</symbol>
<g id="Layer_2">
</g>
<g id="Layer_1">
	
		<use xlink:href="#spades"  width="18.957" height="23.661" x="-9.479" y="-11.83" transform="matrix(1 0 0 -1 20 61)" overflow="visible"/>
	
		<use xlink:href="#spades"  width="18.957" height="23.661" x="-9.479" y="-11.83" transform="matrix(1 0 0 1 208 252)" overflow="visible"/>
	
		<use xlink:href="#spades-medium"  width="37.957" height="47.376" x="-18.978" y="-23.688" transform="matrix(1 0 0 -1 114 46)" overflow="visible"/>
	
		<use xlink:href="#spades-medium"  width="37.957" height="47.376" x="-18.978" y="-23.688" transform="matrix(1 0 0 1 114 266)" overflow="visible"/>
</g>
</svg>
